<?xml version="1.0" encoding="utf-8" standalone="no"?>
<!DOCTYPE svg PUBLIC "-//W3C//DTD SVG 1.1//EN"
  "http://www.w3.org/Graphics/SVG/1.1/DTD/svg11.dtd">
<!-- Created with matplotlib (https://matplotlib.org/) -->
<svg height="617.175pt" version="1.1" viewBox="0 0 2834.9 617.175" width="2834.9pt" xmlns="http://www.w3.org/2000/svg" xmlns:xlink="http://www.w3.org/1999/xlink">
 <defs>
  <style type="text/css">
*{stroke-linecap:butt;stroke-linejoin:round;}
  </style>
 </defs>
 <g id="figure_1">
  <g id="patch_1">
   <path d="M 0 617.175 
L 2834.9 617.175 
L 2834.9 -0 
L 0 -0 
z
" style="fill:#ffffff;"/>
  </g>
  <g id="axes_1">
   <g id="patch_2">
    <path d="M 34.2 586.725 
L 2824.2 586.725 
L 2824.2 32.325 
L 34.2 32.325 
z
" style="fill:#ffffff;"/>
   </g>
   <g id="matplotlib.axis_1">
    <g id="xtick_1">
     <g id="line2d_1">
      <defs>
       <path d="M 0 0 
L 0 3.5 
" id="mb07d1ecfb8" style="stroke:#000000;stroke-width:0.8;"/>
      </defs>
      <g>
       <use style="stroke:#000000;stroke-width:0.8;" x="161.018182" xlink:href="#mb07d1ecfb8" y="586.725"/>
      </g>
     </g>
     <g id="text_1">
      <!-- 0 -->
      <defs>
       <path d="M 3.125 29.296875 
Q 3.90625 50 6.4375 56.046875 
Q 8.984375 62.109375 13.671875 66.015625 
Q 18.359375 69.921875 25.1875 69.921875 
Q 32.03125 69.921875 37.109375 64.25 
Q 42.1875 58.59375 43.75 50 
Q 45.3125 41.40625 44.71875 30.265625 
Q 44.140625 19.140625 40.8125 12.109375 
Q 37.5 5.078125 30.859375 2.34375 
Q 24.21875 -0.390625 17.578125 2.921875 
Q 10.9375 6.25 8.203125 11.71875 
Q 5.46875 17.1875 4.296875 23.234375 
Q 3.125 29.296875 3.90625 50 
z
M 12.890625 52.734375 
Q 10.546875 31.25 12.5 22.84375 
Q 14.453125 14.453125 18.9375 10.9375 
Q 23.4375 7.421875 28.125 9.5625 
Q 32.8125 11.71875 34.953125 18.15625 
Q 37.109375 24.609375 37.109375 32.21875 
Q 37.109375 39.84375 36.515625 46.09375 
Q 35.9375 52.34375 33 57.421875 
Q 30.078125 62.5 25.1875 62.6875 
Q 20.3125 62.890625 16.59375 57.8125 
Q 12.890625 52.734375 10.546875 31.25 
z
" id="SimHei-48"/>
      </defs>
      <g transform="translate(156.018182 607.475)scale(0.2 -0.2)">
       <use xlink:href="#SimHei-48"/>
      </g>
     </g>
    </g>
    <g id="xtick_2">
     <g id="line2d_2">
      <g>
       <use style="stroke:#000000;stroke-width:0.8;" x="657.371144" xlink:href="#mb07d1ecfb8" y="586.725"/>
      </g>
     </g>
     <g id="text_2">
      <!-- 100 -->
      <defs>
       <path d="M 21.875 56.25 
Q 16.796875 51.171875 8.984375 46.484375 
L 8.984375 53.90625 
Q 18.75 60.546875 25 69.53125 
L 29.6875 69.53125 
L 29.6875 2.34375 
L 21.875 2.34375 
z
" id="SimHei-49"/>
      </defs>
      <g transform="translate(642.371144 607.475)scale(0.2 -0.2)">
       <use xlink:href="#SimHei-49"/>
       <use x="50" xlink:href="#SimHei-48"/>
       <use x="100" xlink:href="#SimHei-48"/>
      </g>
     </g>
    </g>
    <g id="xtick_3">
     <g id="line2d_3">
      <g>
       <use style="stroke:#000000;stroke-width:0.8;" x="1153.724106" xlink:href="#mb07d1ecfb8" y="586.725"/>
      </g>
     </g>
     <g id="text_3">
      <!-- 200 -->
      <defs>
       <path d="M 4.6875 3.90625 
Q 5.078125 9.765625 10.15625 14.453125 
Q 15.234375 19.140625 23.046875 29.09375 
Q 30.859375 39.0625 33.203125 44.53125 
Q 35.546875 50 34.953125 53.90625 
Q 34.375 57.8125 31.25 60.34375 
Q 28.125 62.890625 24.015625 62.5 
Q 19.921875 62.109375 16.203125 59.375 
Q 12.5 56.640625 10.546875 51.171875 
L 3.125 52.34375 
Q 6.25 61.328125 11.125 65.421875 
Q 16.015625 69.53125 22.65625 69.921875 
Q 26.5625 70.3125 29.6875 69.71875 
Q 32.8125 69.140625 36.125 66.984375 
Q 39.453125 64.84375 41.59375 60.546875 
Q 43.75 56.25 43.15625 50.1875 
Q 42.578125 44.140625 37.109375 35.734375 
Q 31.640625 27.34375 16.015625 9.375 
L 44.140625 9.375 
L 44.140625 2.34375 
L 4.6875 2.34375 
z
" id="SimHei-50"/>
      </defs>
      <g transform="translate(1138.724106 607.475)scale(0.2 -0.2)">
       <use xlink:href="#SimHei-50"/>
       <use x="50" xlink:href="#SimHei-48"/>
       <use x="100" xlink:href="#SimHei-48"/>
      </g>
     </g>
    </g>
    <g id="xtick_4">
     <g id="line2d_4">
      <g>
       <use style="stroke:#000000;stroke-width:0.8;" x="1650.077068" xlink:href="#mb07d1ecfb8" y="586.725"/>
      </g>
     </g>
     <g id="text_4">
      <!-- 300 -->
      <defs>
       <path d="M 3.90625 19.140625 
L 10.9375 20.3125 
Q 12.5 15.234375 16.015625 11.90625 
Q 19.53125 8.59375 24.796875 8.78125 
Q 30.078125 8.984375 33.203125 13.078125 
Q 36.328125 17.1875 35.9375 22.453125 
Q 35.546875 27.734375 31.828125 30.65625 
Q 28.125 33.59375 19.921875 34.765625 
L 19.921875 39.84375 
Q 28.125 40.625 31.828125 44.140625 
Q 35.546875 47.65625 35.15625 53.3125 
Q 34.765625 58.984375 30.078125 61.515625 
Q 25.390625 64.0625 20.109375 62.109375 
Q 14.84375 60.15625 11.71875 51.171875 
L 4.6875 52.34375 
Q 7.03125 59.375 11.125 64.0625 
Q 15.234375 68.75 22.265625 69.53125 
Q 29.296875 70.3125 34.5625 67.765625 
Q 39.84375 65.234375 41.984375 59.953125 
Q 44.140625 54.6875 42.578125 48.4375 
Q 41.015625 42.1875 33.59375 37.5 
Q 39.0625 35.15625 41.984375 30.46875 
Q 44.921875 25.78125 43.9375 18.15625 
Q 42.96875 10.546875 37.109375 5.859375 
Q 31.25 1.171875 23.828125 1.359375 
Q 16.40625 1.5625 10.9375 6.046875 
Q 5.46875 10.546875 3.90625 19.140625 
z
" id="SimHei-51"/>
      </defs>
      <g transform="translate(1635.077068 607.475)scale(0.2 -0.2)">
       <use xlink:href="#SimHei-51"/>
       <use x="50" xlink:href="#SimHei-48"/>
       <use x="100" xlink:href="#SimHei-48"/>
      </g>
     </g>
    </g>
    <g id="xtick_5">
     <g id="line2d_5">
      <g>
       <use style="stroke:#000000;stroke-width:0.8;" x="2146.43003" xlink:href="#mb07d1ecfb8" y="586.725"/>
      </g>
     </g>
     <g id="text_5">
      <!-- 400 -->
      <defs>
       <path d="M 31.25 17.1875 
L 1.171875 17.1875 
L 1.171875 23.828125 
L 32.8125 69.53125 
L 38.671875 69.53125 
L 38.671875 23.828125 
L 48.046875 23.828125 
L 48.046875 17.1875 
L 38.671875 17.1875 
L 38.671875 2.34375 
L 31.25 2.34375 
z
M 31.25 23.828125 
L 31.25 54.6875 
L 9.375 23.828125 
z
" id="SimHei-52"/>
      </defs>
      <g transform="translate(2131.43003 607.475)scale(0.2 -0.2)">
       <use xlink:href="#SimHei-52"/>
       <use x="50" xlink:href="#SimHei-48"/>
       <use x="100" xlink:href="#SimHei-48"/>
      </g>
     </g>
    </g>
    <g id="xtick_6">
     <g id="line2d_6">
      <g>
       <use style="stroke:#000000;stroke-width:0.8;" x="2642.782992" xlink:href="#mb07d1ecfb8" y="586.725"/>
      </g>
     </g>
     <g id="text_6">
      <!-- 500 -->
      <defs>
       <path d="M 8.59375 20.703125 
Q 11.328125 10.15625 17.96875 8.984375 
Q 24.609375 7.8125 28.703125 10.34375 
Q 32.8125 12.890625 34.5625 16.984375 
Q 36.328125 21.09375 36.125 26.171875 
Q 35.9375 31.25 33.390625 34.765625 
Q 30.859375 38.28125 26.953125 39.453125 
Q 23.046875 40.625 18.15625 39.453125 
Q 13.28125 38.28125 10.15625 33.984375 
L 3.515625 34.765625 
Q 4.296875 37.109375 10.9375 68.359375 
L 41.796875 68.359375 
L 41.796875 61.328125 
L 16.796875 61.328125 
Q 14.84375 50.78125 12.890625 44.53125 
Q 18.75 47.265625 23.828125 47.0625 
Q 28.90625 46.875 33.59375 44.71875 
Q 38.28125 42.578125 40.421875 38.859375 
Q 42.578125 35.15625 43.546875 31.4375 
Q 44.53125 27.734375 44.328125 23.4375 
Q 44.140625 19.140625 42.578125 14.640625 
Q 41.015625 10.15625 37.890625 7.21875 
Q 34.765625 4.296875 30.265625 2.53125 
Q 25.78125 0.78125 19.921875 1.171875 
Q 14.0625 1.5625 8.78125 5.46875 
Q 3.515625 9.375 1.5625 18.75 
z
" id="SimHei-53"/>
      </defs>
      <g transform="translate(2627.782992 607.475)scale(0.2 -0.2)">
       <use xlink:href="#SimHei-53"/>
       <use x="50" xlink:href="#SimHei-48"/>
       <use x="100" xlink:href="#SimHei-48"/>
      </g>
     </g>
    </g>
   </g>
   <g id="matplotlib.axis_2">
    <g id="ytick_1">
     <g id="line2d_7">
      <defs>
       <path d="M 0 0 
L -3.5 0 
" id="m50be06072e" style="stroke:#000000;stroke-width:0.8;"/>
      </defs>
      <g>
       <use style="stroke:#000000;stroke-width:0.8;" x="34.2" xlink:href="#m50be06072e" y="511.942907"/>
      </g>
     </g>
     <g id="text_7">
      <!-- -2 -->
      <defs>
       <path d="M 46.484375 33.203125 
L 1.953125 33.203125 
L 1.953125 39.453125 
L 46.484375 39.453125 
z
" id="SimHei-45"/>
      </defs>
      <g transform="translate(7.2 518.817907)scale(0.2 -0.2)">
       <use xlink:href="#SimHei-45"/>
       <use x="50" xlink:href="#SimHei-50"/>
      </g>
     </g>
    </g>
    <g id="ytick_2">
     <g id="line2d_8">
      <g>
       <use style="stroke:#000000;stroke-width:0.8;" x="34.2" xlink:href="#m50be06072e" y="410.733954"/>
      </g>
     </g>
     <g id="text_8">
      <!-- -1 -->
      <g transform="translate(7.2 417.608954)scale(0.2 -0.2)">
       <use xlink:href="#SimHei-45"/>
       <use x="50" xlink:href="#SimHei-49"/>
      </g>
     </g>
    </g>
    <g id="ytick_3">
     <g id="line2d_9">
      <g>
       <use style="stroke:#000000;stroke-width:0.8;" x="34.2" xlink:href="#m50be06072e" y="309.525"/>
      </g>
     </g>
     <g id="text_9">
      <!-- 0 -->
      <g transform="translate(17.2 316.4)scale(0.2 -0.2)">
       <use xlink:href="#SimHei-48"/>
      </g>
     </g>
    </g>
    <g id="ytick_4">
     <g id="line2d_10">
      <g>
       <use style="stroke:#000000;stroke-width:0.8;" x="34.2" xlink:href="#m50be06072e" y="208.316046"/>
      </g>
     </g>
     <g id="text_10">
      <!-- 1 -->
      <g transform="translate(17.2 215.191046)scale(0.2 -0.2)">
       <use xlink:href="#SimHei-49"/>
      </g>
     </g>
    </g>
    <g id="ytick_5">
     <g id="line2d_11">
      <g>
       <use style="stroke:#000000;stroke-width:0.8;" x="34.2" xlink:href="#m50be06072e" y="107.107093"/>
      </g>
     </g>
     <g id="text_11">
      <!-- 2 -->
      <g transform="translate(17.2 113.982093)scale(0.2 -0.2)">
       <use xlink:href="#SimHei-50"/>
      </g>
     </g>
    </g>
   </g>
   <g id="line2d_12">
    <path clip-path="url(#p4a02b82f72)" d="M 161.018182 309.525 
L 165.981711 57.525 
L 170.945241 405.780435 
L 175.908771 332.247826 
L 180.8723 369.01413 
L 190.79936 250.03587 
L 195.762889 286.802174 
L 200.726419 213.269565 
L 205.689948 561.525 
L 215.617008 57.525 
L 220.580537 405.780435 
L 225.544067 332.247826 
L 230.507597 369.01413 
L 240.434656 250.03587 
L 245.398185 286.802174 
L 250.361715 213.269565 
L 255.325245 561.525 
L 265.252304 57.525 
L 270.215833 405.780435 
L 275.179363 332.247826 
L 280.142893 369.01413 
L 290.069952 250.03587 
L 295.033482 286.802174 
L 299.997011 213.269565 
L 304.960541 561.525 
L 314.8876 57.525 
L 319.85113 405.780435 
L 324.814659 332.247826 
L 329.778189 369.01413 
L 339.705248 250.03587 
L 344.668778 286.802174 
L 349.632307 213.269565 
L 354.595837 561.525 
L 364.522896 57.525 
L 369.486426 405.780435 
L 374.449956 332.247826 
L 379.413485 369.01413 
L 389.340544 250.03587 
L 394.304074 286.802174 
L 399.267604 213.269565 
L 404.231133 561.525 
L 414.158192 57.525 
L 419.121722 405.780435 
L 424.085252 332.247826 
L 429.048781 369.01413 
L 438.975841 250.03587 
L 443.93937 286.802174 
L 448.9029 213.269565 
L 453.866429 561.525 
L 463.793489 57.525 
L 468.757018 405.780435 
L 473.720548 332.247826 
L 478.684078 369.01413 
L 488.611137 250.03587 
L 493.574666 286.802174 
L 498.538196 213.269565 
L 503.501726 561.525 
L 513.428785 57.525 
L 518.392315 405.780435 
L 523.355844 332.247826 
L 528.319374 369.01413 
L 538.246433 250.03587 
L 543.209963 286.802174 
L 548.173492 213.269565 
L 553.137022 561.525 
L 563.064081 57.525 
L 568.027611 405.780435 
L 572.99114 332.247826 
L 577.95467 369.01413 
L 587.881729 250.03587 
L 592.845259 286.802174 
L 597.808788 213.269565 
L 602.772318 561.525 
L 612.699377 57.525 
L 617.662907 405.780435 
L 622.626437 332.247826 
L 627.589966 369.01413 
L 637.517025 250.03587 
L 642.480555 286.802174 
L 647.444085 213.269565 
L 652.407614 561.525 
L 662.334674 57.525 
L 667.298203 405.780435 
L 672.261733 332.247826 
L 677.225262 369.01413 
L 687.152322 250.03587 
L 692.115851 286.802174 
L 697.079381 213.269565 
L 702.042911 561.525 
L 711.96997 57.525 
L 716.933499 405.780435 
L 721.897029 332.247826 
L 726.860559 369.01413 
L 736.787618 250.03587 
L 741.751147 286.802174 
L 746.714677 213.269565 
L 751.678207 561.525 
L 761.605266 57.525 
L 766.568796 405.780435 
L 771.532325 332.247826 
L 776.495855 369.01413 
L 786.422914 250.03587 
L 791.386444 286.802174 
L 796.349973 213.269565 
L 801.313503 561.525 
L 811.240562 57.525 
L 816.204092 405.780435 
L 821.167621 332.247826 
L 826.131151 369.01413 
L 836.05821 250.03587 
L 841.02174 286.802174 
L 845.98527 213.269565 
L 850.948799 561.525 
L 860.875858 57.525 
L 865.839388 405.780435 
L 870.802918 332.247826 
L 875.766447 369.01413 
L 885.693506 250.03587 
L 890.657036 286.802174 
L 895.620566 213.269565 
L 900.584095 561.525 
L 910.511155 57.525 
L 915.474684 405.780435 
L 920.438214 332.247826 
L 925.401743 369.01413 
L 935.328803 250.03587 
L 940.292332 286.802174 
L 945.255862 213.269565 
L 950.219392 561.525 
L 960.146451 57.525 
L 965.10998 405.780435 
L 970.07351 332.247826 
L 975.03704 369.01413 
L 984.964099 250.03587 
L 989.927629 286.802174 
L 994.891158 213.269565 
L 999.854688 561.525 
L 1009.781747 57.525 
L 1014.745277 405.780435 
L 1019.708806 332.247826 
L 1024.672336 369.01413 
L 1034.599395 250.03587 
L 1039.562925 286.802174 
L 1044.526454 213.269565 
L 1049.489984 561.525 
L 1059.417043 57.525 
L 1064.380573 405.780435 
L 1069.344102 332.247826 
L 1074.307632 369.01413 
L 1084.234691 250.03587 
L 1089.198221 286.802174 
L 1094.161751 213.269565 
L 1099.12528 561.525 
L 1109.052339 57.525 
L 1114.015869 405.780435 
L 1118.979399 332.247826 
L 1123.942928 369.01413 
L 1133.869988 250.03587 
L 1138.833517 286.802174 
L 1143.797047 213.269565 
L 1148.760576 561.525 
L 1158.687636 57.525 
L 1163.651165 405.780435 
L 1168.614695 332.247826 
L 1173.578225 369.01413 
L 1183.505284 250.03587 
L 1188.468813 286.802174 
L 1193.432343 213.269565 
L 1198.395873 561.525 
L 1208.322932 57.525 
L 1213.286461 405.780435 
L 1218.249991 332.247826 
L 1223.213521 369.01413 
L 1233.14058 250.03587 
L 1238.10411 286.802174 
L 1243.067639 213.269565 
L 1248.031169 561.525 
L 1257.958228 57.525 
L 1262.921758 405.780435 
L 1267.885287 332.247826 
L 1272.848817 369.01413 
L 1282.775876 250.03587 
L 1287.739406 286.802174 
L 1292.702935 213.269565 
L 1297.666465 561.525 
L 1307.593524 57.525 
L 1312.557054 405.780435 
L 1317.520584 332.247826 
L 1322.484113 369.01413 
L 1332.411172 250.03587 
L 1337.374702 286.802174 
L 1342.338232 213.269565 
L 1347.301761 561.525 
L 1357.22882 57.525 
L 1362.19235 405.780435 
L 1367.15588 332.247826 
L 1372.119409 369.01413 
L 1382.046469 250.03587 
L 1387.009998 286.802174 
L 1391.973528 213.269565 
L 1396.937057 561.525 
L 1406.864117 57.525 
L 1411.827646 405.780435 
L 1416.791176 332.247826 
L 1421.754706 369.01413 
L 1431.681765 250.03587 
L 1436.645294 286.802174 
L 1441.608824 213.269565 
L 1446.572354 561.525 
L 1456.499413 57.525 
L 1461.462943 405.780435 
L 1466.426472 332.247826 
L 1471.390002 369.01413 
L 1481.317061 250.03587 
L 1486.280591 286.802174 
L 1491.24412 213.269565 
L 1496.20765 561.525 
L 1506.134709 57.525 
L 1511.098239 405.780435 
L 1516.061768 332.247826 
L 1521.025298 369.01413 
L 1530.952357 250.03587 
L 1535.915887 286.802174 
L 1540.879416 213.269565 
L 1545.842946 561.525 
L 1555.770005 57.525 
L 1560.733535 405.780435 
L 1565.697065 332.247826 
L 1570.660594 369.01413 
L 1580.587653 250.03587 
L 1585.551183 286.802174 
L 1590.514713 213.269565 
L 1595.478242 561.525 
L 1605.405302 57.525 
L 1610.368831 405.780435 
L 1615.332361 332.247826 
L 1620.29589 369.01413 
L 1630.22295 250.03587 
L 1635.186479 286.802174 
L 1640.150009 213.269565 
L 1645.113539 561.525 
L 1655.040598 57.525 
L 1660.004127 405.780435 
L 1664.967657 332.247826 
L 1669.931187 369.01413 
L 1679.858246 250.03587 
L 1684.821775 286.802174 
L 1689.785305 213.269565 
L 1694.748835 561.525 
L 1704.675894 57.525 
L 1709.639424 405.780435 
L 1714.602953 332.247826 
L 1719.566483 369.01413 
L 1729.493542 250.03587 
L 1734.457072 286.802174 
L 1739.420601 213.269565 
L 1744.384131 561.525 
L 1754.31119 57.525 
L 1759.27472 405.780435 
L 1764.238249 332.247826 
L 1769.201779 369.01413 
L 1779.128838 250.03587 
L 1784.092368 286.802174 
L 1789.055898 213.269565 
L 1794.019427 561.525 
L 1803.946486 57.525 
L 1808.910016 405.780435 
L 1813.873546 332.247826 
L 1818.837075 369.01413 
L 1828.764134 250.03587 
L 1833.727664 286.802174 
L 1838.691194 213.269565 
L 1843.654723 561.525 
L 1853.581783 57.525 
L 1858.545312 405.780435 
L 1863.508842 332.247826 
L 1868.472371 369.01413 
L 1878.399431 250.03587 
L 1883.36296 286.802174 
L 1888.32649 213.269565 
L 1893.29002 561.525 
L 1903.217079 57.525 
L 1908.180608 405.780435 
L 1913.144138 332.247826 
L 1918.107668 369.01413 
L 1928.034727 250.03587 
L 1932.998257 286.802174 
L 1937.961786 213.269565 
L 1942.925316 561.525 
L 1952.852375 57.525 
L 1957.815905 405.780435 
L 1962.779434 332.247826 
L 1967.742964 369.01413 
L 1977.670023 250.03587 
L 1982.633553 286.802174 
L 1987.597082 213.269565 
L 1992.560612 561.525 
L 2002.487671 57.525 
L 2007.451201 405.780435 
L 2012.41473 332.247826 
L 2017.37826 369.01413 
L 2027.305319 250.03587 
L 2032.268849 286.802174 
L 2037.232379 213.269565 
L 2042.195908 561.525 
L 2052.122967 57.525 
L 2057.086497 405.780435 
L 2062.050027 332.247826 
L 2067.013556 369.01413 
L 2076.940616 250.03587 
L 2081.904145 286.802174 
L 2086.867675 213.269565 
L 2091.831204 561.525 
L 2101.758264 57.525 
L 2106.721793 405.780435 
L 2111.685323 332.247826 
L 2116.648853 369.01413 
L 2126.575912 250.03587 
L 2131.539441 286.802174 
L 2136.502971 213.269565 
L 2141.466501 561.525 
L 2151.39356 57.525 
L 2156.357089 405.780435 
L 2161.320619 332.247826 
L 2166.284149 369.01413 
L 2176.211208 250.03587 
L 2181.174738 286.802174 
L 2186.138267 213.269565 
L 2191.101797 561.525 
L 2201.028856 57.525 
L 2205.992386 405.780435 
L 2210.955915 332.247826 
L 2215.919445 369.01413 
L 2225.846504 250.03587 
L 2230.810034 286.802174 
L 2235.773563 213.269565 
L 2240.737093 561.525 
L 2250.664152 57.525 
L 2255.627682 405.780435 
L 2260.591212 332.247826 
L 2265.554741 369.01413 
L 2275.4818 250.03587 
L 2280.44533 286.802174 
L 2285.40886 213.269565 
L 2290.372389 561.525 
L 2300.299448 57.525 
L 2305.262978 405.780435 
L 2310.226508 332.247826 
L 2315.190037 369.01413 
L 2325.117097 250.03587 
L 2330.080626 286.802174 
L 2335.044156 213.269565 
L 2340.007685 561.525 
L 2349.934745 57.525 
L 2354.898274 405.780435 
L 2359.861804 332.247826 
L 2364.825334 369.01413 
L 2374.752393 250.03587 
L 2379.715922 286.802174 
L 2384.679452 213.269565 
L 2389.642982 561.525 
L 2399.570041 57.525 
L 2404.533571 405.780435 
L 2409.4971 332.247826 
L 2414.46063 369.01413 
L 2424.387689 250.03587 
L 2429.351219 286.802174 
L 2434.314748 213.269565 
L 2439.278278 561.525 
L 2449.205337 57.525 
L 2454.168867 405.780435 
L 2459.132396 332.247826 
L 2464.095926 369.01413 
L 2474.022985 250.03587 
L 2478.986515 286.802174 
L 2483.950044 213.269565 
L 2488.913574 561.525 
L 2498.840633 57.525 
L 2503.804163 405.780435 
L 2508.767693 332.247826 
L 2513.731222 369.01413 
L 2523.658281 250.03587 
L 2528.621811 286.802174 
L 2533.585341 213.269565 
L 2538.54887 561.525 
L 2548.47593 57.525 
L 2553.439459 405.780435 
L 2558.402989 332.247826 
L 2563.366518 369.01413 
L 2573.293578 250.03587 
L 2578.257107 286.802174 
L 2583.220637 213.269565 
L 2588.184167 561.525 
L 2598.111226 57.525 
L 2603.074755 405.780435 
L 2608.038285 332.247826 
L 2613.001815 369.01413 
L 2622.928874 250.03587 
L 2627.892403 286.802174 
L 2632.855933 213.269565 
L 2637.819463 561.525 
L 2647.746522 57.525 
L 2652.710052 405.780435 
L 2657.673581 332.247826 
L 2662.637111 369.01413 
L 2672.56417 250.03587 
L 2677.5277 286.802174 
L 2682.491229 213.269565 
L 2687.454759 561.525 
L 2697.381818 57.525 
L 2697.381818 57.525 
" style="fill:none;stroke:#1f77b4;stroke-linecap:square;stroke-width:1.5;"/>
   </g>
   <g id="patch_3">
    <path d="M 34.2 586.725 
L 34.2 32.325 
" style="fill:none;stroke:#000000;stroke-linecap:square;stroke-linejoin:miter;stroke-width:0.8;"/>
   </g>
   <g id="patch_4">
    <path d="M 2824.2 586.725 
L 2824.2 32.325 
" style="fill:none;stroke:#000000;stroke-linecap:square;stroke-linejoin:miter;stroke-width:0.8;"/>
   </g>
   <g id="patch_5">
    <path d="M 34.2 586.725 
L 2824.2 586.725 
" style="fill:none;stroke:#000000;stroke-linecap:square;stroke-linejoin:miter;stroke-width:0.8;"/>
   </g>
   <g id="patch_6">
    <path d="M 34.2 32.325 
L 2824.2 32.325 
" style="fill:none;stroke:#000000;stroke-linecap:square;stroke-linejoin:miter;stroke-width:0.8;"/>
   </g>
   <g id="text_12">
    <!-- 512 个样本信号 -->
    <defs>
     <path id="SimHei-32"/>
     <path d="M 53.515625 75.390625 
Q 69.921875 51.171875 96.09375 43.359375 
Q 92.1875 38.671875 90.234375 34.375 
Q 64.84375 45.3125 49.21875 69.140625 
Q 34.765625 46.09375 10.546875 33.203125 
Q 8.59375 36.71875 3.90625 40.625 
Q 22.65625 48.4375 33 60.546875 
Q 43.359375 72.65625 46.875 82.421875 
Q 51.5625 80.46875 56.25 78.90625 
Q 54.6875 76.953125 53.515625 75.390625 
z
M 45.703125 36.71875 
Q 45.703125 42.96875 44.921875 52.734375 
L 53.90625 52.734375 
Q 53.515625 46.09375 53.515625 36.328125 
L 53.515625 8.59375 
Q 53.515625 -0.390625 53.90625 -9.765625 
L 45.3125 -9.765625 
Q 45.703125 0 45.703125 8.203125 
z
" id="SimHei-20010"/>
     <path d="M 67.96875 62.890625 
Q 71.875 71.484375 75.78125 81.640625 
Q 82.03125 79.296875 83.984375 78.125 
Q 80.46875 73.828125 75.78125 62.890625 
L 77.34375 62.890625 
Q 88.28125 63.28125 92.96875 63.28125 
L 92.96875 56.25 
Q 88.671875 56.640625 80.859375 56.640625 
L 71.09375 56.640625 
L 71.09375 41.40625 
L 77.34375 41.40625 
Q 86.328125 41.796875 90.625 41.796875 
L 90.625 34.765625 
Q 85.546875 35.15625 78.515625 35.15625 
L 71.09375 35.15625 
L 71.09375 19.140625 
L 83.203125 19.140625 
Q 90.625 19.53125 95.3125 19.53125 
L 95.3125 12.5 
Q 91.015625 12.890625 83.203125 12.890625 
L 71.09375 12.890625 
L 71.09375 4.296875 
Q 71.09375 -3.90625 71.484375 -9.375 
L 63.671875 -9.375 
L 63.671875 12.890625 
L 54.296875 12.890625 
Q 46.875 12.890625 39.84375 12.5 
L 39.84375 19.921875 
Q 46.875 19.53125 54.6875 19.140625 
L 63.671875 19.140625 
L 63.671875 35.15625 
L 57.03125 35.15625 
Q 50.390625 35.15625 45.3125 34.765625 
L 45.3125 42.1875 
Q 50 41.796875 57.421875 41.40625 
L 63.671875 41.40625 
L 63.671875 56.640625 
L 54.296875 56.640625 
Q 47.65625 56.640625 42.96875 56.25 
L 42.96875 63.671875 
Q 47.65625 63.28125 54.296875 62.890625 
z
M 20.703125 67.96875 
Q 20.703125 74.609375 20.3125 80.078125 
L 28.515625 80.078125 
Q 28.125 73.828125 28.125 67.96875 
L 28.125 58.59375 
Q 33.203125 58.59375 38.671875 58.984375 
L 38.671875 51.953125 
Q 33.203125 52.34375 28.125 52.34375 
L 28.125 37.890625 
Q 31.25 40.625 32.8125 41.796875 
Q 37.109375 36.328125 42.578125 27.734375 
Q 40.234375 26.5625 35.9375 23.046875 
Q 31.640625 30.859375 28.125 36.71875 
L 28.125 7.421875 
Q 28.125 -0.78125 28.515625 -8.984375 
L 20.3125 -8.984375 
Q 20.703125 -0.390625 20.703125 7.421875 
L 20.703125 35.15625 
Q 14.453125 20.3125 8.203125 11.328125 
Q 6.640625 14.84375 3.515625 18.359375 
Q 14.84375 33.59375 19.140625 52.34375 
Q 12.890625 52.34375 5.46875 51.953125 
L 5.46875 58.984375 
Q 12.890625 58.59375 20.703125 58.59375 
z
M 55.859375 81.25 
Q 59.375 74.609375 61.71875 67.96875 
Q 57.03125 66.40625 55.078125 65.234375 
Q 52.34375 71.875 49.21875 78.125 
Q 53.515625 80.078125 55.859375 81.25 
z
" id="SimHei-26679"/>
     <path d="M 46.09375 61.328125 
L 46.09375 69.140625 
Q 46.09375 75.390625 45.703125 80.859375 
L 54.296875 80.859375 
Q 53.90625 76.5625 53.90625 69.53125 
L 53.90625 61.328125 
L 75.78125 61.328125 
Q 82.421875 61.328125 91.40625 61.71875 
L 91.40625 54.296875 
Q 82.8125 54.6875 76.171875 54.6875 
L 60.15625 54.6875 
Q 65.625 36.71875 75.96875 26.359375 
Q 86.328125 16.015625 94.921875 12.5 
Q 91.40625 9.765625 88.28125 5.078125 
Q 75 14.0625 66.59375 25.578125 
Q 58.203125 37.109375 53.90625 52.34375 
L 53.90625 15.625 
L 58.984375 15.625 
Q 65.234375 15.625 71.875 16.015625 
L 71.875 8.59375 
Q 65.234375 8.984375 58.59375 8.984375 
L 53.90625 8.984375 
Q 53.90625 0 54.296875 -9.375 
L 45.703125 -9.375 
Q 46.09375 0 46.09375 8.984375 
L 41.015625 8.984375 
Q 34.765625 8.984375 28.515625 8.59375 
L 28.515625 16.015625 
Q 34.765625 15.625 41.015625 15.625 
L 46.09375 15.625 
L 46.09375 51.5625 
Q 39.84375 35.546875 32.21875 24.609375 
Q 24.609375 13.671875 11.71875 2.734375 
Q 8.59375 7.03125 4.296875 8.984375 
Q 17.1875 16.796875 25.78125 28.515625 
Q 34.375 40.234375 39.453125 54.6875 
L 22.265625 54.6875 
Q 16.015625 54.6875 8.984375 54.296875 
L 8.984375 61.71875 
Q 16.015625 61.328125 21.875 61.328125 
z
" id="SimHei-26412"/>
     <path d="M 88.28125 24.609375 
Q 87.890625 19.921875 87.890625 8.984375 
Q 87.890625 -1.5625 88.28125 -7.03125 
L 80.859375 -7.03125 
L 80.859375 -0.390625 
L 47.265625 -0.390625 
L 47.265625 -8.59375 
L 39.453125 -8.59375 
Q 39.84375 -2.734375 39.84375 7.8125 
Q 39.84375 18.75 39.453125 24.609375 
L 88.28125 24.609375 
z
M 33.203125 77.734375 
Q 30.859375 75.390625 25.78125 62.109375 
L 25.78125 8.59375 
Q 25.78125 -3.125 26.171875 -9.765625 
L 17.578125 -9.765625 
Q 18.75 -2.734375 18.75 8.984375 
L 18.75 48.4375 
Q 14.0625 39.0625 9.765625 32.8125 
Q 7.421875 36.71875 3.90625 39.0625 
Q 8.203125 43.75 14.453125 55.65625 
Q 20.703125 67.578125 23.828125 80.859375 
Q 28.125 79.296875 33.203125 77.734375 
z
M 80.859375 5.859375 
L 80.859375 19.140625 
L 47.265625 19.140625 
L 47.265625 5.859375 
z
M 94.921875 60.9375 
Q 87.109375 61.328125 64.0625 61.328125 
Q 41.015625 61.328125 32.8125 60.9375 
L 32.8125 67.578125 
L 94.921875 67.578125 
z
M 89.0625 46.875 
Q 82.421875 47.265625 64.84375 47.265625 
Q 47.265625 47.265625 38.671875 46.875 
L 38.671875 53.515625 
Q 46.09375 53.125 64.0625 53.125 
Q 82.421875 53.125 89.0625 53.515625 
z
M 89.0625 33.203125 
Q 83.59375 33.59375 65.234375 33.59375 
Q 47.265625 33.59375 38.671875 33.203125 
L 38.671875 39.84375 
Q 46.875 39.453125 65.234375 39.453125 
Q 83.984375 39.453125 89.0625 39.84375 
z
M 62.890625 81.25 
Q 64.0625 78.90625 65.234375 76.171875 
Q 66.40625 73.4375 67.578125 70.3125 
Q 64.0625 69.140625 60.546875 68.359375 
Q 57.8125 76.5625 55.859375 78.515625 
Q 59.765625 80.078125 62.890625 81.25 
z
" id="SimHei-20449"/>
     <path d="M 78.515625 76.953125 
Q 78.125 71.09375 78.125 63.671875 
Q 78.125 56.25 78.515625 49.609375 
L 21.875 49.609375 
Q 22.265625 55.078125 22.265625 62.5 
Q 22.265625 70.3125 21.875 76.953125 
L 78.515625 76.953125 
z
M 80.859375 41.015625 
Q 88.28125 41.015625 94.140625 41.40625 
L 94.140625 34.375 
Q 88.28125 34.765625 80.859375 34.765625 
L 38.28125 34.765625 
Q 36.71875 29.296875 34.765625 22.65625 
L 80.859375 22.65625 
Q 79.6875 16.40625 79.09375 12.109375 
Q 78.515625 7.8125 77.34375 1.75 
Q 76.171875 -4.296875 72.65625 -6.4375 
Q 69.140625 -8.59375 50.390625 -9.765625 
Q 48.828125 -5.46875 46.484375 -0.78125 
Q 60.546875 -1.171875 64.25 -0.78125 
Q 67.96875 -0.390625 69.140625 3.3125 
Q 70.3125 7.03125 71.484375 16.015625 
L 25 16.015625 
Q 28.515625 25.390625 30.46875 34.765625 
L 21.09375 34.765625 
Q 12.890625 34.765625 5.859375 34.375 
L 5.859375 41.40625 
Q 12.890625 41.015625 21.09375 41.015625 
z
M 70.703125 55.859375 
L 70.703125 70.703125 
L 29.6875 70.703125 
L 29.6875 55.859375 
z
" id="SimHei-21495"/>
    </defs>
    <g transform="translate(1345.2 26.325)scale(0.24 -0.24)">
     <use xlink:href="#SimHei-53"/>
     <use x="50" xlink:href="#SimHei-49"/>
     <use x="100" xlink:href="#SimHei-50"/>
     <use x="150" xlink:href="#SimHei-32"/>
     <use x="200" xlink:href="#SimHei-20010"/>
     <use x="300" xlink:href="#SimHei-26679"/>
     <use x="400" xlink:href="#SimHei-26412"/>
     <use x="500" xlink:href="#SimHei-20449"/>
     <use x="600" xlink:href="#SimHei-21495"/>
    </g>
   </g>
  </g>
 </g>
 <defs>
  <clipPath id="p4a02b82f72">
   <rect height="554.4" width="2790" x="34.2" y="32.325"/>
  </clipPath>
 </defs>
</svg>
