<?xml version="1.0" encoding="utf-8" standalone="no"?>
<!DOCTYPE svg PUBLIC "-//W3C//DTD SVG 1.1//EN"
  "http://www.w3.org/Graphics/SVG/1.1/DTD/svg11.dtd">
<!-- Created with matplotlib (https://matplotlib.org/) -->
<svg height="617.175pt" version="1.1" viewBox="0 0 2834.9 617.175" width="2834.9pt" xmlns="http://www.w3.org/2000/svg" xmlns:xlink="http://www.w3.org/1999/xlink">
 <defs>
  <style type="text/css">
*{stroke-linecap:butt;stroke-linejoin:round;}
  </style>
 </defs>
 <g id="figure_1">
  <g id="patch_1">
   <path d="M 0 617.175 
L 2834.9 617.175 
L 2834.9 -0 
L 0 -0 
z
" style="fill:#ffffff;"/>
  </g>
  <g id="axes_1">
   <g id="patch_2">
    <path d="M 34.2 586.725 
L 2824.2 586.725 
L 2824.2 32.325 
L 34.2 32.325 
z
" style="fill:#ffffff;"/>
   </g>
   <g id="matplotlib.axis_1">
    <g id="xtick_1">
     <g id="line2d_1">
      <defs>
       <path d="M 0 0 
L 0 3.5 
" id="me294fa4e69" style="stroke:#000000;stroke-width:0.8;"/>
      </defs>
      <g>
       <use style="stroke:#000000;stroke-width:0.8;" x="161.018182" xlink:href="#me294fa4e69" y="586.725"/>
      </g>
     </g>
     <g id="text_1">
      <!-- 0 -->
      <defs>
       <path d="M 3.125 29.296875 
Q 3.90625 50 6.4375 56.046875 
Q 8.984375 62.109375 13.671875 66.015625 
Q 18.359375 69.921875 25.1875 69.921875 
Q 32.03125 69.921875 37.109375 64.25 
Q 42.1875 58.59375 43.75 50 
Q 45.3125 41.40625 44.71875 30.265625 
Q 44.140625 19.140625 40.8125 12.109375 
Q 37.5 5.078125 30.859375 2.34375 
Q 24.21875 -0.390625 17.578125 2.921875 
Q 10.9375 6.25 8.203125 11.71875 
Q 5.46875 17.1875 4.296875 23.234375 
Q 3.125 29.296875 3.90625 50 
z
M 12.890625 52.734375 
Q 10.546875 31.25 12.5 22.84375 
Q 14.453125 14.453125 18.9375 10.9375 
Q 23.4375 7.421875 28.125 9.5625 
Q 32.8125 11.71875 34.953125 18.15625 
Q 37.109375 24.609375 37.109375 32.21875 
Q 37.109375 39.84375 36.515625 46.09375 
Q 35.9375 52.34375 33 57.421875 
Q 30.078125 62.5 25.1875 62.6875 
Q 20.3125 62.890625 16.59375 57.8125 
Q 12.890625 52.734375 10.546875 31.25 
z
" id="SimHei-48"/>
      </defs>
      <g transform="translate(156.018182 607.475)scale(0.2 -0.2)">
       <use xlink:href="#SimHei-48"/>
      </g>
     </g>
    </g>
    <g id="xtick_2">
     <g id="line2d_2">
      <g>
       <use style="stroke:#000000;stroke-width:0.8;" x="560.445526" xlink:href="#me294fa4e69" y="586.725"/>
      </g>
     </g>
     <g id="text_2">
      <!-- 20 -->
      <defs>
       <path d="M 4.6875 3.90625 
Q 5.078125 9.765625 10.15625 14.453125 
Q 15.234375 19.140625 23.046875 29.09375 
Q 30.859375 39.0625 33.203125 44.53125 
Q 35.546875 50 34.953125 53.90625 
Q 34.375 57.8125 31.25 60.34375 
Q 28.125 62.890625 24.015625 62.5 
Q 19.921875 62.109375 16.203125 59.375 
Q 12.5 56.640625 10.546875 51.171875 
L 3.125 52.34375 
Q 6.25 61.328125 11.125 65.421875 
Q 16.015625 69.53125 22.65625 69.921875 
Q 26.5625 70.3125 29.6875 69.71875 
Q 32.8125 69.140625 36.125 66.984375 
Q 39.453125 64.84375 41.59375 60.546875 
Q 43.75 56.25 43.15625 50.1875 
Q 42.578125 44.140625 37.109375 35.734375 
Q 31.640625 27.34375 16.015625 9.375 
L 44.140625 9.375 
L 44.140625 2.34375 
L 4.6875 2.34375 
z
" id="SimHei-50"/>
      </defs>
      <g transform="translate(550.445526 607.475)scale(0.2 -0.2)">
       <use xlink:href="#SimHei-50"/>
       <use x="50" xlink:href="#SimHei-48"/>
      </g>
     </g>
    </g>
    <g id="xtick_3">
     <g id="line2d_3">
      <g>
       <use style="stroke:#000000;stroke-width:0.8;" x="959.87287" xlink:href="#me294fa4e69" y="586.725"/>
      </g>
     </g>
     <g id="text_3">
      <!-- 40 -->
      <defs>
       <path d="M 31.25 17.1875 
L 1.171875 17.1875 
L 1.171875 23.828125 
L 32.8125 69.53125 
L 38.671875 69.53125 
L 38.671875 23.828125 
L 48.046875 23.828125 
L 48.046875 17.1875 
L 38.671875 17.1875 
L 38.671875 2.34375 
L 31.25 2.34375 
z
M 31.25 23.828125 
L 31.25 54.6875 
L 9.375 23.828125 
z
" id="SimHei-52"/>
      </defs>
      <g transform="translate(949.87287 607.475)scale(0.2 -0.2)">
       <use xlink:href="#SimHei-52"/>
       <use x="50" xlink:href="#SimHei-48"/>
      </g>
     </g>
    </g>
    <g id="xtick_4">
     <g id="line2d_4">
      <g>
       <use style="stroke:#000000;stroke-width:0.8;" x="1359.300215" xlink:href="#me294fa4e69" y="586.725"/>
      </g>
     </g>
     <g id="text_4">
      <!-- 60 -->
      <defs>
       <path d="M 3.515625 19.53125 
Q 4.296875 30.859375 6.046875 34.765625 
Q 7.8125 38.671875 11.328125 44.53125 
L 27.34375 69.53125 
L 36.328125 69.53125 
L 19.921875 43.75 
Q 30.46875 46.484375 36.71875 42.96875 
Q 42.96875 39.453125 45.109375 34.953125 
Q 47.265625 30.46875 47.453125 25.1875 
Q 47.65625 19.921875 45.890625 14.84375 
Q 44.140625 9.765625 39.640625 5.65625 
Q 35.15625 1.5625 27.140625 1.171875 
Q 19.140625 0.78125 13.46875 4.09375 
Q 7.8125 7.421875 5.65625 13.46875 
Q 3.515625 19.53125 4.296875 30.859375 
z
M 12.5 16.015625 
Q 19.53125 8.59375 25.390625 8.203125 
Q 31.25 7.8125 35.15625 12.109375 
Q 39.0625 16.40625 39.0625 24.609375 
Q 39.0625 32.8125 34.171875 35.9375 
Q 29.296875 39.0625 23.234375 38.28125 
Q 17.1875 37.5 14.453125 32.421875 
Q 11.71875 27.34375 12.109375 21.671875 
Q 12.5 16.015625 19.53125 8.59375 
z
" id="SimHei-54"/>
      </defs>
      <g transform="translate(1349.300215 607.475)scale(0.2 -0.2)">
       <use xlink:href="#SimHei-54"/>
       <use x="50" xlink:href="#SimHei-48"/>
      </g>
     </g>
    </g>
    <g id="xtick_5">
     <g id="line2d_5">
      <g>
       <use style="stroke:#000000;stroke-width:0.8;" x="1758.727559" xlink:href="#me294fa4e69" y="586.725"/>
      </g>
     </g>
     <g id="text_5">
      <!-- 80 -->
      <defs>
       <path d="M 2.734375 16.796875 
Q 2.734375 26.171875 5.078125 30.65625 
Q 7.421875 35.15625 12.890625 37.890625 
Q 8.203125 40.625 6.640625 43.9375 
Q 5.078125 47.265625 4.875 51.5625 
Q 4.6875 55.859375 6.046875 58.984375 
Q 7.421875 62.109375 10.15625 64.84375 
Q 12.890625 67.578125 16.203125 68.546875 
Q 19.53125 69.53125 23.4375 69.53125 
Q 27.34375 69.53125 30.46875 68.75 
Q 33.59375 67.96875 37.109375 65.421875 
Q 40.625 62.890625 42.1875 58.203125 
Q 43.75 53.515625 41.984375 47.265625 
Q 40.234375 41.015625 32.8125 37.5 
Q 39.453125 35.546875 42.1875 31.4375 
Q 44.921875 27.34375 44.921875 21.484375 
Q 44.921875 15.625 43.15625 12.109375 
Q 41.40625 8.59375 39.25 6.25 
Q 37.109375 3.90625 33.390625 2.53125 
Q 29.6875 1.171875 24.015625 1.171875 
Q 18.359375 1.171875 14.25 2.53125 
Q 10.15625 3.90625 7.421875 6.640625 
Q 4.6875 9.375 3.703125 13.078125 
Q 2.734375 16.796875 2.734375 26.171875 
z
M 10.9375 26.5625 
Q 10.546875 17.1875 12.296875 13.671875 
Q 14.0625 10.15625 18.75 9.171875 
Q 23.4375 8.203125 28.515625 9.375 
Q 33.59375 10.546875 35.546875 14.84375 
Q 37.5 19.140625 36.90625 23.4375 
Q 36.328125 27.734375 32.03125 30.65625 
Q 27.734375 33.59375 22.65625 33.203125 
Q 17.578125 32.8125 14.25 29.6875 
Q 10.9375 26.5625 10.546875 17.1875 
z
M 12.109375 56.25 
Q 12.109375 48.4375 14.84375 44.921875 
Q 17.578125 41.40625 23.4375 41.40625 
Q 29.296875 41.40625 32.21875 44.921875 
Q 35.15625 48.4375 34.953125 53.3125 
Q 34.765625 58.203125 31.4375 60.546875 
Q 28.125 62.890625 22.453125 62.5 
Q 16.796875 62.109375 14.453125 59.171875 
Q 12.109375 56.25 12.109375 48.4375 
z
" id="SimHei-56"/>
      </defs>
      <g transform="translate(1748.727559 607.475)scale(0.2 -0.2)">
       <use xlink:href="#SimHei-56"/>
       <use x="50" xlink:href="#SimHei-48"/>
      </g>
     </g>
    </g>
    <g id="xtick_6">
     <g id="line2d_6">
      <g>
       <use style="stroke:#000000;stroke-width:0.8;" x="2158.154903" xlink:href="#me294fa4e69" y="586.725"/>
      </g>
     </g>
     <g id="text_6">
      <!-- 100 -->
      <defs>
       <path d="M 21.875 56.25 
Q 16.796875 51.171875 8.984375 46.484375 
L 8.984375 53.90625 
Q 18.75 60.546875 25 69.53125 
L 29.6875 69.53125 
L 29.6875 2.34375 
L 21.875 2.34375 
z
" id="SimHei-49"/>
      </defs>
      <g transform="translate(2143.154903 607.475)scale(0.2 -0.2)">
       <use xlink:href="#SimHei-49"/>
       <use x="50" xlink:href="#SimHei-48"/>
       <use x="100" xlink:href="#SimHei-48"/>
      </g>
     </g>
    </g>
    <g id="xtick_7">
     <g id="line2d_7">
      <g>
       <use style="stroke:#000000;stroke-width:0.8;" x="2557.582248" xlink:href="#me294fa4e69" y="586.725"/>
      </g>
     </g>
     <g id="text_7">
      <!-- 120 -->
      <g transform="translate(2542.582248 607.475)scale(0.2 -0.2)">
       <use xlink:href="#SimHei-49"/>
       <use x="50" xlink:href="#SimHei-50"/>
       <use x="100" xlink:href="#SimHei-48"/>
      </g>
     </g>
    </g>
   </g>
   <g id="matplotlib.axis_2">
    <g id="ytick_1">
     <g id="line2d_8">
      <defs>
       <path d="M 0 0 
L -3.5 0 
" id="m30849165b9" style="stroke:#000000;stroke-width:0.8;"/>
      </defs>
      <g>
       <use style="stroke:#000000;stroke-width:0.8;" x="34.2" xlink:href="#m30849165b9" y="511.942907"/>
      </g>
     </g>
     <g id="text_8">
      <!-- -2 -->
      <defs>
       <path d="M 46.484375 33.203125 
L 1.953125 33.203125 
L 1.953125 39.453125 
L 46.484375 39.453125 
z
" id="SimHei-45"/>
      </defs>
      <g transform="translate(7.2 518.817907)scale(0.2 -0.2)">
       <use xlink:href="#SimHei-45"/>
       <use x="50" xlink:href="#SimHei-50"/>
      </g>
     </g>
    </g>
    <g id="ytick_2">
     <g id="line2d_9">
      <g>
       <use style="stroke:#000000;stroke-width:0.8;" x="34.2" xlink:href="#m30849165b9" y="410.733954"/>
      </g>
     </g>
     <g id="text_9">
      <!-- -1 -->
      <g transform="translate(7.2 417.608954)scale(0.2 -0.2)">
       <use xlink:href="#SimHei-45"/>
       <use x="50" xlink:href="#SimHei-49"/>
      </g>
     </g>
    </g>
    <g id="ytick_3">
     <g id="line2d_10">
      <g>
       <use style="stroke:#000000;stroke-width:0.8;" x="34.2" xlink:href="#m30849165b9" y="309.525"/>
      </g>
     </g>
     <g id="text_10">
      <!-- 0 -->
      <g transform="translate(17.2 316.4)scale(0.2 -0.2)">
       <use xlink:href="#SimHei-48"/>
      </g>
     </g>
    </g>
    <g id="ytick_4">
     <g id="line2d_11">
      <g>
       <use style="stroke:#000000;stroke-width:0.8;" x="34.2" xlink:href="#m30849165b9" y="208.316046"/>
      </g>
     </g>
     <g id="text_11">
      <!-- 1 -->
      <g transform="translate(17.2 215.191046)scale(0.2 -0.2)">
       <use xlink:href="#SimHei-49"/>
      </g>
     </g>
    </g>
    <g id="ytick_5">
     <g id="line2d_12">
      <g>
       <use style="stroke:#000000;stroke-width:0.8;" x="34.2" xlink:href="#m30849165b9" y="107.107093"/>
      </g>
     </g>
     <g id="text_12">
      <!-- 2 -->
      <g transform="translate(17.2 113.982093)scale(0.2 -0.2)">
       <use xlink:href="#SimHei-50"/>
      </g>
     </g>
    </g>
   </g>
   <g id="line2d_13">
    <path clip-path="url(#p1ecde2c280)" d="M 161.018182 309.525 
L 180.989549 57.525 
L 200.960916 405.780435 
L 220.932283 332.247826 
L 240.903651 369.01413 
L 280.846385 250.03587 
L 300.817752 286.802174 
L 320.78912 213.269565 
L 340.760487 561.525 
L 380.703221 57.525 
L 400.674588 405.780435 
L 420.645956 332.247826 
L 440.617323 369.01413 
L 480.560057 250.03587 
L 500.531424 286.802174 
L 520.502792 213.269565 
L 540.474159 561.525 
L 580.416893 57.525 
L 600.388261 405.780435 
L 620.359628 332.247826 
L 640.330995 369.01413 
L 680.273729 250.03587 
L 700.245097 286.802174 
L 720.216464 213.269565 
L 740.187831 561.525 
L 780.130565 57.525 
L 800.101933 405.780435 
L 820.0733 332.247826 
L 840.044667 369.01413 
L 879.987402 250.03587 
L 899.958769 286.802174 
L 919.930136 213.269565 
L 939.901503 561.525 
L 979.844238 57.525 
L 999.815605 405.780435 
L 1019.786972 332.247826 
L 1039.758339 369.01413 
L 1079.701074 250.03587 
L 1099.672441 286.802174 
L 1119.643808 213.269565 
L 1139.615175 561.525 
L 1179.55791 57.525 
L 1199.529277 405.780435 
L 1219.500644 332.247826 
L 1239.472011 369.01413 
L 1279.414746 250.03587 
L 1299.386113 286.802174 
L 1319.35748 213.269565 
L 1339.328848 561.525 
L 1379.271582 57.525 
L 1399.242949 405.780435 
L 1419.214316 332.247826 
L 1439.185684 369.01413 
L 1479.128418 250.03587 
L 1499.099785 286.802174 
L 1519.071152 213.269565 
L 1539.04252 561.525 
L 1578.985254 57.525 
L 1598.956621 405.780435 
L 1618.927989 332.247826 
L 1638.899356 369.01413 
L 1678.84209 250.03587 
L 1698.813457 286.802174 
L 1718.784825 213.269565 
L 1738.756192 561.525 
L 1778.698926 57.525 
L 1798.670293 405.780435 
L 1818.641661 332.247826 
L 1838.613028 369.01413 
L 1878.555762 250.03587 
L 1898.52713 286.802174 
L 1918.498497 213.269565 
L 1938.469864 561.525 
L 1978.412598 57.525 
L 1998.383966 405.780435 
L 2018.355333 332.247826 
L 2038.3267 369.01413 
L 2078.269435 250.03587 
L 2098.240802 286.802174 
L 2118.212169 213.269565 
L 2138.183536 561.525 
L 2178.126271 57.525 
L 2198.097638 405.780435 
L 2218.069005 332.247826 
L 2238.040372 369.01413 
L 2277.983107 250.03587 
L 2297.954474 286.802174 
L 2317.925841 213.269565 
L 2337.897208 561.525 
L 2377.839943 57.525 
L 2397.81131 405.780435 
L 2417.782677 332.247826 
L 2437.754044 369.01413 
L 2477.696779 250.03587 
L 2497.668146 286.802174 
L 2517.639513 213.269565 
L 2537.61088 561.525 
L 2577.553615 57.525 
L 2597.524982 405.780435 
L 2617.496349 332.247826 
L 2637.467717 369.01413 
L 2677.410451 250.03587 
L 2697.381818 286.802174 
L 2697.381818 286.802174 
" style="fill:none;stroke:#1f77b4;stroke-linecap:square;stroke-width:1.5;"/>
   </g>
   <g id="patch_3">
    <path d="M 34.2 586.725 
L 34.2 32.325 
" style="fill:none;stroke:#000000;stroke-linecap:square;stroke-linejoin:miter;stroke-width:0.8;"/>
   </g>
   <g id="patch_4">
    <path d="M 2824.2 586.725 
L 2824.2 32.325 
" style="fill:none;stroke:#000000;stroke-linecap:square;stroke-linejoin:miter;stroke-width:0.8;"/>
   </g>
   <g id="patch_5">
    <path d="M 34.2 586.725 
L 2824.2 586.725 
" style="fill:none;stroke:#000000;stroke-linecap:square;stroke-linejoin:miter;stroke-width:0.8;"/>
   </g>
   <g id="patch_6">
    <path d="M 34.2 32.325 
L 2824.2 32.325 
" style="fill:none;stroke:#000000;stroke-linecap:square;stroke-linejoin:miter;stroke-width:0.8;"/>
   </g>
   <g id="text_13">
    <!-- 128 个样本信号 -->
    <defs>
     <path id="SimHei-32"/>
     <path d="M 53.515625 75.390625 
Q 69.921875 51.171875 96.09375 43.359375 
Q 92.1875 38.671875 90.234375 34.375 
Q 64.84375 45.3125 49.21875 69.140625 
Q 34.765625 46.09375 10.546875 33.203125 
Q 8.59375 36.71875 3.90625 40.625 
Q 22.65625 48.4375 33 60.546875 
Q 43.359375 72.65625 46.875 82.421875 
Q 51.5625 80.46875 56.25 78.90625 
Q 54.6875 76.953125 53.515625 75.390625 
z
M 45.703125 36.71875 
Q 45.703125 42.96875 44.921875 52.734375 
L 53.90625 52.734375 
Q 53.515625 46.09375 53.515625 36.328125 
L 53.515625 8.59375 
Q 53.515625 -0.390625 53.90625 -9.765625 
L 45.3125 -9.765625 
Q 45.703125 0 45.703125 8.203125 
z
" id="SimHei-20010"/>
     <path d="M 67.96875 62.890625 
Q 71.875 71.484375 75.78125 81.640625 
Q 82.03125 79.296875 83.984375 78.125 
Q 80.46875 73.828125 75.78125 62.890625 
L 77.34375 62.890625 
Q 88.28125 63.28125 92.96875 63.28125 
L 92.96875 56.25 
Q 88.671875 56.640625 80.859375 56.640625 
L 71.09375 56.640625 
L 71.09375 41.40625 
L 77.34375 41.40625 
Q 86.328125 41.796875 90.625 41.796875 
L 90.625 34.765625 
Q 85.546875 35.15625 78.515625 35.15625 
L 71.09375 35.15625 
L 71.09375 19.140625 
L 83.203125 19.140625 
Q 90.625 19.53125 95.3125 19.53125 
L 95.3125 12.5 
Q 91.015625 12.890625 83.203125 12.890625 
L 71.09375 12.890625 
L 71.09375 4.296875 
Q 71.09375 -3.90625 71.484375 -9.375 
L 63.671875 -9.375 
L 63.671875 12.890625 
L 54.296875 12.890625 
Q 46.875 12.890625 39.84375 12.5 
L 39.84375 19.921875 
Q 46.875 19.53125 54.6875 19.140625 
L 63.671875 19.140625 
L 63.671875 35.15625 
L 57.03125 35.15625 
Q 50.390625 35.15625 45.3125 34.765625 
L 45.3125 42.1875 
Q 50 41.796875 57.421875 41.40625 
L 63.671875 41.40625 
L 63.671875 56.640625 
L 54.296875 56.640625 
Q 47.65625 56.640625 42.96875 56.25 
L 42.96875 63.671875 
Q 47.65625 63.28125 54.296875 62.890625 
z
M 20.703125 67.96875 
Q 20.703125 74.609375 20.3125 80.078125 
L 28.515625 80.078125 
Q 28.125 73.828125 28.125 67.96875 
L 28.125 58.59375 
Q 33.203125 58.59375 38.671875 58.984375 
L 38.671875 51.953125 
Q 33.203125 52.34375 28.125 52.34375 
L 28.125 37.890625 
Q 31.25 40.625 32.8125 41.796875 
Q 37.109375 36.328125 42.578125 27.734375 
Q 40.234375 26.5625 35.9375 23.046875 
Q 31.640625 30.859375 28.125 36.71875 
L 28.125 7.421875 
Q 28.125 -0.78125 28.515625 -8.984375 
L 20.3125 -8.984375 
Q 20.703125 -0.390625 20.703125 7.421875 
L 20.703125 35.15625 
Q 14.453125 20.3125 8.203125 11.328125 
Q 6.640625 14.84375 3.515625 18.359375 
Q 14.84375 33.59375 19.140625 52.34375 
Q 12.890625 52.34375 5.46875 51.953125 
L 5.46875 58.984375 
Q 12.890625 58.59375 20.703125 58.59375 
z
M 55.859375 81.25 
Q 59.375 74.609375 61.71875 67.96875 
Q 57.03125 66.40625 55.078125 65.234375 
Q 52.34375 71.875 49.21875 78.125 
Q 53.515625 80.078125 55.859375 81.25 
z
" id="SimHei-26679"/>
     <path d="M 46.09375 61.328125 
L 46.09375 69.140625 
Q 46.09375 75.390625 45.703125 80.859375 
L 54.296875 80.859375 
Q 53.90625 76.5625 53.90625 69.53125 
L 53.90625 61.328125 
L 75.78125 61.328125 
Q 82.421875 61.328125 91.40625 61.71875 
L 91.40625 54.296875 
Q 82.8125 54.6875 76.171875 54.6875 
L 60.15625 54.6875 
Q 65.625 36.71875 75.96875 26.359375 
Q 86.328125 16.015625 94.921875 12.5 
Q 91.40625 9.765625 88.28125 5.078125 
Q 75 14.0625 66.59375 25.578125 
Q 58.203125 37.109375 53.90625 52.34375 
L 53.90625 15.625 
L 58.984375 15.625 
Q 65.234375 15.625 71.875 16.015625 
L 71.875 8.59375 
Q 65.234375 8.984375 58.59375 8.984375 
L 53.90625 8.984375 
Q 53.90625 0 54.296875 -9.375 
L 45.703125 -9.375 
Q 46.09375 0 46.09375 8.984375 
L 41.015625 8.984375 
Q 34.765625 8.984375 28.515625 8.59375 
L 28.515625 16.015625 
Q 34.765625 15.625 41.015625 15.625 
L 46.09375 15.625 
L 46.09375 51.5625 
Q 39.84375 35.546875 32.21875 24.609375 
Q 24.609375 13.671875 11.71875 2.734375 
Q 8.59375 7.03125 4.296875 8.984375 
Q 17.1875 16.796875 25.78125 28.515625 
Q 34.375 40.234375 39.453125 54.6875 
L 22.265625 54.6875 
Q 16.015625 54.6875 8.984375 54.296875 
L 8.984375 61.71875 
Q 16.015625 61.328125 21.875 61.328125 
z
" id="SimHei-26412"/>
     <path d="M 88.28125 24.609375 
Q 87.890625 19.921875 87.890625 8.984375 
Q 87.890625 -1.5625 88.28125 -7.03125 
L 80.859375 -7.03125 
L 80.859375 -0.390625 
L 47.265625 -0.390625 
L 47.265625 -8.59375 
L 39.453125 -8.59375 
Q 39.84375 -2.734375 39.84375 7.8125 
Q 39.84375 18.75 39.453125 24.609375 
L 88.28125 24.609375 
z
M 33.203125 77.734375 
Q 30.859375 75.390625 25.78125 62.109375 
L 25.78125 8.59375 
Q 25.78125 -3.125 26.171875 -9.765625 
L 17.578125 -9.765625 
Q 18.75 -2.734375 18.75 8.984375 
L 18.75 48.4375 
Q 14.0625 39.0625 9.765625 32.8125 
Q 7.421875 36.71875 3.90625 39.0625 
Q 8.203125 43.75 14.453125 55.65625 
Q 20.703125 67.578125 23.828125 80.859375 
Q 28.125 79.296875 33.203125 77.734375 
z
M 80.859375 5.859375 
L 80.859375 19.140625 
L 47.265625 19.140625 
L 47.265625 5.859375 
z
M 94.921875 60.9375 
Q 87.109375 61.328125 64.0625 61.328125 
Q 41.015625 61.328125 32.8125 60.9375 
L 32.8125 67.578125 
L 94.921875 67.578125 
z
M 89.0625 46.875 
Q 82.421875 47.265625 64.84375 47.265625 
Q 47.265625 47.265625 38.671875 46.875 
L 38.671875 53.515625 
Q 46.09375 53.125 64.0625 53.125 
Q 82.421875 53.125 89.0625 53.515625 
z
M 89.0625 33.203125 
Q 83.59375 33.59375 65.234375 33.59375 
Q 47.265625 33.59375 38.671875 33.203125 
L 38.671875 39.84375 
Q 46.875 39.453125 65.234375 39.453125 
Q 83.984375 39.453125 89.0625 39.84375 
z
M 62.890625 81.25 
Q 64.0625 78.90625 65.234375 76.171875 
Q 66.40625 73.4375 67.578125 70.3125 
Q 64.0625 69.140625 60.546875 68.359375 
Q 57.8125 76.5625 55.859375 78.515625 
Q 59.765625 80.078125 62.890625 81.25 
z
" id="SimHei-20449"/>
     <path d="M 78.515625 76.953125 
Q 78.125 71.09375 78.125 63.671875 
Q 78.125 56.25 78.515625 49.609375 
L 21.875 49.609375 
Q 22.265625 55.078125 22.265625 62.5 
Q 22.265625 70.3125 21.875 76.953125 
L 78.515625 76.953125 
z
M 80.859375 41.015625 
Q 88.28125 41.015625 94.140625 41.40625 
L 94.140625 34.375 
Q 88.28125 34.765625 80.859375 34.765625 
L 38.28125 34.765625 
Q 36.71875 29.296875 34.765625 22.65625 
L 80.859375 22.65625 
Q 79.6875 16.40625 79.09375 12.109375 
Q 78.515625 7.8125 77.34375 1.75 
Q 76.171875 -4.296875 72.65625 -6.4375 
Q 69.140625 -8.59375 50.390625 -9.765625 
Q 48.828125 -5.46875 46.484375 -0.78125 
Q 60.546875 -1.171875 64.25 -0.78125 
Q 67.96875 -0.390625 69.140625 3.3125 
Q 70.3125 7.03125 71.484375 16.015625 
L 25 16.015625 
Q 28.515625 25.390625 30.46875 34.765625 
L 21.09375 34.765625 
Q 12.890625 34.765625 5.859375 34.375 
L 5.859375 41.40625 
Q 12.890625 41.015625 21.09375 41.015625 
z
M 70.703125 55.859375 
L 70.703125 70.703125 
L 29.6875 70.703125 
L 29.6875 55.859375 
z
" id="SimHei-21495"/>
    </defs>
    <g transform="translate(1345.2 26.325)scale(0.24 -0.24)">
     <use xlink:href="#SimHei-49"/>
     <use x="50" xlink:href="#SimHei-50"/>
     <use x="100" xlink:href="#SimHei-56"/>
     <use x="150" xlink:href="#SimHei-32"/>
     <use x="200" xlink:href="#SimHei-20010"/>
     <use x="300" xlink:href="#SimHei-26679"/>
     <use x="400" xlink:href="#SimHei-26412"/>
     <use x="500" xlink:href="#SimHei-20449"/>
     <use x="600" xlink:href="#SimHei-21495"/>
    </g>
   </g>
  </g>
 </g>
 <defs>
  <clipPath id="p1ecde2c280">
   <rect height="554.4" width="2790" x="34.2" y="32.325"/>
  </clipPath>
 </defs>
</svg>
