<?xml version="1.0" encoding="utf-8" standalone="no"?>
<!DOCTYPE svg PUBLIC "-//W3C//DTD SVG 1.1//EN"
  "http://www.w3.org/Graphics/SVG/1.1/DTD/svg11.dtd">
<!-- Created with matplotlib (https://matplotlib.org/) -->
<svg height="720.4875pt" version="1.1" viewBox="0 0 2955.93125 720.4875" width="2955.93125pt" xmlns="http://www.w3.org/2000/svg" xmlns:xlink="http://www.w3.org/1999/xlink">
 <defs>
  <style type="text/css">
*{stroke-linecap:butt;stroke-linejoin:round;}
  </style>
 </defs>
 <g id="figure_1">
  <g id="patch_1">
   <path d="M 0 720.4875 
L 2955.93125 720.4875 
L 2955.93125 0 
L 0 0 
z
" style="fill:#ffffff;"/>
  </g>
  <g id="axes_1">
   <g id="patch_2">
    <path d="M 155.23125 633.5375 
L 2945.23125 633.5375 
L 2945.23125 79.1375 
L 155.23125 79.1375 
z
" style="fill:#ffffff;"/>
   </g>
   <g id="matplotlib.axis_1">
    <g id="xtick_1">
     <g id="line2d_1">
      <defs>
       <path d="M 0 0 
L 0 3.5 
" id="m06744b0a2f" style="stroke:#000000;stroke-width:0.8;"/>
      </defs>
      <g>
       <use style="stroke:#000000;stroke-width:0.8;" x="282.049432" xlink:href="#m06744b0a2f" y="633.5375"/>
      </g>
     </g>
     <g id="text_1">
      <!-- 0.0 -->
      <defs>
       <path d="M 3.125 29.296875 
Q 3.90625 50 6.4375 56.046875 
Q 8.984375 62.109375 13.671875 66.015625 
Q 18.359375 69.921875 25.1875 69.921875 
Q 32.03125 69.921875 37.109375 64.25 
Q 42.1875 58.59375 43.75 50 
Q 45.3125 41.40625 44.71875 30.265625 
Q 44.140625 19.140625 40.8125 12.109375 
Q 37.5 5.078125 30.859375 2.34375 
Q 24.21875 -0.390625 17.578125 2.921875 
Q 10.9375 6.25 8.203125 11.71875 
Q 5.46875 17.1875 4.296875 23.234375 
Q 3.125 29.296875 3.90625 50 
z
M 12.890625 52.734375 
Q 10.546875 31.25 12.5 22.84375 
Q 14.453125 14.453125 18.9375 10.9375 
Q 23.4375 7.421875 28.125 9.5625 
Q 32.8125 11.71875 34.953125 18.15625 
Q 37.109375 24.609375 37.109375 32.21875 
Q 37.109375 39.84375 36.515625 46.09375 
Q 35.9375 52.34375 33 57.421875 
Q 30.078125 62.5 25.1875 62.6875 
Q 20.3125 62.890625 16.59375 57.8125 
Q 12.890625 52.734375 10.546875 31.25 
z
" id="SimHei-48"/>
       <path d="M 16.796875 1.953125 
L 7.8125 1.953125 
L 7.8125 10.546875 
L 16.796875 10.546875 
z
" id="SimHei-46"/>
      </defs>
      <g transform="translate(252.049432 668.0375)scale(0.4 -0.4)">
       <use xlink:href="#SimHei-48"/>
       <use x="50" xlink:href="#SimHei-46"/>
       <use x="100" xlink:href="#SimHei-48"/>
      </g>
     </g>
    </g>
    <g id="xtick_2">
     <g id="line2d_2">
      <g>
       <use style="stroke:#000000;stroke-width:0.8;" x="789.322159" xlink:href="#m06744b0a2f" y="633.5375"/>
      </g>
     </g>
     <g id="text_2">
      <!-- 0.1 -->
      <defs>
       <path d="M 21.875 56.25 
Q 16.796875 51.171875 8.984375 46.484375 
L 8.984375 53.90625 
Q 18.75 60.546875 25 69.53125 
L 29.6875 69.53125 
L 29.6875 2.34375 
L 21.875 2.34375 
z
" id="SimHei-49"/>
      </defs>
      <g transform="translate(759.322159 668.0375)scale(0.4 -0.4)">
       <use xlink:href="#SimHei-48"/>
       <use x="50" xlink:href="#SimHei-46"/>
       <use x="100" xlink:href="#SimHei-49"/>
      </g>
     </g>
    </g>
    <g id="xtick_3">
     <g id="line2d_3">
      <g>
       <use style="stroke:#000000;stroke-width:0.8;" x="1296.594886" xlink:href="#m06744b0a2f" y="633.5375"/>
      </g>
     </g>
     <g id="text_3">
      <!-- 0.2 -->
      <defs>
       <path d="M 4.6875 3.90625 
Q 5.078125 9.765625 10.15625 14.453125 
Q 15.234375 19.140625 23.046875 29.09375 
Q 30.859375 39.0625 33.203125 44.53125 
Q 35.546875 50 34.953125 53.90625 
Q 34.375 57.8125 31.25 60.34375 
Q 28.125 62.890625 24.015625 62.5 
Q 19.921875 62.109375 16.203125 59.375 
Q 12.5 56.640625 10.546875 51.171875 
L 3.125 52.34375 
Q 6.25 61.328125 11.125 65.421875 
Q 16.015625 69.53125 22.65625 69.921875 
Q 26.5625 70.3125 29.6875 69.71875 
Q 32.8125 69.140625 36.125 66.984375 
Q 39.453125 64.84375 41.59375 60.546875 
Q 43.75 56.25 43.15625 50.1875 
Q 42.578125 44.140625 37.109375 35.734375 
Q 31.640625 27.34375 16.015625 9.375 
L 44.140625 9.375 
L 44.140625 2.34375 
L 4.6875 2.34375 
z
" id="SimHei-50"/>
      </defs>
      <g transform="translate(1266.594886 668.0375)scale(0.4 -0.4)">
       <use xlink:href="#SimHei-48"/>
       <use x="50" xlink:href="#SimHei-46"/>
       <use x="100" xlink:href="#SimHei-50"/>
      </g>
     </g>
    </g>
    <g id="xtick_4">
     <g id="line2d_4">
      <g>
       <use style="stroke:#000000;stroke-width:0.8;" x="1803.867614" xlink:href="#m06744b0a2f" y="633.5375"/>
      </g>
     </g>
     <g id="text_4">
      <!-- 0.3 -->
      <defs>
       <path d="M 3.90625 19.140625 
L 10.9375 20.3125 
Q 12.5 15.234375 16.015625 11.90625 
Q 19.53125 8.59375 24.796875 8.78125 
Q 30.078125 8.984375 33.203125 13.078125 
Q 36.328125 17.1875 35.9375 22.453125 
Q 35.546875 27.734375 31.828125 30.65625 
Q 28.125 33.59375 19.921875 34.765625 
L 19.921875 39.84375 
Q 28.125 40.625 31.828125 44.140625 
Q 35.546875 47.65625 35.15625 53.3125 
Q 34.765625 58.984375 30.078125 61.515625 
Q 25.390625 64.0625 20.109375 62.109375 
Q 14.84375 60.15625 11.71875 51.171875 
L 4.6875 52.34375 
Q 7.03125 59.375 11.125 64.0625 
Q 15.234375 68.75 22.265625 69.53125 
Q 29.296875 70.3125 34.5625 67.765625 
Q 39.84375 65.234375 41.984375 59.953125 
Q 44.140625 54.6875 42.578125 48.4375 
Q 41.015625 42.1875 33.59375 37.5 
Q 39.0625 35.15625 41.984375 30.46875 
Q 44.921875 25.78125 43.9375 18.15625 
Q 42.96875 10.546875 37.109375 5.859375 
Q 31.25 1.171875 23.828125 1.359375 
Q 16.40625 1.5625 10.9375 6.046875 
Q 5.46875 10.546875 3.90625 19.140625 
z
" id="SimHei-51"/>
      </defs>
      <g transform="translate(1773.867614 668.0375)scale(0.4 -0.4)">
       <use xlink:href="#SimHei-48"/>
       <use x="50" xlink:href="#SimHei-46"/>
       <use x="100" xlink:href="#SimHei-51"/>
      </g>
     </g>
    </g>
    <g id="xtick_5">
     <g id="line2d_5">
      <g>
       <use style="stroke:#000000;stroke-width:0.8;" x="2311.140341" xlink:href="#m06744b0a2f" y="633.5375"/>
      </g>
     </g>
     <g id="text_5">
      <!-- 0.4 -->
      <defs>
       <path d="M 31.25 17.1875 
L 1.171875 17.1875 
L 1.171875 23.828125 
L 32.8125 69.53125 
L 38.671875 69.53125 
L 38.671875 23.828125 
L 48.046875 23.828125 
L 48.046875 17.1875 
L 38.671875 17.1875 
L 38.671875 2.34375 
L 31.25 2.34375 
z
M 31.25 23.828125 
L 31.25 54.6875 
L 9.375 23.828125 
z
" id="SimHei-52"/>
      </defs>
      <g transform="translate(2281.140341 668.0375)scale(0.4 -0.4)">
       <use xlink:href="#SimHei-48"/>
       <use x="50" xlink:href="#SimHei-46"/>
       <use x="100" xlink:href="#SimHei-52"/>
      </g>
     </g>
    </g>
    <g id="xtick_6">
     <g id="line2d_6">
      <g>
       <use style="stroke:#000000;stroke-width:0.8;" x="2818.413068" xlink:href="#m06744b0a2f" y="633.5375"/>
      </g>
     </g>
     <g id="text_6">
      <!-- 0.5 -->
      <defs>
       <path d="M 8.59375 20.703125 
Q 11.328125 10.15625 17.96875 8.984375 
Q 24.609375 7.8125 28.703125 10.34375 
Q 32.8125 12.890625 34.5625 16.984375 
Q 36.328125 21.09375 36.125 26.171875 
Q 35.9375 31.25 33.390625 34.765625 
Q 30.859375 38.28125 26.953125 39.453125 
Q 23.046875 40.625 18.15625 39.453125 
Q 13.28125 38.28125 10.15625 33.984375 
L 3.515625 34.765625 
Q 4.296875 37.109375 10.9375 68.359375 
L 41.796875 68.359375 
L 41.796875 61.328125 
L 16.796875 61.328125 
Q 14.84375 50.78125 12.890625 44.53125 
Q 18.75 47.265625 23.828125 47.0625 
Q 28.90625 46.875 33.59375 44.71875 
Q 38.28125 42.578125 40.421875 38.859375 
Q 42.578125 35.15625 43.546875 31.4375 
Q 44.53125 27.734375 44.328125 23.4375 
Q 44.140625 19.140625 42.578125 14.640625 
Q 41.015625 10.15625 37.890625 7.21875 
Q 34.765625 4.296875 30.265625 2.53125 
Q 25.78125 0.78125 19.921875 1.171875 
Q 14.0625 1.5625 8.78125 5.46875 
Q 3.515625 9.375 1.5625 18.75 
z
" id="SimHei-53"/>
      </defs>
      <g transform="translate(2788.413068 668.0375)scale(0.4 -0.4)">
       <use xlink:href="#SimHei-48"/>
       <use x="50" xlink:href="#SimHei-46"/>
       <use x="100" xlink:href="#SimHei-53"/>
      </g>
     </g>
    </g>
    <g id="text_7">
     <!-- 频率 -->
     <defs>
      <path d="M 66.40625 69.53125 
Q 55.859375 69.53125 48.828125 69.140625 
L 48.828125 75.78125 
Q 55.46875 75.390625 61.328125 75.390625 
L 81.640625 75.390625 
Q 87.5 75.390625 93.75 75.78125 
L 93.75 69.140625 
Q 87.5 69.53125 73.4375 69.53125 
Q 72.265625 63.28125 71.09375 56.640625 
L 91.796875 56.640625 
Q 91.40625 51.171875 91.40625 45.3125 
L 91.40625 25.78125 
Q 91.40625 20.3125 91.796875 11.71875 
L 84.375 11.71875 
L 84.375 50.78125 
L 60.546875 50.78125 
L 60.546875 12.5 
L 53.125 12.5 
Q 53.515625 19.921875 53.515625 25.78125 
L 53.515625 44.140625 
Q 53.515625 51.171875 53.125 56.640625 
L 64.453125 56.640625 
Q 65.625 64.0625 66.40625 69.53125 
z
M 26.171875 42.96875 
Q 10.15625 42.96875 5.46875 42.578125 
L 5.46875 49.21875 
Q 8.59375 48.828125 11.328125 48.828125 
Q 11.328125 66.796875 10.9375 72.265625 
L 18.75 72.265625 
Q 18.359375 66.796875 18.359375 48.828125 
L 26.171875 48.828125 
L 26.171875 66.796875 
Q 26.171875 74.21875 25.78125 80.078125 
L 33.59375 80.078125 
Q 33.203125 74.21875 33.203125 66.40625 
Q 41.015625 66.40625 47.265625 66.796875 
L 47.265625 60.15625 
Q 41.015625 60.546875 33.203125 60.546875 
L 33.203125 48.828125 
Q 44.53125 48.828125 49.21875 49.21875 
L 49.21875 42.578125 
Q 44.53125 42.96875 33.203125 42.96875 
L 26.171875 42.96875 
z
M 33.59375 40.625 
Q 33.203125 35.15625 33.203125 30.078125 
L 33.203125 16.40625 
Q 40.625 25.78125 41.40625 34.375 
Q 44.921875 32.8125 49.609375 32.421875 
Q 44.53125 16.796875 34.171875 7.03125 
Q 23.828125 -2.734375 10.9375 -7.8125 
Q 8.59375 -3.90625 3.125 -1.171875 
Q 11.71875 1.171875 16.984375 3.703125 
Q 22.265625 6.25 26.171875 9.765625 
L 26.171875 29.6875 
Q 26.171875 35.15625 25.78125 40.625 
L 33.59375 40.625 
z
M 43.359375 -3.90625 
Q 53.125 -1.171875 58.390625 3.515625 
Q 63.671875 8.203125 65.8125 13.859375 
Q 67.96875 19.53125 68.15625 26.953125 
Q 68.359375 34.375 67.96875 42.96875 
Q 72.65625 42.1875 76.953125 41.40625 
Q 75.78125 36.328125 75.578125 30.859375 
Q 75.390625 25.390625 74.21875 17.375 
Q 73.046875 9.375 67.1875 2.53125 
Q 61.328125 -4.296875 50.78125 -10.15625 
Q 48.046875 -7.03125 43.359375 -3.90625 
z
M 91.40625 -10.15625 
Q 86.71875 -4.296875 75 3.90625 
Q 77.734375 6.640625 79.296875 9.375 
Q 91.015625 1.171875 96.875 -3.90625 
Q 93.359375 -6.640625 91.40625 -10.15625 
z
M 6.25 18.359375 
Q 10.15625 24.21875 14.0625 37.109375 
Q 17.578125 35.546875 21.484375 34.765625 
Q 15.625 20.703125 13.28125 16.015625 
Q 10.15625 17.96875 6.25 18.359375 
z
" id="SimHei-39057"/>
      <path d="M 51.953125 80.46875 
Q 53.515625 76.5625 55.46875 70.703125 
L 75 70.703125 
Q 82.03125 70.703125 90.625 71.09375 
L 90.625 64.453125 
Q 82.03125 65.234375 74.609375 65.234375 
L 43.75 65.234375 
Q 46.484375 63.28125 51.5625 60.9375 
Q 48.046875 58.59375 44.921875 55.265625 
Q 41.796875 51.953125 38.671875 48.828125 
L 51.171875 48.828125 
Q 55.859375 53.515625 58.984375 58.984375 
Q 62.5 56.25 66.796875 53.515625 
Q 61.71875 50.78125 56.25 44.921875 
Q 50.78125 39.0625 41.015625 31.25 
L 60.15625 32.8125 
Q 58.203125 35.15625 56.25 37.890625 
Q 58.59375 38.671875 62.5 41.40625 
Q 66.40625 36.71875 73.4375 26.5625 
Q 69.921875 25.390625 66.015625 22.65625 
Q 65.234375 25 62.890625 27.734375 
Q 57.8125 27.34375 53.515625 27.34375 
L 53.515625 16.40625 
L 80.46875 16.40625 
Q 88.671875 16.40625 95.3125 16.796875 
L 95.3125 10.15625 
Q 89.0625 10.546875 80.078125 10.546875 
L 53.515625 10.546875 
L 53.515625 2.734375 
Q 53.515625 -4.6875 53.90625 -9.765625 
L 45.3125 -9.765625 
Q 45.703125 -4.6875 45.703125 2.734375 
L 45.703125 10.546875 
L 20.703125 10.546875 
Q 12.890625 10.546875 5.078125 10.15625 
L 5.078125 16.796875 
Q 12.890625 16.40625 21.09375 16.40625 
L 45.703125 16.40625 
L 45.703125 26.5625 
Q 42.1875 26.171875 38.671875 25.578125 
Q 35.15625 25 31.640625 23.828125 
Q 30.46875 27.734375 28.90625 31.25 
Q 32.421875 31.640625 36.328125 34.375 
Q 40.234375 37.109375 46.484375 43.75 
Q 35.9375 42.578125 31.640625 41.015625 
Q 30.859375 44.921875 28.90625 49.609375 
Q 32.421875 49.609375 36.328125 54.484375 
Q 40.234375 59.375 42.96875 65.234375 
L 26.5625 65.234375 
Q 17.96875 65.234375 10.15625 64.453125 
L 10.15625 71.09375 
Q 17.96875 70.703125 24.21875 70.703125 
L 46.484375 70.703125 
Q 45.3125 75.390625 43.75 78.515625 
Q 47.265625 79.296875 51.953125 80.46875 
z
M 25.390625 40.234375 
Q 26.953125 37.5 28.515625 34.375 
Q 24.609375 32.03125 20.703125 29.09375 
Q 16.796875 26.171875 12.5 22.265625 
Q 9.765625 26.171875 7.421875 29.296875 
Q 12.5 31.640625 17.1875 34.5625 
Q 21.875 37.5 25.390625 40.234375 
z
M 75.78125 41.40625 
Q 80.078125 38.671875 83.390625 36.515625 
Q 86.71875 34.375 91.796875 30.46875 
Q 88.671875 28.125 85.9375 25 
Q 82.8125 27.734375 79.09375 30.859375 
Q 75.390625 33.984375 71.484375 36.328125 
Q 73.828125 38.671875 75.78125 41.40625 
z
M 89.453125 55.078125 
Q 86.71875 53.90625 82.8125 50.96875 
Q 78.90625 48.046875 75 44.140625 
Q 72.265625 47.65625 69.921875 49.609375 
Q 73.4375 51.953125 76.171875 54.484375 
Q 78.90625 57.03125 82.8125 61.328125 
Q 86.328125 57.8125 89.453125 55.078125 
z
M 16.40625 60.15625 
Q 22.265625 56.25 27.734375 51.171875 
Q 24.609375 48.4375 22.265625 45.703125 
Q 16.796875 51.5625 10.546875 55.078125 
Q 13.671875 57.8125 16.40625 60.15625 
z
" id="SimHei-29575"/>
     </defs>
     <g transform="translate(1510.23125 708.2875)scale(0.4 -0.4)">
      <use xlink:href="#SimHei-39057"/>
      <use x="100" xlink:href="#SimHei-29575"/>
     </g>
    </g>
   </g>
   <g id="matplotlib.axis_2">
    <g id="ytick_1">
     <g id="line2d_7">
      <defs>
       <path d="M 0 0 
L -3.5 0 
" id="m56de7e3f56" style="stroke:#000000;stroke-width:0.8;"/>
      </defs>
      <g>
       <use style="stroke:#000000;stroke-width:0.8;" x="155.23125" xlink:href="#m56de7e3f56" y="608.3375"/>
      </g>
     </g>
     <g id="text_8">
      <!-- 0 -->
      <g transform="translate(128.23125 622.0875)scale(0.4 -0.4)">
       <use xlink:href="#SimHei-48"/>
      </g>
     </g>
    </g>
    <g id="ytick_2">
     <g id="line2d_8">
      <g>
       <use style="stroke:#000000;stroke-width:0.8;" x="155.23125" xlink:href="#m56de7e3f56" y="495.867208"/>
      </g>
     </g>
     <g id="text_9">
      <!-- 20000 -->
      <g transform="translate(48.23125 509.617208)scale(0.4 -0.4)">
       <use xlink:href="#SimHei-50"/>
       <use x="50" xlink:href="#SimHei-48"/>
       <use x="100" xlink:href="#SimHei-48"/>
       <use x="150" xlink:href="#SimHei-48"/>
       <use x="200" xlink:href="#SimHei-48"/>
      </g>
     </g>
    </g>
    <g id="ytick_3">
     <g id="line2d_9">
      <g>
       <use style="stroke:#000000;stroke-width:0.8;" x="155.23125" xlink:href="#m56de7e3f56" y="383.396916"/>
      </g>
     </g>
     <g id="text_10">
      <!-- 40000 -->
      <g transform="translate(48.23125 397.146916)scale(0.4 -0.4)">
       <use xlink:href="#SimHei-52"/>
       <use x="50" xlink:href="#SimHei-48"/>
       <use x="100" xlink:href="#SimHei-48"/>
       <use x="150" xlink:href="#SimHei-48"/>
       <use x="200" xlink:href="#SimHei-48"/>
      </g>
     </g>
    </g>
    <g id="ytick_4">
     <g id="line2d_10">
      <g>
       <use style="stroke:#000000;stroke-width:0.8;" x="155.23125" xlink:href="#m56de7e3f56" y="270.926623"/>
      </g>
     </g>
     <g id="text_11">
      <!-- 60000 -->
      <defs>
       <path d="M 3.515625 19.53125 
Q 4.296875 30.859375 6.046875 34.765625 
Q 7.8125 38.671875 11.328125 44.53125 
L 27.34375 69.53125 
L 36.328125 69.53125 
L 19.921875 43.75 
Q 30.46875 46.484375 36.71875 42.96875 
Q 42.96875 39.453125 45.109375 34.953125 
Q 47.265625 30.46875 47.453125 25.1875 
Q 47.65625 19.921875 45.890625 14.84375 
Q 44.140625 9.765625 39.640625 5.65625 
Q 35.15625 1.5625 27.140625 1.171875 
Q 19.140625 0.78125 13.46875 4.09375 
Q 7.8125 7.421875 5.65625 13.46875 
Q 3.515625 19.53125 4.296875 30.859375 
z
M 12.5 16.015625 
Q 19.53125 8.59375 25.390625 8.203125 
Q 31.25 7.8125 35.15625 12.109375 
Q 39.0625 16.40625 39.0625 24.609375 
Q 39.0625 32.8125 34.171875 35.9375 
Q 29.296875 39.0625 23.234375 38.28125 
Q 17.1875 37.5 14.453125 32.421875 
Q 11.71875 27.34375 12.109375 21.671875 
Q 12.5 16.015625 19.53125 8.59375 
z
" id="SimHei-54"/>
      </defs>
      <g transform="translate(48.23125 284.676623)scale(0.4 -0.4)">
       <use xlink:href="#SimHei-54"/>
       <use x="50" xlink:href="#SimHei-48"/>
       <use x="100" xlink:href="#SimHei-48"/>
       <use x="150" xlink:href="#SimHei-48"/>
       <use x="200" xlink:href="#SimHei-48"/>
      </g>
     </g>
    </g>
    <g id="ytick_5">
     <g id="line2d_11">
      <g>
       <use style="stroke:#000000;stroke-width:0.8;" x="155.23125" xlink:href="#m56de7e3f56" y="158.456331"/>
      </g>
     </g>
     <g id="text_12">
      <!-- 80000 -->
      <defs>
       <path d="M 2.734375 16.796875 
Q 2.734375 26.171875 5.078125 30.65625 
Q 7.421875 35.15625 12.890625 37.890625 
Q 8.203125 40.625 6.640625 43.9375 
Q 5.078125 47.265625 4.875 51.5625 
Q 4.6875 55.859375 6.046875 58.984375 
Q 7.421875 62.109375 10.15625 64.84375 
Q 12.890625 67.578125 16.203125 68.546875 
Q 19.53125 69.53125 23.4375 69.53125 
Q 27.34375 69.53125 30.46875 68.75 
Q 33.59375 67.96875 37.109375 65.421875 
Q 40.625 62.890625 42.1875 58.203125 
Q 43.75 53.515625 41.984375 47.265625 
Q 40.234375 41.015625 32.8125 37.5 
Q 39.453125 35.546875 42.1875 31.4375 
Q 44.921875 27.34375 44.921875 21.484375 
Q 44.921875 15.625 43.15625 12.109375 
Q 41.40625 8.59375 39.25 6.25 
Q 37.109375 3.90625 33.390625 2.53125 
Q 29.6875 1.171875 24.015625 1.171875 
Q 18.359375 1.171875 14.25 2.53125 
Q 10.15625 3.90625 7.421875 6.640625 
Q 4.6875 9.375 3.703125 13.078125 
Q 2.734375 16.796875 2.734375 26.171875 
z
M 10.9375 26.5625 
Q 10.546875 17.1875 12.296875 13.671875 
Q 14.0625 10.15625 18.75 9.171875 
Q 23.4375 8.203125 28.515625 9.375 
Q 33.59375 10.546875 35.546875 14.84375 
Q 37.5 19.140625 36.90625 23.4375 
Q 36.328125 27.734375 32.03125 30.65625 
Q 27.734375 33.59375 22.65625 33.203125 
Q 17.578125 32.8125 14.25 29.6875 
Q 10.9375 26.5625 10.546875 17.1875 
z
M 12.109375 56.25 
Q 12.109375 48.4375 14.84375 44.921875 
Q 17.578125 41.40625 23.4375 41.40625 
Q 29.296875 41.40625 32.21875 44.921875 
Q 35.15625 48.4375 34.953125 53.3125 
Q 34.765625 58.203125 31.4375 60.546875 
Q 28.125 62.890625 22.453125 62.5 
Q 16.796875 62.109375 14.453125 59.171875 
Q 12.109375 56.25 12.109375 48.4375 
z
" id="SimHei-56"/>
      </defs>
      <g transform="translate(48.23125 172.206331)scale(0.4 -0.4)">
       <use xlink:href="#SimHei-56"/>
       <use x="50" xlink:href="#SimHei-48"/>
       <use x="100" xlink:href="#SimHei-48"/>
       <use x="150" xlink:href="#SimHei-48"/>
       <use x="200" xlink:href="#SimHei-48"/>
      </g>
     </g>
    </g>
    <g id="text_13">
     <!-- 幅度 -->
     <defs>
      <path d="M 92.96875 35.15625 
Q 92.578125 29.296875 92.578125 14.0625 
Q 92.578125 -0.78125 92.96875 -6.640625 
L 85.15625 -6.640625 
L 85.15625 -2.734375 
L 52.34375 -2.734375 
L 52.34375 -7.421875 
L 44.921875 -7.421875 
Q 45.3125 3.125 45.3125 16.015625 
Q 45.3125 29.296875 44.921875 35.15625 
L 92.96875 35.15625 
z
M 40.234375 17.578125 
Q 40.234375 12.5 38.078125 10.9375 
Q 35.9375 9.375 30.46875 8.203125 
Q 29.6875 12.5 27.34375 15.625 
Q 30.859375 15.625 32.421875 16.203125 
Q 33.984375 16.796875 33.984375 20.3125 
L 33.984375 58.203125 
L 26.5625 58.203125 
L 26.5625 7.421875 
Q 26.5625 0 26.953125 -8.59375 
L 19.140625 -8.59375 
Q 19.53125 -0.390625 19.53125 7.421875 
L 19.53125 58.203125 
L 13.28125 58.203125 
L 13.28125 7.8125 
L 6.25 7.8125 
Q 6.640625 15.625 6.640625 35.9375 
Q 6.640625 56.25 6.25 64.0625 
L 19.53125 64.0625 
L 19.53125 70.3125 
Q 19.53125 75.390625 19.140625 80.859375 
L 26.953125 80.859375 
Q 26.5625 75.390625 26.5625 70.3125 
L 26.5625 64.0625 
L 40.625 64.0625 
Q 40.234375 60.9375 40.234375 50.390625 
z
M 87.109375 61.328125 
Q 86.71875 56.640625 86.71875 51.5625 
Q 86.71875 46.484375 87.109375 40.625 
L 50 40.625 
Q 50.390625 46.484375 50.390625 51.5625 
Q 50.390625 56.640625 50 61.328125 
L 87.109375 61.328125 
z
M 82.03125 75 
Q 88.28125 75 94.140625 75.390625 
L 94.140625 68.359375 
Q 88.28125 68.75 82.03125 68.75 
L 55.46875 68.75 
Q 48.046875 68.75 43.75 68.359375 
L 43.75 75.390625 
Q 48.046875 75 55.46875 75 
z
M 80.46875 46.484375 
L 80.46875 55.859375 
L 56.640625 55.859375 
L 56.640625 46.484375 
z
M 85.15625 19.140625 
L 85.15625 29.296875 
L 72.265625 29.296875 
L 72.265625 19.140625 
z
M 65.234375 3.125 
L 65.234375 13.28125 
L 52.34375 13.28125 
L 52.34375 3.125 
z
M 85.15625 3.125 
L 85.15625 13.28125 
L 72.265625 13.28125 
L 72.265625 3.125 
z
M 65.234375 19.140625 
L 65.234375 29.296875 
L 52.34375 29.296875 
L 52.34375 19.140625 
z
" id="SimHei-24133"/>
      <path d="M 27.34375 26.171875 
Q 38.28125 25.78125 44.921875 25.78125 
L 81.25 25.78125 
Q 77.734375 19.53125 72.65625 13.28125 
Q 67.578125 7.03125 62.890625 3.125 
Q 67.96875 0.78125 77.34375 -0.78125 
Q 86.71875 -2.34375 95.3125 -2.34375 
Q 92.96875 -4.6875 91.015625 -10.15625 
Q 79.6875 -8.59375 71.09375 -6.4375 
Q 62.5 -4.296875 56.640625 -1.5625 
Q 48.4375 -5.078125 40.421875 -7.21875 
Q 32.421875 -9.375 23.828125 -10.546875 
Q 22.65625 -7.421875 19.140625 -3.90625 
Q 26.171875 -3.90625 35.15625 -1.953125 
Q 44.140625 0 50.78125 3.125 
Q 44.140625 8.59375 37.5 19.921875 
L 27.34375 19.53125 
z
M 46.484375 79.296875 
Q 50.78125 80.46875 54.296875 82.03125 
Q 56.640625 77.734375 58.984375 70.703125 
L 73.4375 70.703125 
Q 77.734375 70.703125 89.0625 71.09375 
L 89.0625 64.0625 
Q 78.125 64.453125 72.65625 64.453125 
L 21.484375 64.453125 
Q 21.484375 46.875 21.09375 36.125 
Q 20.703125 25.390625 18.9375 14.84375 
Q 17.1875 4.296875 11.328125 -8.203125 
Q 7.8125 -5.859375 3.90625 -4.6875 
Q 10.15625 6.25 11.90625 16.796875 
Q 13.671875 27.34375 13.859375 43.75 
Q 14.0625 60.15625 13.671875 70.703125 
L 50 70.703125 
Q 48.4375 75.78125 46.484375 79.296875 
z
M 38.671875 51.5625 
Q 38.671875 57.8125 38.28125 61.328125 
L 46.484375 61.328125 
Q 46.09375 58.203125 46.09375 51.5625 
L 67.1875 51.5625 
Q 67.1875 57.8125 66.796875 61.71875 
L 75 61.71875 
Q 74.609375 57.03125 74.609375 51.5625 
Q 83.203125 51.5625 89.453125 51.953125 
L 89.453125 45.3125 
Q 83.59375 45.703125 74.609375 45.703125 
Q 74.609375 35.15625 75 30.46875 
L 38.28125 30.46875 
Q 38.671875 36.71875 38.671875 45.703125 
Q 33.984375 45.703125 25 45.3125 
L 25 51.953125 
Q 33.984375 51.5625 38.671875 51.5625 
z
M 67.1875 36.71875 
L 67.1875 45.703125 
L 46.09375 45.703125 
L 46.09375 36.71875 
z
M 44.921875 19.921875 
Q 50 12.109375 57.03125 6.640625 
Q 62.890625 10.9375 69.140625 19.921875 
L 45.3125 19.921875 
z
" id="SimHei-24230"/>
     </defs>
     <g transform="translate(39.23125 396.3375)rotate(-90)scale(0.4 -0.4)">
      <use xlink:href="#SimHei-24133"/>
      <use x="100" xlink:href="#SimHei-24230"/>
     </g>
    </g>
   </g>
   <g id="line2d_12">
    <path clip-path="url(#p1b694eb207)" d="M 282.049432 608.3375 
L 282.534953 607.931318 
L 286.419124 607.866535 
L 286.904646 604.776194 
L 287.390167 607.887909 
L 291.274338 607.768494 
L 291.759859 604.303138 
L 292.245381 607.820531 
L 295.158509 607.787043 
L 296.129552 607.84244 
L 296.615073 598.123677 
L 297.100594 607.539298 
L 298.071637 607.653816 
L 300.499244 607.60586 
L 300.984765 607.496308 
L 301.470287 597.337233 
L 301.955808 607.758853 
L 304.868936 607.580944 
L 305.354458 607.471259 
L 305.839979 607.109745 
L 306.3255 584.452106 
L 306.811022 607.422205 
L 307.296543 607.725395 
L 309.238629 607.806364 
L 310.695193 607.905765 
L 311.180714 592.200547 
L 311.666235 606.862202 
L 312.151757 607.237242 
L 313.122799 607.382192 
L 314.579364 607.343674 
L 315.064885 607.251693 
L 315.550406 606.956682 
L 316.035928 594.749334 
L 316.521449 607.942748 
L 317.978013 607.749621 
L 319.920099 607.793444 
L 320.40562 607.894544 
L 320.891141 601.253457 
L 321.376663 607.166815 
L 321.862184 607.397964 
L 323.318748 607.490282 
L 324.289791 607.37372 
L 324.775312 607.1121 
L 325.260834 606.118765 
L 325.746355 571.896551 
L 326.231876 605.197793 
L 326.717398 606.509202 
L 327.202919 606.872323 
L 328.173962 607.034255 
L 328.659483 606.965506 
L 329.145005 606.746175 
L 329.630526 606.169524 
L 330.116047 604.232362 
L 330.601569 547.675338 
L 331.08709 602.736873 
L 331.572612 605.227639 
L 332.058133 605.901485 
L 332.543654 606.110022 
L 333.029176 606.064078 
L 333.514697 605.753484 
L 334.000218 605.000553 
L 334.48574 603.211287 
L 334.971261 597.55008 
L 335.456783 450.221974 
L 335.942304 591.275249 
L 336.427825 598.572615 
L 336.913347 600.512981 
L 337.398868 601.088675 
L 337.884389 600.965383 
L 338.369911 600.215905 
L 338.855432 598.551084 
L 339.340953 594.877755 
L 339.826475 583.876614 
L 340.311996 327.329726 
L 340.797518 580.175234 
L 341.283039 594.688412 
L 341.76856 598.871477 
L 342.254082 600.526766 
L 342.739603 601.015758 
L 343.225124 600.631851 
L 343.710646 599.171314 
L 344.196167 595.558415 
L 344.681689 584.376913 
L 345.16721 340.151847 
L 345.652731 577.401052 
L 346.138253 592.651978 
L 346.623774 597.045791 
L 347.109295 598.843489 
L 347.594817 599.498882 
L 348.080338 599.366233 
L 348.565859 598.34149 
L 349.051381 595.625669 
L 349.536902 587.103424 
L 350.022424 412.67043 
L 350.507945 586.825077 
L 350.993466 598.617376 
L 351.478988 601.715051 
L 351.964509 602.580837 
L 352.45003 602.330477 
L 352.935552 601.186907 
L 353.421073 598.857115 
L 353.906595 594.01111 
L 354.392116 580.156549 
L 354.877637 323.230773 
L 355.363159 569.564526 
L 355.84868 589.203867 
L 356.334201 595.140734 
L 356.819723 597.932855 
L 357.305244 599.478509 
L 357.790766 600.360639 
L 358.276287 600.769008 
L 358.761808 600.638583 
L 359.24733 599.163789 
L 359.732851 566.578371 
L 360.218372 606.337501 
L 361.189415 604.911068 
L 362.160458 603.941806 
L 362.645979 603.275711 
L 363.131501 602.190684 
L 363.617022 600.040087 
L 364.102543 593.926386 
L 364.588065 492.017546 
L 365.073586 591.82641 
L 365.559107 600.829954 
L 366.044629 603.333992 
L 366.53015 604.314563 
L 367.015672 604.635149 
L 367.501193 604.518936 
L 367.986714 603.932733 
L 368.472236 602.480456 
L 368.957757 598.12072 
L 369.443278 528.594167 
L 369.9288 596.06621 
L 370.414321 602.783276 
L 370.899843 604.740995 
L 371.385364 605.629326 
L 371.870885 606.095313 
L 372.356407 606.331892 
L 372.841928 606.390918 
L 373.327449 606.211996 
L 373.812971 605.344408 
L 374.298492 590.143774 
L 374.784013 605.739118 
L 375.269535 607.17281 
L 375.755056 607.490038 
L 376.726099 607.598039 
L 377.697142 607.476706 
L 378.182663 607.267232 
L 378.668184 606.626713 
L 379.153706 596.862058 
L 379.639227 606.246977 
L 380.124749 607.166352 
L 380.61027 607.266309 
L 381.095791 607.158548 
L 381.581313 606.925561 
L 382.066834 606.549006 
L 382.552355 605.931315 
L 383.037877 604.772394 
L 383.523398 601.731901 
L 384.008919 562.223438 
L 384.494441 600.167653 
L 384.979962 605.167987 
L 385.465484 606.860598 
L 385.951005 607.665032 
L 386.436526 607.133325 
L 386.922048 605.822819 
L 387.407569 603.697996 
L 387.89309 599.602092 
L 388.378612 588.299982 
L 388.864133 440.191531 
L 389.349655 567.422277 
L 389.835176 586.050122 
L 390.320697 590.912347 
L 390.806219 592.531283 
L 391.29174 592.553798 
L 391.777261 591.192365 
L 392.262783 587.856309 
L 392.748304 580.289351 
L 393.233826 558.065313 
L 393.719347 272.249074 
L 394.204868 533.700397 
L 394.69039 572.015846 
L 395.175911 582.071092 
L 395.661432 585.736329 
L 396.146954 586.545246 
L 396.632475 585.23554 
L 397.117996 581.297194 
L 397.603518 572.130051 
L 398.089039 545.390703 
L 398.574561 216.870179 
L 399.060082 520.742006 
L 399.545603 567.899517 
L 400.031125 580.338113 
L 400.516646 584.875874 
L 401.002167 585.766102 
L 401.487689 583.83898 
L 401.97321 578.347836 
L 402.458732 565.774397 
L 402.944253 529.596244 
L 403.429774 104.3375 
L 403.915296 483.262434 
L 404.400817 548.898737 
L 404.886338 567.050756 
L 405.37186 574.955078 
L 405.857381 578.742808 
L 406.342903 580.100238 
L 406.828424 579.242441 
L 407.313945 574.901786 
L 407.799467 560.070156 
L 408.284988 382.091042 
L 408.770509 564.822175 
L 409.256031 592.765268 
L 409.741552 598.708712 
L 410.227073 599.549772 
L 410.712595 598.56077 
L 411.198116 596.568817 
L 411.683638 593.285128 
L 412.169159 587.113627 
L 412.65468 570.842273 
L 413.140202 397.400937 
L 413.625723 555.168347 
L 414.111244 585.448047 
L 414.596766 593.81191 
L 415.082287 597.466223 
L 415.567809 599.191987 
L 416.05333 599.745343 
L 416.538851 599.22797 
L 417.024373 597.100346 
L 417.509894 590.358758 
L 417.995415 517.794417 
L 418.480937 586.367529 
L 418.966458 599.84227 
L 419.45198 603.550495 
L 419.937501 605.00429 
L 420.423022 605.220522 
L 420.908544 604.490212 
L 421.394065 602.883428 
L 421.879586 599.792741 
L 422.365108 591.898085 
L 422.850629 514.888296 
L 423.33615 581.405496 
L 423.821672 596.77607 
L 424.307193 601.33747 
L 424.792715 603.739805 
L 425.763757 606.833492 
L 426.249279 607.030906 
L 426.7348 604.343311 
L 427.220321 597.087877 
L 427.705843 527.832569 
L 428.191364 578.348643 
L 428.676886 592.607182 
L 429.162407 596.401415 
L 429.647928 597.941471 
L 430.13345 598.494501 
L 430.618971 598.340558 
L 431.104492 597.355738 
L 431.590014 594.805211 
L 432.075535 587.273228 
L 432.561056 513.037699 
L 433.046578 582.355237 
L 433.532099 598.427432 
L 434.017621 602.716079 
L 434.503142 604.628342 
L 434.988663 605.662091 
L 435.474185 606.262753 
L 435.959706 606.582832 
L 436.445227 606.605507 
L 436.930749 605.918453 
L 437.41627 596.881376 
L 437.901792 604.351805 
L 438.387313 606.394474 
L 438.872834 606.909384 
L 439.358356 607.115014 
L 440.329398 607.167808 
L 440.81492 607.02271 
L 441.300441 606.626849 
L 441.785963 605.406404 
L 442.271484 593.633169 
L 442.757005 603.000208 
L 443.242527 605.767405 
L 443.728048 606.420312 
L 444.213569 606.625973 
L 444.699091 606.625031 
L 445.184612 606.453244 
L 445.670133 606.045823 
L 446.155655 605.150206 
L 446.641176 602.655256 
L 447.126698 580.239901 
L 447.612219 597.948058 
L 448.09774 603.57529 
L 448.583262 604.979358 
L 449.068783 605.51004 
L 449.554304 605.663686 
L 450.039826 605.544903 
L 450.525347 605.098885 
L 451.010869 604.028979 
L 451.49639 600.99289 
L 451.981911 574.374394 
L 452.467433 595.911644 
L 452.952954 603.00762 
L 453.438475 604.858617 
L 453.923997 605.679287 
L 454.409518 606.11386 
L 454.89504 606.343833 
L 455.380561 606.412924 
L 455.866082 606.252497 
L 456.351604 605.41596 
L 456.837125 596.585299 
L 457.322646 603.822159 
L 457.808168 606.194348 
L 458.293689 606.729161 
L 458.77921 606.925463 
L 459.750253 606.992379 
L 460.235775 606.910467 
L 460.721296 606.692682 
L 461.206817 606.063665 
L 461.692339 600.793759 
L 462.17786 606.396003 
L 462.663381 607.95675 
L 463.148903 608.275047 
L 464.605467 607.795458 
L 465.57651 607.332569 
L 466.062031 606.62296 
L 466.547552 601.07234 
L 467.033074 605.48208 
L 467.518595 607.197545 
L 468.004116 607.639215 
L 468.975159 607.938014 
L 469.946202 607.919296 
L 470.431723 607.683477 
L 470.917245 606.933452 
L 471.402766 600.769297 
L 471.888287 604.357538 
L 472.373809 606.329717 
L 472.85933 606.794962 
L 473.344852 606.95858 
L 474.315894 606.91791 
L 474.801416 606.71577 
L 475.286937 606.254913 
L 475.772458 604.978322 
L 476.25798 594.97844 
L 476.743501 602.695152 
L 477.229023 606.066315 
L 477.714544 606.886135 
L 478.200065 607.218473 
L 479.171108 607.39259 
L 479.656629 607.316346 
L 480.142151 607.064138 
L 480.627672 606.29586 
L 481.113193 600.219693 
L 481.598715 604.656192 
L 482.084236 606.800345 
L 482.569758 607.316635 
L 483.5408 607.633755 
L 484.511843 607.68028 
L 484.997364 607.619385 
L 485.482886 607.381987 
L 485.968407 605.285503 
L 486.453929 607.040164 
L 486.93945 607.748016 
L 487.910493 607.896022 
L 489.367057 607.84365 
L 489.852578 607.771338 
L 490.3381 607.583154 
L 490.823621 606.227801 
L 491.309142 607.737506 
L 491.794664 608.218529 
L 493.736749 608.070497 
L 494.707792 607.905713 
L 495.193313 607.626661 
L 495.678835 605.58681 
L 496.164356 606.901351 
L 496.649877 607.719344 
L 497.62092 607.976122 
L 499.077484 608.003481 
L 500.048527 607.819404 
L 500.534048 606.712112 
L 501.01957 607.578086 
L 501.505091 608.02102 
L 502.476134 608.124926 
L 503.932698 608.095528 
L 504.418219 608.029213 
L 504.903741 607.825343 
L 505.389262 606.305744 
L 506.360305 607.797099 
L 507.331347 608.024844 
L 509.758954 608.174838 
L 510.729997 607.847896 
L 511.215518 608.015961 
L 513.157604 608.083118 
L 514.614168 608.033727 
L 515.099689 607.776711 
L 515.585211 608.136925 
L 518.012818 608.034775 
L 518.98386 607.885603 
L 519.469382 607.649153 
L 519.954903 606.146388 
L 520.440424 607.208664 
L 520.925946 607.968118 
L 521.896989 608.204022 
L 523.353553 608.194195 
L 523.839074 608.129619 
L 524.324595 607.950312 
L 524.810117 606.761573 
L 525.295638 607.205318 
L 525.78116 607.832198 
L 526.752202 608.026716 
L 528.694288 608.018524 
L 529.179809 607.916291 
L 529.66533 607.214887 
L 530.150852 607.79947 
L 530.636373 608.170245 
L 532.092937 608.256228 
L 534.035023 608.322874 
L 534.520544 608.018016 
L 535.006066 607.943854 
L 535.491587 608.122904 
L 537.433672 608.202967 
L 538.890236 608.149513 
L 539.375758 607.770591 
L 540.832322 608.21495 
L 543.259929 608.23454 
L 543.74545 608.130625 
L 544.230972 607.46717 
L 544.716493 607.593501 
L 545.202014 608.012384 
L 546.173057 608.14416 
L 548.115143 608.126711 
L 548.600664 608.039766 
L 549.086185 607.512015 
L 550.057228 608.204112 
L 551.028271 608.311511 
L 552.970356 608.267275 
L 553.455878 608.213372 
L 553.941399 607.866003 
L 554.42692 607.891986 
L 554.912442 608.125734 
L 556.369006 608.185135 
L 558.311091 608.099509 
L 558.796613 607.778803 
L 559.767655 608.252318 
L 562.680784 608.302546 
L 563.166305 608.243174 
L 563.651826 607.864874 
L 564.137348 607.83239 
L 564.622869 608.118778 
L 566.079433 608.2481 
L 567.535997 608.265844 
L 568.021519 608.175558 
L 568.50704 607.64843 
L 568.992561 607.636959 
L 569.478083 608.048368 
L 570.449126 608.181589 
L 572.391211 608.183599 
L 572.876732 608.080965 
L 573.362254 607.453471 
L 573.847775 607.484758 
L 574.333296 607.994468 
L 575.304339 608.142555 
L 577.731946 608.148234 
L 578.217467 607.926312 
L 580.159553 608.254817 
L 582.58716 608.288425 
L 583.072681 608.012584 
L 583.558203 607.907526 
L 584.043724 608.151879 
L 585.500288 608.236174 
L 586.471331 608.167943 
L 586.956852 608.060962 
L 587.442373 607.797959 
L 587.927895 606.430504 
L 588.413416 606.317069 
L 588.898938 607.563869 
L 589.384459 607.816981 
L 590.355502 607.974349 
L 591.812066 607.964583 
L 592.297587 607.84508 
L 592.783109 607.135425 
L 593.26863 607.368868 
L 593.754151 608.040477 
L 594.725194 608.195066 
L 596.66728 608.182719 
L 597.152801 608.101633 
L 597.638322 607.594073 
L 598.123844 607.469059 
L 598.609365 607.978947 
L 599.580408 608.102946 
L 601.522493 608.082677 
L 602.008015 607.999778 
L 602.493536 607.481204 
L 602.979057 607.441313 
L 603.464579 607.975369 
L 604.435621 608.077634 
L 606.377707 608.009407 
L 606.863228 607.906878 
L 607.34875 607.389848 
L 607.834271 607.650762 
L 608.319792 608.190547 
L 609.290835 608.243595 
L 611.718442 608.06969 
L 612.203963 607.626204 
L 612.689485 607.583729 
L 613.175006 608.080096 
L 614.146049 608.199067 
L 616.088134 608.210776 
L 616.573656 608.149526 
L 617.059177 607.761375 
L 617.544698 607.571759 
L 618.03022 608.037103 
L 619.001263 608.146489 
L 620.943348 608.079507 
L 621.428869 607.951323 
L 621.914391 607.3118 
L 622.399912 607.212189 
L 622.885433 607.992489 
L 623.856476 608.195514 
L 626.284083 608.277162 
L 627.255126 607.636537 
L 627.740647 608.038201 
L 629.197211 608.166607 
L 631.139297 608.212724 
L 631.624818 608.010946 
L 632.11034 607.680429 
L 632.595861 608.02992 
L 634.052425 608.116787 
L 635.508989 608.05769 
L 635.99451 607.951956 
L 636.480032 607.430725 
L 636.965553 607.355135 
L 637.451075 608.074482 
L 638.422117 608.230961 
L 639.878681 608.190388 
L 640.849724 607.988245 
L 641.335246 607.360485 
L 641.820767 607.055148 
L 642.306288 607.95264 
L 643.277331 608.181206 
L 645.704938 608.29691 
L 646.190459 608.080533 
L 646.675981 607.669079 
L 647.161502 608.026305 
L 648.618066 608.088498 
L 650.07463 607.998902 
L 650.560152 607.884039 
L 651.045673 607.372795 
L 651.531194 607.361993 
L 652.016716 608.154663 
L 652.502237 608.275966 
L 654.444323 608.215734 
L 655.415365 608.128468 
L 655.900887 607.886051 
L 656.386408 607.850033 
L 656.871929 608.239667 
L 658.328493 608.325978 
L 660.270579 608.219489 
L 661.241622 607.550429 
L 661.727143 608.060167 
L 662.698186 608.172901 
L 664.640271 608.157682 
L 665.125793 608.09984 
L 665.611314 607.83805 
L 666.096835 607.761665 
L 666.582357 608.227254 
L 667.5534 608.328985 
L 669.981006 608.239055 
L 670.952049 607.883452 
L 671.43757 608.183827 
L 672.894135 608.237374 
L 674.83622 608.163676 
L 675.321741 607.983892 
L 675.807263 607.922805 
L 676.292784 608.265541 
L 677.749348 608.28603 
L 679.691434 608.175026 
L 680.662477 607.837308 
L 681.147998 608.240485 
L 682.119041 608.330625 
L 684.546647 608.14165 
L 685.032169 607.772885 
L 685.51769 607.220176 
L 686.003212 607.996574 
L 686.974254 608.154321 
L 689.401861 608.171393 
L 689.887383 608.096352 
L 691.343947 608.259221 
L 697.655724 608.274483 
L 699.112289 608.249913 
L 699.59781 608.062698 
L 700.083331 607.627461 
L 700.568853 608.105292 
L 702.025417 608.216379 
L 703.967502 608.204543 
L 704.938545 607.876718 
L 705.424066 608.214891 
L 707.366152 608.289555 
L 713.192408 608.262757 
L 714.163451 608.081358 
L 714.648972 607.796162 
L 715.134494 608.192345 
L 716.591058 608.243362 
L 723.388357 608.089963 
L 723.873878 607.853103 
L 724.3594 607.490679 
L 724.844921 608.200067 
L 725.815964 608.309857 
L 728.243571 608.239591 
L 728.729092 608.106027 
L 729.214613 607.778872 
L 729.700135 608.206434 
L 731.156699 608.298008 
L 733.098784 608.244411 
L 733.584306 608.037952 
L 734.069827 607.38247 
L 734.555349 608.070973 
L 735.526391 608.180753 
L 737.953998 608.12767 
L 738.925041 607.75759 
L 739.410562 608.29269 
L 740.867126 608.26471 
L 742.809212 608.162582 
L 743.294733 608.002542 
L 743.780255 607.667728 
L 744.265776 608.241619 
L 745.236819 608.310271 
L 748.149947 608.184706 
L 748.635468 608.026737 
L 749.12099 608.295404 
L 751.063075 608.329416 
L 753.005161 608.262349 
L 753.490682 608.051553 
L 753.976203 608.261192 
L 756.889332 608.29647 
L 757.860374 608.278638 
L 758.345896 608.092161 
L 758.831417 608.252951 
L 762.715588 608.282658 
L 763.201109 608.030429 
L 763.686631 608.219159 
L 766.599759 608.210691 
L 767.570802 608.064087 
L 768.056323 607.742038 
L 768.541844 608.274725 
L 769.998409 608.279501 
L 772.426015 608.132045 
L 772.911537 607.908688 
L 773.397058 608.301055 
L 776.795708 608.224932 
L 777.281229 608.152374 
L 777.76675 607.941319 
L 778.252272 608.312595 
L 781.650921 608.285401 
L 782.136443 608.248856 
L 782.621964 608.014764 
L 783.107486 608.266449 
L 786.020614 608.281749 
L 786.991657 608.127982 
L 787.477178 607.428206 
L 787.962699 608.164476 
L 789.419263 608.262271 
L 795.731041 608.211192 
L 796.702084 608.076425 
L 797.187605 607.602426 
L 797.673127 608.279466 
L 799.129691 608.293577 
L 801.557298 608.291813 
L 802.042819 607.653451 
L 802.52834 608.154935 
L 804.470426 608.211897 
L 805.92699 608.177917 
L 806.412511 608.086059 
L 806.898033 607.46514 
L 807.383554 608.212432 
L 809.32564 608.252681 
L 811.267725 608.211759 
L 811.753246 607.882099 
L 812.238768 608.243647 
L 815.637417 608.267437 
L 816.122939 608.245022 
L 816.60846 608.075772 
L 817.093981 608.306656 
L 820.978152 608.254342 
L 821.463674 607.818919 
L 821.949195 608.265407 
L 823.891281 608.299266 
L 835.543794 608.152405 
L 836.029315 607.591929 
L 836.514836 608.306516 
L 839.913486 608.323406 
L 840.399007 608.299818 
L 840.884529 607.920043 
L 841.37005 608.283574 
L 844.283178 608.3223 
L 850.109435 608.290467 
L 850.594956 607.953476 
L 851.080477 608.230855 
L 854.479127 608.205758 
L 854.964648 608.147402 
L 855.45017 607.238877 
L 855.935691 608.260917 
L 859.819862 608.288681 
L 860.305383 607.698526 
L 860.790905 608.237877 
L 863.704033 608.284511 
L 864.675076 608.265303 
L 865.160597 607.888029 
L 865.646118 608.323675 
L 869.530289 608.313366 
L 870.015811 607.717628 
L 870.501332 608.265561 
L 873.41446 608.268851 
L 874.385503 608.230475 
L 874.871024 607.673974 
L 875.356546 608.320124 
L 878.755195 608.271485 
L 884.09593 608.23306 
L 884.581452 607.524957 
L 885.066973 608.30654 
L 890.407708 608.292617 
L 893.806358 608.281668 
L 894.291879 607.991512 
L 894.777401 608.302964 
L 898.661572 608.268277 
L 899.147093 607.850182 
L 899.632614 608.293532 
L 903.516785 608.281721 
L 904.002307 608.106481 
L 904.487828 608.277522 
L 913.227213 608.307431 
L 913.712734 608.085772 
L 914.198255 608.306091 
L 918.082426 608.282697 
L 918.567948 607.831956 
L 919.053469 608.280864 
L 922.93764 608.270919 
L 923.423161 608.072353 
L 923.908683 608.266074 
L 927.792854 608.274489 
L 928.278375 607.825809 
L 928.763897 608.294466 
L 932.648067 608.312628 
L 933.133589 607.663304 
L 933.61911 608.310387 
L 937.503281 608.316825 
L 937.988803 608.051763 
L 938.474324 608.297294 
L 942.358495 608.281153 
L 942.844016 608.037028 
L 943.329538 608.296077 
L 947.213709 608.28402 
L 947.69923 607.947971 
L 948.184751 608.299998 
L 952.068922 608.2851 
L 952.554444 607.70876 
L 953.039965 608.315901 
L 955.953093 608.315686 
L 956.924136 608.269545 
L 957.409657 607.064519 
L 957.895179 608.229647 
L 959.837264 608.290368 
L 961.77935 608.290091 
L 962.264871 608.005274 
L 962.750392 608.273503 
L 966.634563 608.244256 
L 967.120085 607.599788 
L 967.605606 608.315273 
L 970.518734 608.30795 
L 971.489777 608.266076 
L 971.975298 607.457484 
L 972.46082 608.250652 
L 974.402905 608.325124 
L 976.344991 608.311815 
L 976.830512 607.958653 
L 977.316034 608.290499 
L 980.229162 608.30674 
L 981.200204 608.281734 
L 981.685726 607.966126 
L 982.171247 608.323583 
L 986.055418 608.290818 
L 986.54094 607.853651 
L 987.026461 608.240358 
L 989.454068 608.276695 
L 990.910632 608.257383 
L 991.396153 607.731116 
L 991.881675 608.2231 
L 993.82376 608.271461 
L 995.765846 608.260626 
L 996.251367 607.836657 
L 996.736888 608.239197 
L 999.164495 608.287848 
L 1000.621059 608.290591 
L 1001.106581 608.080353 
L 1001.592102 608.272299 
L 1004.990752 608.293499 
L 1005.476273 608.242326 
L 1005.961794 607.332392 
L 1006.447316 608.119411 
L 1007.418358 608.233607 
L 1010.331487 608.202455 
L 1010.817008 607.723038 
L 1011.302529 608.301646 
L 1013.244615 608.292913 
L 1015.1867 608.213504 
L 1015.672222 607.494573 
L 1016.157743 608.18479 
L 1017.128786 608.288781 
L 1020.041914 608.258153 
L 1020.527435 607.743369 
L 1021.012957 608.203266 
L 1022.469521 608.28272 
L 1024.897128 608.266529 
L 1025.382649 608.151629 
L 1025.868171 608.271081 
L 1029.752341 608.225108 
L 1030.237863 608.048856 
L 1030.723384 608.296379 
L 1033.636512 608.261395 
L 1034.607555 608.260875 
L 1035.093077 607.957201 
L 1035.578598 608.178304 
L 1037.035162 608.241298 
L 1039.462769 608.220792 
L 1039.94829 607.930826 
L 1040.433812 608.267707 
L 1043.34694 608.297165 
L 1044.317983 608.305064 
L 1044.803504 608.071177 
L 1045.774547 608.24888 
L 1049.173196 608.221593 
L 1049.658718 607.893539 
L 1050.144239 608.233714 
L 1051.600803 608.269388 
L 1054.02841 608.196914 
L 1054.513931 607.772344 
L 1054.999453 608.232981 
L 1055.970495 608.311336 
L 1058.883624 608.260508 
L 1059.369145 608.005808 
L 1059.854666 608.260023 
L 1061.311231 608.312368 
L 1063.738837 608.235372 
L 1064.224359 607.839766 
L 1064.70988 608.19647 
L 1065.680923 608.298209 
L 1068.594051 608.271287 
L 1069.079572 608.005044 
L 1069.565094 608.21684 
L 1071.021658 608.293802 
L 1073.449265 608.31566 
L 1073.934786 608.069542 
L 1074.905829 608.241652 
L 1077.333436 608.243297 
L 1078.304478 608.139195 
L 1078.79 607.446275 
L 1079.275521 608.053798 
L 1079.761043 608.226603 
L 1081.703128 608.316044 
L 1083.159692 608.255583 
L 1083.645214 607.914851 
L 1084.130735 608.182588 
L 1085.101778 608.300894 
L 1088.014906 608.31245 
L 1088.500427 608.199995 
L 1089.47147 608.302992 
L 1092.87012 608.281237 
L 1093.355641 608.188128 
L 1093.841162 608.325358 
L 1097.725333 608.181548 
L 1098.210855 607.596479 
L 1098.696376 608.015873 
L 1099.181897 608.193066 
L 1101.123983 608.29 
L 1102.580547 608.229431 
L 1103.066068 607.64597 
L 1104.037111 608.134197 
L 1105.979197 608.216985 
L 1107.435761 608.16023 
L 1107.921282 607.798889 
L 1108.406803 608.186021 
L 1109.377846 608.329742 
L 1112.290974 608.262285 
L 1112.776496 607.980118 
L 1113.747538 608.263747 
L 1116.175145 608.317038 
L 1117.146188 608.256296 
L 1117.631709 607.936636 
L 1118.602752 608.241165 
L 1121.030359 608.298524 
L 1122.001402 608.280729 
L 1122.486923 608.138915 
L 1123.457966 608.296084 
L 1126.856615 608.312127 
L 1127.342137 608.185535 
L 1129.284222 608.309077 
L 1131.711829 608.258884 
L 1132.197351 608.010264 
L 1133.168393 608.249565 
L 1135.596 608.258473 
L 1136.567043 608.186998 
L 1137.052564 607.846491 
L 1137.538086 608.124894 
L 1138.509128 608.309597 
L 1141.422257 608.307895 
L 1141.907778 608.16272 
L 1145.306428 608.309812 
L 1146.27747 608.245735 
L 1146.762992 607.829849 
L 1148.705077 608.201218 
L 1150.647163 608.165325 
L 1151.132684 608.084667 
L 1151.618205 607.537917 
L 1152.589248 608.196576 
L 1154.045812 608.293654 
L 1155.987898 608.261153 
L 1156.473419 608.064552 
L 1157.929983 608.297387 
L 1160.843111 608.323664 
L 1161.814154 608.280594 
L 1163.75624 608.308875 
L 1165.698325 608.239607 
L 1166.183846 608.026949 
L 1167.154889 608.283946 
L 1169.582496 608.315898 
L 1175.408752 608.229192 
L 1175.894274 608.029475 
L 1177.350838 608.263452 
L 1180.263966 608.258098 
L 1180.749488 608.140308 
L 1182.691573 608.300929 
L 1185.11918 608.293468 
L 1185.604701 608.118424 
L 1186.090223 608.117692 
L 1187.061265 608.261921 
L 1189.974394 608.244905 
L 1190.459915 608.098849 
L 1191.916479 608.291318 
L 1195.315129 608.221668 
L 1196.286171 608.236093 
L 1199.1993 608.180449 
L 1199.684821 608.101811 
L 1200.170342 607.667972 
L 1200.655864 607.867035 
L 1201.141385 608.197087 
L 1202.597949 608.314731 
L 1204.054513 608.240436 
L 1204.540035 608.14643 
L 1205.025556 607.656159 
L 1205.511077 607.719497 
L 1205.996599 608.107476 
L 1207.453163 608.254216 
L 1208.909727 608.251151 
L 1209.395248 608.181396 
L 1209.88077 607.768789 
L 1210.366291 607.767562 
L 1210.851812 608.110003 
L 1212.308377 608.230958 
L 1218.134633 608.268597 
L 1219.105676 608.142658 
L 1219.591197 607.647264 
L 1220.076718 607.608871 
L 1220.56224 608.053048 
L 1221.533283 608.183164 
L 1224.446411 608.264696 
L 1224.931932 608.177554 
L 1226.388496 608.231019 
L 1228.816103 608.138049 
L 1229.301624 607.842603 
L 1229.787146 607.935682 
L 1230.272667 608.217069 
L 1231.729231 608.271575 
L 1233.671317 608.170268 
L 1234.156838 607.882168 
L 1234.64236 607.919491 
L 1235.127881 608.209167 
L 1236.584445 608.288373 
L 1238.526531 608.193076 
L 1239.012052 607.892406 
L 1239.497573 607.843422 
L 1239.983095 608.159073 
L 1241.439659 608.246567 
L 1243.381744 608.186542 
L 1243.867266 607.984509 
L 1244.352787 608.049075 
L 1244.838308 608.269427 
L 1246.294872 608.308875 
L 1248.236958 608.249726 
L 1249.208001 608.043483 
L 1249.693522 608.226073 
L 1251.635608 608.260741 
L 1253.092172 608.20874 
L 1253.577693 608.059871 
L 1256.0053 608.299095 
L 1262.802599 608.145008 
L 1263.28812 607.843822 
L 1263.773642 607.749925 
L 1264.259163 608.138487 
L 1265.715727 608.223219 
L 1267.657813 608.153544 
L 1268.143334 607.939581 
L 1268.628855 607.9668 
L 1269.114377 608.252475 
L 1270.570941 608.304615 
L 1277.853761 608.197821 
L 1278.339283 608.175868 
L 1279.310326 608.320739 
L 1282.223454 608.261623 
L 1283.194497 608.09262 
L 1283.680018 608.265374 
L 1285.622103 608.268616 
L 1287.078668 608.111643 
L 1288.04971 607.381559 
L 1288.535232 608.044317 
L 1289.506274 608.206677 
L 1291.933881 608.281065 
L 1292.904924 608.061663 
L 1293.390445 608.232046 
L 1295.818052 608.294283 
L 1297.274616 608.184176 
L 1297.760138 608.138102 
L 1298.245659 608.293926 
L 1300.187745 608.307679 
L 1301.644309 608.237367 
L 1302.615351 608.007324 
L 1303.100873 608.260935 
L 1304.557437 608.308676 
L 1306.499522 608.243283 
L 1307.470565 607.839141 
L 1307.956086 608.168627 
L 1309.412651 608.236456 
L 1311.354736 608.177671 
L 1312.325779 607.892483 
L 1312.8113 608.23665 
L 1314.267864 608.308342 
L 1316.695471 608.244154 
L 1317.180992 608.132185 
L 1317.666514 608.270055 
L 1320.094121 608.276286 
L 1321.065163 608.198068 
L 1322.036206 607.731702 
L 1322.521728 608.188196 
L 1323.978292 608.312655 
L 1325.920377 608.295532 
L 1326.89142 608.02626 
L 1327.376941 608.233935 
L 1329.804548 608.254624 
L 1330.775591 608.208929 
L 1331.746634 607.878102 
L 1332.232155 608.209974 
L 1334.17424 608.251558 
L 1340.486018 608.171928 
L 1341.457061 607.793137 
L 1341.942582 608.21481 
L 1343.399146 608.268031 
L 1345.826753 608.151005 
L 1346.312275 608.09104 
L 1346.797796 608.29662 
L 1349.710924 608.26162 
L 1350.196446 608.224562 
L 1350.681967 608.069653 
L 1351.167488 607.748008 
L 1351.65301 608.18892 
L 1353.109574 608.273716 
L 1355.051659 608.235984 
L 1355.537181 608.110812 
L 1356.022702 607.84263 
L 1356.508223 608.219466 
L 1357.964788 608.289149 
L 1359.906873 608.246575 
L 1360.392394 608.129997 
L 1360.877916 607.873812 
L 1361.363437 608.235382 
L 1363.305523 608.314276 
L 1365.247608 608.237907 
L 1365.733129 608.032247 
L 1366.218651 608.245015 
L 1368.646258 608.247436 
L 1369.6173 608.176125 
L 1370.102822 607.99366 
L 1370.588343 607.585148 
L 1371.073865 608.199538 
L 1372.530429 608.328483 
L 1374.472514 608.250646 
L 1374.958035 608.106305 
L 1375.443557 607.683143 
L 1375.929078 608.189191 
L 1377.385642 608.297135 
L 1379.327728 608.28972 
L 1379.813249 608.160508 
L 1380.298771 607.706693 
L 1380.784292 608.17821 
L 1382.240856 608.276901 
L 1384.668463 608.265951 
L 1385.153984 608.103941 
L 1385.639506 608.282612 
L 1388.067112 608.320074 
L 1389.523677 608.22762 
L 1390.009198 608.039548 
L 1390.494719 608.287932 
L 1392.436805 608.326795 
L 1399.234104 608.292499 
L 1399.719625 608.012148 
L 1400.205147 608.235143 
L 1403.118275 608.272991 
L 1408.944531 608.152696 
L 1409.430053 607.69799 
L 1409.915574 608.217033 
L 1411.372138 608.287612 
L 1413.799745 608.226391 
L 1414.285266 608.096607 
L 1414.770788 608.326843 
L 1418.169437 608.248961 
L 1418.654959 608.160007 
L 1419.14048 607.749715 
L 1419.626001 608.252926 
L 1421.082566 608.324734 
L 1423.024651 608.287884 
L 1423.510172 608.206227 
L 1423.995694 607.723905 
L 1424.481215 608.219512 
L 1426.423301 608.28323 
L 1428.365386 608.160816 
L 1428.850908 607.722281 
L 1429.336429 608.261704 
L 1430.792993 608.325276 
L 1433.2206 608.203903 
L 1433.706121 607.808599 
L 1434.191643 608.261675 
L 1436.133728 608.292498 
L 1438.075814 608.180285 
L 1438.561335 607.700808 
L 1439.046856 608.244595 
L 1440.988942 608.287228 
L 1442.931027 608.251672 
L 1443.416549 608.127842 
L 1443.90207 608.302894 
L 1447.786241 608.274078 
L 1448.271762 608.003924 
L 1448.757284 608.276596 
L 1452.155933 608.313952 
L 1452.641455 608.26067 
L 1453.126976 607.772976 
L 1453.612497 608.247346 
L 1455.554583 608.312224 
L 1457.496668 608.277918 
L 1457.98219 608.018528 
L 1458.467711 608.302817 
L 1461.866361 608.332623 
L 1462.351882 608.31472 
L 1462.837403 607.964786 
L 1463.322925 608.259338 
L 1466.721574 608.284904 
L 1467.207096 608.270313 
L 1467.692617 607.799381 
L 1468.178138 608.229757 
L 1471.091267 608.266475 
L 1476.917523 608.236095 
L 1477.403045 608.05134 
L 1477.888566 608.317623 
L 1481.772737 608.273087 
L 1482.258258 608.051518 
L 1482.74378 608.329802 
L 1486.627951 608.260077 
L 1487.113472 607.525216 
L 1487.598993 608.251121 
L 1489.541079 608.30052 
L 1491.483164 608.277419 
L 1491.968686 608.00714 
L 1492.454207 608.310874 
L 1496.338378 608.288775 
L 1496.823899 608.088219 
L 1497.309421 608.311282 
L 1501.193592 608.301921 
L 1501.679113 608.159737 
L 1502.164634 608.316672 
L 1506.048805 608.29309 
L 1506.534327 607.809872 
L 1507.019848 608.305848 
L 1510.418498 608.308736 
L 1510.904019 608.278345 
L 1511.38954 607.467404 
L 1511.875062 608.290956 
L 1514.78819 608.332124 
L 1515.759233 608.305386 
L 1516.244754 607.469417 
L 1516.730275 608.274803 
L 1520.128925 608.308475 
L 1520.614446 608.307053 
L 1521.099968 607.718159 
L 1521.585489 608.284037 
L 1525.46966 608.289462 
L 1525.955182 607.825257 
L 1526.440703 608.315874 
L 1530.324874 608.308979 
L 1530.810395 607.585662 
L 1531.295917 608.308224 
L 1535.180088 608.310321 
L 1535.665609 607.589089 
L 1536.15113 608.32919 
L 1540.035301 608.316383 
L 1540.520823 607.639658 
L 1541.006344 608.317816 
L 1544.890515 608.314319 
L 1545.376036 607.880269 
L 1545.861558 608.309689 
L 1549.745729 608.312081 
L 1550.23125 607.971323 
L 1550.716771 608.313217 
L 1554.600942 608.325068 
L 1555.086464 607.691534 
L 1555.571985 608.317611 
L 1559.456156 608.332512 
L 1559.941677 607.976934 
L 1560.427199 608.332098 
L 1564.31137 608.318529 
L 1564.796891 606.926896 
L 1565.282412 608.284103 
L 1569.166583 608.294688 
L 1569.652105 608.057361 
L 1570.137626 608.303561 
L 1578.877011 608.298112 
L 1579.362532 607.400941 
L 1579.848054 608.257844 
L 1582.761182 608.293115 
L 1583.732225 608.282957 
L 1584.217746 607.869864 
L 1584.703267 608.326536 
L 1588.587438 608.304537 
L 1589.07296 607.855464 
L 1589.558481 608.30771 
L 1593.442652 608.319235 
L 1593.928173 607.935919 
L 1594.413695 608.290428 
L 1598.297866 608.288855 
L 1598.783387 607.968695 
L 1599.268908 608.328075 
L 1603.153079 608.268738 
L 1603.638601 607.162941 
L 1604.124122 608.200677 
L 1605.580686 608.28529 
L 1608.008293 608.291845 
L 1608.493814 608.142337 
L 1608.979336 608.32575 
L 1612.863507 608.296066 
L 1613.349028 608.015627 
L 1613.834549 608.299815 
L 1617.233199 608.28564 
L 1617.71872 608.259273 
L 1618.204242 607.702666 
L 1618.689763 608.268371 
L 1620.631849 608.305126 
L 1622.573934 608.291238 
L 1623.059455 607.761375 
L 1623.544977 608.226938 
L 1625.487062 608.290303 
L 1627.429148 608.298408 
L 1627.914669 607.782858 
L 1628.400191 608.216425 
L 1630.342276 608.292523 
L 1632.284362 608.305768 
L 1632.769883 607.787232 
L 1633.255404 608.211529 
L 1634.711968 608.28672 
L 1637.139575 608.329106 
L 1637.625097 607.938086 
L 1638.110618 608.221533 
L 1640.052703 608.277341 
L 1641.994789 608.239763 
L 1642.48031 607.746985 
L 1642.965832 608.23586 
L 1644.907917 608.283507 
L 1646.850003 608.26561 
L 1647.335524 608.115568 
L 1647.821045 608.319226 
L 1651.705216 608.255485 
L 1652.190738 607.934144 
L 1652.676259 608.290568 
L 1654.618345 608.328515 
L 1656.56043 608.310663 
L 1657.045951 608.073104 
L 1657.531473 608.270383 
L 1659.95908 608.322777 
L 1661.415644 608.266485 
L 1661.901165 607.779358 
L 1662.386686 608.200038 
L 1663.843251 608.296483 
L 1666.270857 608.290267 
L 1666.756379 608.021943 
L 1667.2419 608.248147 
L 1669.183986 608.302368 
L 1671.126071 608.289892 
L 1671.611592 608.154383 
L 1672.097114 608.316162 
L 1675.010242 608.324803 
L 1675.981285 608.277023 
L 1676.466806 607.889824 
L 1676.952328 608.20494 
L 1678.408892 608.293495 
L 1680.836499 608.249091 
L 1681.32202 607.888065 
L 1681.807541 608.232014 
L 1683.264105 608.310493 
L 1685.691712 608.293516 
L 1686.177234 608.18193 
L 1687.148276 608.300693 
L 1690.546926 608.234672 
L 1691.032447 607.915854 
L 1691.517969 608.259319 
L 1692.489011 608.333768 
L 1695.40214 608.238625 
L 1695.887661 607.720954 
L 1696.373182 608.121755 
L 1697.344225 608.25795 
L 1700.257353 608.289245 
L 1700.742875 608.103188 
L 1701.713917 608.277457 
L 1705.112567 608.327849 
L 1705.598088 608.19081 
L 1707.054652 608.306336 
L 1709.967781 608.290174 
L 1710.453302 608.02416 
L 1711.424345 608.272864 
L 1714.337473 608.289707 
L 1714.822994 608.251238 
L 1715.308516 607.872283 
L 1715.794037 608.142545 
L 1716.76508 608.257592 
L 1719.192687 608.23302 
L 1719.678208 608.180087 
L 1720.163729 607.721758 
L 1720.649251 608.152427 
L 1721.620294 608.292188 
L 1724.0479 608.211394 
L 1724.533422 608.107829 
L 1725.018943 607.254451 
L 1725.504465 607.918186 
L 1725.989986 608.159731 
L 1727.44655 608.278581 
L 1729.388635 608.260664 
L 1729.874157 607.797764 
L 1730.8452 608.195393 
L 1733.272806 608.298677 
L 1734.243849 608.301892 
L 1734.729371 607.995059 
L 1735.700413 608.225852 
L 1738.613542 608.329317 
L 1739.099063 608.300071 
L 1739.584584 608.005 
L 1740.555627 608.23117 
L 1742.983234 608.269408 
L 1743.954277 608.190565 
L 1744.439798 607.731957 
L 1744.925319 608.077461 
L 1745.896362 608.276076 
L 1748.323969 608.289725 
L 1748.80949 608.251931 
L 1749.295012 607.978415 
L 1750.266054 608.273675 
L 1752.693661 608.284879 
L 1753.664704 608.201092 
L 1754.150225 607.777458 
L 1754.635747 608.07555 
L 1755.121268 608.234819 
L 1757.063354 608.30721 
L 1758.519918 608.193435 
L 1759.005439 607.640443 
L 1759.976482 608.148408 
L 1761.433046 608.232705 
L 1763.375131 608.188611 
L 1763.860653 607.921252 
L 1764.346174 608.195912 
L 1765.317217 608.298213 
L 1768.230345 608.186416 
L 1768.715866 607.755831 
L 1769.686909 608.206223 
L 1771.628995 608.284644 
L 1773.085559 608.218492 
L 1773.57108 607.802904 
L 1774.542123 608.175414 
L 1776.484208 608.255503 
L 1777.940772 608.195514 
L 1778.426294 607.84311 
L 1779.397337 608.228391 
L 1781.339422 608.30652 
L 1782.795986 608.239506 
L 1783.281508 607.898677 
L 1784.738072 608.251788 
L 1787.165679 608.284576 
L 1787.6512 608.249219 
L 1788.136721 607.984614 
L 1789.593285 608.261781 
L 1792.020892 608.251111 
L 1792.506414 608.19637 
L 1792.991935 607.840278 
L 1793.962978 608.219461 
L 1795.905063 608.286089 
L 1797.361627 608.179667 
L 1797.847149 607.73862 
L 1799.303713 608.221972 
L 1801.73132 608.242216 
L 1802.216841 608.209777 
L 1802.702362 608.008125 
L 1803.673405 608.302884 
L 1806.101012 608.235628 
L 1807.072055 608.070991 
L 1807.557576 607.366961 
L 1808.043097 607.63063 
L 1808.528619 608.053507 
L 1809.499662 608.186768 
L 1811.927268 608.21992 
L 1812.41279 608.143505 
L 1813.383832 608.261915 
L 1816.782482 608.28043 
L 1817.268003 608.057443 
L 1817.753525 607.984502 
L 1818.239046 608.144305 
L 1820.181132 608.179888 
L 1821.637696 608.030031 
L 1822.123217 607.458849 
L 1823.09426 608.156327 
L 1824.065303 608.270554 
L 1826.492909 608.263031 
L 1826.978431 608.124282 
L 1828.920516 608.335216 
L 1831.348123 608.23627 
L 1831.833645 608.011295 
L 1834.261251 608.321855 
L 1836.203337 608.259836 
L 1836.688858 608.110917 
L 1838.630944 608.32359 
L 1841.058551 608.267332 
L 1841.544072 608.112054 
L 1842.029593 608.119615 
L 1843.000636 608.262263 
L 1845.428243 608.220331 
L 1845.913764 608.154183 
L 1846.399286 607.789021 
L 1846.884807 607.864338 
L 1847.370328 608.170164 
L 1848.826892 608.265225 
L 1850.768978 608.24158 
L 1851.254499 608.121346 
L 1852.711063 608.312567 
L 1855.624192 608.231903 
L 1856.109713 608.057557 
L 1858.53732 608.331692 
L 1865.334619 608.195169 
L 1865.82014 607.994667 
L 1867.762226 608.317917 
L 1870.189833 608.217957 
L 1870.675354 607.993862 
L 1871.160876 608.001927 
L 1871.646397 608.232686 
L 1873.588482 608.320455 
L 1875.045046 608.31165 
L 1876.016089 608.163776 
L 1876.987132 608.286393 
L 1879.414739 608.257401 
L 1879.90026 608.196931 
L 1880.385782 607.895798 
L 1880.871303 607.819119 
L 1881.356824 608.157536 
L 1882.813388 608.269158 
L 1884.755474 608.247804 
L 1885.726517 607.951087 
L 1886.212038 608.195041 
L 1888.154123 608.287878 
L 1889.610688 608.284063 
L 1890.58173 608.078758 
L 1891.067252 608.237278 
L 1893.494859 608.295275 
L 1904.176329 608.221476 
L 1904.66185 608.02543 
L 1905.147371 607.958144 
L 1905.632893 608.22789 
L 1907.574978 608.321088 
L 1909.031542 608.248391 
L 1910.002585 607.833453 
L 1910.488106 608.155413 
L 1911.944671 608.239343 
L 1913.886756 608.170229 
L 1914.372277 607.953329 
L 1914.857799 607.910182 
L 1915.34332 608.236322 
L 1916.799884 608.328084 
L 1918.74197 608.255368 
L 1919.713012 607.970127 
L 1920.198534 608.222458 
L 1922.140619 608.306591 
L 1923.597183 608.300651 
L 1924.568226 607.921082 
L 1925.053748 608.172892 
L 1926.995833 608.239148 
L 1933.793132 608.116808 
L 1934.278654 607.791317 
L 1934.764175 608.121701 
L 1936.220739 608.203734 
L 1938.162825 608.143133 
L 1939.133867 607.743095 
L 1939.619389 608.170515 
L 1941.075953 608.259842 
L 1943.50356 608.203539 
L 1943.989081 608.121362 
L 1944.474602 608.256911 
L 1947.387731 608.267347 
L 1947.873252 608.236396 
L 1948.844295 607.915229 
L 1949.329816 608.214252 
L 1950.78638 608.271977 
L 1952.728466 608.199558 
L 1953.699508 607.886515 
L 1954.18503 608.243927 
L 1955.641594 608.328734 
L 1958.069201 608.211559 
L 1958.554722 608.156192 
L 1959.040243 608.28936 
L 1962.438893 608.244672 
L 1963.409936 608.094378 
L 1963.895457 608.284695 
L 1967.294107 608.294097 
L 1972.14932 608.167651 
L 1972.634842 607.894638 
L 1973.120363 607.423367 
L 1973.605885 608.10586 
L 1974.576927 608.250012 
L 1977.004534 608.283947 
L 1977.490056 608.162398 
L 1977.975577 607.914036 
L 1978.461098 608.225839 
L 1980.403184 608.30481 
L 1982.345269 608.192795 
L 1982.830791 608.025328 
L 1983.316312 608.24637 
L 1985.743919 608.254416 
L 1992.055697 608.110727 
L 1992.541218 607.780492 
L 1993.026739 608.171756 
L 1994.968825 608.227458 
L 1996.425389 608.163521 
L 1996.91091 607.989341 
L 1997.396432 607.633956 
L 1997.881953 608.194734 
L 1999.338517 608.29209 
L 2006.135816 608.269106 
L 2006.621338 608.140513 
L 2007.106859 607.739695 
L 2007.59238 608.18569 
L 2009.048945 608.268709 
L 2011.476551 608.216081 
L 2011.962073 608.150751 
L 2012.447594 608.320561 
L 2016.331765 608.271282 
L 2016.817286 608.181774 
L 2017.788329 608.319988 
L 2020.701457 608.285864 
L 2021.186979 608.212469 
L 2021.6725 607.960957 
L 2022.158022 608.256097 
L 2024.100107 608.305157 
L 2026.042193 608.267452 
L 2026.527714 608.163057 
L 2027.013235 608.294111 
L 2030.411885 608.28043 
L 2031.382928 608.092707 
L 2031.868449 608.296803 
L 2034.781577 608.294641 
L 2035.75262 608.173846 
L 2036.238141 607.768469 
L 2036.723663 608.222284 
L 2038.665748 608.300814 
L 2040.607834 608.253764 
L 2041.093355 608.081629 
L 2041.578876 608.291072 
L 2044.492005 608.308313 
L 2051.289304 608.29008 
L 2054.687953 608.260715 
L 2055.173475 608.199589 
L 2055.658996 607.803365 
L 2056.144517 608.217835 
L 2058.086603 608.237276 
L 2059.543167 608.155989 
L 2060.028688 607.990048 
L 2060.51421 607.140387 
L 2060.999731 608.176551 
L 2061.970774 608.29441 
L 2064.398381 608.278577 
L 2064.883902 608.20401 
L 2065.369423 607.695896 
L 2065.854945 608.218085 
L 2067.79703 608.280572 
L 2069.739116 608.197003 
L 2070.224637 607.833885 
L 2070.710159 608.277199 
L 2072.652244 608.327463 
L 2074.594329 608.29663 
L 2075.079851 608.149839 
L 2075.565372 608.310816 
L 2078.964022 608.316422 
L 2079.449543 608.279745 
L 2079.935065 607.968747 
L 2080.420586 608.272753 
L 2083.333714 608.30501 
L 2084.304757 608.271841 
L 2084.790278 608.081644 
L 2085.2758 608.314833 
L 2088.188928 608.31683 
L 2089.159971 608.275883 
L 2089.645492 608.041271 
L 2090.131013 608.308454 
L 2092.55862 608.312082 
L 2094.015184 608.195234 
L 2094.500706 607.394283 
L 2094.986227 608.20688 
L 2096.442791 608.28356 
L 2098.870398 608.231362 
L 2099.355919 607.774901 
L 2099.841441 608.274883 
L 2102.754569 608.326564 
L 2103.725612 608.302584 
L 2104.211133 607.908223 
L 2104.696654 608.269564 
L 2107.609783 608.309451 
L 2108.580825 608.289964 
L 2109.066347 608.038683 
L 2109.551868 608.29849 
L 2112.950518 608.271944 
L 2113.436039 608.208073 
L 2113.92156 607.330785 
L 2114.407082 608.232402 
L 2116.349167 608.294179 
L 2123.146466 608.201175 
L 2123.631988 607.448696 
L 2124.117509 608.289787 
L 2126.059595 608.300194 
L 2128.00168 608.281315 
L 2128.487202 608.069951 
L 2128.972723 608.280362 
L 2132.856894 608.267653 
L 2133.342415 607.718137 
L 2133.827937 608.241544 
L 2137.712108 608.244892 
L 2138.197629 607.949795 
L 2138.68315 608.278767 
L 2142.567321 608.26148 
L 2143.052843 607.959476 
L 2143.538364 608.316831 
L 2147.422535 608.322452 
L 2147.908056 607.903904 
L 2148.393578 608.298353 
L 2152.277749 608.307043 
L 2152.76327 607.677112 
L 2153.248791 608.29694 
L 2157.132962 608.310659 
L 2157.618484 607.987484 
L 2158.104005 608.315334 
L 2161.988176 608.316296 
L 2162.473697 608.180832 
L 2162.959219 608.328149 
L 2166.84339 608.321838 
L 2167.328911 607.935547 
L 2167.814433 608.30774 
L 2171.698603 608.286138 
L 2172.184125 607.306727 
L 2172.669646 608.31323 
L 2176.553817 608.286756 
L 2177.039339 607.84753 
L 2177.52486 608.289943 
L 2186.264245 608.268676 
L 2186.749766 608.041356 
L 2187.235287 608.267063 
L 2191.119458 608.274448 
L 2191.60498 608.048428 
L 2192.090501 608.28184 
L 2195.974672 608.299781 
L 2196.460193 608.155028 
L 2196.945715 608.306133 
L 2200.829886 608.321672 
L 2201.315407 608.117715 
L 2201.800928 608.314781 
L 2205.685099 608.290884 
L 2206.170621 607.760156 
L 2206.656142 608.322745 
L 2210.540313 608.313532 
L 2211.025834 608.05344 
L 2211.511356 608.292095 
L 2215.395527 608.285387 
L 2215.881048 607.615752 
L 2216.36657 608.314877 
L 2219.765219 608.329162 
L 2220.25074 608.314301 
L 2220.736262 607.7009 
L 2221.221783 608.280831 
L 2224.620433 608.303742 
L 2225.105954 608.299468 
L 2225.591476 607.791769 
L 2226.076997 608.267215 
L 2229.475646 608.275411 
L 2229.961168 608.256889 
L 2230.446689 607.709689 
L 2230.932211 608.330218 
L 2234.816382 608.311898 
L 2235.301903 607.872143 
L 2235.787424 608.273042 
L 2238.700553 608.307942 
L 2239.671595 608.291399 
L 2240.157117 607.856485 
L 2240.642638 608.286633 
L 2243.555766 608.314249 
L 2244.526809 608.294182 
L 2245.01233 607.79708 
L 2245.497852 608.263665 
L 2247.925459 608.302196 
L 2249.382023 608.283777 
L 2249.867544 608.016087 
L 2250.353065 608.322678 
L 2254.237236 608.256726 
L 2254.722758 607.609369 
L 2255.208279 608.2479 
L 2256.664843 608.302305 
L 2259.09245 608.288275 
L 2259.577971 608.15197 
L 2260.063493 608.320811 
L 2263.947664 608.323633 
L 2264.433185 607.881872 
L 2264.918706 608.220934 
L 2266.860792 608.27858 
L 2268.802877 608.249226 
L 2269.288399 607.774613 
L 2269.77392 608.252247 
L 2271.716006 608.297035 
L 2273.658091 608.277534 
L 2274.143613 608.07941 
L 2274.629134 608.326694 
L 2278.513305 608.269425 
L 2278.998826 607.979154 
L 2279.484348 608.304475 
L 2281.426433 608.319678 
L 2283.368519 608.285951 
L 2283.85404 607.992326 
L 2284.339561 608.275601 
L 2286.281647 608.322653 
L 2288.223732 608.264678 
L 2288.709254 607.754005 
L 2289.194775 608.206159 
L 2290.651339 608.29088 
L 2293.078946 608.239475 
L 2293.564467 607.832511 
L 2294.049989 608.267905 
L 2295.506553 608.325612 
L 2312.499801 608.194964 
L 2312.985322 607.675618 
L 2313.470843 608.213548 
L 2314.441886 608.324265 
L 2317.355014 608.303349 
L 2317.840536 608.018093 
L 2318.326057 608.215288 
L 2319.782621 608.288206 
L 2326.57992 608.264325 
L 2327.065442 608.197089 
L 2327.550963 607.546303 
L 2328.036485 608.101808 
L 2329.007527 608.271469 
L 2331.435134 608.255348 
L 2331.920656 608.184276 
L 2332.406177 607.505393 
L 2332.891698 608.078084 
L 2333.862741 608.262969 
L 2336.290348 608.284719 
L 2336.775869 608.253538 
L 2337.261391 607.928431 
L 2337.746912 608.205357 
L 2338.717955 608.294692 
L 2341.631083 608.242862 
L 2342.116604 607.773961 
L 2342.602126 608.113242 
L 2343.573168 608.252697 
L 2346.486297 608.258073 
L 2346.971818 608.034484 
L 2347.457339 608.229107 
L 2348.913903 608.294934 
L 2356.196724 608.291916 
L 2356.682245 608.210514 
L 2358.13881 608.295829 
L 2361.051938 608.255148 
L 2361.537459 608.050023 
L 2362.02298 608.259482 
L 2363.479545 608.328744 
L 2365.907151 608.240252 
L 2366.392673 607.871183 
L 2366.878194 608.135855 
L 2367.849237 608.275073 
L 2370.762365 608.245971 
L 2371.247887 607.981691 
L 2371.733408 608.20538 
L 2372.704451 608.312456 
L 2375.617579 608.280526 
L 2376.1031 608.042172 
L 2377.074143 608.267957 
L 2379.987271 608.28791 
L 2380.472793 608.253773 
L 2380.958314 607.955814 
L 2381.929357 608.233961 
L 2384.356963 608.246172 
L 2385.328006 608.165847 
L 2385.813528 607.734091 
L 2386.299049 608.103472 
L 2386.78457 608.260515 
L 2388.726656 608.329024 
L 2390.18322 608.294136 
L 2390.668741 608.110659 
L 2392.125305 608.292754 
L 2395.038434 608.290019 
L 2395.523955 608.013106 
L 2396.980519 608.24338 
L 2399.408126 608.226198 
L 2399.893647 608.170335 
L 2400.379169 607.767323 
L 2400.86469 608.079009 
L 2401.350211 608.246372 
L 2403.292297 608.319585 
L 2404.748861 608.320813 
L 2405.234382 608.222545 
L 2408.147511 608.27442 
L 2409.604075 608.119712 
L 2410.089596 607.489914 
L 2411.060639 608.15183 
L 2412.517203 608.282068 
L 2414.459288 608.288468 
L 2414.94481 608.018285 
L 2417.372417 608.272121 
L 2419.314502 608.270261 
L 2419.800023 608.109907 
L 2422.713152 608.243472 
L 2424.169716 608.165305 
L 2424.655237 607.838038 
L 2425.62628 608.259077 
L 2427.568365 608.290639 
L 2429.02493 608.251627 
L 2429.510451 608.108244 
L 2430.481494 608.317073 
L 2433.394622 608.250173 
L 2433.880143 608.193882 
L 2434.365665 607.86325 
L 2435.336707 608.236639 
L 2436.793271 608.278855 
L 2438.735357 608.153381 
L 2439.220878 607.751074 
L 2440.191921 608.217949 
L 2441.648485 608.28923 
L 2443.590571 608.237009 
L 2444.076092 608.067293 
L 2445.047135 608.308882 
L 2446.98922 608.32003 
L 2448.445784 608.243063 
L 2448.931306 607.950307 
L 2449.416827 608.009804 
L 2449.902348 608.198909 
L 2451.844434 608.285985 
L 2453.300998 608.30985 
L 2454.272041 608.14231 
L 2455.243083 608.255327 
L 2457.67069 608.227276 
L 2458.156212 608.1683 
L 2458.641733 607.826432 
L 2460.098297 608.271406 
L 2462.040383 608.286666 
L 2463.011425 608.182608 
L 2463.496947 607.773055 
L 2463.982468 607.85046 
L 2464.46799 608.1492 
L 2465.924554 608.263507 
L 2467.866639 608.256192 
L 2468.35216 608.038359 
L 2468.837682 608.033214 
L 2469.323203 608.202663 
L 2471.265289 608.252312 
L 2472.721853 608.167349 
L 2473.207374 607.857178 
L 2473.692896 607.980998 
L 2474.178417 608.226436 
L 2475.634981 608.31177 
L 2477.577067 608.282352 
L 2478.062588 608.124752 
L 2478.548109 608.117024 
L 2479.519152 608.275765 
L 2482.917802 608.260618 
L 2483.888844 608.279981 
L 2486.316451 608.285226 
L 2487.287494 608.195385 
L 2487.773015 607.871932 
L 2488.258537 607.893415 
L 2488.744058 608.183362 
L 2490.200622 608.289999 
L 2492.142708 608.282347 
L 2492.628229 608.182494 
L 2497.483443 608.308793 
L 2500.396571 608.292865 
L 2501.853135 608.237793 
L 2502.338656 608.003172 
L 2502.824178 607.937887 
L 2503.309699 608.179054 
L 2505.251785 608.263361 
L 2511.078041 608.214235 
L 2511.563562 608.150788 
L 2512.049084 607.846804 
L 2512.534605 607.879304 
L 2513.020127 608.212486 
L 2514.476691 608.31954 
L 2516.418776 608.286735 
L 2517.389819 608.073768 
L 2517.87534 608.220538 
L 2520.302947 608.232952 
L 2521.27399 608.153449 
L 2521.759511 607.858259 
L 2522.245033 607.815008 
L 2522.730554 608.16629 
L 2524.187118 608.255334 
L 2526.129204 608.213864 
L 2526.614725 608.045902 
L 2527.100246 608.037842 
L 2527.585768 608.247007 
L 2529.527853 608.298037 
L 2541.180366 608.15564 
L 2541.665887 608.106147 
L 2542.151409 608.258865 
L 2545.064537 608.283941 
L 2551.861836 608.279795 
L 2554.774964 608.182143 
L 2555.260486 608.109888 
L 2555.746007 607.79379 
L 2556.231528 607.666851 
L 2556.71705 608.167193 
L 2557.688093 608.278799 
L 2560.115699 608.22751 
L 2561.086742 607.791104 
L 2561.572264 608.154593 
L 2563.028828 608.248812 
L 2564.970913 608.210964 
L 2565.941956 607.863633 
L 2566.427477 608.19186 
L 2567.884041 608.275137 
L 2569.826127 608.231155 
L 2570.79717 607.74838 
L 2571.282691 608.138313 
L 2572.739255 608.230119 
L 2574.68134 608.174906 
L 2575.652383 607.907256 
L 2576.137905 608.245863 
L 2577.594469 608.315235 
L 2579.536554 608.195894 
L 2580.507597 607.485938 
L 2580.993118 608.068742 
L 2581.964161 608.195312 
L 2584.391768 608.212883 
L 2585.362811 608.126443 
L 2585.848332 608.274184 
L 2589.246982 608.203477 
L 2590.218024 607.907622 
L 2590.703546 608.242808 
L 2592.16011 608.312037 
L 2594.102195 608.263252 
L 2595.073238 607.927035 
L 2595.558759 608.217525 
L 2597.500845 608.277726 
L 2598.957409 608.221205 
L 2599.928452 607.875268 
L 2600.413973 608.230947 
L 2601.870537 608.316279 
L 2604.298144 608.231195 
L 2604.783665 608.152729 
L 2605.269187 608.300275 
L 2607.211272 608.298902 
L 2608.667836 608.186758 
L 2609.153358 607.929747 
L 2609.638879 607.440476 
L 2610.1244 608.097473 
L 2611.095443 608.225417 
L 2614.008571 608.230217 
L 2614.979614 608.275565 
L 2618.378264 608.183042 
L 2619.349307 607.768129 
L 2619.834828 608.236595 
L 2621.291392 608.327008 
L 2623.718999 608.203167 
L 2624.20452 608.047923 
L 2624.690042 608.254816 
L 2627.60317 608.250351 
L 2628.574213 608.152815 
L 2629.059734 608.072621 
L 2629.545255 608.295033 
L 2632.943905 608.239747 
L 2633.429426 608.129624 
L 2633.914948 607.845578 
L 2634.400469 608.216773 
L 2636.342554 608.282963 
L 2642.168811 608.229805 
L 2642.654332 608.186204 
L 2643.139854 608.030168 
L 2643.625375 607.693649 
L 2644.110896 608.238416 
L 2645.081939 608.312454 
L 2647.509546 608.1742 
L 2647.995067 607.971271 
L 2648.480589 607.406163 
L 2648.96611 608.15356 
L 2649.937153 608.266085 
L 2652.36476 608.240557 
L 2652.850281 608.145736 
L 2653.335802 607.835378 
L 2653.821324 608.223283 
L 2655.763409 608.270359 
L 2662.075187 608.189399 
L 2662.560708 608.055951 
L 2663.04623 607.649651 
L 2663.531751 608.232501 
L 2664.988315 608.308026 
L 2667.415922 608.202935 
L 2667.901444 607.958273 
L 2668.386965 608.270573 
L 2670.814572 608.309234 
L 2672.271136 608.270225 
L 2672.756657 608.171865 
L 2673.242179 608.313721 
L 2676.640828 608.309266 
L 2677.12635 608.252171 
L 2677.611871 607.97766 
L 2678.097392 608.263755 
L 2680.524999 608.327772 
L 2681.981563 608.274613 
L 2682.467085 608.075847 
L 2682.952606 608.290429 
L 2685.380213 608.324245 
L 2686.836777 608.243461 
L 2687.322298 607.926202 
L 2687.80782 608.252525 
L 2690.235427 608.283249 
L 2691.691991 608.22728 
L 2692.177512 608.01877 
L 2692.663033 608.273328 
L 2696.547204 608.233954 
L 2697.032726 608.182841 
L 2697.518247 608.296375 
L 2700.916897 608.205562 
L 2701.402418 608.085564 
L 2701.887939 607.39905 
L 2702.373461 608.219226 
L 2703.830025 608.330714 
L 2705.77211 608.278821 
L 2706.257632 608.192461 
L 2706.743153 607.604004 
L 2707.228674 608.219176 
L 2708.685239 608.287143 
L 2710.627324 608.239562 
L 2711.112845 608.144844 
L 2711.598367 607.496536 
L 2712.083888 608.228993 
L 2713.540452 608.299442 
L 2715.968059 608.215923 
L 2716.453581 607.790853 
L 2716.939102 608.257548 
L 2719.366709 608.277421 
L 2720.823273 608.215514 
L 2721.308794 607.976299 
L 2721.794316 608.329241 
L 2725.678487 608.171426 
L 2726.164008 607.605491 
L 2726.649529 608.275453 
L 2728.106093 608.317878 
L 2735.388914 608.260903 
L 2735.874435 607.670954 
L 2736.359957 608.236948 
L 2738.787564 608.295733 
L 2740.244128 608.253278 
L 2740.729649 607.811709 
L 2741.21517 608.282942 
L 2743.642777 608.320205 
L 2745.099341 608.267929 
L 2745.584863 607.83838 
L 2746.070384 608.284977 
L 2748.983512 608.285161 
L 2749.954555 608.241382 
L 2750.440076 607.917786 
L 2750.925598 608.334863 
L 2754.809769 608.258158 
L 2755.29529 607.366308 
L 2755.780811 608.201792 
L 2757.722897 608.25329 
L 2759.664982 608.229912 
L 2760.150504 608.020326 
L 2760.636025 608.292972 
L 2764.520196 608.243572 
L 2765.005717 607.897359 
L 2765.491239 608.320419 
L 2769.37541 608.291109 
L 2769.860931 608.092957 
L 2770.346453 608.318583 
L 2774.230624 608.317682 
L 2774.716145 607.920417 
L 2775.201666 608.300437 
L 2779.085837 608.31036 
L 2779.571359 607.909927 
L 2780.05688 608.312166 
L 2783.941051 608.321575 
L 2784.426572 608.021823 
L 2784.912094 608.301016 
L 2788.796265 608.277742 
L 2789.281786 607.715142 
L 2789.767307 608.321926 
L 2793.651478 608.333294 
L 2794.137 607.739429 
L 2794.622521 608.292067 
L 2798.506692 608.322823 
L 2798.992213 608.209479 
L 2799.477735 608.330908 
L 2803.361906 608.324123 
L 2803.847427 608.193477 
L 2804.332948 608.319527 
L 2808.217119 608.301544 
L 2808.702641 608.015756 
L 2809.188162 608.305018 
L 2813.072333 608.297149 
L 2813.557854 607.835168 
L 2814.043376 608.291902 
L 2817.927547 608.292222 
L 2818.413068 607.988842 
L 2818.413068 607.988842 
" style="fill:none;stroke:#1f77b4;stroke-linecap:square;stroke-width:1.5;"/>
   </g>
   <g id="patch_3">
    <path d="M 155.23125 633.5375 
L 155.23125 79.1375 
" style="fill:none;stroke:#000000;stroke-linecap:square;stroke-linejoin:miter;stroke-width:0.8;"/>
   </g>
   <g id="patch_4">
    <path d="M 2945.23125 633.5375 
L 2945.23125 79.1375 
" style="fill:none;stroke:#000000;stroke-linecap:square;stroke-linejoin:miter;stroke-width:0.8;"/>
   </g>
   <g id="patch_5">
    <path d="M 155.23125 633.5375 
L 2945.23125 633.5375 
" style="fill:none;stroke:#000000;stroke-linecap:square;stroke-linejoin:miter;stroke-width:0.8;"/>
   </g>
   <g id="patch_6">
    <path d="M 155.23125 79.1375 
L 2945.23125 79.1375 
" style="fill:none;stroke:#000000;stroke-linecap:square;stroke-linejoin:miter;stroke-width:0.8;"/>
   </g>
   <g id="text_14">
    <!-- engine.wav - 幅度谱 -->
    <defs>
     <path d="M 44.53125 16.796875 
Q 43.75 9.765625 38.28125 5.46875 
Q 32.8125 1.171875 25.390625 1.171875 
Q 16.015625 1.171875 9.953125 7.21875 
Q 3.90625 13.28125 3.90625 23.828125 
Q 3.90625 34.375 9.953125 40.421875 
Q 16.015625 46.484375 25.390625 46.484375 
Q 33.59375 46.484375 38.859375 41.203125 
Q 44.140625 35.9375 44.140625 23.828125 
L 12.5 23.828125 
Q 12.5 15.234375 16.203125 11.71875 
Q 19.921875 8.203125 25.390625 8.203125 
Q 29.6875 8.203125 32.421875 10.34375 
Q 35.15625 12.5 35.9375 16.796875 
z
M 35.15625 30.078125 
Q 34.375 35.546875 31.640625 37.6875 
Q 28.90625 39.84375 24.609375 39.84375 
Q 20.703125 39.84375 17.578125 37.6875 
Q 14.453125 35.546875 12.890625 30.078125 
z
" id="SimHei-101"/>
     <path d="M 43.75 1.953125 
L 35.9375 1.953125 
L 35.9375 30.078125 
Q 35.9375 34.765625 33.59375 37.5 
Q 31.25 40.234375 27.34375 40.234375 
Q 22.265625 40.234375 17.765625 34.953125 
Q 13.28125 29.6875 13.28125 21.875 
L 13.28125 1.953125 
L 5.46875 1.953125 
L 5.46875 45.703125 
L 13.28125 45.703125 
L 13.28125 37.5 
Q 16.40625 41.796875 20.109375 44.140625 
Q 23.828125 46.484375 29.6875 46.484375 
Q 36.71875 46.484375 40.234375 42.578125 
Q 43.75 38.671875 43.75 32.8125 
z
" id="SimHei-110"/>
     <path d="M 46.484375 39.0625 
Q 43.75 39.84375 41.203125 40.03125 
Q 38.671875 40.234375 35.9375 39.453125 
Q 37.109375 38.28125 37.890625 36.515625 
Q 38.671875 34.765625 38.671875 31.25 
Q 38.671875 24.609375 34.171875 20.3125 
Q 29.6875 16.015625 23.046875 16.015625 
Q 21.484375 16.015625 18.9375 16.59375 
Q 16.40625 17.1875 14.84375 17.96875 
Q 13.671875 17.1875 13.28125 16.40625 
Q 12.890625 15.625 12.890625 14.453125 
Q 12.890625 12.5 15.625 11.515625 
Q 18.359375 10.546875 25.390625 10.546875 
Q 36.71875 10.546875 40.8125 7.421875 
Q 44.921875 4.296875 44.921875 -0.390625 
Q 44.921875 -6.640625 38.859375 -9.5625 
Q 32.8125 -12.5 24.609375 -12.5 
Q 14.0625 -12.5 8.984375 -9.765625 
Q 3.90625 -7.03125 3.90625 -2.34375 
Q 3.90625 0 5.859375 2.34375 
Q 7.8125 4.6875 10.9375 6.25 
Q 8.59375 7.421875 7.21875 9.171875 
Q 5.859375 10.9375 5.859375 13.671875 
Q 5.859375 16.015625 7.609375 17.765625 
Q 9.375 19.53125 11.71875 20.703125 
Q 9.765625 22.65625 8.59375 25.390625 
Q 7.421875 28.125 7.421875 31.25 
Q 7.421875 37.890625 11.90625 42.1875 
Q 16.40625 46.484375 23.046875 46.484375 
Q 26.5625 46.484375 29.09375 45.5 
Q 31.640625 44.53125 33.59375 42.578125 
Q 36.71875 44.921875 39.84375 45.890625 
Q 42.96875 46.875 46.484375 46.484375 
z
M 30.859375 31.25 
Q 30.859375 35.15625 28.90625 37.5 
Q 26.953125 39.84375 23.046875 39.84375 
Q 19.140625 39.84375 17.1875 37.5 
Q 15.234375 35.15625 15.234375 31.25 
Q 15.234375 27.34375 17.1875 25 
Q 19.140625 22.65625 23.046875 22.65625 
Q 26.953125 22.65625 28.90625 25 
Q 30.859375 27.34375 30.859375 31.25 
z
M 37.5 -1.171875 
Q 37.5 0.390625 35.734375 1.953125 
Q 33.984375 3.515625 26.953125 3.515625 
Q 25.390625 3.515625 22.65625 3.703125 
Q 19.921875 3.90625 16.40625 4.296875 
Q 13.28125 3.125 12.109375 1.5625 
Q 10.9375 0 10.9375 -1.5625 
Q 10.9375 -3.90625 14.0625 -5.46875 
Q 17.1875 -7.03125 25 -7.03125 
Q 31.640625 -7.03125 34.5625 -5.265625 
Q 37.5 -3.515625 37.5 -1.171875 
z
" id="SimHei-103"/>
     <path d="M 28.125 58.203125 
L 20.3125 58.203125 
L 20.3125 68.359375 
L 28.125 68.359375 
z
M 28.125 1.953125 
L 20.3125 1.953125 
L 20.3125 45.703125 
L 28.125 45.703125 
z
" id="SimHei-105"/>
     <path d="M 48.046875 45.703125 
L 38.28125 1.171875 
L 30.859375 1.171875 
L 24.609375 35.15625 
L 23.828125 35.15625 
L 17.578125 1.171875 
L 10.15625 1.171875 
L 0.390625 45.703125 
L 8.59375 45.703125 
L 13.671875 16.40625 
L 14.453125 16.40625 
L 19.921875 45.703125 
L 28.515625 45.703125 
L 33.984375 16.40625 
L 34.765625 16.40625 
L 39.84375 45.703125 
z
" id="SimHei-119"/>
     <path d="M 44.921875 1.953125 
L 35.546875 1.953125 
Q 34.765625 2.734375 34.375 4.09375 
Q 33.984375 5.46875 33.984375 7.421875 
Q 31.25 4.296875 27.34375 2.734375 
Q 23.4375 1.171875 19.140625 1.171875 
Q 12.890625 1.171875 8.59375 4.296875 
Q 4.296875 7.421875 4.296875 13.28125 
Q 4.296875 19.140625 8.203125 22.65625 
Q 12.109375 26.171875 20.3125 27.34375 
Q 25.78125 28.125 29.875 29.296875 
Q 33.984375 30.46875 33.984375 32.421875 
Q 33.984375 34.765625 32.21875 37.109375 
Q 30.46875 39.453125 24.609375 39.453125 
Q 19.921875 39.453125 17.765625 37.6875 
Q 15.625 35.9375 14.84375 32.8125 
L 6.25 32.8125 
Q 7.03125 39.0625 11.90625 42.765625 
Q 16.796875 46.484375 24.609375 46.484375 
Q 33.203125 46.484375 37.5 42.578125 
Q 41.796875 38.671875 41.796875 31.640625 
L 41.796875 10.15625 
Q 41.796875 7.8125 42.578125 5.859375 
Q 43.359375 3.90625 44.921875 1.953125 
z
M 33.984375 16.40625 
L 33.984375 24.21875 
Q 31.640625 23.4375 29.484375 22.84375 
Q 27.34375 22.265625 22.265625 21.484375 
Q 16.40625 20.703125 14.640625 18.75 
Q 12.890625 16.796875 12.890625 14.0625 
Q 12.890625 11.71875 14.640625 9.953125 
Q 16.40625 8.203125 19.921875 8.203125 
Q 23.4375 8.203125 27.53125 10.15625 
Q 31.640625 12.109375 33.984375 16.40625 
z
" id="SimHei-97"/>
     <path d="M 44.921875 45.703125 
L 28.515625 1.171875 
L 19.921875 1.171875 
L 3.515625 45.703125 
L 11.71875 45.703125 
L 23.828125 11.71875 
L 24.609375 11.71875 
L 36.71875 45.703125 
z
" id="SimHei-118"/>
     <path id="SimHei-32"/>
     <path d="M 46.484375 33.203125 
L 1.953125 33.203125 
L 1.953125 39.453125 
L 46.484375 39.453125 
z
" id="SimHei-45"/>
     <path d="M 87.5 28.90625 
Q 87.109375 21.484375 87.109375 8.984375 
Q 87.109375 -3.515625 87.5 -10.9375 
L 79.6875 -10.9375 
L 79.6875 -4.6875 
L 48.4375 -4.6875 
L 48.4375 -10.546875 
L 40.625 -10.546875 
Q 41.015625 -1.953125 41.015625 9.765625 
Q 41.015625 21.484375 40.625 28.90625 
L 87.5 28.90625 
z
M 67.96875 67.96875 
Q 72.265625 76.5625 73.828125 82.421875 
Q 77.734375 80.46875 82.421875 78.90625 
Q 79.296875 76.171875 75.390625 67.96875 
Q 88.28125 67.96875 94.53125 68.359375 
L 94.53125 62.109375 
Q 89.453125 62.5 75 62.5 
L 75 42.1875 
Q 87.109375 42.1875 96.484375 42.578125 
L 96.484375 36.328125 
Q 89.84375 36.71875 83.984375 36.71875 
L 42.96875 36.71875 
Q 35.546875 36.71875 29.296875 36.328125 
L 29.296875 42.578125 
Q 35.546875 42.1875 51.5625 42.1875 
L 51.5625 62.5 
Q 38.671875 62.5 32.8125 62.109375 
L 32.8125 68.359375 
Q 40.234375 67.96875 51.171875 67.96875 
Q 49.609375 71.09375 44.140625 77.34375 
Q 47.265625 79.6875 49.609375 82.03125 
Q 55.46875 75.390625 58.203125 71.875 
Q 55.859375 69.921875 53.90625 67.96875 
z
M 35.15625 8.984375 
Q 31.640625 6.25 26.5625 1.359375 
Q 21.484375 -3.515625 18.359375 -7.421875 
Q 16.40625 -3.515625 12.5 -1.5625 
Q 15.625 0.78125 15.625 4.296875 
L 15.625 42.578125 
Q 8.59375 42.578125 3.515625 42.1875 
L 3.515625 49.21875 
Q 8.203125 48.828125 11.328125 48.828125 
L 23.046875 48.828125 
Q 22.65625 42.578125 22.65625 36.71875 
L 22.65625 7.03125 
Q 26.171875 10.15625 30.46875 16.015625 
Q 31.640625 13.28125 35.15625 8.984375 
z
M 79.6875 14.84375 
L 79.6875 23.046875 
L 48.4375 23.046875 
L 48.4375 14.84375 
z
M 79.6875 0.78125 
L 79.6875 8.984375 
L 48.4375 8.984375 
L 48.4375 0.78125 
z
M 67.96875 42.1875 
L 67.96875 62.5 
L 58.59375 62.5 
L 58.59375 42.1875 
z
M 14.453125 77.734375 
Q 18.359375 73.4375 26.953125 64.84375 
Q 23.046875 62.5 19.921875 59.375 
Q 14.0625 67.1875 8.59375 72.65625 
Q 10.9375 74.609375 14.453125 77.734375 
z
M 91.40625 57.421875 
Q 86.328125 48.046875 83.984375 44.140625 
Q 80.859375 46.484375 78.125 46.875 
Q 82.03125 53.90625 83.984375 60.15625 
Q 87.890625 58.203125 91.40625 57.421875 
z
M 35.15625 56.25 
Q 38.28125 57.421875 41.015625 59.375 
Q 45.3125 53.515625 48.4375 48.4375 
Q 44.53125 46.875 41.40625 44.921875 
Q 39.453125 50.390625 35.15625 56.25 
z
" id="SimHei-35889"/>
    </defs>
    <g transform="translate(1170.23125 73.1375)scale(0.8 -0.8)">
     <use xlink:href="#SimHei-101"/>
     <use x="50" xlink:href="#SimHei-110"/>
     <use x="100" xlink:href="#SimHei-103"/>
     <use x="150" xlink:href="#SimHei-105"/>
     <use x="200" xlink:href="#SimHei-110"/>
     <use x="250" xlink:href="#SimHei-101"/>
     <use x="300" xlink:href="#SimHei-46"/>
     <use x="350" xlink:href="#SimHei-119"/>
     <use x="400" xlink:href="#SimHei-97"/>
     <use x="450" xlink:href="#SimHei-118"/>
     <use x="500" xlink:href="#SimHei-32"/>
     <use x="550" xlink:href="#SimHei-45"/>
     <use x="600" xlink:href="#SimHei-32"/>
     <use x="650" xlink:href="#SimHei-24133"/>
     <use x="750" xlink:href="#SimHei-24230"/>
     <use x="850" xlink:href="#SimHei-35889"/>
    </g>
   </g>
  </g>
 </g>
 <defs>
  <clipPath id="p1b694eb207">
   <rect height="554.4" width="2790" x="155.23125" y="79.1375"/>
  </clipPath>
 </defs>
</svg>
