<?xml version="1.0" encoding="utf-8" standalone="no"?>
<!DOCTYPE svg PUBLIC "-//W3C//DTD SVG 1.1//EN"
  "http://www.w3.org/Graphics/SVG/1.1/DTD/svg11.dtd">
<!-- Created with matplotlib (https://matplotlib.org/) -->
<svg height="670.64375pt" version="1.1" viewBox="0 0 2885.93125 670.64375" width="2885.93125pt" xmlns="http://www.w3.org/2000/svg" xmlns:xlink="http://www.w3.org/1999/xlink">
 <defs>
  <style type="text/css">
*{stroke-linecap:butt;stroke-linejoin:round;}
  </style>
 </defs>
 <g id="figure_1">
  <g id="patch_1">
   <path d="M 0 670.64375 
L 2885.93125 670.64375 
L 2885.93125 0 
L 0 0 
z
" style="fill:#ffffff;"/>
  </g>
  <g id="axes_1">
   <g id="patch_2">
    <path d="M 85.23125 599.94375 
L 2875.23125 599.94375 
L 2875.23125 45.54375 
L 85.23125 45.54375 
z
" style="fill:#ffffff;"/>
   </g>
   <g id="matplotlib.axis_1">
    <g id="xtick_1">
     <g id="line2d_1">
      <defs>
       <path d="M 0 0 
L 0 3.5 
" id="md8b01af214" style="stroke:#000000;stroke-width:0.8;"/>
      </defs>
      <g>
       <use style="stroke:#000000;stroke-width:0.8;" x="465.939686" xlink:href="#md8b01af214" y="599.94375"/>
      </g>
     </g>
     <g id="text_1">
      <!-- -0.4 -->
      <defs>
       <path d="M 46.484375 33.203125 
L 1.953125 33.203125 
L 1.953125 39.453125 
L 46.484375 39.453125 
z
" id="SimHei-45"/>
       <path d="M 3.125 29.296875 
Q 3.90625 50 6.4375 56.046875 
Q 8.984375 62.109375 13.671875 66.015625 
Q 18.359375 69.921875 25.1875 69.921875 
Q 32.03125 69.921875 37.109375 64.25 
Q 42.1875 58.59375 43.75 50 
Q 45.3125 41.40625 44.71875 30.265625 
Q 44.140625 19.140625 40.8125 12.109375 
Q 37.5 5.078125 30.859375 2.34375 
Q 24.21875 -0.390625 17.578125 2.921875 
Q 10.9375 6.25 8.203125 11.71875 
Q 5.46875 17.1875 4.296875 23.234375 
Q 3.125 29.296875 3.90625 50 
z
M 12.890625 52.734375 
Q 10.546875 31.25 12.5 22.84375 
Q 14.453125 14.453125 18.9375 10.9375 
Q 23.4375 7.421875 28.125 9.5625 
Q 32.8125 11.71875 34.953125 18.15625 
Q 37.109375 24.609375 37.109375 32.21875 
Q 37.109375 39.84375 36.515625 46.09375 
Q 35.9375 52.34375 33 57.421875 
Q 30.078125 62.5 25.1875 62.6875 
Q 20.3125 62.890625 16.59375 57.8125 
Q 12.890625 52.734375 10.546875 31.25 
z
" id="SimHei-48"/>
       <path d="M 16.796875 1.953125 
L 7.8125 1.953125 
L 7.8125 10.546875 
L 16.796875 10.546875 
z
" id="SimHei-46"/>
       <path d="M 31.25 17.1875 
L 1.171875 17.1875 
L 1.171875 23.828125 
L 32.8125 69.53125 
L 38.671875 69.53125 
L 38.671875 23.828125 
L 48.046875 23.828125 
L 48.046875 17.1875 
L 38.671875 17.1875 
L 38.671875 2.34375 
L 31.25 2.34375 
z
M 31.25 23.828125 
L 31.25 54.6875 
L 9.375 23.828125 
z
" id="SimHei-52"/>
      </defs>
      <g transform="translate(445.939686 620.69375)scale(0.2 -0.2)">
       <use xlink:href="#SimHei-45"/>
       <use x="50" xlink:href="#SimHei-48"/>
       <use x="100" xlink:href="#SimHei-46"/>
       <use x="150" xlink:href="#SimHei-52"/>
      </g>
     </g>
    </g>
    <g id="xtick_2">
     <g id="line2d_2">
      <g>
       <use style="stroke:#000000;stroke-width:0.8;" x="973.720193" xlink:href="#md8b01af214" y="599.94375"/>
      </g>
     </g>
     <g id="text_2">
      <!-- -0.2 -->
      <defs>
       <path d="M 4.6875 3.90625 
Q 5.078125 9.765625 10.15625 14.453125 
Q 15.234375 19.140625 23.046875 29.09375 
Q 30.859375 39.0625 33.203125 44.53125 
Q 35.546875 50 34.953125 53.90625 
Q 34.375 57.8125 31.25 60.34375 
Q 28.125 62.890625 24.015625 62.5 
Q 19.921875 62.109375 16.203125 59.375 
Q 12.5 56.640625 10.546875 51.171875 
L 3.125 52.34375 
Q 6.25 61.328125 11.125 65.421875 
Q 16.015625 69.53125 22.65625 69.921875 
Q 26.5625 70.3125 29.6875 69.71875 
Q 32.8125 69.140625 36.125 66.984375 
Q 39.453125 64.84375 41.59375 60.546875 
Q 43.75 56.25 43.15625 50.1875 
Q 42.578125 44.140625 37.109375 35.734375 
Q 31.640625 27.34375 16.015625 9.375 
L 44.140625 9.375 
L 44.140625 2.34375 
L 4.6875 2.34375 
z
" id="SimHei-50"/>
      </defs>
      <g transform="translate(953.720193 620.69375)scale(0.2 -0.2)">
       <use xlink:href="#SimHei-45"/>
       <use x="50" xlink:href="#SimHei-48"/>
       <use x="100" xlink:href="#SimHei-46"/>
       <use x="150" xlink:href="#SimHei-50"/>
      </g>
     </g>
    </g>
    <g id="xtick_3">
     <g id="line2d_3">
      <g>
       <use style="stroke:#000000;stroke-width:0.8;" x="1481.500701" xlink:href="#md8b01af214" y="599.94375"/>
      </g>
     </g>
     <g id="text_3">
      <!-- 0.0 -->
      <g transform="translate(1466.500701 620.69375)scale(0.2 -0.2)">
       <use xlink:href="#SimHei-48"/>
       <use x="50" xlink:href="#SimHei-46"/>
       <use x="100" xlink:href="#SimHei-48"/>
      </g>
     </g>
    </g>
    <g id="xtick_4">
     <g id="line2d_4">
      <g>
       <use style="stroke:#000000;stroke-width:0.8;" x="1989.281209" xlink:href="#md8b01af214" y="599.94375"/>
      </g>
     </g>
     <g id="text_4">
      <!-- 0.2 -->
      <g transform="translate(1974.281209 620.69375)scale(0.2 -0.2)">
       <use xlink:href="#SimHei-48"/>
       <use x="50" xlink:href="#SimHei-46"/>
       <use x="100" xlink:href="#SimHei-50"/>
      </g>
     </g>
    </g>
    <g id="xtick_5">
     <g id="line2d_5">
      <g>
       <use style="stroke:#000000;stroke-width:0.8;" x="2497.061717" xlink:href="#md8b01af214" y="599.94375"/>
      </g>
     </g>
     <g id="text_5">
      <!-- 0.4 -->
      <g transform="translate(2482.061717 620.69375)scale(0.2 -0.2)">
       <use xlink:href="#SimHei-48"/>
       <use x="50" xlink:href="#SimHei-46"/>
       <use x="100" xlink:href="#SimHei-52"/>
      </g>
     </g>
    </g>
    <g id="text_6">
     <!-- 频率 -->
     <defs>
      <path d="M 66.40625 69.53125 
Q 55.859375 69.53125 48.828125 69.140625 
L 48.828125 75.78125 
Q 55.46875 75.390625 61.328125 75.390625 
L 81.640625 75.390625 
Q 87.5 75.390625 93.75 75.78125 
L 93.75 69.140625 
Q 87.5 69.53125 73.4375 69.53125 
Q 72.265625 63.28125 71.09375 56.640625 
L 91.796875 56.640625 
Q 91.40625 51.171875 91.40625 45.3125 
L 91.40625 25.78125 
Q 91.40625 20.3125 91.796875 11.71875 
L 84.375 11.71875 
L 84.375 50.78125 
L 60.546875 50.78125 
L 60.546875 12.5 
L 53.125 12.5 
Q 53.515625 19.921875 53.515625 25.78125 
L 53.515625 44.140625 
Q 53.515625 51.171875 53.125 56.640625 
L 64.453125 56.640625 
Q 65.625 64.0625 66.40625 69.53125 
z
M 26.171875 42.96875 
Q 10.15625 42.96875 5.46875 42.578125 
L 5.46875 49.21875 
Q 8.59375 48.828125 11.328125 48.828125 
Q 11.328125 66.796875 10.9375 72.265625 
L 18.75 72.265625 
Q 18.359375 66.796875 18.359375 48.828125 
L 26.171875 48.828125 
L 26.171875 66.796875 
Q 26.171875 74.21875 25.78125 80.078125 
L 33.59375 80.078125 
Q 33.203125 74.21875 33.203125 66.40625 
Q 41.015625 66.40625 47.265625 66.796875 
L 47.265625 60.15625 
Q 41.015625 60.546875 33.203125 60.546875 
L 33.203125 48.828125 
Q 44.53125 48.828125 49.21875 49.21875 
L 49.21875 42.578125 
Q 44.53125 42.96875 33.203125 42.96875 
L 26.171875 42.96875 
z
M 33.59375 40.625 
Q 33.203125 35.15625 33.203125 30.078125 
L 33.203125 16.40625 
Q 40.625 25.78125 41.40625 34.375 
Q 44.921875 32.8125 49.609375 32.421875 
Q 44.53125 16.796875 34.171875 7.03125 
Q 23.828125 -2.734375 10.9375 -7.8125 
Q 8.59375 -3.90625 3.125 -1.171875 
Q 11.71875 1.171875 16.984375 3.703125 
Q 22.265625 6.25 26.171875 9.765625 
L 26.171875 29.6875 
Q 26.171875 35.15625 25.78125 40.625 
L 33.59375 40.625 
z
M 43.359375 -3.90625 
Q 53.125 -1.171875 58.390625 3.515625 
Q 63.671875 8.203125 65.8125 13.859375 
Q 67.96875 19.53125 68.15625 26.953125 
Q 68.359375 34.375 67.96875 42.96875 
Q 72.65625 42.1875 76.953125 41.40625 
Q 75.78125 36.328125 75.578125 30.859375 
Q 75.390625 25.390625 74.21875 17.375 
Q 73.046875 9.375 67.1875 2.53125 
Q 61.328125 -4.296875 50.78125 -10.15625 
Q 48.046875 -7.03125 43.359375 -3.90625 
z
M 91.40625 -10.15625 
Q 86.71875 -4.296875 75 3.90625 
Q 77.734375 6.640625 79.296875 9.375 
Q 91.015625 1.171875 96.875 -3.90625 
Q 93.359375 -6.640625 91.40625 -10.15625 
z
M 6.25 18.359375 
Q 10.15625 24.21875 14.0625 37.109375 
Q 17.578125 35.546875 21.484375 34.765625 
Q 15.625 20.703125 13.28125 16.015625 
Q 10.15625 17.96875 6.25 18.359375 
z
" id="SimHei-39057"/>
      <path d="M 51.953125 80.46875 
Q 53.515625 76.5625 55.46875 70.703125 
L 75 70.703125 
Q 82.03125 70.703125 90.625 71.09375 
L 90.625 64.453125 
Q 82.03125 65.234375 74.609375 65.234375 
L 43.75 65.234375 
Q 46.484375 63.28125 51.5625 60.9375 
Q 48.046875 58.59375 44.921875 55.265625 
Q 41.796875 51.953125 38.671875 48.828125 
L 51.171875 48.828125 
Q 55.859375 53.515625 58.984375 58.984375 
Q 62.5 56.25 66.796875 53.515625 
Q 61.71875 50.78125 56.25 44.921875 
Q 50.78125 39.0625 41.015625 31.25 
L 60.15625 32.8125 
Q 58.203125 35.15625 56.25 37.890625 
Q 58.59375 38.671875 62.5 41.40625 
Q 66.40625 36.71875 73.4375 26.5625 
Q 69.921875 25.390625 66.015625 22.65625 
Q 65.234375 25 62.890625 27.734375 
Q 57.8125 27.34375 53.515625 27.34375 
L 53.515625 16.40625 
L 80.46875 16.40625 
Q 88.671875 16.40625 95.3125 16.796875 
L 95.3125 10.15625 
Q 89.0625 10.546875 80.078125 10.546875 
L 53.515625 10.546875 
L 53.515625 2.734375 
Q 53.515625 -4.6875 53.90625 -9.765625 
L 45.3125 -9.765625 
Q 45.703125 -4.6875 45.703125 2.734375 
L 45.703125 10.546875 
L 20.703125 10.546875 
Q 12.890625 10.546875 5.078125 10.15625 
L 5.078125 16.796875 
Q 12.890625 16.40625 21.09375 16.40625 
L 45.703125 16.40625 
L 45.703125 26.5625 
Q 42.1875 26.171875 38.671875 25.578125 
Q 35.15625 25 31.640625 23.828125 
Q 30.46875 27.734375 28.90625 31.25 
Q 32.421875 31.640625 36.328125 34.375 
Q 40.234375 37.109375 46.484375 43.75 
Q 35.9375 42.578125 31.640625 41.015625 
Q 30.859375 44.921875 28.90625 49.609375 
Q 32.421875 49.609375 36.328125 54.484375 
Q 40.234375 59.375 42.96875 65.234375 
L 26.5625 65.234375 
Q 17.96875 65.234375 10.15625 64.453125 
L 10.15625 71.09375 
Q 17.96875 70.703125 24.21875 70.703125 
L 46.484375 70.703125 
Q 45.3125 75.390625 43.75 78.515625 
Q 47.265625 79.296875 51.953125 80.46875 
z
M 25.390625 40.234375 
Q 26.953125 37.5 28.515625 34.375 
Q 24.609375 32.03125 20.703125 29.09375 
Q 16.796875 26.171875 12.5 22.265625 
Q 9.765625 26.171875 7.421875 29.296875 
Q 12.5 31.640625 17.1875 34.5625 
Q 21.875 37.5 25.390625 40.234375 
z
M 75.78125 41.40625 
Q 80.078125 38.671875 83.390625 36.515625 
Q 86.71875 34.375 91.796875 30.46875 
Q 88.671875 28.125 85.9375 25 
Q 82.8125 27.734375 79.09375 30.859375 
Q 75.390625 33.984375 71.484375 36.328125 
Q 73.828125 38.671875 75.78125 41.40625 
z
M 89.453125 55.078125 
Q 86.71875 53.90625 82.8125 50.96875 
Q 78.90625 48.046875 75 44.140625 
Q 72.265625 47.65625 69.921875 49.609375 
Q 73.4375 51.953125 76.171875 54.484375 
Q 78.90625 57.03125 82.8125 61.328125 
Q 86.328125 57.8125 89.453125 55.078125 
z
M 16.40625 60.15625 
Q 22.265625 56.25 27.734375 51.171875 
Q 24.609375 48.4375 22.265625 45.703125 
Q 16.796875 51.5625 10.546875 55.078125 
Q 13.671875 57.8125 16.40625 60.15625 
z
" id="SimHei-29575"/>
     </defs>
     <g transform="translate(1440.23125 658.44375)scale(0.4 -0.4)">
      <use xlink:href="#SimHei-39057"/>
      <use x="100" xlink:href="#SimHei-29575"/>
     </g>
    </g>
   </g>
   <g id="matplotlib.axis_2">
    <g id="ytick_1">
     <g id="line2d_6">
      <defs>
       <path d="M 0 0 
L -3.5 0 
" id="m56089b9302" style="stroke:#000000;stroke-width:0.8;"/>
      </defs>
      <g>
       <use style="stroke:#000000;stroke-width:0.8;" x="85.23125" xlink:href="#m56089b9302" y="519.327171"/>
      </g>
     </g>
     <g id="text_7">
      <!-- 1.0 -->
      <defs>
       <path d="M 21.875 56.25 
Q 16.796875 51.171875 8.984375 46.484375 
L 8.984375 53.90625 
Q 18.75 60.546875 25 69.53125 
L 29.6875 69.53125 
L 29.6875 2.34375 
L 21.875 2.34375 
z
" id="SimHei-49"/>
      </defs>
      <g transform="translate(48.23125 526.202171)scale(0.2 -0.2)">
       <use xlink:href="#SimHei-49"/>
       <use x="50" xlink:href="#SimHei-46"/>
       <use x="100" xlink:href="#SimHei-48"/>
      </g>
     </g>
    </g>
    <g id="ytick_2">
     <g id="line2d_7">
      <g>
       <use style="stroke:#000000;stroke-width:0.8;" x="85.23125" xlink:href="#m56089b9302" y="417.543966"/>
      </g>
     </g>
     <g id="text_8">
      <!-- 1.5 -->
      <defs>
       <path d="M 8.59375 20.703125 
Q 11.328125 10.15625 17.96875 8.984375 
Q 24.609375 7.8125 28.703125 10.34375 
Q 32.8125 12.890625 34.5625 16.984375 
Q 36.328125 21.09375 36.125 26.171875 
Q 35.9375 31.25 33.390625 34.765625 
Q 30.859375 38.28125 26.953125 39.453125 
Q 23.046875 40.625 18.15625 39.453125 
Q 13.28125 38.28125 10.15625 33.984375 
L 3.515625 34.765625 
Q 4.296875 37.109375 10.9375 68.359375 
L 41.796875 68.359375 
L 41.796875 61.328125 
L 16.796875 61.328125 
Q 14.84375 50.78125 12.890625 44.53125 
Q 18.75 47.265625 23.828125 47.0625 
Q 28.90625 46.875 33.59375 44.71875 
Q 38.28125 42.578125 40.421875 38.859375 
Q 42.578125 35.15625 43.546875 31.4375 
Q 44.53125 27.734375 44.328125 23.4375 
Q 44.140625 19.140625 42.578125 14.640625 
Q 41.015625 10.15625 37.890625 7.21875 
Q 34.765625 4.296875 30.265625 2.53125 
Q 25.78125 0.78125 19.921875 1.171875 
Q 14.0625 1.5625 8.78125 5.46875 
Q 3.515625 9.375 1.5625 18.75 
z
" id="SimHei-53"/>
      </defs>
      <g transform="translate(48.23125 424.418966)scale(0.2 -0.2)">
       <use xlink:href="#SimHei-49"/>
       <use x="50" xlink:href="#SimHei-46"/>
       <use x="100" xlink:href="#SimHei-53"/>
      </g>
     </g>
    </g>
    <g id="ytick_3">
     <g id="line2d_8">
      <g>
       <use style="stroke:#000000;stroke-width:0.8;" x="85.23125" xlink:href="#m56089b9302" y="315.76076"/>
      </g>
     </g>
     <g id="text_9">
      <!-- 2.0 -->
      <g transform="translate(48.23125 322.63576)scale(0.2 -0.2)">
       <use xlink:href="#SimHei-50"/>
       <use x="50" xlink:href="#SimHei-46"/>
       <use x="100" xlink:href="#SimHei-48"/>
      </g>
     </g>
    </g>
    <g id="ytick_4">
     <g id="line2d_9">
      <g>
       <use style="stroke:#000000;stroke-width:0.8;" x="85.23125" xlink:href="#m56089b9302" y="213.977555"/>
      </g>
     </g>
     <g id="text_10">
      <!-- 2.5 -->
      <g transform="translate(48.23125 220.852555)scale(0.2 -0.2)">
       <use xlink:href="#SimHei-50"/>
       <use x="50" xlink:href="#SimHei-46"/>
       <use x="100" xlink:href="#SimHei-53"/>
      </g>
     </g>
    </g>
    <g id="ytick_5">
     <g id="line2d_10">
      <g>
       <use style="stroke:#000000;stroke-width:0.8;" x="85.23125" xlink:href="#m56089b9302" y="112.194349"/>
      </g>
     </g>
     <g id="text_11">
      <!-- 3.0 -->
      <defs>
       <path d="M 3.90625 19.140625 
L 10.9375 20.3125 
Q 12.5 15.234375 16.015625 11.90625 
Q 19.53125 8.59375 24.796875 8.78125 
Q 30.078125 8.984375 33.203125 13.078125 
Q 36.328125 17.1875 35.9375 22.453125 
Q 35.546875 27.734375 31.828125 30.65625 
Q 28.125 33.59375 19.921875 34.765625 
L 19.921875 39.84375 
Q 28.125 40.625 31.828125 44.140625 
Q 35.546875 47.65625 35.15625 53.3125 
Q 34.765625 58.984375 30.078125 61.515625 
Q 25.390625 64.0625 20.109375 62.109375 
Q 14.84375 60.15625 11.71875 51.171875 
L 4.6875 52.34375 
Q 7.03125 59.375 11.125 64.0625 
Q 15.234375 68.75 22.265625 69.53125 
Q 29.296875 70.3125 34.5625 67.765625 
Q 39.84375 65.234375 41.984375 59.953125 
Q 44.140625 54.6875 42.578125 48.4375 
Q 41.015625 42.1875 33.59375 37.5 
Q 39.0625 35.15625 41.984375 30.46875 
Q 44.921875 25.78125 43.9375 18.15625 
Q 42.96875 10.546875 37.109375 5.859375 
Q 31.25 1.171875 23.828125 1.359375 
Q 16.40625 1.5625 10.9375 6.046875 
Q 5.46875 10.546875 3.90625 19.140625 
z
" id="SimHei-51"/>
      </defs>
      <g transform="translate(48.23125 119.069349)scale(0.2 -0.2)">
       <use xlink:href="#SimHei-51"/>
       <use x="50" xlink:href="#SimHei-46"/>
       <use x="100" xlink:href="#SimHei-48"/>
      </g>
     </g>
    </g>
    <g id="text_12">
     <!-- 幅度 -->
     <defs>
      <path d="M 92.96875 35.15625 
Q 92.578125 29.296875 92.578125 14.0625 
Q 92.578125 -0.78125 92.96875 -6.640625 
L 85.15625 -6.640625 
L 85.15625 -2.734375 
L 52.34375 -2.734375 
L 52.34375 -7.421875 
L 44.921875 -7.421875 
Q 45.3125 3.125 45.3125 16.015625 
Q 45.3125 29.296875 44.921875 35.15625 
L 92.96875 35.15625 
z
M 40.234375 17.578125 
Q 40.234375 12.5 38.078125 10.9375 
Q 35.9375 9.375 30.46875 8.203125 
Q 29.6875 12.5 27.34375 15.625 
Q 30.859375 15.625 32.421875 16.203125 
Q 33.984375 16.796875 33.984375 20.3125 
L 33.984375 58.203125 
L 26.5625 58.203125 
L 26.5625 7.421875 
Q 26.5625 0 26.953125 -8.59375 
L 19.140625 -8.59375 
Q 19.53125 -0.390625 19.53125 7.421875 
L 19.53125 58.203125 
L 13.28125 58.203125 
L 13.28125 7.8125 
L 6.25 7.8125 
Q 6.640625 15.625 6.640625 35.9375 
Q 6.640625 56.25 6.25 64.0625 
L 19.53125 64.0625 
L 19.53125 70.3125 
Q 19.53125 75.390625 19.140625 80.859375 
L 26.953125 80.859375 
Q 26.5625 75.390625 26.5625 70.3125 
L 26.5625 64.0625 
L 40.625 64.0625 
Q 40.234375 60.9375 40.234375 50.390625 
z
M 87.109375 61.328125 
Q 86.71875 56.640625 86.71875 51.5625 
Q 86.71875 46.484375 87.109375 40.625 
L 50 40.625 
Q 50.390625 46.484375 50.390625 51.5625 
Q 50.390625 56.640625 50 61.328125 
L 87.109375 61.328125 
z
M 82.03125 75 
Q 88.28125 75 94.140625 75.390625 
L 94.140625 68.359375 
Q 88.28125 68.75 82.03125 68.75 
L 55.46875 68.75 
Q 48.046875 68.75 43.75 68.359375 
L 43.75 75.390625 
Q 48.046875 75 55.46875 75 
z
M 80.46875 46.484375 
L 80.46875 55.859375 
L 56.640625 55.859375 
L 56.640625 46.484375 
z
M 85.15625 19.140625 
L 85.15625 29.296875 
L 72.265625 29.296875 
L 72.265625 19.140625 
z
M 65.234375 3.125 
L 65.234375 13.28125 
L 52.34375 13.28125 
L 52.34375 3.125 
z
M 85.15625 3.125 
L 85.15625 13.28125 
L 72.265625 13.28125 
L 72.265625 3.125 
z
M 65.234375 19.140625 
L 65.234375 29.296875 
L 52.34375 29.296875 
L 52.34375 19.140625 
z
" id="SimHei-24133"/>
      <path d="M 27.34375 26.171875 
Q 38.28125 25.78125 44.921875 25.78125 
L 81.25 25.78125 
Q 77.734375 19.53125 72.65625 13.28125 
Q 67.578125 7.03125 62.890625 3.125 
Q 67.96875 0.78125 77.34375 -0.78125 
Q 86.71875 -2.34375 95.3125 -2.34375 
Q 92.96875 -4.6875 91.015625 -10.15625 
Q 79.6875 -8.59375 71.09375 -6.4375 
Q 62.5 -4.296875 56.640625 -1.5625 
Q 48.4375 -5.078125 40.421875 -7.21875 
Q 32.421875 -9.375 23.828125 -10.546875 
Q 22.65625 -7.421875 19.140625 -3.90625 
Q 26.171875 -3.90625 35.15625 -1.953125 
Q 44.140625 0 50.78125 3.125 
Q 44.140625 8.59375 37.5 19.921875 
L 27.34375 19.53125 
z
M 46.484375 79.296875 
Q 50.78125 80.46875 54.296875 82.03125 
Q 56.640625 77.734375 58.984375 70.703125 
L 73.4375 70.703125 
Q 77.734375 70.703125 89.0625 71.09375 
L 89.0625 64.0625 
Q 78.125 64.453125 72.65625 64.453125 
L 21.484375 64.453125 
Q 21.484375 46.875 21.09375 36.125 
Q 20.703125 25.390625 18.9375 14.84375 
Q 17.1875 4.296875 11.328125 -8.203125 
Q 7.8125 -5.859375 3.90625 -4.6875 
Q 10.15625 6.25 11.90625 16.796875 
Q 13.671875 27.34375 13.859375 43.75 
Q 14.0625 60.15625 13.671875 70.703125 
L 50 70.703125 
Q 48.4375 75.78125 46.484375 79.296875 
z
M 38.671875 51.5625 
Q 38.671875 57.8125 38.28125 61.328125 
L 46.484375 61.328125 
Q 46.09375 58.203125 46.09375 51.5625 
L 67.1875 51.5625 
Q 67.1875 57.8125 66.796875 61.71875 
L 75 61.71875 
Q 74.609375 57.03125 74.609375 51.5625 
Q 83.203125 51.5625 89.453125 51.953125 
L 89.453125 45.3125 
Q 83.59375 45.703125 74.609375 45.703125 
Q 74.609375 35.15625 75 30.46875 
L 38.28125 30.46875 
Q 38.671875 36.71875 38.671875 45.703125 
Q 33.984375 45.703125 25 45.3125 
L 25 51.953125 
Q 33.984375 51.5625 38.671875 51.5625 
z
M 67.1875 36.71875 
L 67.1875 45.703125 
L 46.09375 45.703125 
L 46.09375 36.71875 
z
M 44.921875 19.921875 
Q 50 12.109375 57.03125 6.640625 
Q 62.890625 10.9375 69.140625 19.921875 
L 45.3125 19.921875 
z
" id="SimHei-24230"/>
     </defs>
     <g transform="translate(39.23125 362.74375)rotate(-90)scale(0.4 -0.4)">
      <use xlink:href="#SimHei-24133"/>
      <use x="100" xlink:href="#SimHei-24230"/>
     </g>
    </g>
   </g>
   <g id="line2d_11">
    <path clip-path="url(#pc679265ce2)" d="M 212.049432 574.74375 
L 227.282847 574.612771 
L 242.516262 574.219212 
L 257.749678 573.561228 
L 270.44419 572.808795 
L 283.138703 571.868409 
L 295.833216 570.737375 
L 308.527728 569.412659 
L 321.222241 567.890973 
L 333.916754 566.168875 
L 346.611266 564.242868 
L 359.305779 562.109503 
L 372.000292 559.76548 
L 384.694804 557.207744 
L 397.389317 554.433571 
L 410.08383 551.440648 
L 422.778343 548.227143 
L 435.472855 544.791763 
L 448.167368 541.133792 
L 460.861881 537.253129 
L 473.556393 533.150307 
L 486.250906 528.826496 
L 498.945419 524.283509 
L 511.639931 519.523783 
L 524.334444 514.550369 
L 537.028957 509.366902 
L 549.723469 503.977572 
L 564.956885 497.245314 
L 580.1903 490.232504 
L 595.423715 482.949143 
L 610.65713 475.406068 
L 625.890546 467.614866 
L 641.123961 459.587791 
L 656.357376 451.337686 
L 674.129694 441.44852 
L 691.902012 431.295952 
L 709.674329 420.902645 
L 729.98555 408.759635 
L 750.29677 396.367996 
L 773.146893 382.17512 
L 798.535918 366.153004 
L 831.541651 345.042183 
L 948.331168 270.03385 
L 973.720193 254.122399 
L 996.570316 240.050936 
L 1016.881537 227.781692 
L 1037.192757 215.771849 
L 1054.965075 205.501591 
L 1072.737393 195.476034 
L 1090.50971 185.715825 
L 1108.282028 176.241016 
L 1123.515443 168.361646 
L 1138.748859 160.718081 
L 1153.982274 153.321791 
L 1169.215689 146.183858 
L 1184.449104 139.314961 
L 1199.682519 132.725364 
L 1212.377032 127.454496 
L 1225.071545 122.389881 
L 1237.766058 117.536757 
L 1250.46057 112.900141 
L 1263.155083 108.48482 
L 1275.849596 104.295353 
L 1288.544108 100.336059 
L 1301.238621 96.611019 
L 1313.933134 93.124072 
L 1326.627646 89.878806 
L 1339.322159 86.878562 
L 1352.016672 84.126426 
L 1364.711184 81.625228 
L 1377.405697 79.377539 
L 1390.10021 77.385668 
L 1402.794723 75.651662 
L 1415.489235 74.177301 
L 1428.183748 72.964099 
L 1440.878261 72.013303 
L 1453.572773 71.325887 
L 1466.267286 70.902558 
L 1478.961799 70.74375 
L 1491.656311 70.849626 
L 1504.350824 71.220077 
L 1517.045337 71.854723 
L 1529.73985 72.752913 
L 1542.434362 73.913724 
L 1555.128875 75.335966 
L 1567.823388 77.018177 
L 1580.5179 78.95863 
L 1593.212413 81.155332 
L 1605.906926 83.606026 
L 1618.601438 86.308192 
L 1631.295951 89.259053 
L 1643.990464 92.455574 
L 1656.684976 95.894464 
L 1669.379489 99.572184 
L 1682.074002 103.484946 
L 1694.768515 107.628717 
L 1707.463027 111.999224 
L 1720.15754 116.591957 
L 1732.852053 121.402173 
L 1745.546565 126.424902 
L 1758.241078 131.654949 
L 1773.474493 138.197028 
L 1788.707908 145.020076 
L 1803.941324 152.1139 
L 1819.174739 159.46789 
L 1834.408154 167.071029 
L 1849.641569 174.911911 
L 1864.874985 182.978753 
L 1882.647302 192.659438 
L 1900.41962 202.611263 
L 1918.191938 212.813747 
L 1938.503158 224.753628 
L 1958.814379 236.961115 
L 1981.664501 250.973149 
L 2007.053527 266.831346 
L 2034.981455 284.54864 
L 2073.064993 309.007466 
L 2156.848777 362.92276 
L 2184.776705 380.583781 
L 2210.16573 396.367996 
L 2233.015853 410.291841 
L 2253.327073 422.401267 
L 2271.099391 432.761593 
L 2288.871709 442.877905 
L 2306.644026 452.727631 
L 2321.877442 460.941479 
L 2337.110857 468.930118 
L 2352.344272 476.6808 
L 2367.577687 484.181375 
L 2382.811103 491.420375 
L 2398.044518 498.387097 
L 2413.277933 505.071688 
L 2425.972446 510.420206 
L 2438.666958 515.561981 
L 2451.361471 520.492929 
L 2464.055984 525.209532 
L 2476.750497 529.70886 
L 2489.445009 533.988597 
L 2502.139522 538.047061 
L 2514.834035 541.883207 
L 2527.528547 545.496632 
L 2540.22306 548.887561 
L 2552.917573 552.056828 
L 2565.612085 555.005838 
L 2578.306598 557.736525 
L 2591.001111 560.251289 
L 2603.695623 562.552926 
L 2616.390136 564.644549 
L 2629.084649 566.529496 
L 2641.779162 568.211232 
L 2654.473674 569.693252 
L 2667.168187 570.978975 
L 2679.8627 572.071646 
L 2692.557212 572.974239 
L 2705.251725 573.689368 
L 2720.48514 574.303103 
L 2735.718555 574.652804 
L 2748.413068 574.74375 
L 2748.413068 574.74375 
" style="fill:none;stroke:#1f77b4;stroke-linecap:square;stroke-width:1.5;"/>
   </g>
   <g id="patch_3">
    <path d="M 85.23125 599.94375 
L 85.23125 45.54375 
" style="fill:none;stroke:#000000;stroke-linecap:square;stroke-linejoin:miter;stroke-width:0.8;"/>
   </g>
   <g id="patch_4">
    <path d="M 2875.23125 599.94375 
L 2875.23125 45.54375 
" style="fill:none;stroke:#000000;stroke-linecap:square;stroke-linejoin:miter;stroke-width:0.8;"/>
   </g>
   <g id="patch_5">
    <path d="M 85.23125 599.94375 
L 2875.23125 599.94375 
" style="fill:none;stroke:#000000;stroke-linecap:square;stroke-linejoin:miter;stroke-width:0.8;"/>
   </g>
   <g id="patch_6">
    <path d="M 85.23125 45.54375 
L 2875.23125 45.54375 
" style="fill:none;stroke:#000000;stroke-linecap:square;stroke-linejoin:miter;stroke-width:0.8;"/>
   </g>
   <g id="text_13">
    <!-- low-filter - 幅度谱 -->
    <defs>
     <path d="M 28.515625 1.953125 
L 20.703125 1.953125 
L 20.703125 68.75 
L 28.515625 68.75 
z
" id="SimHei-108"/>
     <path d="M 45.703125 23.828125 
Q 45.703125 13.671875 39.453125 7.421875 
Q 33.203125 1.171875 24.609375 1.171875 
Q 16.015625 1.171875 9.765625 7.421875 
Q 3.515625 13.671875 3.515625 23.828125 
Q 3.515625 33.984375 9.765625 40.234375 
Q 16.015625 46.484375 24.609375 46.484375 
Q 33.203125 46.484375 39.453125 40.234375 
Q 45.703125 33.984375 45.703125 23.828125 
z
M 37.109375 23.828125 
Q 37.109375 31.640625 33.203125 35.546875 
Q 29.296875 39.453125 24.609375 39.453125 
Q 19.921875 39.453125 16.015625 35.546875 
Q 12.109375 31.640625 12.109375 23.828125 
Q 12.109375 16.015625 16.015625 12.109375 
Q 19.921875 8.203125 24.609375 8.203125 
Q 29.296875 8.203125 33.203125 12.109375 
Q 37.109375 16.015625 37.109375 23.828125 
z
" id="SimHei-111"/>
     <path d="M 48.046875 45.703125 
L 38.28125 1.171875 
L 30.859375 1.171875 
L 24.609375 35.15625 
L 23.828125 35.15625 
L 17.578125 1.171875 
L 10.15625 1.171875 
L 0.390625 45.703125 
L 8.59375 45.703125 
L 13.671875 16.40625 
L 14.453125 16.40625 
L 19.921875 45.703125 
L 28.515625 45.703125 
L 33.984375 16.40625 
L 34.765625 16.40625 
L 39.84375 45.703125 
z
" id="SimHei-119"/>
     <path d="M 44.53125 59.765625 
Q 42.578125 60.9375 39.84375 61.71875 
Q 37.109375 62.5 32.8125 62.5 
Q 28.515625 62.5 26.953125 60.34375 
Q 25.390625 58.203125 25.390625 55.078125 
L 25.390625 45.703125 
L 41.40625 45.703125 
L 41.40625 39.453125 
L 25.390625 39.453125 
L 25.390625 1.953125 
L 17.578125 1.953125 
L 17.578125 39.453125 
L 4.296875 39.453125 
L 4.296875 45.703125 
L 17.578125 45.703125 
L 17.578125 54.6875 
Q 17.578125 61.71875 21.875 65.625 
Q 26.171875 69.53125 33.203125 69.53125 
Q 37.5 69.53125 40.03125 68.9375 
Q 42.578125 68.359375 44.53125 67.578125 
z
" id="SimHei-102"/>
     <path d="M 28.125 58.203125 
L 20.3125 58.203125 
L 20.3125 68.359375 
L 28.125 68.359375 
z
M 28.125 1.953125 
L 20.3125 1.953125 
L 20.3125 45.703125 
L 28.125 45.703125 
z
" id="SimHei-105"/>
     <path d="M 42.96875 3.125 
Q 41.015625 2.34375 38.46875 1.75 
Q 35.9375 1.171875 31.640625 1.171875 
Q 24.609375 1.171875 20.3125 5.078125 
Q 16.015625 8.984375 16.015625 16.015625 
L 16.015625 39.453125 
L 2.734375 39.453125 
L 2.734375 45.703125 
L 16.015625 45.703125 
L 16.015625 60.9375 
L 23.828125 60.9375 
L 23.828125 45.703125 
L 39.84375 45.703125 
L 39.84375 39.453125 
L 23.828125 39.453125 
L 23.828125 15.625 
Q 23.828125 12.5 25.390625 10.34375 
Q 26.953125 8.203125 31.25 8.203125 
Q 35.546875 8.203125 38.28125 8.984375 
Q 41.015625 9.765625 42.96875 10.9375 
z
" id="SimHei-116"/>
     <path d="M 44.53125 16.796875 
Q 43.75 9.765625 38.28125 5.46875 
Q 32.8125 1.171875 25.390625 1.171875 
Q 16.015625 1.171875 9.953125 7.21875 
Q 3.90625 13.28125 3.90625 23.828125 
Q 3.90625 34.375 9.953125 40.421875 
Q 16.015625 46.484375 25.390625 46.484375 
Q 33.59375 46.484375 38.859375 41.203125 
Q 44.140625 35.9375 44.140625 23.828125 
L 12.5 23.828125 
Q 12.5 15.234375 16.203125 11.71875 
Q 19.921875 8.203125 25.390625 8.203125 
Q 29.6875 8.203125 32.421875 10.34375 
Q 35.15625 12.5 35.9375 16.796875 
z
M 35.15625 30.078125 
Q 34.375 35.546875 31.640625 37.6875 
Q 28.90625 39.84375 24.609375 39.84375 
Q 20.703125 39.84375 17.578125 37.6875 
Q 14.453125 35.546875 12.890625 30.078125 
z
" id="SimHei-101"/>
     <path d="M 39.0625 37.890625 
Q 31.640625 39.0625 26.5625 35.734375 
Q 21.484375 32.421875 17.96875 24.21875 
L 17.96875 1.953125 
L 10.15625 1.953125 
L 10.15625 45.703125 
L 17.96875 45.703125 
L 17.96875 34.375 
Q 21.484375 40.625 26.75 43.546875 
Q 32.03125 46.484375 39.0625 46.484375 
z
" id="SimHei-114"/>
     <path id="SimHei-32"/>
     <path d="M 87.5 28.90625 
Q 87.109375 21.484375 87.109375 8.984375 
Q 87.109375 -3.515625 87.5 -10.9375 
L 79.6875 -10.9375 
L 79.6875 -4.6875 
L 48.4375 -4.6875 
L 48.4375 -10.546875 
L 40.625 -10.546875 
Q 41.015625 -1.953125 41.015625 9.765625 
Q 41.015625 21.484375 40.625 28.90625 
L 87.5 28.90625 
z
M 67.96875 67.96875 
Q 72.265625 76.5625 73.828125 82.421875 
Q 77.734375 80.46875 82.421875 78.90625 
Q 79.296875 76.171875 75.390625 67.96875 
Q 88.28125 67.96875 94.53125 68.359375 
L 94.53125 62.109375 
Q 89.453125 62.5 75 62.5 
L 75 42.1875 
Q 87.109375 42.1875 96.484375 42.578125 
L 96.484375 36.328125 
Q 89.84375 36.71875 83.984375 36.71875 
L 42.96875 36.71875 
Q 35.546875 36.71875 29.296875 36.328125 
L 29.296875 42.578125 
Q 35.546875 42.1875 51.5625 42.1875 
L 51.5625 62.5 
Q 38.671875 62.5 32.8125 62.109375 
L 32.8125 68.359375 
Q 40.234375 67.96875 51.171875 67.96875 
Q 49.609375 71.09375 44.140625 77.34375 
Q 47.265625 79.6875 49.609375 82.03125 
Q 55.46875 75.390625 58.203125 71.875 
Q 55.859375 69.921875 53.90625 67.96875 
z
M 35.15625 8.984375 
Q 31.640625 6.25 26.5625 1.359375 
Q 21.484375 -3.515625 18.359375 -7.421875 
Q 16.40625 -3.515625 12.5 -1.5625 
Q 15.625 0.78125 15.625 4.296875 
L 15.625 42.578125 
Q 8.59375 42.578125 3.515625 42.1875 
L 3.515625 49.21875 
Q 8.203125 48.828125 11.328125 48.828125 
L 23.046875 48.828125 
Q 22.65625 42.578125 22.65625 36.71875 
L 22.65625 7.03125 
Q 26.171875 10.15625 30.46875 16.015625 
Q 31.640625 13.28125 35.15625 8.984375 
z
M 79.6875 14.84375 
L 79.6875 23.046875 
L 48.4375 23.046875 
L 48.4375 14.84375 
z
M 79.6875 0.78125 
L 79.6875 8.984375 
L 48.4375 8.984375 
L 48.4375 0.78125 
z
M 67.96875 42.1875 
L 67.96875 62.5 
L 58.59375 62.5 
L 58.59375 42.1875 
z
M 14.453125 77.734375 
Q 18.359375 73.4375 26.953125 64.84375 
Q 23.046875 62.5 19.921875 59.375 
Q 14.0625 67.1875 8.59375 72.65625 
Q 10.9375 74.609375 14.453125 77.734375 
z
M 91.40625 57.421875 
Q 86.328125 48.046875 83.984375 44.140625 
Q 80.859375 46.484375 78.125 46.875 
Q 82.03125 53.90625 83.984375 60.15625 
Q 87.890625 58.203125 91.40625 57.421875 
z
M 35.15625 56.25 
Q 38.28125 57.421875 41.015625 59.375 
Q 45.3125 53.515625 48.4375 48.4375 
Q 44.53125 46.875 41.40625 44.921875 
Q 39.453125 50.390625 35.15625 56.25 
z
" id="SimHei-35889"/>
    </defs>
    <g transform="translate(1290.23125 39.54375)scale(0.4 -0.4)">
     <use xlink:href="#SimHei-108"/>
     <use x="50" xlink:href="#SimHei-111"/>
     <use x="100" xlink:href="#SimHei-119"/>
     <use x="150" xlink:href="#SimHei-45"/>
     <use x="200" xlink:href="#SimHei-102"/>
     <use x="250" xlink:href="#SimHei-105"/>
     <use x="300" xlink:href="#SimHei-108"/>
     <use x="350" xlink:href="#SimHei-116"/>
     <use x="400" xlink:href="#SimHei-101"/>
     <use x="450" xlink:href="#SimHei-114"/>
     <use x="500" xlink:href="#SimHei-32"/>
     <use x="550" xlink:href="#SimHei-45"/>
     <use x="600" xlink:href="#SimHei-32"/>
     <use x="650" xlink:href="#SimHei-24133"/>
     <use x="750" xlink:href="#SimHei-24230"/>
     <use x="850" xlink:href="#SimHei-35889"/>
    </g>
   </g>
  </g>
 </g>
 <defs>
  <clipPath id="pc679265ce2">
   <rect height="554.4" width="2790" x="85.23125" y="45.54375"/>
  </clipPath>
 </defs>
</svg>
