<?xml version="1.0" encoding="utf-8" standalone="no"?>
<!DOCTYPE svg PUBLIC "-//W3C//DTD SVG 1.1//EN"
  "http://www.w3.org/Graphics/SVG/1.1/DTD/svg11.dtd">
<!-- Created with matplotlib (https://matplotlib.org/) -->
<svg height="670.64375pt" version="1.1" viewBox="0 0 2875.4625 670.64375" width="2875.4625pt" xmlns="http://www.w3.org/2000/svg" xmlns:xlink="http://www.w3.org/1999/xlink">
 <defs>
  <style type="text/css">
*{stroke-linecap:butt;stroke-linejoin:round;}
  </style>
 </defs>
 <g id="figure_1">
  <g id="patch_1">
   <path d="M 0 670.64375 
L 2875.4625 670.64375 
L 2875.4625 0 
L 0 0 
z
" style="fill:#ffffff;"/>
  </g>
  <g id="axes_1">
   <g id="patch_2">
    <path d="M 74.7625 599.94375 
L 2864.7625 599.94375 
L 2864.7625 45.54375 
L 74.7625 45.54375 
z
" style="fill:#ffffff;"/>
   </g>
   <g id="matplotlib.axis_1">
    <g id="xtick_1">
     <g id="line2d_1">
      <defs>
       <path d="M 0 0 
L 0 3.5 
" id="me57809c55b" style="stroke:#000000;stroke-width:0.8;"/>
      </defs>
      <g>
       <use style="stroke:#000000;stroke-width:0.8;" x="455.470936" xlink:href="#me57809c55b" y="599.94375"/>
      </g>
     </g>
     <g id="text_1">
      <!-- -0.4 -->
      <defs>
       <path d="M 46.484375 33.203125 
L 1.953125 33.203125 
L 1.953125 39.453125 
L 46.484375 39.453125 
z
" id="SimHei-45"/>
       <path d="M 3.125 29.296875 
Q 3.90625 50 6.4375 56.046875 
Q 8.984375 62.109375 13.671875 66.015625 
Q 18.359375 69.921875 25.1875 69.921875 
Q 32.03125 69.921875 37.109375 64.25 
Q 42.1875 58.59375 43.75 50 
Q 45.3125 41.40625 44.71875 30.265625 
Q 44.140625 19.140625 40.8125 12.109375 
Q 37.5 5.078125 30.859375 2.34375 
Q 24.21875 -0.390625 17.578125 2.921875 
Q 10.9375 6.25 8.203125 11.71875 
Q 5.46875 17.1875 4.296875 23.234375 
Q 3.125 29.296875 3.90625 50 
z
M 12.890625 52.734375 
Q 10.546875 31.25 12.5 22.84375 
Q 14.453125 14.453125 18.9375 10.9375 
Q 23.4375 7.421875 28.125 9.5625 
Q 32.8125 11.71875 34.953125 18.15625 
Q 37.109375 24.609375 37.109375 32.21875 
Q 37.109375 39.84375 36.515625 46.09375 
Q 35.9375 52.34375 33 57.421875 
Q 30.078125 62.5 25.1875 62.6875 
Q 20.3125 62.890625 16.59375 57.8125 
Q 12.890625 52.734375 10.546875 31.25 
z
" id="SimHei-48"/>
       <path d="M 16.796875 1.953125 
L 7.8125 1.953125 
L 7.8125 10.546875 
L 16.796875 10.546875 
z
" id="SimHei-46"/>
       <path d="M 31.25 17.1875 
L 1.171875 17.1875 
L 1.171875 23.828125 
L 32.8125 69.53125 
L 38.671875 69.53125 
L 38.671875 23.828125 
L 48.046875 23.828125 
L 48.046875 17.1875 
L 38.671875 17.1875 
L 38.671875 2.34375 
L 31.25 2.34375 
z
M 31.25 23.828125 
L 31.25 54.6875 
L 9.375 23.828125 
z
" id="SimHei-52"/>
      </defs>
      <g transform="translate(435.470936 620.69375)scale(0.2 -0.2)">
       <use xlink:href="#SimHei-45"/>
       <use x="50" xlink:href="#SimHei-48"/>
       <use x="100" xlink:href="#SimHei-46"/>
       <use x="150" xlink:href="#SimHei-52"/>
      </g>
     </g>
    </g>
    <g id="xtick_2">
     <g id="line2d_2">
      <g>
       <use style="stroke:#000000;stroke-width:0.8;" x="963.251443" xlink:href="#me57809c55b" y="599.94375"/>
      </g>
     </g>
     <g id="text_2">
      <!-- -0.2 -->
      <defs>
       <path d="M 4.6875 3.90625 
Q 5.078125 9.765625 10.15625 14.453125 
Q 15.234375 19.140625 23.046875 29.09375 
Q 30.859375 39.0625 33.203125 44.53125 
Q 35.546875 50 34.953125 53.90625 
Q 34.375 57.8125 31.25 60.34375 
Q 28.125 62.890625 24.015625 62.5 
Q 19.921875 62.109375 16.203125 59.375 
Q 12.5 56.640625 10.546875 51.171875 
L 3.125 52.34375 
Q 6.25 61.328125 11.125 65.421875 
Q 16.015625 69.53125 22.65625 69.921875 
Q 26.5625 70.3125 29.6875 69.71875 
Q 32.8125 69.140625 36.125 66.984375 
Q 39.453125 64.84375 41.59375 60.546875 
Q 43.75 56.25 43.15625 50.1875 
Q 42.578125 44.140625 37.109375 35.734375 
Q 31.640625 27.34375 16.015625 9.375 
L 44.140625 9.375 
L 44.140625 2.34375 
L 4.6875 2.34375 
z
" id="SimHei-50"/>
      </defs>
      <g transform="translate(943.251443 620.69375)scale(0.2 -0.2)">
       <use xlink:href="#SimHei-45"/>
       <use x="50" xlink:href="#SimHei-48"/>
       <use x="100" xlink:href="#SimHei-46"/>
       <use x="150" xlink:href="#SimHei-50"/>
      </g>
     </g>
    </g>
    <g id="xtick_3">
     <g id="line2d_3">
      <g>
       <use style="stroke:#000000;stroke-width:0.8;" x="1471.031951" xlink:href="#me57809c55b" y="599.94375"/>
      </g>
     </g>
     <g id="text_3">
      <!-- 0.0 -->
      <g transform="translate(1456.031951 620.69375)scale(0.2 -0.2)">
       <use xlink:href="#SimHei-48"/>
       <use x="50" xlink:href="#SimHei-46"/>
       <use x="100" xlink:href="#SimHei-48"/>
      </g>
     </g>
    </g>
    <g id="xtick_4">
     <g id="line2d_4">
      <g>
       <use style="stroke:#000000;stroke-width:0.8;" x="1978.812459" xlink:href="#me57809c55b" y="599.94375"/>
      </g>
     </g>
     <g id="text_4">
      <!-- 0.2 -->
      <g transform="translate(1963.812459 620.69375)scale(0.2 -0.2)">
       <use xlink:href="#SimHei-48"/>
       <use x="50" xlink:href="#SimHei-46"/>
       <use x="100" xlink:href="#SimHei-50"/>
      </g>
     </g>
    </g>
    <g id="xtick_5">
     <g id="line2d_5">
      <g>
       <use style="stroke:#000000;stroke-width:0.8;" x="2486.592967" xlink:href="#me57809c55b" y="599.94375"/>
      </g>
     </g>
     <g id="text_5">
      <!-- 0.4 -->
      <g transform="translate(2471.592967 620.69375)scale(0.2 -0.2)">
       <use xlink:href="#SimHei-48"/>
       <use x="50" xlink:href="#SimHei-46"/>
       <use x="100" xlink:href="#SimHei-52"/>
      </g>
     </g>
    </g>
    <g id="text_6">
     <!-- 频率 -->
     <defs>
      <path d="M 66.40625 69.53125 
Q 55.859375 69.53125 48.828125 69.140625 
L 48.828125 75.78125 
Q 55.46875 75.390625 61.328125 75.390625 
L 81.640625 75.390625 
Q 87.5 75.390625 93.75 75.78125 
L 93.75 69.140625 
Q 87.5 69.53125 73.4375 69.53125 
Q 72.265625 63.28125 71.09375 56.640625 
L 91.796875 56.640625 
Q 91.40625 51.171875 91.40625 45.3125 
L 91.40625 25.78125 
Q 91.40625 20.3125 91.796875 11.71875 
L 84.375 11.71875 
L 84.375 50.78125 
L 60.546875 50.78125 
L 60.546875 12.5 
L 53.125 12.5 
Q 53.515625 19.921875 53.515625 25.78125 
L 53.515625 44.140625 
Q 53.515625 51.171875 53.125 56.640625 
L 64.453125 56.640625 
Q 65.625 64.0625 66.40625 69.53125 
z
M 26.171875 42.96875 
Q 10.15625 42.96875 5.46875 42.578125 
L 5.46875 49.21875 
Q 8.59375 48.828125 11.328125 48.828125 
Q 11.328125 66.796875 10.9375 72.265625 
L 18.75 72.265625 
Q 18.359375 66.796875 18.359375 48.828125 
L 26.171875 48.828125 
L 26.171875 66.796875 
Q 26.171875 74.21875 25.78125 80.078125 
L 33.59375 80.078125 
Q 33.203125 74.21875 33.203125 66.40625 
Q 41.015625 66.40625 47.265625 66.796875 
L 47.265625 60.15625 
Q 41.015625 60.546875 33.203125 60.546875 
L 33.203125 48.828125 
Q 44.53125 48.828125 49.21875 49.21875 
L 49.21875 42.578125 
Q 44.53125 42.96875 33.203125 42.96875 
L 26.171875 42.96875 
z
M 33.59375 40.625 
Q 33.203125 35.15625 33.203125 30.078125 
L 33.203125 16.40625 
Q 40.625 25.78125 41.40625 34.375 
Q 44.921875 32.8125 49.609375 32.421875 
Q 44.53125 16.796875 34.171875 7.03125 
Q 23.828125 -2.734375 10.9375 -7.8125 
Q 8.59375 -3.90625 3.125 -1.171875 
Q 11.71875 1.171875 16.984375 3.703125 
Q 22.265625 6.25 26.171875 9.765625 
L 26.171875 29.6875 
Q 26.171875 35.15625 25.78125 40.625 
L 33.59375 40.625 
z
M 43.359375 -3.90625 
Q 53.125 -1.171875 58.390625 3.515625 
Q 63.671875 8.203125 65.8125 13.859375 
Q 67.96875 19.53125 68.15625 26.953125 
Q 68.359375 34.375 67.96875 42.96875 
Q 72.65625 42.1875 76.953125 41.40625 
Q 75.78125 36.328125 75.578125 30.859375 
Q 75.390625 25.390625 74.21875 17.375 
Q 73.046875 9.375 67.1875 2.53125 
Q 61.328125 -4.296875 50.78125 -10.15625 
Q 48.046875 -7.03125 43.359375 -3.90625 
z
M 91.40625 -10.15625 
Q 86.71875 -4.296875 75 3.90625 
Q 77.734375 6.640625 79.296875 9.375 
Q 91.015625 1.171875 96.875 -3.90625 
Q 93.359375 -6.640625 91.40625 -10.15625 
z
M 6.25 18.359375 
Q 10.15625 24.21875 14.0625 37.109375 
Q 17.578125 35.546875 21.484375 34.765625 
Q 15.625 20.703125 13.28125 16.015625 
Q 10.15625 17.96875 6.25 18.359375 
z
" id="SimHei-39057"/>
      <path d="M 51.953125 80.46875 
Q 53.515625 76.5625 55.46875 70.703125 
L 75 70.703125 
Q 82.03125 70.703125 90.625 71.09375 
L 90.625 64.453125 
Q 82.03125 65.234375 74.609375 65.234375 
L 43.75 65.234375 
Q 46.484375 63.28125 51.5625 60.9375 
Q 48.046875 58.59375 44.921875 55.265625 
Q 41.796875 51.953125 38.671875 48.828125 
L 51.171875 48.828125 
Q 55.859375 53.515625 58.984375 58.984375 
Q 62.5 56.25 66.796875 53.515625 
Q 61.71875 50.78125 56.25 44.921875 
Q 50.78125 39.0625 41.015625 31.25 
L 60.15625 32.8125 
Q 58.203125 35.15625 56.25 37.890625 
Q 58.59375 38.671875 62.5 41.40625 
Q 66.40625 36.71875 73.4375 26.5625 
Q 69.921875 25.390625 66.015625 22.65625 
Q 65.234375 25 62.890625 27.734375 
Q 57.8125 27.34375 53.515625 27.34375 
L 53.515625 16.40625 
L 80.46875 16.40625 
Q 88.671875 16.40625 95.3125 16.796875 
L 95.3125 10.15625 
Q 89.0625 10.546875 80.078125 10.546875 
L 53.515625 10.546875 
L 53.515625 2.734375 
Q 53.515625 -4.6875 53.90625 -9.765625 
L 45.3125 -9.765625 
Q 45.703125 -4.6875 45.703125 2.734375 
L 45.703125 10.546875 
L 20.703125 10.546875 
Q 12.890625 10.546875 5.078125 10.15625 
L 5.078125 16.796875 
Q 12.890625 16.40625 21.09375 16.40625 
L 45.703125 16.40625 
L 45.703125 26.5625 
Q 42.1875 26.171875 38.671875 25.578125 
Q 35.15625 25 31.640625 23.828125 
Q 30.46875 27.734375 28.90625 31.25 
Q 32.421875 31.640625 36.328125 34.375 
Q 40.234375 37.109375 46.484375 43.75 
Q 35.9375 42.578125 31.640625 41.015625 
Q 30.859375 44.921875 28.90625 49.609375 
Q 32.421875 49.609375 36.328125 54.484375 
Q 40.234375 59.375 42.96875 65.234375 
L 26.5625 65.234375 
Q 17.96875 65.234375 10.15625 64.453125 
L 10.15625 71.09375 
Q 17.96875 70.703125 24.21875 70.703125 
L 46.484375 70.703125 
Q 45.3125 75.390625 43.75 78.515625 
Q 47.265625 79.296875 51.953125 80.46875 
z
M 25.390625 40.234375 
Q 26.953125 37.5 28.515625 34.375 
Q 24.609375 32.03125 20.703125 29.09375 
Q 16.796875 26.171875 12.5 22.265625 
Q 9.765625 26.171875 7.421875 29.296875 
Q 12.5 31.640625 17.1875 34.5625 
Q 21.875 37.5 25.390625 40.234375 
z
M 75.78125 41.40625 
Q 80.078125 38.671875 83.390625 36.515625 
Q 86.71875 34.375 91.796875 30.46875 
Q 88.671875 28.125 85.9375 25 
Q 82.8125 27.734375 79.09375 30.859375 
Q 75.390625 33.984375 71.484375 36.328125 
Q 73.828125 38.671875 75.78125 41.40625 
z
M 89.453125 55.078125 
Q 86.71875 53.90625 82.8125 50.96875 
Q 78.90625 48.046875 75 44.140625 
Q 72.265625 47.65625 69.921875 49.609375 
Q 73.4375 51.953125 76.171875 54.484375 
Q 78.90625 57.03125 82.8125 61.328125 
Q 86.328125 57.8125 89.453125 55.078125 
z
M 16.40625 60.15625 
Q 22.265625 56.25 27.734375 51.171875 
Q 24.609375 48.4375 22.265625 45.703125 
Q 16.796875 51.5625 10.546875 55.078125 
Q 13.671875 57.8125 16.40625 60.15625 
z
" id="SimHei-29575"/>
     </defs>
     <g transform="translate(1429.7625 658.44375)scale(0.4 -0.4)">
      <use xlink:href="#SimHei-39057"/>
      <use x="100" xlink:href="#SimHei-29575"/>
     </g>
    </g>
   </g>
   <g id="matplotlib.axis_2">
    <g id="ytick_1">
     <g id="line2d_6">
      <defs>
       <path d="M 0 0 
L -3.5 0 
" id="m42feacbf5e" style="stroke:#000000;stroke-width:0.8;"/>
      </defs>
      <g>
       <use style="stroke:#000000;stroke-width:0.8;" x="74.7625" xlink:href="#m42feacbf5e" y="563.386024"/>
      </g>
     </g>
     <g id="text_7">
      <!-- -3 -->
      <defs>
       <path d="M 3.90625 19.140625 
L 10.9375 20.3125 
Q 12.5 15.234375 16.015625 11.90625 
Q 19.53125 8.59375 24.796875 8.78125 
Q 30.078125 8.984375 33.203125 13.078125 
Q 36.328125 17.1875 35.9375 22.453125 
Q 35.546875 27.734375 31.828125 30.65625 
Q 28.125 33.59375 19.921875 34.765625 
L 19.921875 39.84375 
Q 28.125 40.625 31.828125 44.140625 
Q 35.546875 47.65625 35.15625 53.3125 
Q 34.765625 58.984375 30.078125 61.515625 
Q 25.390625 64.0625 20.109375 62.109375 
Q 14.84375 60.15625 11.71875 51.171875 
L 4.6875 52.34375 
Q 7.03125 59.375 11.125 64.0625 
Q 15.234375 68.75 22.265625 69.53125 
Q 29.296875 70.3125 34.5625 67.765625 
Q 39.84375 65.234375 41.984375 59.953125 
Q 44.140625 54.6875 42.578125 48.4375 
Q 41.015625 42.1875 33.59375 37.5 
Q 39.0625 35.15625 41.984375 30.46875 
Q 44.921875 25.78125 43.9375 18.15625 
Q 42.96875 10.546875 37.109375 5.859375 
Q 31.25 1.171875 23.828125 1.359375 
Q 16.40625 1.5625 10.9375 6.046875 
Q 5.46875 10.546875 3.90625 19.140625 
z
" id="SimHei-51"/>
      </defs>
      <g transform="translate(47.7625 570.261024)scale(0.2 -0.2)">
       <use xlink:href="#SimHei-45"/>
       <use x="50" xlink:href="#SimHei-51"/>
      </g>
     </g>
    </g>
    <g id="ytick_2">
     <g id="line2d_7">
      <g>
       <use style="stroke:#000000;stroke-width:0.8;" x="74.7625" xlink:href="#m42feacbf5e" y="483.171933"/>
      </g>
     </g>
     <g id="text_8">
      <!-- -2 -->
      <g transform="translate(47.7625 490.046933)scale(0.2 -0.2)">
       <use xlink:href="#SimHei-45"/>
       <use x="50" xlink:href="#SimHei-50"/>
      </g>
     </g>
    </g>
    <g id="ytick_3">
     <g id="line2d_8">
      <g>
       <use style="stroke:#000000;stroke-width:0.8;" x="74.7625" xlink:href="#m42feacbf5e" y="402.957841"/>
      </g>
     </g>
     <g id="text_9">
      <!-- -1 -->
      <defs>
       <path d="M 21.875 56.25 
Q 16.796875 51.171875 8.984375 46.484375 
L 8.984375 53.90625 
Q 18.75 60.546875 25 69.53125 
L 29.6875 69.53125 
L 29.6875 2.34375 
L 21.875 2.34375 
z
" id="SimHei-49"/>
      </defs>
      <g transform="translate(47.7625 409.832841)scale(0.2 -0.2)">
       <use xlink:href="#SimHei-45"/>
       <use x="50" xlink:href="#SimHei-49"/>
      </g>
     </g>
    </g>
    <g id="ytick_4">
     <g id="line2d_9">
      <g>
       <use style="stroke:#000000;stroke-width:0.8;" x="74.7625" xlink:href="#m42feacbf5e" y="322.74375"/>
      </g>
     </g>
     <g id="text_10">
      <!-- 0 -->
      <g transform="translate(57.7625 329.61875)scale(0.2 -0.2)">
       <use xlink:href="#SimHei-48"/>
      </g>
     </g>
    </g>
    <g id="ytick_5">
     <g id="line2d_10">
      <g>
       <use style="stroke:#000000;stroke-width:0.8;" x="74.7625" xlink:href="#m42feacbf5e" y="242.529659"/>
      </g>
     </g>
     <g id="text_11">
      <!-- 1 -->
      <g transform="translate(57.7625 249.404659)scale(0.2 -0.2)">
       <use xlink:href="#SimHei-49"/>
      </g>
     </g>
    </g>
    <g id="ytick_6">
     <g id="line2d_11">
      <g>
       <use style="stroke:#000000;stroke-width:0.8;" x="74.7625" xlink:href="#m42feacbf5e" y="162.315567"/>
      </g>
     </g>
     <g id="text_12">
      <!-- 2 -->
      <g transform="translate(57.7625 169.190567)scale(0.2 -0.2)">
       <use xlink:href="#SimHei-50"/>
      </g>
     </g>
    </g>
    <g id="ytick_7">
     <g id="line2d_12">
      <g>
       <use style="stroke:#000000;stroke-width:0.8;" x="74.7625" xlink:href="#m42feacbf5e" y="82.101476"/>
      </g>
     </g>
     <g id="text_13">
      <!-- 3 -->
      <g transform="translate(57.7625 88.976476)scale(0.2 -0.2)">
       <use xlink:href="#SimHei-51"/>
      </g>
     </g>
    </g>
    <g id="text_14">
     <!-- 相位 -->
     <defs>
      <path d="M 92.1875 75.390625 
Q 91.796875 66.015625 91.796875 55.859375 
L 91.796875 11.71875 
Q 91.796875 1.171875 92.1875 -8.984375 
L 84.375 -8.984375 
L 84.375 -1.5625 
L 55.078125 -1.5625 
L 55.078125 -9.765625 
L 47.265625 -9.765625 
Q 47.65625 1.953125 47.65625 10.546875 
L 47.65625 56.25 
Q 47.65625 66.40625 47.265625 75.390625 
L 92.1875 75.390625 
z
M 21.875 59.765625 
Q 21.875 75.78125 21.484375 81.25 
L 30.078125 81.25 
Q 29.6875 75.390625 29.6875 59.765625 
Q 39.0625 59.765625 44.140625 60.15625 
L 44.140625 52.734375 
Q 39.453125 53.125 29.6875 53.125 
L 29.6875 38.28125 
Q 31.640625 40.234375 33.984375 42.96875 
Q 41.015625 35.546875 46.09375 28.515625 
Q 43.75 26.953125 40.234375 23.4375 
Q 35.9375 30.859375 29.6875 37.109375 
L 29.6875 7.421875 
Q 29.6875 0.78125 30.078125 -9.765625 
L 21.484375 -9.765625 
Q 21.875 0.78125 21.875 7.03125 
L 21.875 33.59375 
Q 16.796875 19.140625 10.15625 10.546875 
Q 7.421875 14.84375 4.6875 17.1875 
Q 7.421875 19.53125 12.5 29.484375 
Q 17.578125 39.453125 20.3125 53.125 
Q 11.71875 53.125 6.25 52.734375 
L 6.25 60.15625 
Q 13.28125 59.765625 21.875 59.765625 
z
M 84.375 5.078125 
L 84.375 23.046875 
L 55.078125 23.046875 
L 55.078125 5.078125 
z
M 84.375 51.5625 
L 84.375 68.75 
L 55.078125 68.75 
L 55.078125 51.5625 
z
M 84.375 29.6875 
L 84.375 45.3125 
L 55.078125 45.3125 
L 55.078125 29.6875 
z
" id="SimHei-30456"/>
      <path d="M 33.203125 76.953125 
Q 30.46875 74.21875 25.390625 58.59375 
L 25.390625 8.984375 
Q 25.390625 -3.515625 25.78125 -10.15625 
L 17.1875 -10.15625 
Q 17.96875 -3.125 17.96875 8.59375 
L 17.96875 46.09375 
Q 12.109375 35.546875 8.59375 30.46875 
Q 5.859375 35.546875 3.125 37.890625 
Q 8.203125 43.359375 14.25 55.859375 
Q 20.3125 68.359375 23.4375 81.25 
Q 28.515625 78.125 33.203125 76.953125 
z
M 83.984375 47.265625 
Q 82.421875 44.921875 79.6875 35.15625 
Q 76.953125 25.390625 71.875 4.6875 
L 85.15625 4.6875 
Q 92.578125 4.6875 95.3125 5.078125 
L 95.3125 -2.734375 
Q 91.796875 -2.34375 85.15625 -2.34375 
L 45.3125 -2.34375 
Q 35.546875 -2.34375 32.03125 -2.734375 
L 32.03125 5.078125 
Q 35.546875 4.6875 44.53125 4.6875 
L 63.671875 4.6875 
Q 68.75 21.875 73.4375 49.609375 
Q 79.6875 48.046875 83.984375 47.265625 
z
M 82.03125 62.890625 
Q 89.0625 62.890625 92.578125 63.28125 
L 92.578125 55.859375 
Q 89.0625 56.25 81.640625 56.25 
L 46.875 56.25 
Q 41.40625 56.25 35.546875 55.859375 
L 35.546875 63.28125 
Q 41.796875 62.890625 46.875 62.890625 
z
M 47.65625 47.65625 
Q 54.6875 27.734375 58.59375 11.328125 
Q 53.90625 9.765625 50.78125 8.59375 
Q 48.828125 17.578125 46.28125 26.171875 
Q 43.75 34.765625 39.84375 44.921875 
Q 43.75 45.703125 47.65625 47.65625 
z
M 60.546875 81.25 
Q 65.234375 73.046875 68.75 67.1875 
Q 65.625 66.40625 60.546875 63.671875 
Q 57.8125 70.703125 53.125 77.34375 
Q 57.03125 78.90625 60.546875 81.25 
z
" id="SimHei-20301"/>
     </defs>
     <g transform="translate(38.7625 362.74375)rotate(-90)scale(0.4 -0.4)">
      <use xlink:href="#SimHei-30456"/>
      <use x="100" xlink:href="#SimHei-20301"/>
     </g>
    </g>
   </g>
   <g id="line2d_13">
    <path clip-path="url(#p9bab2de443)" d="M 201.580682 70.74375 
L 270.13105 71.065796 
L 305.675686 71.447137 
L 336.142516 71.989363 
L 364.070444 72.720522 
L 389.45947 73.623259 
L 412.309593 74.659961 
L 435.159715 75.932992 
L 455.470936 77.278666 
L 475.782156 78.837084 
L 496.093376 80.61607 
L 516.404597 82.620541 
L 536.715817 84.852615 
L 557.027037 87.311839 
L 577.338258 89.995489 
L 597.649478 92.898919 
L 617.960698 96.015916 
L 638.271919 99.339053 
L 661.122041 103.313596 
L 683.972164 107.525741 
L 706.822287 111.962206 
L 729.67241 116.609526 
L 755.061435 122.004255 
L 780.450461 127.624895 
L 808.378389 134.048015 
L 836.306317 140.701987 
L 866.773147 148.20032 
L 897.239977 155.92482 
L 930.24571 164.522314 
L 965.790346 174.018942 
L 1003.873884 184.435292 
L 1044.496325 195.786109 
L 1087.657668 208.080192 
L 1135.896816 222.061906 
L 1189.213769 237.75993 
L 1247.608528 255.187369 
L 1316.158896 275.879098 
L 1407.559388 303.718773 
L 1643.677324 375.760719 
L 1712.227692 396.385897 
L 1770.622451 413.734746 
L 1823.939404 429.340874 
L 1869.63965 442.496404 
L 1912.800993 454.695651 
L 1953.423434 465.942217 
L 1991.506972 476.245892 
L 2027.051607 485.622695 
L 2060.05734 494.094793 
L 2090.524171 501.690213 
L 2120.991001 509.04547 
L 2148.918929 515.554976 
L 2174.307955 521.261117 
L 2199.69698 526.748324 
L 2225.086005 531.998951 
L 2247.936128 536.507197 
L 2270.786251 540.795607 
L 2293.636374 544.850801 
L 2316.486497 548.659813 
L 2336.797717 551.829082 
L 2357.108937 554.786539 
L 2377.420158 557.525637 
L 2397.731378 560.041304 
L 2418.042598 562.330302 
L 2438.353819 564.39158 
L 2458.665039 566.226589 
L 2478.976259 567.83953 
L 2499.28748 569.237497 
L 2519.5987 570.43049 
L 2542.448823 571.543582 
L 2565.298946 572.435294 
L 2590.687971 573.196813 
L 2618.615899 573.798643 
L 2649.082729 574.231533 
L 2687.166267 574.540663 
L 2737.944318 574.74375 
L 2737.944318 574.74375 
" style="fill:none;stroke:#1f77b4;stroke-linecap:square;stroke-width:1.5;"/>
   </g>
   <g id="patch_3">
    <path d="M 74.7625 599.94375 
L 74.7625 45.54375 
" style="fill:none;stroke:#000000;stroke-linecap:square;stroke-linejoin:miter;stroke-width:0.8;"/>
   </g>
   <g id="patch_4">
    <path d="M 2864.7625 599.94375 
L 2864.7625 45.54375 
" style="fill:none;stroke:#000000;stroke-linecap:square;stroke-linejoin:miter;stroke-width:0.8;"/>
   </g>
   <g id="patch_5">
    <path d="M 74.7625 599.94375 
L 2864.7625 599.94375 
" style="fill:none;stroke:#000000;stroke-linecap:square;stroke-linejoin:miter;stroke-width:0.8;"/>
   </g>
   <g id="patch_6">
    <path d="M 74.7625 45.54375 
L 2864.7625 45.54375 
" style="fill:none;stroke:#000000;stroke-linecap:square;stroke-linejoin:miter;stroke-width:0.8;"/>
   </g>
   <g id="text_15">
    <!-- low-filter - 相位谱 -->
    <defs>
     <path d="M 28.515625 1.953125 
L 20.703125 1.953125 
L 20.703125 68.75 
L 28.515625 68.75 
z
" id="SimHei-108"/>
     <path d="M 45.703125 23.828125 
Q 45.703125 13.671875 39.453125 7.421875 
Q 33.203125 1.171875 24.609375 1.171875 
Q 16.015625 1.171875 9.765625 7.421875 
Q 3.515625 13.671875 3.515625 23.828125 
Q 3.515625 33.984375 9.765625 40.234375 
Q 16.015625 46.484375 24.609375 46.484375 
Q 33.203125 46.484375 39.453125 40.234375 
Q 45.703125 33.984375 45.703125 23.828125 
z
M 37.109375 23.828125 
Q 37.109375 31.640625 33.203125 35.546875 
Q 29.296875 39.453125 24.609375 39.453125 
Q 19.921875 39.453125 16.015625 35.546875 
Q 12.109375 31.640625 12.109375 23.828125 
Q 12.109375 16.015625 16.015625 12.109375 
Q 19.921875 8.203125 24.609375 8.203125 
Q 29.296875 8.203125 33.203125 12.109375 
Q 37.109375 16.015625 37.109375 23.828125 
z
" id="SimHei-111"/>
     <path d="M 48.046875 45.703125 
L 38.28125 1.171875 
L 30.859375 1.171875 
L 24.609375 35.15625 
L 23.828125 35.15625 
L 17.578125 1.171875 
L 10.15625 1.171875 
L 0.390625 45.703125 
L 8.59375 45.703125 
L 13.671875 16.40625 
L 14.453125 16.40625 
L 19.921875 45.703125 
L 28.515625 45.703125 
L 33.984375 16.40625 
L 34.765625 16.40625 
L 39.84375 45.703125 
z
" id="SimHei-119"/>
     <path d="M 44.53125 59.765625 
Q 42.578125 60.9375 39.84375 61.71875 
Q 37.109375 62.5 32.8125 62.5 
Q 28.515625 62.5 26.953125 60.34375 
Q 25.390625 58.203125 25.390625 55.078125 
L 25.390625 45.703125 
L 41.40625 45.703125 
L 41.40625 39.453125 
L 25.390625 39.453125 
L 25.390625 1.953125 
L 17.578125 1.953125 
L 17.578125 39.453125 
L 4.296875 39.453125 
L 4.296875 45.703125 
L 17.578125 45.703125 
L 17.578125 54.6875 
Q 17.578125 61.71875 21.875 65.625 
Q 26.171875 69.53125 33.203125 69.53125 
Q 37.5 69.53125 40.03125 68.9375 
Q 42.578125 68.359375 44.53125 67.578125 
z
" id="SimHei-102"/>
     <path d="M 28.125 58.203125 
L 20.3125 58.203125 
L 20.3125 68.359375 
L 28.125 68.359375 
z
M 28.125 1.953125 
L 20.3125 1.953125 
L 20.3125 45.703125 
L 28.125 45.703125 
z
" id="SimHei-105"/>
     <path d="M 42.96875 3.125 
Q 41.015625 2.34375 38.46875 1.75 
Q 35.9375 1.171875 31.640625 1.171875 
Q 24.609375 1.171875 20.3125 5.078125 
Q 16.015625 8.984375 16.015625 16.015625 
L 16.015625 39.453125 
L 2.734375 39.453125 
L 2.734375 45.703125 
L 16.015625 45.703125 
L 16.015625 60.9375 
L 23.828125 60.9375 
L 23.828125 45.703125 
L 39.84375 45.703125 
L 39.84375 39.453125 
L 23.828125 39.453125 
L 23.828125 15.625 
Q 23.828125 12.5 25.390625 10.34375 
Q 26.953125 8.203125 31.25 8.203125 
Q 35.546875 8.203125 38.28125 8.984375 
Q 41.015625 9.765625 42.96875 10.9375 
z
" id="SimHei-116"/>
     <path d="M 44.53125 16.796875 
Q 43.75 9.765625 38.28125 5.46875 
Q 32.8125 1.171875 25.390625 1.171875 
Q 16.015625 1.171875 9.953125 7.21875 
Q 3.90625 13.28125 3.90625 23.828125 
Q 3.90625 34.375 9.953125 40.421875 
Q 16.015625 46.484375 25.390625 46.484375 
Q 33.59375 46.484375 38.859375 41.203125 
Q 44.140625 35.9375 44.140625 23.828125 
L 12.5 23.828125 
Q 12.5 15.234375 16.203125 11.71875 
Q 19.921875 8.203125 25.390625 8.203125 
Q 29.6875 8.203125 32.421875 10.34375 
Q 35.15625 12.5 35.9375 16.796875 
z
M 35.15625 30.078125 
Q 34.375 35.546875 31.640625 37.6875 
Q 28.90625 39.84375 24.609375 39.84375 
Q 20.703125 39.84375 17.578125 37.6875 
Q 14.453125 35.546875 12.890625 30.078125 
z
" id="SimHei-101"/>
     <path d="M 39.0625 37.890625 
Q 31.640625 39.0625 26.5625 35.734375 
Q 21.484375 32.421875 17.96875 24.21875 
L 17.96875 1.953125 
L 10.15625 1.953125 
L 10.15625 45.703125 
L 17.96875 45.703125 
L 17.96875 34.375 
Q 21.484375 40.625 26.75 43.546875 
Q 32.03125 46.484375 39.0625 46.484375 
z
" id="SimHei-114"/>
     <path id="SimHei-32"/>
     <path d="M 87.5 28.90625 
Q 87.109375 21.484375 87.109375 8.984375 
Q 87.109375 -3.515625 87.5 -10.9375 
L 79.6875 -10.9375 
L 79.6875 -4.6875 
L 48.4375 -4.6875 
L 48.4375 -10.546875 
L 40.625 -10.546875 
Q 41.015625 -1.953125 41.015625 9.765625 
Q 41.015625 21.484375 40.625 28.90625 
L 87.5 28.90625 
z
M 67.96875 67.96875 
Q 72.265625 76.5625 73.828125 82.421875 
Q 77.734375 80.46875 82.421875 78.90625 
Q 79.296875 76.171875 75.390625 67.96875 
Q 88.28125 67.96875 94.53125 68.359375 
L 94.53125 62.109375 
Q 89.453125 62.5 75 62.5 
L 75 42.1875 
Q 87.109375 42.1875 96.484375 42.578125 
L 96.484375 36.328125 
Q 89.84375 36.71875 83.984375 36.71875 
L 42.96875 36.71875 
Q 35.546875 36.71875 29.296875 36.328125 
L 29.296875 42.578125 
Q 35.546875 42.1875 51.5625 42.1875 
L 51.5625 62.5 
Q 38.671875 62.5 32.8125 62.109375 
L 32.8125 68.359375 
Q 40.234375 67.96875 51.171875 67.96875 
Q 49.609375 71.09375 44.140625 77.34375 
Q 47.265625 79.6875 49.609375 82.03125 
Q 55.46875 75.390625 58.203125 71.875 
Q 55.859375 69.921875 53.90625 67.96875 
z
M 35.15625 8.984375 
Q 31.640625 6.25 26.5625 1.359375 
Q 21.484375 -3.515625 18.359375 -7.421875 
Q 16.40625 -3.515625 12.5 -1.5625 
Q 15.625 0.78125 15.625 4.296875 
L 15.625 42.578125 
Q 8.59375 42.578125 3.515625 42.1875 
L 3.515625 49.21875 
Q 8.203125 48.828125 11.328125 48.828125 
L 23.046875 48.828125 
Q 22.65625 42.578125 22.65625 36.71875 
L 22.65625 7.03125 
Q 26.171875 10.15625 30.46875 16.015625 
Q 31.640625 13.28125 35.15625 8.984375 
z
M 79.6875 14.84375 
L 79.6875 23.046875 
L 48.4375 23.046875 
L 48.4375 14.84375 
z
M 79.6875 0.78125 
L 79.6875 8.984375 
L 48.4375 8.984375 
L 48.4375 0.78125 
z
M 67.96875 42.1875 
L 67.96875 62.5 
L 58.59375 62.5 
L 58.59375 42.1875 
z
M 14.453125 77.734375 
Q 18.359375 73.4375 26.953125 64.84375 
Q 23.046875 62.5 19.921875 59.375 
Q 14.0625 67.1875 8.59375 72.65625 
Q 10.9375 74.609375 14.453125 77.734375 
z
M 91.40625 57.421875 
Q 86.328125 48.046875 83.984375 44.140625 
Q 80.859375 46.484375 78.125 46.875 
Q 82.03125 53.90625 83.984375 60.15625 
Q 87.890625 58.203125 91.40625 57.421875 
z
M 35.15625 56.25 
Q 38.28125 57.421875 41.015625 59.375 
Q 45.3125 53.515625 48.4375 48.4375 
Q 44.53125 46.875 41.40625 44.921875 
Q 39.453125 50.390625 35.15625 56.25 
z
" id="SimHei-35889"/>
    </defs>
    <g transform="translate(1279.7625 39.54375)scale(0.4 -0.4)">
     <use xlink:href="#SimHei-108"/>
     <use x="50" xlink:href="#SimHei-111"/>
     <use x="100" xlink:href="#SimHei-119"/>
     <use x="150" xlink:href="#SimHei-45"/>
     <use x="200" xlink:href="#SimHei-102"/>
     <use x="250" xlink:href="#SimHei-105"/>
     <use x="300" xlink:href="#SimHei-108"/>
     <use x="350" xlink:href="#SimHei-116"/>
     <use x="400" xlink:href="#SimHei-101"/>
     <use x="450" xlink:href="#SimHei-114"/>
     <use x="500" xlink:href="#SimHei-32"/>
     <use x="550" xlink:href="#SimHei-45"/>
     <use x="600" xlink:href="#SimHei-32"/>
     <use x="650" xlink:href="#SimHei-30456"/>
     <use x="750" xlink:href="#SimHei-20301"/>
     <use x="850" xlink:href="#SimHei-35889"/>
    </g>
   </g>
  </g>
 </g>
 <defs>
  <clipPath id="p9bab2de443">
   <rect height="554.4" width="2790" x="74.7625" y="45.54375"/>
  </clipPath>
 </defs>
</svg>
