<?xml version="1.0" encoding="utf-8" standalone="no"?>
<!DOCTYPE svg PUBLIC "-//W3C//DTD SVG 1.1//EN"
  "http://www.w3.org/Graphics/SVG/1.1/DTD/svg11.dtd">
<!-- Created with matplotlib (https://matplotlib.org/) -->
<svg height="617.175pt" version="1.1" viewBox="0 0 2834.9 617.175" width="2834.9pt" xmlns="http://www.w3.org/2000/svg" xmlns:xlink="http://www.w3.org/1999/xlink">
 <defs>
  <style type="text/css">
*{stroke-linecap:butt;stroke-linejoin:round;}
  </style>
 </defs>
 <g id="figure_1">
  <g id="patch_1">
   <path d="M 0 617.175 
L 2834.9 617.175 
L 2834.9 -0 
L 0 -0 
z
" style="fill:#ffffff;"/>
  </g>
  <g id="axes_1">
   <g id="patch_2">
    <path d="M 34.2 586.725 
L 2824.2 586.725 
L 2824.2 32.325 
L 34.2 32.325 
z
" style="fill:#ffffff;"/>
   </g>
   <g id="matplotlib.axis_1">
    <g id="xtick_1">
     <g id="line2d_1">
      <defs>
       <path d="M 0 0 
L 0 3.5 
" id="mee6b215e0f" style="stroke:#000000;stroke-width:0.8;"/>
      </defs>
      <g>
       <use style="stroke:#000000;stroke-width:0.8;" x="161.018182" xlink:href="#mee6b215e0f" y="586.725"/>
      </g>
     </g>
     <g id="text_1">
      <!-- 0 -->
      <defs>
       <path d="M 3.125 29.296875 
Q 3.90625 50 6.4375 56.046875 
Q 8.984375 62.109375 13.671875 66.015625 
Q 18.359375 69.921875 25.1875 69.921875 
Q 32.03125 69.921875 37.109375 64.25 
Q 42.1875 58.59375 43.75 50 
Q 45.3125 41.40625 44.71875 30.265625 
Q 44.140625 19.140625 40.8125 12.109375 
Q 37.5 5.078125 30.859375 2.34375 
Q 24.21875 -0.390625 17.578125 2.921875 
Q 10.9375 6.25 8.203125 11.71875 
Q 5.46875 17.1875 4.296875 23.234375 
Q 3.125 29.296875 3.90625 50 
z
M 12.890625 52.734375 
Q 10.546875 31.25 12.5 22.84375 
Q 14.453125 14.453125 18.9375 10.9375 
Q 23.4375 7.421875 28.125 9.5625 
Q 32.8125 11.71875 34.953125 18.15625 
Q 37.109375 24.609375 37.109375 32.21875 
Q 37.109375 39.84375 36.515625 46.09375 
Q 35.9375 52.34375 33 57.421875 
Q 30.078125 62.5 25.1875 62.6875 
Q 20.3125 62.890625 16.59375 57.8125 
Q 12.890625 52.734375 10.546875 31.25 
z
" id="SimHei-48"/>
      </defs>
      <g transform="translate(156.018182 607.475)scale(0.2 -0.2)">
       <use xlink:href="#SimHei-48"/>
      </g>
     </g>
    </g>
    <g id="xtick_2">
     <g id="line2d_2">
      <g>
       <use style="stroke:#000000;stroke-width:0.8;" x="668.79869" xlink:href="#mee6b215e0f" y="586.725"/>
      </g>
     </g>
     <g id="text_2">
      <!-- 200 -->
      <defs>
       <path d="M 4.6875 3.90625 
Q 5.078125 9.765625 10.15625 14.453125 
Q 15.234375 19.140625 23.046875 29.09375 
Q 30.859375 39.0625 33.203125 44.53125 
Q 35.546875 50 34.953125 53.90625 
Q 34.375 57.8125 31.25 60.34375 
Q 28.125 62.890625 24.015625 62.5 
Q 19.921875 62.109375 16.203125 59.375 
Q 12.5 56.640625 10.546875 51.171875 
L 3.125 52.34375 
Q 6.25 61.328125 11.125 65.421875 
Q 16.015625 69.53125 22.65625 69.921875 
Q 26.5625 70.3125 29.6875 69.71875 
Q 32.8125 69.140625 36.125 66.984375 
Q 39.453125 64.84375 41.59375 60.546875 
Q 43.75 56.25 43.15625 50.1875 
Q 42.578125 44.140625 37.109375 35.734375 
Q 31.640625 27.34375 16.015625 9.375 
L 44.140625 9.375 
L 44.140625 2.34375 
L 4.6875 2.34375 
z
" id="SimHei-50"/>
      </defs>
      <g transform="translate(653.79869 607.475)scale(0.2 -0.2)">
       <use xlink:href="#SimHei-50"/>
       <use x="50" xlink:href="#SimHei-48"/>
       <use x="100" xlink:href="#SimHei-48"/>
      </g>
     </g>
    </g>
    <g id="xtick_3">
     <g id="line2d_3">
      <g>
       <use style="stroke:#000000;stroke-width:0.8;" x="1176.579197" xlink:href="#mee6b215e0f" y="586.725"/>
      </g>
     </g>
     <g id="text_3">
      <!-- 400 -->
      <defs>
       <path d="M 31.25 17.1875 
L 1.171875 17.1875 
L 1.171875 23.828125 
L 32.8125 69.53125 
L 38.671875 69.53125 
L 38.671875 23.828125 
L 48.046875 23.828125 
L 48.046875 17.1875 
L 38.671875 17.1875 
L 38.671875 2.34375 
L 31.25 2.34375 
z
M 31.25 23.828125 
L 31.25 54.6875 
L 9.375 23.828125 
z
" id="SimHei-52"/>
      </defs>
      <g transform="translate(1161.579197 607.475)scale(0.2 -0.2)">
       <use xlink:href="#SimHei-52"/>
       <use x="50" xlink:href="#SimHei-48"/>
       <use x="100" xlink:href="#SimHei-48"/>
      </g>
     </g>
    </g>
    <g id="xtick_4">
     <g id="line2d_4">
      <g>
       <use style="stroke:#000000;stroke-width:0.8;" x="1684.359705" xlink:href="#mee6b215e0f" y="586.725"/>
      </g>
     </g>
     <g id="text_4">
      <!-- 600 -->
      <defs>
       <path d="M 3.515625 19.53125 
Q 4.296875 30.859375 6.046875 34.765625 
Q 7.8125 38.671875 11.328125 44.53125 
L 27.34375 69.53125 
L 36.328125 69.53125 
L 19.921875 43.75 
Q 30.46875 46.484375 36.71875 42.96875 
Q 42.96875 39.453125 45.109375 34.953125 
Q 47.265625 30.46875 47.453125 25.1875 
Q 47.65625 19.921875 45.890625 14.84375 
Q 44.140625 9.765625 39.640625 5.65625 
Q 35.15625 1.5625 27.140625 1.171875 
Q 19.140625 0.78125 13.46875 4.09375 
Q 7.8125 7.421875 5.65625 13.46875 
Q 3.515625 19.53125 4.296875 30.859375 
z
M 12.5 16.015625 
Q 19.53125 8.59375 25.390625 8.203125 
Q 31.25 7.8125 35.15625 12.109375 
Q 39.0625 16.40625 39.0625 24.609375 
Q 39.0625 32.8125 34.171875 35.9375 
Q 29.296875 39.0625 23.234375 38.28125 
Q 17.1875 37.5 14.453125 32.421875 
Q 11.71875 27.34375 12.109375 21.671875 
Q 12.5 16.015625 19.53125 8.59375 
z
" id="SimHei-54"/>
      </defs>
      <g transform="translate(1669.359705 607.475)scale(0.2 -0.2)">
       <use xlink:href="#SimHei-54"/>
       <use x="50" xlink:href="#SimHei-48"/>
       <use x="100" xlink:href="#SimHei-48"/>
      </g>
     </g>
    </g>
    <g id="xtick_5">
     <g id="line2d_5">
      <g>
       <use style="stroke:#000000;stroke-width:0.8;" x="2192.140213" xlink:href="#mee6b215e0f" y="586.725"/>
      </g>
     </g>
     <g id="text_5">
      <!-- 800 -->
      <defs>
       <path d="M 2.734375 16.796875 
Q 2.734375 26.171875 5.078125 30.65625 
Q 7.421875 35.15625 12.890625 37.890625 
Q 8.203125 40.625 6.640625 43.9375 
Q 5.078125 47.265625 4.875 51.5625 
Q 4.6875 55.859375 6.046875 58.984375 
Q 7.421875 62.109375 10.15625 64.84375 
Q 12.890625 67.578125 16.203125 68.546875 
Q 19.53125 69.53125 23.4375 69.53125 
Q 27.34375 69.53125 30.46875 68.75 
Q 33.59375 67.96875 37.109375 65.421875 
Q 40.625 62.890625 42.1875 58.203125 
Q 43.75 53.515625 41.984375 47.265625 
Q 40.234375 41.015625 32.8125 37.5 
Q 39.453125 35.546875 42.1875 31.4375 
Q 44.921875 27.34375 44.921875 21.484375 
Q 44.921875 15.625 43.15625 12.109375 
Q 41.40625 8.59375 39.25 6.25 
Q 37.109375 3.90625 33.390625 2.53125 
Q 29.6875 1.171875 24.015625 1.171875 
Q 18.359375 1.171875 14.25 2.53125 
Q 10.15625 3.90625 7.421875 6.640625 
Q 4.6875 9.375 3.703125 13.078125 
Q 2.734375 16.796875 2.734375 26.171875 
z
M 10.9375 26.5625 
Q 10.546875 17.1875 12.296875 13.671875 
Q 14.0625 10.15625 18.75 9.171875 
Q 23.4375 8.203125 28.515625 9.375 
Q 33.59375 10.546875 35.546875 14.84375 
Q 37.5 19.140625 36.90625 23.4375 
Q 36.328125 27.734375 32.03125 30.65625 
Q 27.734375 33.59375 22.65625 33.203125 
Q 17.578125 32.8125 14.25 29.6875 
Q 10.9375 26.5625 10.546875 17.1875 
z
M 12.109375 56.25 
Q 12.109375 48.4375 14.84375 44.921875 
Q 17.578125 41.40625 23.4375 41.40625 
Q 29.296875 41.40625 32.21875 44.921875 
Q 35.15625 48.4375 34.953125 53.3125 
Q 34.765625 58.203125 31.4375 60.546875 
Q 28.125 62.890625 22.453125 62.5 
Q 16.796875 62.109375 14.453125 59.171875 
Q 12.109375 56.25 12.109375 48.4375 
z
" id="SimHei-56"/>
      </defs>
      <g transform="translate(2177.140213 607.475)scale(0.2 -0.2)">
       <use xlink:href="#SimHei-56"/>
       <use x="50" xlink:href="#SimHei-48"/>
       <use x="100" xlink:href="#SimHei-48"/>
      </g>
     </g>
    </g>
    <g id="xtick_6">
     <g id="line2d_6">
      <g>
       <use style="stroke:#000000;stroke-width:0.8;" x="2699.920721" xlink:href="#mee6b215e0f" y="586.725"/>
      </g>
     </g>
     <g id="text_6">
      <!-- 1000 -->
      <defs>
       <path d="M 21.875 56.25 
Q 16.796875 51.171875 8.984375 46.484375 
L 8.984375 53.90625 
Q 18.75 60.546875 25 69.53125 
L 29.6875 69.53125 
L 29.6875 2.34375 
L 21.875 2.34375 
z
" id="SimHei-49"/>
      </defs>
      <g transform="translate(2679.920721 607.475)scale(0.2 -0.2)">
       <use xlink:href="#SimHei-49"/>
       <use x="50" xlink:href="#SimHei-48"/>
       <use x="100" xlink:href="#SimHei-48"/>
       <use x="150" xlink:href="#SimHei-48"/>
      </g>
     </g>
    </g>
   </g>
   <g id="matplotlib.axis_2">
    <g id="ytick_1">
     <g id="line2d_7">
      <defs>
       <path d="M 0 0 
L -3.5 0 
" id="m81ae29f557" style="stroke:#000000;stroke-width:0.8;"/>
      </defs>
      <g>
       <use style="stroke:#000000;stroke-width:0.8;" x="34.2" xlink:href="#m81ae29f557" y="587.175264"/>
      </g>
     </g>
     <g id="text_7">
      <!-- -8 -->
      <defs>
       <path d="M 46.484375 33.203125 
L 1.953125 33.203125 
L 1.953125 39.453125 
L 46.484375 39.453125 
z
" id="SimHei-45"/>
      </defs>
      <g transform="translate(7.2 594.050264)scale(0.2 -0.2)">
       <use xlink:href="#SimHei-45"/>
       <use x="50" xlink:href="#SimHei-56"/>
      </g>
     </g>
    </g>
    <g id="ytick_2">
     <g id="line2d_8">
      <g>
       <use style="stroke:#000000;stroke-width:0.8;" x="34.2" xlink:href="#m81ae29f557" y="517.762437"/>
      </g>
     </g>
     <g id="text_8">
      <!-- -6 -->
      <g transform="translate(7.2 524.637437)scale(0.2 -0.2)">
       <use xlink:href="#SimHei-45"/>
       <use x="50" xlink:href="#SimHei-54"/>
      </g>
     </g>
    </g>
    <g id="ytick_3">
     <g id="line2d_9">
      <g>
       <use style="stroke:#000000;stroke-width:0.8;" x="34.2" xlink:href="#m81ae29f557" y="448.34961"/>
      </g>
     </g>
     <g id="text_9">
      <!-- -4 -->
      <g transform="translate(7.2 455.22461)scale(0.2 -0.2)">
       <use xlink:href="#SimHei-45"/>
       <use x="50" xlink:href="#SimHei-52"/>
      </g>
     </g>
    </g>
    <g id="ytick_4">
     <g id="line2d_10">
      <g>
       <use style="stroke:#000000;stroke-width:0.8;" x="34.2" xlink:href="#m81ae29f557" y="378.936784"/>
      </g>
     </g>
     <g id="text_10">
      <!-- -2 -->
      <g transform="translate(7.2 385.811784)scale(0.2 -0.2)">
       <use xlink:href="#SimHei-45"/>
       <use x="50" xlink:href="#SimHei-50"/>
      </g>
     </g>
    </g>
    <g id="ytick_5">
     <g id="line2d_11">
      <g>
       <use style="stroke:#000000;stroke-width:0.8;" x="34.2" xlink:href="#m81ae29f557" y="309.523957"/>
      </g>
     </g>
     <g id="text_11">
      <!-- 0 -->
      <g transform="translate(17.2 316.398957)scale(0.2 -0.2)">
       <use xlink:href="#SimHei-48"/>
      </g>
     </g>
    </g>
    <g id="ytick_6">
     <g id="line2d_12">
      <g>
       <use style="stroke:#000000;stroke-width:0.8;" x="34.2" xlink:href="#m81ae29f557" y="240.11113"/>
      </g>
     </g>
     <g id="text_12">
      <!-- 2 -->
      <g transform="translate(17.2 246.98613)scale(0.2 -0.2)">
       <use xlink:href="#SimHei-50"/>
      </g>
     </g>
    </g>
    <g id="ytick_7">
     <g id="line2d_13">
      <g>
       <use style="stroke:#000000;stroke-width:0.8;" x="34.2" xlink:href="#m81ae29f557" y="170.698304"/>
      </g>
     </g>
     <g id="text_13">
      <!-- 4 -->
      <g transform="translate(17.2 177.573304)scale(0.2 -0.2)">
       <use xlink:href="#SimHei-52"/>
      </g>
     </g>
    </g>
    <g id="ytick_8">
     <g id="line2d_14">
      <g>
       <use style="stroke:#000000;stroke-width:0.8;" x="34.2" xlink:href="#m81ae29f557" y="101.285477"/>
      </g>
     </g>
     <g id="text_14">
      <!-- 6 -->
      <g transform="translate(17.2 108.160477)scale(0.2 -0.2)">
       <use xlink:href="#SimHei-54"/>
      </g>
     </g>
    </g>
    <g id="ytick_9">
     <g id="line2d_15">
      <g>
       <use style="stroke:#000000;stroke-width:0.8;" x="34.2" xlink:href="#m81ae29f557" y="31.87265"/>
      </g>
     </g>
     <g id="text_15">
      <!-- 8 -->
      <g transform="translate(17.2 38.74765)scale(0.2 -0.2)">
       <use xlink:href="#SimHei-56"/>
      </g>
     </g>
    </g>
   </g>
   <g id="line2d_16">
    <path clip-path="url(#p094d7d2f39)" d="M 161.018182 309.523957 
L 163.557084 297.317149 
L 166.095987 277.711791 
L 168.634889 69.44017 
L 171.173792 334.984734 
L 173.712695 312.015508 
L 176.251597 321.064319 
L 178.7905 277.885707 
L 181.329402 274.871692 
L 183.868305 242.217081 
L 186.407207 325.881665 
L 188.94611 309.591892 
L 191.485012 331.328741 
L 194.023915 238.06567 
L 196.562817 275.859414 
L 199.10172 282.248875 
L 201.640622 315.328076 
L 204.179525 313.861939 
L 206.718428 339.186454 
L 209.25733 78.976409 
L 211.796233 280.531219 
L 214.335135 300.44926 
L 216.874038 340.164333 
L 219.41294 325.089999 
L 221.951843 343.781513 
L 224.490745 556.52353 
L 227.029648 288.277682 
L 229.56855 308.399266 
L 232.107453 290.256333 
L 234.646355 345.278403 
L 237.185258 344.63363 
L 239.724161 371.71565 
L 242.263063 297.986108 
L 244.801966 308.915677 
L 247.340868 281.782578 
L 249.879771 384.058402 
L 252.418673 341.701714 
L 254.957576 332.328224 
L 257.496478 307.473546 
L 260.035381 302.921002 
L 262.574283 275.797998 
L 265.113186 528.215114 
L 267.652088 335.410873 
L 270.190991 315.797549 
L 272.729894 248.71969 
L 275.268796 290.481124 
L 277.807699 273.271765 
L 280.346601 58.485447 
L 282.885504 326.667063 
L 285.424406 309.807929 
L 287.963309 338.467761 
L 290.502211 270.029163 
L 293.041114 274.502084 
L 295.580016 253.265469 
L 298.118919 316.985028 
L 300.657821 311.196287 
L 303.196724 343.535484 
L 305.735627 233.063961 
L 308.274529 279.285449 
L 310.813432 291.152385 
L 313.352334 309.746226 
L 315.891237 318.736877 
L 318.430139 347.052107 
L 320.969042 104.672587 
L 323.507944 286.933449 
L 326.046847 305.625518 
L 328.585749 399.548997 
L 331.124652 332.049274 
L 333.663554 347.256688 
L 336.202457 561.518629 
L 338.74136 296.253654 
L 341.280262 309.523957 
L 343.819165 269.048626 
L 346.358067 352.268458 
L 348.89697 343.914777 
L 351.435872 359.208362 
L 353.974775 305.305414 
L 356.513677 306.296637 
L 359.05258 269.078765 
L 361.591482 386.7205 
L 364.130385 337.43124 
L 369.20819 309.30648 
L 371.747093 297.439835 
L 374.285995 268.571635 
L 376.824898 498.917199 
L 379.3638 328.728462 
L 381.902703 311.556195 
L 384.441605 191.668411 
L 386.980508 283.621206 
L 389.51941 270.872694 
L 392.058313 59.805838 
L 394.597215 319.262247 
L 397.136118 309.810344 
L 399.67502 363.241495 
L 402.213923 264.117944 
L 404.752826 276.288644 
L 407.291728 266.849805 
L 409.830631 311.398628 
L 412.369533 314.749308 
L 414.908436 356.386947 
L 417.447338 232.781521 
L 419.986241 284.267385 
L 422.525143 299.314045 
L 425.064046 311.416784 
L 427.602948 324.649167 
L 430.141851 353.415623 
L 432.680753 136.822478 
L 435.219656 293.692002 
L 437.758559 308.780603 
L 440.297461 453.40125 
L 442.836364 338.592819 
L 445.375266 348.500871 
L 447.914169 553.643163 
L 450.453071 302.878289 
L 452.991974 308.384717 
L 455.530876 241.047635 
L 458.069779 356.925553 
L 460.608681 341.11442 
L 463.147584 344.979249 
L 465.686486 309.058119 
L 468.225389 301.91909 
L 470.764292 256.442656 
L 473.303194 384.655522 
L 475.842097 331.892577 
L 478.380999 316.289429 
L 480.919902 304.454673 
L 483.458804 291.28389 
L 485.997707 263.271221 
L 488.536609 464.695461 
L 491.075512 322.098761 
L 493.614414 309.607206 
L 496.153317 141.814999 
L 498.692219 277.598924 
L 501.231122 270.827011 
L 503.770025 74.352369 
L 506.308927 313.600363 
L 508.84783 312.061137 
L 511.386732 394.035018 
L 513.925635 260.848669 
L 516.464537 280.017293 
L 519.00344 281.251205 
L 521.542342 309.523958 
L 524.081245 319.816482 
L 526.620147 368.441607 
L 529.15905 237.092743 
L 531.697952 290.191076 
L 534.236855 305.604552 
L 536.775758 319.061845 
L 539.31466 330.854729 
L 541.853563 357.482485 
L 544.392465 172.323506 
L 546.931368 299.993165 
L 549.47027 309.439253 
L 552.009173 498.537996 
L 554.548075 343.907174 
L 557.086978 347.341265 
L 559.62588 532.437783 
L 562.164783 307.426466 
L 564.703686 305.082063 
L 567.242588 207.985193 
L 569.781491 358.718139 
L 572.320393 336.572055 
L 574.859296 330.906653 
L 577.398198 309.066855 
L 579.937101 296.318505 
L 582.476003 245.327763 
L 585.014906 378.263006 
L 587.553808 325.767223 
L 590.092711 311.308305 
L 592.631613 294.45772 
L 595.170516 285.223347 
L 597.709419 260.572846 
L 600.248321 428.702271 
L 602.787224 316.314451 
L 605.326126 310.284535 
L 607.865029 102.016481 
L 610.403931 273.155446 
L 612.942834 273.161333 
L 615.481736 102.074417 
L 618.020639 310.281091 
L 620.559541 316.323174 
L 623.098444 428.763305 
L 625.637346 260.574969 
L 628.176249 285.233149 
L 630.715152 294.478068 
L 633.254054 311.314258 
L 635.792957 325.777728 
L 638.331859 378.27713 
L 640.870762 245.344603 
L 643.409664 296.328708 
L 645.948567 309.069932 
L 648.487469 330.929327 
L 651.026372 336.580981 
L 653.565274 358.71767 
L 656.104177 208.044515 
L 658.643079 305.089352 
L 661.181982 307.420789 
L 663.720885 532.485047 
L 666.259787 347.345256 
L 668.79869 343.899567 
L 671.337592 498.470064 
L 673.876495 309.440401 
L 676.415397 299.983265 
L 678.9543 172.261999 
L 681.493202 357.477859 
L 684.032105 330.844355 
L 686.571007 319.044691 
L 689.10991 305.596007 
L 691.648812 290.180592 
L 694.187715 237.0818 
L 696.726618 368.422581 
L 699.26552 319.806898 
L 701.804423 309.523959 
L 704.343325 281.227093 
L 706.882228 280.00952 
L 709.42113 260.851737 
L 711.960033 393.978554 
L 714.498935 312.055489 
L 717.037838 313.608144 
L 719.57674 74.316239 
L 722.115643 270.825031 
L 724.654545 277.608022 
L 727.193448 141.892049 
L 729.732351 309.608345 
L 732.271253 322.109546 
L 734.810156 464.756134 
L 737.349058 263.278189 
L 739.887961 291.294512 
L 742.426863 304.467809 
L 744.965766 316.300213 
L 747.504668 331.902715 
L 750.043571 384.662904 
L 752.582473 256.463287 
L 755.121376 301.927762 
L 757.660278 309.054924 
L 760.199181 345.003914 
L 762.738084 341.120799 
L 765.276986 356.919956 
L 767.815889 241.100212 
L 770.354791 308.388563 
L 772.893694 302.868601 
L 775.432596 553.667916 
L 777.971499 348.500788 
L 780.510401 338.582509 
L 783.049304 453.316143 
L 785.588206 308.777257 
L 788.127109 293.680656 
L 790.666011 136.763984 
L 793.204914 353.406545 
L 795.743817 324.63863 
L 798.282719 311.40842 
L 800.821622 299.301435 
L 803.360524 284.257906 
L 805.899427 232.777983 
L 808.438329 356.365325 
L 810.977232 314.741818 
L 813.516134 311.405036 
L 816.055037 266.825442 
L 818.593939 276.283854 
L 821.132842 264.125916 
L 823.671744 363.193701 
L 826.210647 309.808401 
L 828.74955 319.273582 
L 831.288452 59.79248 
L 833.827355 270.874829 
L 836.366257 283.632409 
L 838.90516 191.760349 
L 841.444062 311.561605 
L 843.982965 328.740029 
L 846.521867 498.972159 
L 849.06077 268.58253 
L 851.599672 297.449955 
L 854.138575 309.309407 
L 859.21638 337.439765 
L 861.755283 386.720022 
L 864.294185 269.100752 
L 866.833088 306.302716 
L 869.37199 305.295867 
L 871.910893 359.231614 
L 874.449795 343.917832 
L 876.988698 352.258339 
L 879.5276 269.090897 
L 882.066503 309.523955 
L 884.605405 296.240983 
L 887.144308 561.52079 
L 889.68321 347.252577 
L 892.222113 332.037531 
L 894.761016 399.451595 
L 897.299918 305.61825 
L 899.838821 286.922013 
L 902.377723 104.622494 
L 904.916626 347.039736 
L 907.455528 318.727495 
L 909.994431 309.749288 
L 912.533333 291.137521 
L 915.072236 279.278142 
L 917.611138 233.068512 
L 920.150041 343.513753 
L 922.688943 311.191808 
L 925.227846 316.997541 
L 927.766749 253.244066 
L 930.305651 274.500857 
L 932.844554 270.041129 
L 935.383456 338.431592 
L 937.922359 309.80986 
L 940.461261 326.680712 
L 943.000164 58.494072 
L 945.539066 273.277717 
L 948.077969 290.493037 
L 950.616871 248.821076 
L 953.155774 315.806416 
L 955.694676 335.421829 
L 958.233579 528.259058 
L 960.772482 275.811461 
L 963.311384 302.929346 
L 965.850287 307.464076 
L 968.389189 332.343469 
L 970.928092 341.707576 
L 973.466994 384.049846 
L 976.005897 281.803455 
L 978.544799 308.91842 
L 981.083702 297.970895 
L 983.622604 371.734551 
L 986.161507 344.632994 
L 988.70041 345.264953 
L 991.239312 290.285995 
L 993.778215 308.395482 
L 996.317117 288.263449 
L 998.85602 556.504728 
L 1001.394922 343.77391 
L 1003.933825 325.078296 
L 1006.472727 340.060525 
L 1009.01163 300.439098 
L 1011.550532 280.521079 
L 1014.089435 78.939814 
L 1016.628337 339.172308 
L 1019.16724 313.854903 
L 1021.706143 315.344228 
L 1024.245045 282.233752 
L 1026.783948 275.855181 
L 1029.32285 238.078036 
L 1031.861753 331.309276 
L 1034.400655 309.590971 
L 1036.939558 325.899223 
L 1039.47846 242.201234 
L 1042.017363 274.874169 
L 1044.556265 277.900223 
L 1047.095168 321.041396 
L 1049.63407 312.021013 
L 1052.172973 334.999136 
L 1054.711876 69.468359 
L 1057.250778 277.720805 
L 1059.789681 297.328263 
L 1064.867486 321.74188 
L 1067.406388 341.345133 
L 1069.945291 549.635902 
L 1072.484193 284.077583 
L 1075.023096 307.037905 
L 1077.561998 297.960648 
L 1080.100901 341.176721 
L 1082.639803 344.178692 
L 1085.178706 376.814975 
L 1087.717609 293.183801 
L 1090.256511 309.455093 
L 1092.795414 287.699703 
L 1095.334316 380.994598 
L 1097.873219 343.184261 
L 1100.412121 336.783914 
L 1102.951024 303.735967 
L 1105.489926 305.178933 
L 1108.028829 279.847316 
L 1110.567731 540.034882 
L 1113.106634 338.506552 
L 1115.645536 318.588496 
L 1118.184439 278.779777 
L 1120.723342 293.946211 
L 1123.262244 275.258803 
L 1125.801147 62.505615 
L 1128.340049 330.755999 
L 1130.878952 310.64487 
L 1133.417854 328.821265 
L 1135.956757 273.756065 
L 1138.495659 274.413654 
L 1141.034562 247.351173 
L 1143.573464 321.046603 
L 1146.112367 310.134986 
L 1148.651269 337.286216 
L 1151.190172 234.98097 
L 1153.729075 277.352067 
L 1156.267977 286.734934 
L 1158.80688 311.56492 
L 1161.345782 316.13526 
L 1163.884685 343.263377 
L 1166.423587 90.876767 
L 1168.96249 283.648 
L 1171.501392 303.259228 
L 1174.040295 370.429599 
L 1176.579197 328.578704 
L 1179.1181 345.782095 
L 1181.657002 560.571056 
L 1184.195905 292.394496 
L 1186.734808 309.241909 
L 1189.27371 280.543962 
L 1191.812613 349.030711 
L 1194.351515 344.544597 
L 1196.890418 365.761035 
L 1199.42932 302.075389 
L 1201.968223 307.847141 
L 1204.507125 275.490698 
L 1207.046028 385.98849 
L 1209.58493 339.755153 
L 1212.123833 327.880667 
L 1214.662735 309.304728 
L 1217.201638 300.301652 
L 1219.740541 271.98344 
L 1222.279443 514.325216 
L 1224.818346 332.103027 
L 1227.357248 313.415134 
L 1229.896151 219.401532 
L 1232.435053 286.986897 
L 1234.973956 271.787122 
L 1237.512858 57.531484 
L 1240.051761 322.781594 
L 1242.590663 309.523962 
L 1245.129566 350.041579 
L 1247.668468 266.769344 
L 1250.207371 275.136197 
L 1252.746274 259.862809 
L 1255.285176 313.732964 
L 1257.824079 312.75736 
L 1260.362981 349.991136 
L 1262.901884 232.326949 
L 1265.440786 281.625204 
L 1270.518591 309.74438 
L 1273.057494 321.618201 
L 1275.596396 350.487169 
L 1278.135299 120.185689 
L 1280.674201 290.331019 
L 1283.213104 307.497122 
L 1285.752007 427.47142 
L 1288.290909 335.437907 
L 1290.829812 348.177347 
L 1293.368714 559.228679 
L 1295.907617 299.796997 
L 1298.446519 309.235619 
L 1300.985422 255.758606 
L 1303.524324 354.937935 
L 1306.063227 342.754475 
L 1308.602129 352.173744 
L 1311.141032 307.655684 
L 1313.679934 304.291111 
L 1316.218837 262.639347 
L 1318.75774 386.262841 
L 1321.296642 334.771048 
L 1323.835545 319.721264 
L 1326.374447 307.622749 
L 1328.91335 294.388208 
L 1331.452252 265.62322 
L 1333.991155 482.166933 
L 1336.530057 325.344566 
L 1339.06896 310.263971 
L 1341.607862 165.561582 
L 1344.146765 280.444789 
L 1346.685667 270.546967 
L 1349.22457 65.429544 
L 1351.763473 316.159944 
L 1354.302375 310.66705 
L 1356.841278 378.052871 
L 1359.38018 262.116773 
L 1361.919083 277.939879 
L 1364.457985 274.093331 
L 1366.996888 309.986612 
L 1369.53579 317.137498 
L 1372.074693 362.625885 
L 1374.613595 234.399787 
L 1377.152498 287.165477 
L 1379.6914 302.769262 
L 1382.230303 314.606393 
L 1384.769206 327.774646 
L 1387.308108 355.783652 
L 1389.847011 154.413131 
L 1392.385913 296.959935 
L 1394.924816 309.441838 
L 1397.463718 477.309936 
L 1400.002621 341.458083 
L 1402.541523 348.218916 
L 1405.080426 544.659377 
L 1407.619328 305.455325 
L 1410.158231 306.981124 
L 1412.697133 224.956419 
L 1415.236036 358.202305 
L 1417.774939 339.022844 
L 1420.313841 337.772601 
L 1422.852744 309.523946 
L 1425.391646 299.221844 
L 1427.930549 250.587287 
L 1430.469451 381.944217 
L 1433.008354 328.846353 
L 1435.547256 313.434826 
L 1438.086159 299.968902 
L 1440.625061 288.182811 
L 1443.163964 261.560811 
L 1445.702867 446.662901 
L 1448.241769 319.044852 
L 1450.780672 309.609817 
L 1453.319574 120.44202 
L 1455.858477 275.133138 
L 1458.397379 271.710646 
L 1460.936282 86.657431 
L 1463.475184 311.615778 
L 1466.014087 313.973146 
L 1468.552989 411.122051 
L 1471.091892 260.329315 
L 1473.630794 282.484788 
L 1476.169697 288.163928 
L 1478.7086 309.984146 
L 1481.247502 322.739613 
L 1483.786405 373.736984 
L 1486.325307 240.799041 
L 1488.86421 293.291196 
L 1491.403112 307.745552 
L 1493.942015 324.610552 
L 1496.480917 333.834368 
L 1499.01982 358.477181 
L 1501.558722 190.406673 
L 1504.097625 302.742181 
L 1506.636527 308.759928 
L 1509.17543 517.089332 
L 1511.714333 345.898348 
L 1514.253235 345.880688 
L 1516.792138 516.915527 
L 1519.33104 308.770258 
L 1521.869943 302.716013 
L 1524.408845 190.223571 
L 1526.947748 358.470814 
L 1529.48665 333.804959 
L 1532.025553 324.549508 
L 1534.564455 307.727694 
L 1537.103358 293.25968 
L 1539.64226 240.756671 
L 1542.181163 373.686462 
L 1544.720066 322.709005 
L 1547.258968 309.974914 
L 1549.797871 288.095906 
L 1552.336773 282.45801 
L 1554.875676 260.330722 
L 1557.414578 410.944084 
L 1559.953481 313.951277 
L 1562.492383 311.63281 
L 1565.031286 86.515641 
L 1567.570188 271.698674 
L 1570.109091 275.15596 
L 1572.647993 120.645814 
L 1575.186896 309.606373 
L 1577.725799 319.074553 
L 1580.264701 446.847421 
L 1582.803604 261.574689 
L 1585.342506 288.213935 
L 1587.881409 300.020364 
L 1590.420311 313.460461 
L 1592.959214 328.877805 
L 1595.498116 381.977045 
L 1598.037019 250.644367 
L 1600.575921 299.250598 
L 1603.114824 309.523943 
L 1605.653726 337.844936 
L 1608.192629 339.046162 
L 1610.731532 358.193099 
L 1613.270434 225.125813 
L 1615.809337 306.998066 
L 1618.348239 305.431982 
L 1620.887142 544.767766 
L 1623.426044 348.224856 
L 1625.964947 341.430789 
L 1628.503849 477.078785 
L 1631.042752 309.438423 
L 1633.581654 296.927581 
L 1636.120557 154.231113 
L 1638.659459 355.76275 
L 1641.198362 327.742779 
L 1643.737265 314.566983 
L 1646.276167 302.736911 
L 1648.81507 287.135062 
L 1651.353972 234.377641 
L 1653.892875 362.563992 
L 1656.431777 317.111485 
L 1658.97068 309.996195 
L 1661.509582 274.019333 
L 1664.048485 277.920741 
L 1666.587387 262.133563 
L 1669.12629 377.89514 
L 1671.665192 310.655511 
L 1674.204095 316.189006 
L 1676.742998 65.355283 
L 1679.2819 270.547217 
L 1681.820803 280.475718 
L 1684.359705 165.816904 
L 1686.898608 310.274011 
L 1689.43751 325.378606 
L 1691.976413 482.342414 
L 1694.515315 265.650453 
L 1697.054218 294.41982 
L 1699.59312 307.64784 
L 1702.132023 319.759095 
L 1704.670925 334.799484 
L 1707.209828 386.273456 
L 1709.748731 262.704214 
L 1712.287633 304.313582 
L 1714.826536 307.636459 
L 1717.365438 352.246832 
L 1719.904341 342.768845 
L 1722.443243 354.914018 
L 1724.982146 255.901991 
L 1727.521048 309.241451 
L 1730.059951 299.762992 
L 1732.598853 559.268753 
L 1735.137756 348.170944 
L 1737.676658 335.404301 
L 1740.215561 427.195606 
L 1742.754464 307.480892 
L 1745.293366 290.296318 
L 1747.832269 120.020809 
L 1750.371171 350.454482 
L 1752.910074 321.587841 
L 1755.448976 309.735599 
L 1760.526781 281.599627 
L 1763.065684 232.328385 
L 1765.604586 349.925175 
L 1768.143489 312.739124 
L 1770.682391 313.761604 
L 1773.221294 259.793053 
L 1775.760197 275.127034 
L 1778.299099 266.799701 
L 1780.838002 349.914766 
L 1783.376904 309.523968 
L 1785.915807 322.819605 
L 1788.454709 57.525 
L 1790.993612 271.799454 
L 1793.532514 287.022128 
L 1796.071417 219.693736 
L 1798.610319 313.436939 
L 1801.149222 332.137337 
L 1803.688124 514.475494 
L 1806.227027 272.020553 
L 1808.76593 300.329798 
L 1811.304832 309.295544 
L 1813.843735 327.925259 
L 1816.382637 339.777075 
L 1818.92154 385.974837 
L 1821.460442 275.55589 
L 1823.999345 307.86058 
L 1826.538247 302.037851 
L 1829.07715 365.825243 
L 1831.616052 344.548277 
L 1834.154955 348.994813 
L 1836.693857 280.65247 
L 1839.23276 309.236116 
L 1841.771663 292.353551 
L 1844.310565 560.545181 
L 1846.849468 345.764239 
L 1849.38837 328.542963 
L 1851.927273 370.125441 
L 1854.466175 303.232626 
L 1857.005078 283.61513 
L 1859.54398 90.744935 
L 1862.082883 343.222986 
L 1864.621785 316.110228 
L 1867.160688 311.593331 
L 1869.69959 286.689199 
L 1872.238493 277.334481 
L 1874.777396 235.006638 
L 1877.316298 337.223586 
L 1879.855201 310.126757 
L 1882.394103 321.09224 
L 1884.933006 247.294472 
L 1887.471908 274.415562 
L 1890.010811 273.796415 
L 1892.549713 328.73228 
L 1895.088616 310.656222 
L 1897.627518 330.798699 
L 1900.166421 62.562022 
L 1902.705324 275.281612 
L 1905.244226 293.98132 
L 1907.783129 279.091204 
L 1910.322031 318.618981 
L 1912.860934 338.536972 
L 1915.399836 540.144669 
L 1917.938739 279.889753 
L 1920.477641 305.200043 
L 1923.016544 303.687511 
L 1925.555446 336.829284 
L 1928.094349 343.19696 
L 1930.633251 380.957499 
L 1933.172154 287.758098 
L 1935.711057 309.457859 
L 1938.249959 293.131125 
L 1940.788862 376.862516 
L 1943.327764 344.171261 
L 1945.866667 341.133171 
L 1948.405569 298.029419 
L 1950.944472 307.02139 
L 1953.483374 284.034376 
L 1956.022277 549.551337 
L 1958.561179 341.318091 
L 1961.100082 321.708541 
L 1966.177887 297.294915 
L 1968.71679 277.693776 
L 1971.255692 69.383884 
L 1973.794595 334.955929 
L 1976.333497 312.004515 
L 1978.8724 321.110235 
L 1981.411302 277.856682 
L 1983.950205 274.866757 
L 1986.489107 242.248808 
L 1989.02801 325.846569 
L 1991.566912 309.593755 
L 1994.105815 331.367688 
L 1996.644717 238.040974 
L 1999.18362 275.867897 
L 2001.722523 282.279126 
L 2004.261425 315.295841 
L 2006.800328 313.876028 
L 2009.33923 339.21474 
L 2011.878133 79.049681 
L 2014.417035 280.551509 
L 2016.955938 300.469572 
L 2019.49484 340.371934 
L 2022.033743 325.113409 
L 2024.572645 343.796704 
L 2027.111548 556.561034 
L 2029.65045 288.306145 
L 2032.189353 308.406816 
L 2034.728256 290.196942 
L 2037.267158 345.30529 
L 2039.806061 344.634884 
L 2042.344963 371.677821 
L 2044.883866 298.016507 
L 2047.422768 308.910173 
L 2049.961671 281.740813 
L 2052.500573 384.075473 
L 2055.039476 341.689975 
L 2057.578378 332.297736 
L 2060.117281 307.49242 
L 2062.656183 302.904302 
L 2065.195086 275.77108 
L 2067.733989 528.127157 
L 2070.272891 335.388952 
L 2072.811794 315.779829 
L 2075.350696 248.516951 
L 2077.889599 290.457296 
L 2080.428501 273.259878 
L 2082.967404 58.468304 
L 2085.506306 326.639775 
L 2088.045209 309.804086 
L 2090.584111 338.540164 
L 2093.123014 270.005248 
L 2095.661916 274.504557 
L 2098.200819 253.308296 
L 2100.739722 316.960032 
L 2103.278624 311.205264 
L 2105.817527 343.578951 
L 2108.356429 233.0549 
L 2110.895332 279.300078 
L 2113.434234 291.182107 
L 2115.973137 309.740167 
L 2118.512039 318.75565 
L 2121.050942 347.076836 
L 2123.589844 104.772829 
L 2126.128747 286.956325 
L 2128.667649 305.640037 
L 2131.206552 399.743751 
L 2133.745455 332.072758 
L 2136.284357 347.26489 
L 2138.82326 561.514194 
L 2141.362162 296.278983 
L 2143.901065 309.523941 
L 2146.439967 268.964024 
L 2148.97887 352.288676 
L 2151.517772 343.90865 
L 2154.056675 359.161842 
L 2156.595577 305.324475 
L 2159.13448 306.284464 
L 2161.673382 269.034791 
L 2164.212285 386.721416 
L 2166.751188 337.414177 
L 2171.828993 309.300568 
L 2174.367895 297.419589 
L 2176.906798 268.54986 
L 2179.4457 498.807236 
L 2181.984603 328.705328 
L 2184.523505 311.545395 
L 2187.062408 191.484598 
L 2189.60131 283.59881 
L 2192.140213 270.868446 
L 2194.679115 59.83267 
L 2197.218018 319.239592 
L 2199.756921 309.814252 
L 2202.295823 363.337138 
L 2204.834726 264.102023 
L 2207.373628 276.298241 
L 2209.912531 266.898538 
L 2212.451433 311.385844 
L 2214.990336 314.764302 
L 2217.529238 356.430185 
L 2220.068141 232.788639 
L 2222.607043 284.286351 
L 2225.145946 299.33925 
L 2227.684848 311.433564 
L 2230.223751 324.670245 
L 2232.762654 353.433758 
L 2235.301556 136.939494 
L 2237.840459 293.714692 
L 2240.379361 308.787274 
L 2242.918264 453.571389 
L 2245.457166 338.613427 
L 2247.996069 348.501016 
L 2250.534971 553.593539 
L 2253.073874 302.897645 
L 2255.612776 308.377005 
L 2258.151679 240.942437 
L 2260.690581 356.93672 
L 2263.229484 341.101646 
L 2265.768387 344.929918 
L 2268.307289 309.064474 
L 2270.846192 301.901737 
L 2273.385094 256.401406 
L 2275.923997 384.64072 
L 2278.462899 331.872295 
L 2281.001802 316.267883 
L 2283.540704 304.428355 
L 2286.079607 291.262646 
L 2288.618509 263.257309 
L 2291.157412 464.5741 
L 2293.696314 322.077199 
L 2296.235217 309.604952 
L 2298.77412 141.660986 
L 2301.313022 277.580742 
L 2303.851925 270.830991 
L 2306.390827 74.424743 
L 2308.92973 313.584822 
L 2311.468632 312.072449 
L 2314.007535 394.147982 
L 2316.546437 260.842557 
L 2319.08534 280.032851 
L 2321.624242 281.299418 
L 2324.163145 309.523988 
L 2326.702048 319.83566 
L 2329.24095 368.479641 
L 2331.779853 237.114663 
L 2334.318755 290.212046 
L 2336.857658 305.621617 
L 2339.39656 319.09619 
L 2341.935463 330.875474 
L 2344.474365 357.491712 
L 2347.013268 172.446521 
L 2349.55217 300.012955 
L 2352.091073 309.436934 
L 2354.629975 498.67376 
L 2357.168878 343.922373 
L 2359.707781 347.333264 
L 2362.246683 532.343144 
L 2364.785586 307.437799 
L 2367.324488 305.067467 
L 2369.863391 207.866524 
L 2372.402293 358.71905 
L 2374.941196 336.554193 
L 2377.480098 330.861324 
L 2380.019001 309.06067 
L 2382.557903 296.298095 
L 2385.096806 245.294106 
L 2387.635708 378.234729 
L 2390.174611 325.746213 
L 2392.713514 311.296428 
L 2395.252416 294.416995 
L 2397.791319 285.203749 
L 2400.330221 260.568628 
L 2402.869124 428.580214 
L 2405.408026 316.29702 
L 2407.946929 310.291445 
L 2410.485831 101.900717 
L 2413.024734 273.143692 
L 2415.563636 273.173125 
L 2418.102539 102.190393 
L 2420.641441 310.274228 
L 2423.180344 316.340633 
L 2425.719247 428.885385 
L 2428.258149 260.579239 
L 2430.797052 285.252762 
L 2433.335954 294.518735 
L 2435.874857 311.326191 
L 2438.413759 325.798741 
L 2440.952662 378.305347 
L 2443.491564 245.37831 
L 2446.030467 296.349108 
L 2448.569369 309.076056 
L 2451.108272 330.974694 
L 2453.647174 336.598823 
L 2456.186077 358.716705 
L 2458.72498 208.163137 
L 2461.263882 305.103916 
L 2463.802785 307.409411 
L 2466.341687 532.579462 
L 2468.88059 347.353217 
L 2471.419492 343.884335 
L 2473.958395 498.334104 
L 2476.497297 309.442673 
L 2479.0362 299.963454 
L 2481.575102 172.138988 
L 2484.114005 357.468582 
L 2486.652907 330.823601 
L 2489.19181 319.01042 
L 2491.730713 305.578892 
L 2494.269615 290.159626 
L 2496.808518 237.059949 
L 2499.34742 368.384508 
L 2501.886323 319.787736 
L 2504.425225 309.523993 
L 2506.964128 281.178859 
L 2509.50303 279.993988 
L 2512.041933 260.857901 
L 2514.580835 393.865659 
L 2517.119738 312.044213 
L 2519.65864 313.623726 
L 2522.197543 74.244095 
L 2524.736446 270.821092 
L 2527.275348 277.626232 
L 2529.814251 142.046238 
L 2532.353153 309.610645 
L 2534.892056 322.131122 
L 2537.430958 464.877464 
L 2539.969861 263.292147 
L 2542.508763 291.315758 
L 2545.047666 304.494037 
L 2547.586568 316.321801 
L 2550.125471 331.922987 
L 2552.664373 384.67763 
L 2555.203276 256.504562 
L 2557.742179 301.945093 
L 2560.281081 309.048503 
L 2562.819984 345.053247 
L 2565.358886 341.133542 
L 2567.897789 356.908738 
L 2570.436691 241.205321 
L 2572.975594 308.396237 
L 2575.514496 302.849209 
L 2578.053399 553.717307 
L 2580.592301 348.5006 
L 2583.131204 338.561878 
L 2585.670106 453.145851 
L 2588.209009 308.770542 
L 2590.747912 293.657958 
L 2593.286814 136.647026 
L 2595.825717 353.38837 
L 2598.364619 324.617558 
L 2600.903522 311.391745 
L 2603.442424 299.276197 
L 2605.981327 284.238956 
L 2608.520229 232.770946 
L 2611.059132 356.322073 
L 2613.598034 314.726851 
L 2616.136937 311.417885 
L 2618.675839 266.776724 
L 2621.214742 276.274291 
L 2623.753645 264.141883 
L 2626.292547 363.098164 
L 2628.83145 309.804533 
L 2631.370352 319.296267 
L 2633.909255 59.76588 
L 2636.448157 270.879118 
L 2638.98706 283.65482 
L 2641.525962 191.944288 
L 2644.064865 311.572445 
L 2646.603767 328.763163 
L 2649.14267 499.082036 
L 2651.681572 268.604339 
L 2654.220475 297.470189 
L 2656.759378 309.315203 
L 2661.837183 337.456805 
L 2664.376085 386.719023 
L 2666.914988 269.144727 
L 2669.45389 306.314858 
L 2671.992793 305.276743 
L 2674.531695 359.278103 
L 2677.070598 343.923922 
L 2679.6095 352.23808 
L 2682.148403 269.17538 
L 2684.687305 309.523931 
L 2687.226208 296.21563 
L 2689.765111 561.525 
L 2692.304013 347.244336 
L 2694.842916 332.01404 
L 2697.381818 399.256744 
L 2697.381818 399.256744 
" style="fill:none;stroke:#1f77b4;stroke-linecap:square;stroke-width:1.5;"/>
   </g>
   <g id="patch_3">
    <path d="M 34.2 586.725 
L 34.2 32.325 
" style="fill:none;stroke:#000000;stroke-linecap:square;stroke-linejoin:miter;stroke-width:0.8;"/>
   </g>
   <g id="patch_4">
    <path d="M 2824.2 586.725 
L 2824.2 32.325 
" style="fill:none;stroke:#000000;stroke-linecap:square;stroke-linejoin:miter;stroke-width:0.8;"/>
   </g>
   <g id="patch_5">
    <path d="M 34.2 586.725 
L 2824.2 586.725 
" style="fill:none;stroke:#000000;stroke-linecap:square;stroke-linejoin:miter;stroke-width:0.8;"/>
   </g>
   <g id="patch_6">
    <path d="M 34.2 32.325 
L 2824.2 32.325 
" style="fill:none;stroke:#000000;stroke-linecap:square;stroke-linejoin:miter;stroke-width:0.8;"/>
   </g>
   <g id="text_16">
    <!-- 正弦合成信号 -->
    <defs>
     <path d="M 75.390625 72.265625 
Q 82.8125 72.265625 88.671875 72.65625 
L 88.671875 64.84375 
Q 82.8125 65.234375 74.609375 65.234375 
L 55.859375 65.234375 
L 55.859375 40.625 
L 75.78125 40.625 
Q 82.03125 40.625 86.71875 41.015625 
L 86.71875 33.59375 
Q 82.03125 33.984375 75.78125 33.984375 
L 55.859375 33.984375 
L 55.859375 2.34375 
L 75.78125 2.34375 
Q 83.984375 2.34375 92.1875 2.734375 
L 92.1875 -5.078125 
Q 83.984375 -4.6875 77.734375 -4.6875 
L 18.359375 -4.6875 
Q 10.9375 -4.6875 5.859375 -5.078125 
L 5.859375 2.734375 
Q 10.9375 2.34375 18.359375 2.34375 
L 20.703125 2.34375 
L 20.703125 36.71875 
Q 20.703125 43.75 20.3125 48.828125 
L 29.296875 48.828125 
Q 28.90625 44.140625 28.90625 36.71875 
L 28.90625 2.34375 
L 48.046875 2.34375 
L 48.046875 65.234375 
L 25.390625 65.234375 
Q 17.96875 65.234375 12.5 64.84375 
L 12.5 72.65625 
Q 17.96875 72.265625 25.390625 72.265625 
z
" id="SimHei-27491"/>
     <path d="M 78.515625 67.578125 
Q 87.109375 67.578125 94.53125 67.96875 
L 94.53125 61.328125 
Q 86.328125 62.109375 78.515625 62.109375 
L 60.15625 62.109375 
Q 62.5 59.765625 66.40625 57.421875 
Q 62.890625 55.46875 50 33.59375 
Q 57.03125 33.59375 69.140625 33.984375 
Q 75.390625 41.40625 77.34375 48.046875 
Q 81.25 45.703125 85.9375 43.359375 
Q 79.6875 36.328125 71.09375 24.796875 
Q 62.5 13.28125 53.125 3.125 
Q 59.765625 3.515625 83.203125 5.078125 
Q 80.859375 11.71875 78.125 16.40625 
Q 81.640625 17.578125 85.546875 19.140625 
Q 91.40625 5.078125 95.3125 -5.859375 
Q 93.359375 -6.640625 87.5 -8.59375 
Q 86.328125 -5.078125 84.765625 -0.78125 
Q 69.53125 -1.5625 58.984375 -2.734375 
Q 48.4375 -3.90625 42.96875 -5.859375 
L 40.234375 2.34375 
Q 44.53125 3.90625 51.171875 9.953125 
Q 57.8125 16.015625 65.234375 27.734375 
Q 61.328125 27.734375 55.078125 27.140625 
Q 48.828125 26.5625 42.96875 25 
L 40.234375 33.984375 
Q 44.921875 35.546875 50.390625 45.109375 
Q 55.859375 54.6875 57.8125 62.109375 
Q 47.265625 62.109375 39.84375 61.328125 
L 39.84375 67.96875 
Q 47.265625 67.578125 54.6875 67.578125 
z
M 14.84375 -9.375 
Q 14.0625 -5.078125 11.71875 -0.390625 
Q 21.09375 -1.171875 22.84375 0 
Q 24.609375 1.171875 25.390625 4.6875 
Q 26.171875 8.203125 26.953125 26.5625 
L 6.640625 26.5625 
Q 8.203125 40.234375 8.203125 53.515625 
L 26.953125 53.515625 
L 26.953125 68.359375 
L 17.96875 68.359375 
Q 11.71875 68.359375 5.859375 67.96875 
L 5.859375 75 
Q 11.71875 74.609375 17.578125 74.609375 
L 34.765625 74.609375 
Q 34.375 67.1875 34.171875 60.9375 
Q 33.984375 54.6875 34.375 47.265625 
L 14.84375 47.265625 
L 14.0625 32.8125 
L 34.765625 32.8125 
Q 33.984375 25 33.203125 13.28125 
Q 32.421875 1.5625 31.25 -1.75 
Q 30.078125 -5.078125 26.953125 -6.4375 
Q 23.828125 -7.8125 14.84375 -9.375 
z
M 68.359375 82.03125 
Q 69.921875 76.5625 71.875 70.3125 
Q 67.96875 69.53125 64.0625 67.96875 
Q 62.890625 74.21875 60.15625 79.6875 
Q 64.453125 80.078125 68.359375 82.03125 
z
" id="SimHei-24358"/>
     <path d="M 78.90625 28.125 
Q 78.515625 24.21875 78.515625 10.15625 
Q 78.515625 -3.90625 78.90625 -8.203125 
L 70.703125 -8.203125 
L 70.703125 -0.78125 
L 27.34375 -0.78125 
L 27.34375 -9.375 
L 19.53125 -9.375 
Q 19.921875 -4.6875 19.921875 8.59375 
Q 19.921875 22.265625 19.53125 28.125 
L 78.90625 28.125 
z
M 52.734375 75 
Q 64.0625 61.328125 71.09375 56.25 
Q 78.125 51.171875 83.984375 48.4375 
Q 89.84375 45.703125 95.3125 44.140625 
Q 91.40625 39.84375 90.234375 35.9375 
Q 82.421875 39.453125 76.171875 43.359375 
Q 69.921875 47.265625 63.46875 53.3125 
Q 57.03125 59.375 48.828125 69.921875 
Q 41.40625 59.375 34.171875 52.53125 
Q 26.953125 45.703125 21.875 41.796875 
Q 16.796875 37.890625 10.546875 33.984375 
Q 9.765625 35.546875 4.296875 40.234375 
Q 12.5 44.140625 19.921875 49.609375 
Q 27.34375 55.078125 34.765625 63.46875 
Q 42.1875 71.875 46.875 81.640625 
Q 51.171875 78.90625 54.6875 77.34375 
z
M 70.703125 5.46875 
L 70.703125 21.875 
L 27.34375 21.875 
L 27.34375 5.46875 
z
M 61.328125 44.140625 
Q 67.578125 44.140625 72.265625 44.53125 
L 72.265625 37.109375 
Q 67.1875 37.5 61.71875 37.5 
L 39.84375 37.5 
Q 31.640625 37.5 26.5625 37.109375 
L 26.5625 44.53125 
Q 33.984375 44.140625 39.84375 44.140625 
z
" id="SimHei-21512"/>
     <path d="M 54.6875 62.5 
Q 54.296875 73.828125 53.90625 81.640625 
Q 58.59375 81.25 62.890625 80.859375 
Q 62.109375 75.78125 62.5 62.5 
L 73.828125 62.5 
Q 82.03125 62.5 91.796875 62.890625 
L 91.796875 55.46875 
Q 81.640625 55.859375 73.828125 55.859375 
L 62.890625 55.859375 
Q 63.28125 41.015625 67.96875 23.4375 
Q 75.390625 34.765625 79.6875 49.609375 
Q 83.59375 46.484375 88.671875 44.140625 
Q 85.546875 40.625 81.640625 32.421875 
Q 77.734375 24.21875 71.484375 15.234375 
Q 75 8.203125 79.09375 4.09375 
Q 83.203125 0 84.765625 0.578125 
Q 86.328125 1.171875 87.890625 14.0625 
Q 91.796875 10.9375 96.09375 9.375 
Q 93.359375 -6.640625 90.03125 -8.390625 
Q 86.71875 -10.15625 82.03125 -8.390625 
Q 77.34375 -6.640625 73.234375 -1.75 
Q 69.140625 3.125 66.40625 8.984375 
Q 57.03125 -1.171875 42.578125 -10.15625 
Q 40.625 -6.640625 36.71875 -3.90625 
Q 44.53125 -0.390625 51.75 5.46875 
Q 58.984375 11.328125 62.5 16.40625 
Q 59.765625 23.828125 57.8125 34.5625 
Q 55.859375 45.3125 55.46875 55.859375 
L 21.875 55.859375 
L 21.875 42.1875 
L 47.265625 42.1875 
Q 46.484375 35.15625 46.09375 27.734375 
L 44.921875 12.109375 
Q 44.53125 4.6875 40.8125 3.125 
Q 37.109375 1.5625 28.125 0.78125 
Q 27.734375 4.296875 25 9.375 
Q 34.765625 8.984375 36.328125 10.546875 
Q 37.890625 12.109375 38.28125 19.53125 
L 39.0625 35.15625 
L 21.875 35.15625 
Q 21.875 19.921875 19.53125 9.765625 
Q 17.1875 -0.390625 10.9375 -8.984375 
Q 6.640625 -5.859375 3.125 -4.6875 
Q 8.203125 1.5625 10.15625 7.21875 
Q 12.109375 12.890625 13.078125 19.53125 
Q 14.0625 26.171875 14.25 38.28125 
Q 14.453125 50.390625 14.0625 62.5 
L 54.6875 62.5 
z
M 74.21875 81.640625 
Q 82.03125 75.390625 87.890625 69.140625 
Q 84.375 66.40625 81.640625 63.671875 
Q 76.953125 69.921875 69.140625 76.5625 
Q 71.875 78.90625 74.21875 81.640625 
z
" id="SimHei-25104"/>
     <path d="M 88.28125 24.609375 
Q 87.890625 19.921875 87.890625 8.984375 
Q 87.890625 -1.5625 88.28125 -7.03125 
L 80.859375 -7.03125 
L 80.859375 -0.390625 
L 47.265625 -0.390625 
L 47.265625 -8.59375 
L 39.453125 -8.59375 
Q 39.84375 -2.734375 39.84375 7.8125 
Q 39.84375 18.75 39.453125 24.609375 
L 88.28125 24.609375 
z
M 33.203125 77.734375 
Q 30.859375 75.390625 25.78125 62.109375 
L 25.78125 8.59375 
Q 25.78125 -3.125 26.171875 -9.765625 
L 17.578125 -9.765625 
Q 18.75 -2.734375 18.75 8.984375 
L 18.75 48.4375 
Q 14.0625 39.0625 9.765625 32.8125 
Q 7.421875 36.71875 3.90625 39.0625 
Q 8.203125 43.75 14.453125 55.65625 
Q 20.703125 67.578125 23.828125 80.859375 
Q 28.125 79.296875 33.203125 77.734375 
z
M 80.859375 5.859375 
L 80.859375 19.140625 
L 47.265625 19.140625 
L 47.265625 5.859375 
z
M 94.921875 60.9375 
Q 87.109375 61.328125 64.0625 61.328125 
Q 41.015625 61.328125 32.8125 60.9375 
L 32.8125 67.578125 
L 94.921875 67.578125 
z
M 89.0625 46.875 
Q 82.421875 47.265625 64.84375 47.265625 
Q 47.265625 47.265625 38.671875 46.875 
L 38.671875 53.515625 
Q 46.09375 53.125 64.0625 53.125 
Q 82.421875 53.125 89.0625 53.515625 
z
M 89.0625 33.203125 
Q 83.59375 33.59375 65.234375 33.59375 
Q 47.265625 33.59375 38.671875 33.203125 
L 38.671875 39.84375 
Q 46.875 39.453125 65.234375 39.453125 
Q 83.984375 39.453125 89.0625 39.84375 
z
M 62.890625 81.25 
Q 64.0625 78.90625 65.234375 76.171875 
Q 66.40625 73.4375 67.578125 70.3125 
Q 64.0625 69.140625 60.546875 68.359375 
Q 57.8125 76.5625 55.859375 78.515625 
Q 59.765625 80.078125 62.890625 81.25 
z
" id="SimHei-20449"/>
     <path d="M 78.515625 76.953125 
Q 78.125 71.09375 78.125 63.671875 
Q 78.125 56.25 78.515625 49.609375 
L 21.875 49.609375 
Q 22.265625 55.078125 22.265625 62.5 
Q 22.265625 70.3125 21.875 76.953125 
L 78.515625 76.953125 
z
M 80.859375 41.015625 
Q 88.28125 41.015625 94.140625 41.40625 
L 94.140625 34.375 
Q 88.28125 34.765625 80.859375 34.765625 
L 38.28125 34.765625 
Q 36.71875 29.296875 34.765625 22.65625 
L 80.859375 22.65625 
Q 79.6875 16.40625 79.09375 12.109375 
Q 78.515625 7.8125 77.34375 1.75 
Q 76.171875 -4.296875 72.65625 -6.4375 
Q 69.140625 -8.59375 50.390625 -9.765625 
Q 48.828125 -5.46875 46.484375 -0.78125 
Q 60.546875 -1.171875 64.25 -0.78125 
Q 67.96875 -0.390625 69.140625 3.3125 
Q 70.3125 7.03125 71.484375 16.015625 
L 25 16.015625 
Q 28.515625 25.390625 30.46875 34.765625 
L 21.09375 34.765625 
Q 12.890625 34.765625 5.859375 34.375 
L 5.859375 41.40625 
Q 12.890625 41.015625 21.09375 41.015625 
z
M 70.703125 55.859375 
L 70.703125 70.703125 
L 29.6875 70.703125 
L 29.6875 55.859375 
z
" id="SimHei-21495"/>
    </defs>
    <g transform="translate(1357.2 26.325)scale(0.24 -0.24)">
     <use xlink:href="#SimHei-27491"/>
     <use x="100" xlink:href="#SimHei-24358"/>
     <use x="200" xlink:href="#SimHei-21512"/>
     <use x="300" xlink:href="#SimHei-25104"/>
     <use x="400" xlink:href="#SimHei-20449"/>
     <use x="500" xlink:href="#SimHei-21495"/>
    </g>
   </g>
  </g>
 </g>
 <defs>
  <clipPath id="p094d7d2f39">
   <rect height="554.4" width="2790" x="34.2" y="32.325"/>
  </clipPath>
 </defs>
</svg>
