<?xml version="1.0" encoding="utf-8" standalone="no"?>
<!DOCTYPE svg PUBLIC "-//W3C//DTD SVG 1.1//EN"
  "http://www.w3.org/Graphics/SVG/1.1/DTD/svg11.dtd">
<!-- Created with matplotlib (https://matplotlib.org/) -->
<svg height="702.9875pt" version="1.1" viewBox="0 0 2885.93125 702.9875" width="2885.93125pt" xmlns="http://www.w3.org/2000/svg" xmlns:xlink="http://www.w3.org/1999/xlink">
 <defs>
  <style type="text/css">
*{stroke-linecap:butt;stroke-linejoin:round;}
  </style>
 </defs>
 <g id="figure_1">
  <g id="patch_1">
   <path d="M 0 702.9875 
L 2885.93125 702.9875 
L 2885.93125 0 
L 0 0 
z
" style="fill:#ffffff;"/>
  </g>
  <g id="axes_1">
   <g id="patch_2">
    <path d="M 85.23125 632.2875 
L 2875.23125 632.2875 
L 2875.23125 77.8875 
L 85.23125 77.8875 
z
" style="fill:#ffffff;"/>
   </g>
   <g id="matplotlib.axis_1">
    <g id="xtick_1">
     <g id="line2d_1">
      <defs>
       <path d="M 0 0 
L 0 3.5 
" id="m4cb7e6013e" style="stroke:#000000;stroke-width:0.8;"/>
      </defs>
      <g>
       <use style="stroke:#000000;stroke-width:0.8;" x="212.049432" xlink:href="#m4cb7e6013e" y="632.2875"/>
      </g>
     </g>
     <g id="text_1">
      <!-- 0.0 -->
      <defs>
       <path d="M 3.125 29.296875 
Q 3.90625 50 6.4375 56.046875 
Q 8.984375 62.109375 13.671875 66.015625 
Q 18.359375 69.921875 25.1875 69.921875 
Q 32.03125 69.921875 37.109375 64.25 
Q 42.1875 58.59375 43.75 50 
Q 45.3125 41.40625 44.71875 30.265625 
Q 44.140625 19.140625 40.8125 12.109375 
Q 37.5 5.078125 30.859375 2.34375 
Q 24.21875 -0.390625 17.578125 2.921875 
Q 10.9375 6.25 8.203125 11.71875 
Q 5.46875 17.1875 4.296875 23.234375 
Q 3.125 29.296875 3.90625 50 
z
M 12.890625 52.734375 
Q 10.546875 31.25 12.5 22.84375 
Q 14.453125 14.453125 18.9375 10.9375 
Q 23.4375 7.421875 28.125 9.5625 
Q 32.8125 11.71875 34.953125 18.15625 
Q 37.109375 24.609375 37.109375 32.21875 
Q 37.109375 39.84375 36.515625 46.09375 
Q 35.9375 52.34375 33 57.421875 
Q 30.078125 62.5 25.1875 62.6875 
Q 20.3125 62.890625 16.59375 57.8125 
Q 12.890625 52.734375 10.546875 31.25 
z
" id="SimHei-48"/>
       <path d="M 16.796875 1.953125 
L 7.8125 1.953125 
L 7.8125 10.546875 
L 16.796875 10.546875 
z
" id="SimHei-46"/>
      </defs>
      <g transform="translate(197.049432 653.0375)scale(0.2 -0.2)">
       <use xlink:href="#SimHei-48"/>
       <use x="50" xlink:href="#SimHei-46"/>
       <use x="100" xlink:href="#SimHei-48"/>
      </g>
     </g>
    </g>
    <g id="xtick_2">
     <g id="line2d_2">
      <g>
       <use style="stroke:#000000;stroke-width:0.8;" x="719.322159" xlink:href="#m4cb7e6013e" y="632.2875"/>
      </g>
     </g>
     <g id="text_2">
      <!-- 0.1 -->
      <defs>
       <path d="M 21.875 56.25 
Q 16.796875 51.171875 8.984375 46.484375 
L 8.984375 53.90625 
Q 18.75 60.546875 25 69.53125 
L 29.6875 69.53125 
L 29.6875 2.34375 
L 21.875 2.34375 
z
" id="SimHei-49"/>
      </defs>
      <g transform="translate(704.322159 653.0375)scale(0.2 -0.2)">
       <use xlink:href="#SimHei-48"/>
       <use x="50" xlink:href="#SimHei-46"/>
       <use x="100" xlink:href="#SimHei-49"/>
      </g>
     </g>
    </g>
    <g id="xtick_3">
     <g id="line2d_3">
      <g>
       <use style="stroke:#000000;stroke-width:0.8;" x="1226.594886" xlink:href="#m4cb7e6013e" y="632.2875"/>
      </g>
     </g>
     <g id="text_3">
      <!-- 0.2 -->
      <defs>
       <path d="M 4.6875 3.90625 
Q 5.078125 9.765625 10.15625 14.453125 
Q 15.234375 19.140625 23.046875 29.09375 
Q 30.859375 39.0625 33.203125 44.53125 
Q 35.546875 50 34.953125 53.90625 
Q 34.375 57.8125 31.25 60.34375 
Q 28.125 62.890625 24.015625 62.5 
Q 19.921875 62.109375 16.203125 59.375 
Q 12.5 56.640625 10.546875 51.171875 
L 3.125 52.34375 
Q 6.25 61.328125 11.125 65.421875 
Q 16.015625 69.53125 22.65625 69.921875 
Q 26.5625 70.3125 29.6875 69.71875 
Q 32.8125 69.140625 36.125 66.984375 
Q 39.453125 64.84375 41.59375 60.546875 
Q 43.75 56.25 43.15625 50.1875 
Q 42.578125 44.140625 37.109375 35.734375 
Q 31.640625 27.34375 16.015625 9.375 
L 44.140625 9.375 
L 44.140625 2.34375 
L 4.6875 2.34375 
z
" id="SimHei-50"/>
      </defs>
      <g transform="translate(1211.594886 653.0375)scale(0.2 -0.2)">
       <use xlink:href="#SimHei-48"/>
       <use x="50" xlink:href="#SimHei-46"/>
       <use x="100" xlink:href="#SimHei-50"/>
      </g>
     </g>
    </g>
    <g id="xtick_4">
     <g id="line2d_4">
      <g>
       <use style="stroke:#000000;stroke-width:0.8;" x="1733.867614" xlink:href="#m4cb7e6013e" y="632.2875"/>
      </g>
     </g>
     <g id="text_4">
      <!-- 0.3 -->
      <defs>
       <path d="M 3.90625 19.140625 
L 10.9375 20.3125 
Q 12.5 15.234375 16.015625 11.90625 
Q 19.53125 8.59375 24.796875 8.78125 
Q 30.078125 8.984375 33.203125 13.078125 
Q 36.328125 17.1875 35.9375 22.453125 
Q 35.546875 27.734375 31.828125 30.65625 
Q 28.125 33.59375 19.921875 34.765625 
L 19.921875 39.84375 
Q 28.125 40.625 31.828125 44.140625 
Q 35.546875 47.65625 35.15625 53.3125 
Q 34.765625 58.984375 30.078125 61.515625 
Q 25.390625 64.0625 20.109375 62.109375 
Q 14.84375 60.15625 11.71875 51.171875 
L 4.6875 52.34375 
Q 7.03125 59.375 11.125 64.0625 
Q 15.234375 68.75 22.265625 69.53125 
Q 29.296875 70.3125 34.5625 67.765625 
Q 39.84375 65.234375 41.984375 59.953125 
Q 44.140625 54.6875 42.578125 48.4375 
Q 41.015625 42.1875 33.59375 37.5 
Q 39.0625 35.15625 41.984375 30.46875 
Q 44.921875 25.78125 43.9375 18.15625 
Q 42.96875 10.546875 37.109375 5.859375 
Q 31.25 1.171875 23.828125 1.359375 
Q 16.40625 1.5625 10.9375 6.046875 
Q 5.46875 10.546875 3.90625 19.140625 
z
" id="SimHei-51"/>
      </defs>
      <g transform="translate(1718.867614 653.0375)scale(0.2 -0.2)">
       <use xlink:href="#SimHei-48"/>
       <use x="50" xlink:href="#SimHei-46"/>
       <use x="100" xlink:href="#SimHei-51"/>
      </g>
     </g>
    </g>
    <g id="xtick_5">
     <g id="line2d_5">
      <g>
       <use style="stroke:#000000;stroke-width:0.8;" x="2241.140341" xlink:href="#m4cb7e6013e" y="632.2875"/>
      </g>
     </g>
     <g id="text_5">
      <!-- 0.4 -->
      <defs>
       <path d="M 31.25 17.1875 
L 1.171875 17.1875 
L 1.171875 23.828125 
L 32.8125 69.53125 
L 38.671875 69.53125 
L 38.671875 23.828125 
L 48.046875 23.828125 
L 48.046875 17.1875 
L 38.671875 17.1875 
L 38.671875 2.34375 
L 31.25 2.34375 
z
M 31.25 23.828125 
L 31.25 54.6875 
L 9.375 23.828125 
z
" id="SimHei-52"/>
      </defs>
      <g transform="translate(2226.140341 653.0375)scale(0.2 -0.2)">
       <use xlink:href="#SimHei-48"/>
       <use x="50" xlink:href="#SimHei-46"/>
       <use x="100" xlink:href="#SimHei-52"/>
      </g>
     </g>
    </g>
    <g id="xtick_6">
     <g id="line2d_6">
      <g>
       <use style="stroke:#000000;stroke-width:0.8;" x="2748.413068" xlink:href="#m4cb7e6013e" y="632.2875"/>
      </g>
     </g>
     <g id="text_6">
      <!-- 0.5 -->
      <defs>
       <path d="M 8.59375 20.703125 
Q 11.328125 10.15625 17.96875 8.984375 
Q 24.609375 7.8125 28.703125 10.34375 
Q 32.8125 12.890625 34.5625 16.984375 
Q 36.328125 21.09375 36.125 26.171875 
Q 35.9375 31.25 33.390625 34.765625 
Q 30.859375 38.28125 26.953125 39.453125 
Q 23.046875 40.625 18.15625 39.453125 
Q 13.28125 38.28125 10.15625 33.984375 
L 3.515625 34.765625 
Q 4.296875 37.109375 10.9375 68.359375 
L 41.796875 68.359375 
L 41.796875 61.328125 
L 16.796875 61.328125 
Q 14.84375 50.78125 12.890625 44.53125 
Q 18.75 47.265625 23.828125 47.0625 
Q 28.90625 46.875 33.59375 44.71875 
Q 38.28125 42.578125 40.421875 38.859375 
Q 42.578125 35.15625 43.546875 31.4375 
Q 44.53125 27.734375 44.328125 23.4375 
Q 44.140625 19.140625 42.578125 14.640625 
Q 41.015625 10.15625 37.890625 7.21875 
Q 34.765625 4.296875 30.265625 2.53125 
Q 25.78125 0.78125 19.921875 1.171875 
Q 14.0625 1.5625 8.78125 5.46875 
Q 3.515625 9.375 1.5625 18.75 
z
" id="SimHei-53"/>
      </defs>
      <g transform="translate(2733.413068 653.0375)scale(0.2 -0.2)">
       <use xlink:href="#SimHei-48"/>
       <use x="50" xlink:href="#SimHei-46"/>
       <use x="100" xlink:href="#SimHei-53"/>
      </g>
     </g>
    </g>
    <g id="text_7">
     <!-- 频率 -->
     <defs>
      <path d="M 66.40625 69.53125 
Q 55.859375 69.53125 48.828125 69.140625 
L 48.828125 75.78125 
Q 55.46875 75.390625 61.328125 75.390625 
L 81.640625 75.390625 
Q 87.5 75.390625 93.75 75.78125 
L 93.75 69.140625 
Q 87.5 69.53125 73.4375 69.53125 
Q 72.265625 63.28125 71.09375 56.640625 
L 91.796875 56.640625 
Q 91.40625 51.171875 91.40625 45.3125 
L 91.40625 25.78125 
Q 91.40625 20.3125 91.796875 11.71875 
L 84.375 11.71875 
L 84.375 50.78125 
L 60.546875 50.78125 
L 60.546875 12.5 
L 53.125 12.5 
Q 53.515625 19.921875 53.515625 25.78125 
L 53.515625 44.140625 
Q 53.515625 51.171875 53.125 56.640625 
L 64.453125 56.640625 
Q 65.625 64.0625 66.40625 69.53125 
z
M 26.171875 42.96875 
Q 10.15625 42.96875 5.46875 42.578125 
L 5.46875 49.21875 
Q 8.59375 48.828125 11.328125 48.828125 
Q 11.328125 66.796875 10.9375 72.265625 
L 18.75 72.265625 
Q 18.359375 66.796875 18.359375 48.828125 
L 26.171875 48.828125 
L 26.171875 66.796875 
Q 26.171875 74.21875 25.78125 80.078125 
L 33.59375 80.078125 
Q 33.203125 74.21875 33.203125 66.40625 
Q 41.015625 66.40625 47.265625 66.796875 
L 47.265625 60.15625 
Q 41.015625 60.546875 33.203125 60.546875 
L 33.203125 48.828125 
Q 44.53125 48.828125 49.21875 49.21875 
L 49.21875 42.578125 
Q 44.53125 42.96875 33.203125 42.96875 
L 26.171875 42.96875 
z
M 33.59375 40.625 
Q 33.203125 35.15625 33.203125 30.078125 
L 33.203125 16.40625 
Q 40.625 25.78125 41.40625 34.375 
Q 44.921875 32.8125 49.609375 32.421875 
Q 44.53125 16.796875 34.171875 7.03125 
Q 23.828125 -2.734375 10.9375 -7.8125 
Q 8.59375 -3.90625 3.125 -1.171875 
Q 11.71875 1.171875 16.984375 3.703125 
Q 22.265625 6.25 26.171875 9.765625 
L 26.171875 29.6875 
Q 26.171875 35.15625 25.78125 40.625 
L 33.59375 40.625 
z
M 43.359375 -3.90625 
Q 53.125 -1.171875 58.390625 3.515625 
Q 63.671875 8.203125 65.8125 13.859375 
Q 67.96875 19.53125 68.15625 26.953125 
Q 68.359375 34.375 67.96875 42.96875 
Q 72.65625 42.1875 76.953125 41.40625 
Q 75.78125 36.328125 75.578125 30.859375 
Q 75.390625 25.390625 74.21875 17.375 
Q 73.046875 9.375 67.1875 2.53125 
Q 61.328125 -4.296875 50.78125 -10.15625 
Q 48.046875 -7.03125 43.359375 -3.90625 
z
M 91.40625 -10.15625 
Q 86.71875 -4.296875 75 3.90625 
Q 77.734375 6.640625 79.296875 9.375 
Q 91.015625 1.171875 96.875 -3.90625 
Q 93.359375 -6.640625 91.40625 -10.15625 
z
M 6.25 18.359375 
Q 10.15625 24.21875 14.0625 37.109375 
Q 17.578125 35.546875 21.484375 34.765625 
Q 15.625 20.703125 13.28125 16.015625 
Q 10.15625 17.96875 6.25 18.359375 
z
" id="SimHei-39057"/>
      <path d="M 51.953125 80.46875 
Q 53.515625 76.5625 55.46875 70.703125 
L 75 70.703125 
Q 82.03125 70.703125 90.625 71.09375 
L 90.625 64.453125 
Q 82.03125 65.234375 74.609375 65.234375 
L 43.75 65.234375 
Q 46.484375 63.28125 51.5625 60.9375 
Q 48.046875 58.59375 44.921875 55.265625 
Q 41.796875 51.953125 38.671875 48.828125 
L 51.171875 48.828125 
Q 55.859375 53.515625 58.984375 58.984375 
Q 62.5 56.25 66.796875 53.515625 
Q 61.71875 50.78125 56.25 44.921875 
Q 50.78125 39.0625 41.015625 31.25 
L 60.15625 32.8125 
Q 58.203125 35.15625 56.25 37.890625 
Q 58.59375 38.671875 62.5 41.40625 
Q 66.40625 36.71875 73.4375 26.5625 
Q 69.921875 25.390625 66.015625 22.65625 
Q 65.234375 25 62.890625 27.734375 
Q 57.8125 27.34375 53.515625 27.34375 
L 53.515625 16.40625 
L 80.46875 16.40625 
Q 88.671875 16.40625 95.3125 16.796875 
L 95.3125 10.15625 
Q 89.0625 10.546875 80.078125 10.546875 
L 53.515625 10.546875 
L 53.515625 2.734375 
Q 53.515625 -4.6875 53.90625 -9.765625 
L 45.3125 -9.765625 
Q 45.703125 -4.6875 45.703125 2.734375 
L 45.703125 10.546875 
L 20.703125 10.546875 
Q 12.890625 10.546875 5.078125 10.15625 
L 5.078125 16.796875 
Q 12.890625 16.40625 21.09375 16.40625 
L 45.703125 16.40625 
L 45.703125 26.5625 
Q 42.1875 26.171875 38.671875 25.578125 
Q 35.15625 25 31.640625 23.828125 
Q 30.46875 27.734375 28.90625 31.25 
Q 32.421875 31.640625 36.328125 34.375 
Q 40.234375 37.109375 46.484375 43.75 
Q 35.9375 42.578125 31.640625 41.015625 
Q 30.859375 44.921875 28.90625 49.609375 
Q 32.421875 49.609375 36.328125 54.484375 
Q 40.234375 59.375 42.96875 65.234375 
L 26.5625 65.234375 
Q 17.96875 65.234375 10.15625 64.453125 
L 10.15625 71.09375 
Q 17.96875 70.703125 24.21875 70.703125 
L 46.484375 70.703125 
Q 45.3125 75.390625 43.75 78.515625 
Q 47.265625 79.296875 51.953125 80.46875 
z
M 25.390625 40.234375 
Q 26.953125 37.5 28.515625 34.375 
Q 24.609375 32.03125 20.703125 29.09375 
Q 16.796875 26.171875 12.5 22.265625 
Q 9.765625 26.171875 7.421875 29.296875 
Q 12.5 31.640625 17.1875 34.5625 
Q 21.875 37.5 25.390625 40.234375 
z
M 75.78125 41.40625 
Q 80.078125 38.671875 83.390625 36.515625 
Q 86.71875 34.375 91.796875 30.46875 
Q 88.671875 28.125 85.9375 25 
Q 82.8125 27.734375 79.09375 30.859375 
Q 75.390625 33.984375 71.484375 36.328125 
Q 73.828125 38.671875 75.78125 41.40625 
z
M 89.453125 55.078125 
Q 86.71875 53.90625 82.8125 50.96875 
Q 78.90625 48.046875 75 44.140625 
Q 72.265625 47.65625 69.921875 49.609375 
Q 73.4375 51.953125 76.171875 54.484375 
Q 78.90625 57.03125 82.8125 61.328125 
Q 86.328125 57.8125 89.453125 55.078125 
z
M 16.40625 60.15625 
Q 22.265625 56.25 27.734375 51.171875 
Q 24.609375 48.4375 22.265625 45.703125 
Q 16.796875 51.5625 10.546875 55.078125 
Q 13.671875 57.8125 16.40625 60.15625 
z
" id="SimHei-29575"/>
     </defs>
     <g transform="translate(1440.23125 690.7875)scale(0.4 -0.4)">
      <use xlink:href="#SimHei-39057"/>
      <use x="100" xlink:href="#SimHei-29575"/>
     </g>
    </g>
   </g>
   <g id="matplotlib.axis_2">
    <g id="ytick_1">
     <g id="line2d_7">
      <defs>
       <path d="M 0 0 
L -3.5 0 
" id="mcf207e9d71" style="stroke:#000000;stroke-width:0.8;"/>
      </defs>
      <g>
       <use style="stroke:#000000;stroke-width:0.8;" x="85.23125" xlink:href="#mcf207e9d71" y="607.0875"/>
      </g>
     </g>
     <g id="text_8">
      <!-- 0 -->
      <g transform="translate(68.23125 613.9625)scale(0.2 -0.2)">
       <use xlink:href="#SimHei-48"/>
      </g>
     </g>
    </g>
    <g id="ytick_2">
     <g id="line2d_8">
      <g>
       <use style="stroke:#000000;stroke-width:0.8;" x="85.23125" xlink:href="#mcf207e9d71" y="506.554225"/>
      </g>
     </g>
     <g id="text_9">
      <!-- 100 -->
      <g transform="translate(48.23125 513.429225)scale(0.2 -0.2)">
       <use xlink:href="#SimHei-49"/>
       <use x="50" xlink:href="#SimHei-48"/>
       <use x="100" xlink:href="#SimHei-48"/>
      </g>
     </g>
    </g>
    <g id="ytick_3">
     <g id="line2d_9">
      <g>
       <use style="stroke:#000000;stroke-width:0.8;" x="85.23125" xlink:href="#mcf207e9d71" y="406.02095"/>
      </g>
     </g>
     <g id="text_10">
      <!-- 200 -->
      <g transform="translate(48.23125 412.89595)scale(0.2 -0.2)">
       <use xlink:href="#SimHei-50"/>
       <use x="50" xlink:href="#SimHei-48"/>
       <use x="100" xlink:href="#SimHei-48"/>
      </g>
     </g>
    </g>
    <g id="ytick_4">
     <g id="line2d_10">
      <g>
       <use style="stroke:#000000;stroke-width:0.8;" x="85.23125" xlink:href="#mcf207e9d71" y="305.487676"/>
      </g>
     </g>
     <g id="text_11">
      <!-- 300 -->
      <g transform="translate(48.23125 312.362676)scale(0.2 -0.2)">
       <use xlink:href="#SimHei-51"/>
       <use x="50" xlink:href="#SimHei-48"/>
       <use x="100" xlink:href="#SimHei-48"/>
      </g>
     </g>
    </g>
    <g id="ytick_5">
     <g id="line2d_11">
      <g>
       <use style="stroke:#000000;stroke-width:0.8;" x="85.23125" xlink:href="#mcf207e9d71" y="204.954401"/>
      </g>
     </g>
     <g id="text_12">
      <!-- 400 -->
      <g transform="translate(48.23125 211.829401)scale(0.2 -0.2)">
       <use xlink:href="#SimHei-52"/>
       <use x="50" xlink:href="#SimHei-48"/>
       <use x="100" xlink:href="#SimHei-48"/>
      </g>
     </g>
    </g>
    <g id="ytick_6">
     <g id="line2d_12">
      <g>
       <use style="stroke:#000000;stroke-width:0.8;" x="85.23125" xlink:href="#mcf207e9d71" y="104.421126"/>
      </g>
     </g>
     <g id="text_13">
      <!-- 500 -->
      <g transform="translate(48.23125 111.296126)scale(0.2 -0.2)">
       <use xlink:href="#SimHei-53"/>
       <use x="50" xlink:href="#SimHei-48"/>
       <use x="100" xlink:href="#SimHei-48"/>
      </g>
     </g>
    </g>
    <g id="text_14">
     <!-- 幅度 -->
     <defs>
      <path d="M 92.96875 35.15625 
Q 92.578125 29.296875 92.578125 14.0625 
Q 92.578125 -0.78125 92.96875 -6.640625 
L 85.15625 -6.640625 
L 85.15625 -2.734375 
L 52.34375 -2.734375 
L 52.34375 -7.421875 
L 44.921875 -7.421875 
Q 45.3125 3.125 45.3125 16.015625 
Q 45.3125 29.296875 44.921875 35.15625 
L 92.96875 35.15625 
z
M 40.234375 17.578125 
Q 40.234375 12.5 38.078125 10.9375 
Q 35.9375 9.375 30.46875 8.203125 
Q 29.6875 12.5 27.34375 15.625 
Q 30.859375 15.625 32.421875 16.203125 
Q 33.984375 16.796875 33.984375 20.3125 
L 33.984375 58.203125 
L 26.5625 58.203125 
L 26.5625 7.421875 
Q 26.5625 0 26.953125 -8.59375 
L 19.140625 -8.59375 
Q 19.53125 -0.390625 19.53125 7.421875 
L 19.53125 58.203125 
L 13.28125 58.203125 
L 13.28125 7.8125 
L 6.25 7.8125 
Q 6.640625 15.625 6.640625 35.9375 
Q 6.640625 56.25 6.25 64.0625 
L 19.53125 64.0625 
L 19.53125 70.3125 
Q 19.53125 75.390625 19.140625 80.859375 
L 26.953125 80.859375 
Q 26.5625 75.390625 26.5625 70.3125 
L 26.5625 64.0625 
L 40.625 64.0625 
Q 40.234375 60.9375 40.234375 50.390625 
z
M 87.109375 61.328125 
Q 86.71875 56.640625 86.71875 51.5625 
Q 86.71875 46.484375 87.109375 40.625 
L 50 40.625 
Q 50.390625 46.484375 50.390625 51.5625 
Q 50.390625 56.640625 50 61.328125 
L 87.109375 61.328125 
z
M 82.03125 75 
Q 88.28125 75 94.140625 75.390625 
L 94.140625 68.359375 
Q 88.28125 68.75 82.03125 68.75 
L 55.46875 68.75 
Q 48.046875 68.75 43.75 68.359375 
L 43.75 75.390625 
Q 48.046875 75 55.46875 75 
z
M 80.46875 46.484375 
L 80.46875 55.859375 
L 56.640625 55.859375 
L 56.640625 46.484375 
z
M 85.15625 19.140625 
L 85.15625 29.296875 
L 72.265625 29.296875 
L 72.265625 19.140625 
z
M 65.234375 3.125 
L 65.234375 13.28125 
L 52.34375 13.28125 
L 52.34375 3.125 
z
M 85.15625 3.125 
L 85.15625 13.28125 
L 72.265625 13.28125 
L 72.265625 3.125 
z
M 65.234375 19.140625 
L 65.234375 29.296875 
L 52.34375 29.296875 
L 52.34375 19.140625 
z
" id="SimHei-24133"/>
      <path d="M 27.34375 26.171875 
Q 38.28125 25.78125 44.921875 25.78125 
L 81.25 25.78125 
Q 77.734375 19.53125 72.65625 13.28125 
Q 67.578125 7.03125 62.890625 3.125 
Q 67.96875 0.78125 77.34375 -0.78125 
Q 86.71875 -2.34375 95.3125 -2.34375 
Q 92.96875 -4.6875 91.015625 -10.15625 
Q 79.6875 -8.59375 71.09375 -6.4375 
Q 62.5 -4.296875 56.640625 -1.5625 
Q 48.4375 -5.078125 40.421875 -7.21875 
Q 32.421875 -9.375 23.828125 -10.546875 
Q 22.65625 -7.421875 19.140625 -3.90625 
Q 26.171875 -3.90625 35.15625 -1.953125 
Q 44.140625 0 50.78125 3.125 
Q 44.140625 8.59375 37.5 19.921875 
L 27.34375 19.53125 
z
M 46.484375 79.296875 
Q 50.78125 80.46875 54.296875 82.03125 
Q 56.640625 77.734375 58.984375 70.703125 
L 73.4375 70.703125 
Q 77.734375 70.703125 89.0625 71.09375 
L 89.0625 64.0625 
Q 78.125 64.453125 72.65625 64.453125 
L 21.484375 64.453125 
Q 21.484375 46.875 21.09375 36.125 
Q 20.703125 25.390625 18.9375 14.84375 
Q 17.1875 4.296875 11.328125 -8.203125 
Q 7.8125 -5.859375 3.90625 -4.6875 
Q 10.15625 6.25 11.90625 16.796875 
Q 13.671875 27.34375 13.859375 43.75 
Q 14.0625 60.15625 13.671875 70.703125 
L 50 70.703125 
Q 48.4375 75.78125 46.484375 79.296875 
z
M 38.671875 51.5625 
Q 38.671875 57.8125 38.28125 61.328125 
L 46.484375 61.328125 
Q 46.09375 58.203125 46.09375 51.5625 
L 67.1875 51.5625 
Q 67.1875 57.8125 66.796875 61.71875 
L 75 61.71875 
Q 74.609375 57.03125 74.609375 51.5625 
Q 83.203125 51.5625 89.453125 51.953125 
L 89.453125 45.3125 
Q 83.59375 45.703125 74.609375 45.703125 
Q 74.609375 35.15625 75 30.46875 
L 38.28125 30.46875 
Q 38.671875 36.71875 38.671875 45.703125 
Q 33.984375 45.703125 25 45.3125 
L 25 51.953125 
Q 33.984375 51.5625 38.671875 51.5625 
z
M 67.1875 36.71875 
L 67.1875 45.703125 
L 46.09375 45.703125 
L 46.09375 36.71875 
z
M 44.921875 19.921875 
Q 50 12.109375 57.03125 6.640625 
Q 62.890625 10.9375 69.140625 19.921875 
L 45.3125 19.921875 
z
" id="SimHei-24230"/>
     </defs>
     <g transform="translate(39.23125 395.0875)rotate(-90)scale(0.4 -0.4)">
      <use xlink:href="#SimHei-24133"/>
      <use x="100" xlink:href="#SimHei-24230"/>
     </g>
    </g>
   </g>
   <g id="line2d_13">
    <path clip-path="url(#p4773ac726f)" d="M 212.049432 607.0875 
L 217.122159 606.713458 
L 237.413068 606.51255 
L 257.703977 606.111706 
L 272.922159 605.633692 
L 283.067614 605.158908 
L 293.213068 604.448365 
L 298.285795 603.940507 
L 303.358523 603.262112 
L 308.43125 602.309367 
L 313.503977 600.873179 
L 318.576705 598.460362 
L 323.649432 593.562923 
L 328.722159 578.282562 
L 333.794886 106.107744 
L 338.867614 579.617783 
L 343.940341 592.528272 
L 349.013068 596.98598 
L 354.085795 599.2425 
L 359.158523 600.603622 
L 364.23125 601.512666 
L 369.303977 602.161637 
L 379.449432 603.023309 
L 389.594886 603.565378 
L 404.813068 604.075358 
L 425.103977 604.466073 
L 450.467614 604.717843 
L 480.903977 604.812854 
L 506.267614 604.720844 
L 521.485795 604.52687 
L 531.63125 604.259373 
L 536.703977 604.03681 
L 541.776705 603.696754 
L 546.849432 603.122347 
L 551.922159 601.963316 
L 556.994886 598.482994 
L 562.067614 103.0875 
L 567.140341 601.262436 
L 572.213068 604.827794 
L 577.285795 605.869194 
L 582.358523 606.203728 
L 592.503977 606.173508 
L 628.013068 605.659836 
L 683.813068 604.918787 
L 704.103977 604.462418 
L 719.322159 603.948962 
L 729.467614 603.462346 
L 739.613068 602.779412 
L 744.685795 602.323736 
L 749.758523 601.754273 
L 754.83125 601.022901 
L 759.903977 600.049905 
L 764.976705 598.692912 
L 770.049432 596.670189 
L 775.122159 593.334746 
L 780.194886 586.798275 
L 785.267614 568.208675 
L 790.340341 110.186644 
L 795.413068 561.31072 
L 800.485795 585.284711 
L 805.558523 592.816289 
L 810.63125 596.504713 
L 815.703977 598.696441 
L 820.776705 600.151334 
L 825.849432 601.189804 
L 830.922159 601.970414 
L 835.994886 602.580645 
L 846.140341 603.479874 
L 856.285795 604.120694 
L 871.503977 604.820074 
L 891.794886 605.499196 
L 912.085795 605.981504 
L 922.23125 606.084086 
L 932.376705 605.991591 
L 942.522159 605.650876 
L 952.667614 605.050952 
L 962.813068 604.141871 
L 967.885795 603.52988 
L 972.958523 602.771543 
L 978.03125 601.814961 
L 983.103977 600.578212 
L 988.176705 598.925349 
L 993.249432 596.614286 
L 998.322159 593.169307 
L 1003.394886 587.511006 
L 1008.467614 576.555759 
L 1013.540341 546.539244 
L 1018.613068 128.352272 
L 1023.685795 514.143555 
L 1028.758523 562.082266 
L 1033.83125 576.272914 
L 1038.903977 583.043762 
L 1043.976705 586.986695 
L 1049.049432 589.551016 
L 1054.122159 591.338944 
L 1059.194886 592.645479 
L 1064.267614 593.632049 
L 1069.340341 594.394331 
L 1074.413068 594.992541 
L 1084.558523 595.842986 
L 1094.703977 596.375536 
L 1104.849432 596.687877 
L 1120.067614 596.850684 
L 1135.285795 596.70982 
L 1150.503977 596.270541 
L 1160.649432 595.784965 
L 1170.794886 595.101382 
L 1180.940341 594.149787 
L 1186.013068 593.537845 
L 1191.085795 592.805515 
L 1196.158523 591.919467 
L 1201.23125 590.831745 
L 1206.303977 589.470908 
L 1211.376705 587.725809 
L 1216.449432 585.413737 
L 1221.522159 582.211966 
L 1226.594886 577.492111 
L 1231.667614 569.846309 
L 1236.740341 555.33586 
L 1241.813068 517.163762 
L 1246.885795 140.295765 
L 1251.958523 477.896729 
L 1257.03125 553.588616 
L 1262.103977 574.750288 
L 1267.176705 584.723378 
L 1272.249432 590.540105 
L 1277.322159 594.361467 
L 1282.394886 597.072271 
L 1287.467614 599.101679 
L 1292.540341 600.682548 
L 1297.613068 601.951337 
L 1302.685795 602.991956 
L 1307.758523 603.85638 
L 1312.83125 604.573773 
L 1317.903977 605.151814 
L 1322.976705 605.571279 
L 1328.049432 605.784894 
L 1333.122159 605.761918 
L 1343.267614 605.235189 
L 1358.485795 604.063585 
L 1378.776705 602.25947 
L 1388.922159 601.207097 
L 1399.067614 599.979971 
L 1409.213068 598.482441 
L 1414.285795 597.586394 
L 1419.358523 596.555174 
L 1424.43125 595.347865 
L 1429.503977 593.906183 
L 1434.576705 592.143981 
L 1439.649432 589.928128 
L 1444.722159 587.041182 
L 1449.794886 583.101748 
L 1454.867614 577.373631 
L 1459.940341 568.22751 
L 1465.013068 551.195645 
L 1470.085795 508.017975 
L 1475.158523 173.368922 
L 1480.23125 425.522624 
L 1485.303977 532.357665 
L 1490.376705 560.256513 
L 1495.449432 573.147343 
L 1500.522159 580.602241 
L 1505.594886 585.481433 
L 1510.667614 588.938877 
L 1515.740341 591.529612 
L 1520.813068 593.553801 
L 1525.885795 595.188056 
L 1530.958523 596.54316 
L 1536.03125 597.692188 
L 1541.103977 598.685349 
L 1551.249432 600.337143 
L 1561.394886 601.685476 
L 1571.540341 602.835944 
L 1586.758523 604.299573 
L 1596.903977 605.067282 
L 1601.976705 605.323202 
L 1607.049432 605.425355 
L 1612.122159 605.327454 
L 1617.194886 605.031749 
L 1622.267614 604.575406 
L 1627.340341 603.990908 
L 1632.413068 603.292108 
L 1637.485795 602.476659 
L 1642.558523 601.529369 
L 1647.63125 600.422785 
L 1652.703977 599.114825 
L 1657.776705 597.543006 
L 1662.849432 595.613447 
L 1667.922159 593.180311 
L 1672.994886 590.005483 
L 1678.067614 585.672925 
L 1683.140341 579.385162 
L 1688.213068 569.39686 
L 1693.285795 551.011886 
L 1698.358523 505.782333 
L 1703.43125 213.626451 
L 1708.503977 371.255862 
L 1713.576705 512.241773 
L 1718.649432 546.203574 
L 1723.722159 561.490653 
L 1728.794886 570.19112 
L 1733.867614 575.810929 
L 1738.940341 579.742155 
L 1744.013068 582.647501 
L 1749.085795 584.882677 
L 1754.158523 586.655724 
L 1759.23125 588.096448 
L 1764.303977 589.290034 
L 1769.376705 590.294712 
L 1774.449432 591.151634 
L 1784.594886 592.534201 
L 1794.740341 593.598247 
L 1804.885795 594.438904 
L 1820.103977 595.406369 
L 1835.322159 596.126306 
L 1855.613068 596.821775 
L 1875.903977 597.302377 
L 1901.267614 597.683096 
L 1931.703977 597.889029 
L 1962.140341 597.857251 
L 1992.576705 597.581429 
L 2017.940341 597.126074 
L 2038.23125 596.563493 
L 2058.522159 595.748546 
L 2073.740341 594.894523 
L 2083.885795 594.157804 
L 2094.03125 593.233209 
L 2104.176705 592.045413 
L 2109.249432 591.316924 
L 2114.322159 590.470263 
L 2119.394886 589.474693 
L 2124.467614 588.287579 
L 2129.540341 586.848023 
L 2134.613068 585.065886 
L 2139.685795 582.801838 
L 2144.758523 579.82847 
L 2149.83125 575.747586 
L 2154.903977 569.79273 
L 2159.976705 560.275285 
L 2165.049432 542.600626 
L 2170.122159 498.295022 
L 2175.194886 180.918792 
L 2180.267614 411.604918 
L 2185.340341 531.916738 
L 2190.413068 562.353611 
L 2195.485795 576.269422 
L 2200.558523 584.267023 
L 2205.63125 589.477177 
L 2210.703977 593.154909 
L 2215.776705 595.901335 
L 2220.849432 598.040483 
L 2225.922159 599.762404 
L 2230.994886 601.185781 
L 2236.067614 602.388204 
L 2241.140341 603.421755 
L 2246.213068 604.320843 
L 2251.285795 605.104038 
L 2256.358523 605.764838 
L 2261.43125 606.222882 
L 2266.503977 606.255606 
L 2271.576705 605.893006 
L 2286.794886 604.329871 
L 2307.085795 602.059458 
L 2317.23125 600.780364 
L 2327.376705 599.311841 
L 2337.522159 597.54066 
L 2342.594886 596.488207 
L 2347.667614 595.281888 
L 2352.740341 593.874829 
L 2357.813068 592.200561 
L 2362.885795 590.1613 
L 2367.958523 587.606737 
L 2373.03125 584.292916 
L 2378.103977 579.795406 
L 2383.176705 573.303907 
L 2388.249432 563.05384 
L 2393.322159 544.33364 
L 2398.394886 498.918136 
L 2403.467614 223.788041 
L 2408.540341 357.112695 
L 2413.613068 512.844797 
L 2418.685795 549.118132 
L 2423.758523 565.330536 
L 2428.83125 574.550769 
L 2433.903977 580.52227 
L 2438.976705 584.721918 
L 2444.049432 587.850129 
L 2449.122159 590.282022 
L 2454.194886 592.236775 
L 2459.267614 593.85117 
L 2464.340341 595.215123 
L 2469.413068 596.390309 
L 2479.558523 598.338103 
L 2489.703977 599.926594 
L 2499.849432 601.293754 
L 2520.140341 603.707012 
L 2545.503977 606.688516 
L 2550.576705 606.590946 
L 2560.722159 605.057142 
L 2565.794886 604.135552 
L 2570.867614 603.092511 
L 2575.940341 601.894274 
L 2581.013068 600.4933 
L 2586.085795 598.821842 
L 2591.158523 596.780266 
L 2596.23125 594.215765 
L 2601.303977 590.881239 
L 2606.376705 586.348997 
L 2611.449432 579.808473 
L 2616.522159 569.51364 
L 2621.594886 550.885316 
L 2626.667614 506.840396 
L 2631.740341 273.291288 
L 2636.813068 301.593243 
L 2641.885795 495.134096 
L 2646.958523 535.964416 
L 2652.03125 553.670114 
L 2657.103977 563.542779 
L 2662.176705 569.823358 
L 2667.249432 574.156865 
L 2672.322159 577.314888 
L 2677.394886 579.707219 
L 2682.467614 581.571534 
L 2687.540341 583.055045 
L 2692.613068 584.253673 
L 2697.685795 585.232469 
L 2702.758523 586.036969 
L 2707.83125 586.699864 
L 2717.976705 587.690362 
L 2728.122159 588.330833 
L 2738.267614 588.691488 
L 2748.413068 588.808046 
L 2748.413068 588.808046 
" style="fill:none;stroke:#1f77b4;stroke-linecap:square;stroke-width:1.5;"/>
   </g>
   <g id="patch_3">
    <path d="M 85.23125 632.2875 
L 85.23125 77.8875 
" style="fill:none;stroke:#000000;stroke-linecap:square;stroke-linejoin:miter;stroke-width:0.8;"/>
   </g>
   <g id="patch_4">
    <path d="M 2875.23125 632.2875 
L 2875.23125 77.8875 
" style="fill:none;stroke:#000000;stroke-linecap:square;stroke-linejoin:miter;stroke-width:0.8;"/>
   </g>
   <g id="patch_5">
    <path d="M 85.23125 632.2875 
L 2875.23125 632.2875 
" style="fill:none;stroke:#000000;stroke-linecap:square;stroke-linejoin:miter;stroke-width:0.8;"/>
   </g>
   <g id="patch_6">
    <path d="M 85.23125 77.8875 
L 2875.23125 77.8875 
" style="fill:none;stroke:#000000;stroke-linecap:square;stroke-linejoin:miter;stroke-width:0.8;"/>
   </g>
   <g id="text_15">
    <!-- sum-of-sin - 幅度谱 -->
    <defs>
     <path d="M 42.96875 14.0625 
Q 42.96875 7.8125 38.078125 4.484375 
Q 33.203125 1.171875 25.78125 1.171875 
Q 16.40625 1.171875 11.328125 4.875 
Q 6.25 8.59375 6.25 15.625 
L 14.0625 15.625 
Q 14.0625 10.9375 17.375 9.375 
Q 20.703125 7.8125 25.390625 7.8125 
Q 30.078125 7.8125 32.421875 9.5625 
Q 34.765625 11.328125 34.765625 14.0625 
Q 34.765625 16.015625 32.8125 17.96875 
Q 30.859375 19.921875 23.046875 21.09375 
Q 14.0625 22.265625 10.734375 25.578125 
Q 7.421875 28.90625 7.421875 34.375 
Q 7.421875 39.0625 11.90625 42.765625 
Q 16.40625 46.484375 25 46.484375 
Q 32.8125 46.484375 37.296875 42.96875 
Q 41.796875 39.453125 41.796875 33.59375 
L 33.984375 33.59375 
Q 33.984375 37.109375 31.4375 38.46875 
Q 28.90625 39.84375 25 39.84375 
Q 19.921875 39.84375 17.765625 38.078125 
Q 15.625 36.328125 15.625 33.984375 
Q 15.625 31.25 17.578125 29.6875 
Q 19.53125 28.125 25.78125 27.34375 
Q 35.9375 25.78125 39.453125 22.453125 
Q 42.96875 19.140625 42.96875 14.0625 
z
" id="SimHei-115"/>
     <path d="M 43.75 1.953125 
L 35.9375 1.953125 
L 35.9375 10.15625 
Q 32.8125 5.859375 29.09375 3.515625 
Q 25.390625 1.171875 19.53125 1.171875 
Q 12.5 1.171875 8.984375 5.078125 
Q 5.46875 8.984375 5.46875 14.84375 
L 5.46875 45.703125 
L 13.28125 45.703125 
L 13.28125 17.578125 
Q 13.28125 12.890625 15.625 10.15625 
Q 17.96875 7.421875 21.875 7.421875 
Q 26.953125 7.421875 31.4375 12.6875 
Q 35.9375 17.96875 35.9375 25.78125 
L 35.9375 45.703125 
L 43.75 45.703125 
z
" id="SimHei-117"/>
     <path d="M 47.65625 1.953125 
L 39.84375 1.953125 
L 39.84375 33.59375 
Q 39.84375 35.9375 39.0625 37.5 
Q 38.28125 39.0625 35.9375 39.0625 
Q 33.203125 39.0625 30.859375 36.125 
Q 28.515625 33.203125 28.515625 28.515625 
L 28.515625 1.953125 
L 20.703125 1.953125 
L 20.703125 33.59375 
Q 20.703125 35.9375 19.921875 37.5 
Q 19.140625 39.0625 16.796875 39.0625 
Q 14.0625 39.0625 11.71875 36.125 
Q 9.375 33.203125 9.375 28.515625 
L 9.375 1.953125 
L 1.5625 1.953125 
L 1.5625 45.703125 
L 9.375 45.703125 
L 9.375 39.84375 
Q 11.328125 42.96875 14.0625 44.71875 
Q 16.796875 46.484375 19.921875 46.484375 
Q 23.046875 46.484375 25.1875 44.71875 
Q 27.34375 42.96875 28.125 39.84375 
Q 30.078125 42.96875 32.609375 44.71875 
Q 35.15625 46.484375 38.28125 46.484375 
Q 42.96875 46.484375 45.3125 43.9375 
Q 47.65625 41.40625 47.65625 36.71875 
z
" id="SimHei-109"/>
     <path d="M 46.484375 33.203125 
L 1.953125 33.203125 
L 1.953125 39.453125 
L 46.484375 39.453125 
z
" id="SimHei-45"/>
     <path d="M 45.703125 23.828125 
Q 45.703125 13.671875 39.453125 7.421875 
Q 33.203125 1.171875 24.609375 1.171875 
Q 16.015625 1.171875 9.765625 7.421875 
Q 3.515625 13.671875 3.515625 23.828125 
Q 3.515625 33.984375 9.765625 40.234375 
Q 16.015625 46.484375 24.609375 46.484375 
Q 33.203125 46.484375 39.453125 40.234375 
Q 45.703125 33.984375 45.703125 23.828125 
z
M 37.109375 23.828125 
Q 37.109375 31.640625 33.203125 35.546875 
Q 29.296875 39.453125 24.609375 39.453125 
Q 19.921875 39.453125 16.015625 35.546875 
Q 12.109375 31.640625 12.109375 23.828125 
Q 12.109375 16.015625 16.015625 12.109375 
Q 19.921875 8.203125 24.609375 8.203125 
Q 29.296875 8.203125 33.203125 12.109375 
Q 37.109375 16.015625 37.109375 23.828125 
z
" id="SimHei-111"/>
     <path d="M 44.53125 59.765625 
Q 42.578125 60.9375 39.84375 61.71875 
Q 37.109375 62.5 32.8125 62.5 
Q 28.515625 62.5 26.953125 60.34375 
Q 25.390625 58.203125 25.390625 55.078125 
L 25.390625 45.703125 
L 41.40625 45.703125 
L 41.40625 39.453125 
L 25.390625 39.453125 
L 25.390625 1.953125 
L 17.578125 1.953125 
L 17.578125 39.453125 
L 4.296875 39.453125 
L 4.296875 45.703125 
L 17.578125 45.703125 
L 17.578125 54.6875 
Q 17.578125 61.71875 21.875 65.625 
Q 26.171875 69.53125 33.203125 69.53125 
Q 37.5 69.53125 40.03125 68.9375 
Q 42.578125 68.359375 44.53125 67.578125 
z
" id="SimHei-102"/>
     <path d="M 28.125 58.203125 
L 20.3125 58.203125 
L 20.3125 68.359375 
L 28.125 68.359375 
z
M 28.125 1.953125 
L 20.3125 1.953125 
L 20.3125 45.703125 
L 28.125 45.703125 
z
" id="SimHei-105"/>
     <path d="M 43.75 1.953125 
L 35.9375 1.953125 
L 35.9375 30.078125 
Q 35.9375 34.765625 33.59375 37.5 
Q 31.25 40.234375 27.34375 40.234375 
Q 22.265625 40.234375 17.765625 34.953125 
Q 13.28125 29.6875 13.28125 21.875 
L 13.28125 1.953125 
L 5.46875 1.953125 
L 5.46875 45.703125 
L 13.28125 45.703125 
L 13.28125 37.5 
Q 16.40625 41.796875 20.109375 44.140625 
Q 23.828125 46.484375 29.6875 46.484375 
Q 36.71875 46.484375 40.234375 42.578125 
Q 43.75 38.671875 43.75 32.8125 
z
" id="SimHei-110"/>
     <path id="SimHei-32"/>
     <path d="M 87.5 28.90625 
Q 87.109375 21.484375 87.109375 8.984375 
Q 87.109375 -3.515625 87.5 -10.9375 
L 79.6875 -10.9375 
L 79.6875 -4.6875 
L 48.4375 -4.6875 
L 48.4375 -10.546875 
L 40.625 -10.546875 
Q 41.015625 -1.953125 41.015625 9.765625 
Q 41.015625 21.484375 40.625 28.90625 
L 87.5 28.90625 
z
M 67.96875 67.96875 
Q 72.265625 76.5625 73.828125 82.421875 
Q 77.734375 80.46875 82.421875 78.90625 
Q 79.296875 76.171875 75.390625 67.96875 
Q 88.28125 67.96875 94.53125 68.359375 
L 94.53125 62.109375 
Q 89.453125 62.5 75 62.5 
L 75 42.1875 
Q 87.109375 42.1875 96.484375 42.578125 
L 96.484375 36.328125 
Q 89.84375 36.71875 83.984375 36.71875 
L 42.96875 36.71875 
Q 35.546875 36.71875 29.296875 36.328125 
L 29.296875 42.578125 
Q 35.546875 42.1875 51.5625 42.1875 
L 51.5625 62.5 
Q 38.671875 62.5 32.8125 62.109375 
L 32.8125 68.359375 
Q 40.234375 67.96875 51.171875 67.96875 
Q 49.609375 71.09375 44.140625 77.34375 
Q 47.265625 79.6875 49.609375 82.03125 
Q 55.46875 75.390625 58.203125 71.875 
Q 55.859375 69.921875 53.90625 67.96875 
z
M 35.15625 8.984375 
Q 31.640625 6.25 26.5625 1.359375 
Q 21.484375 -3.515625 18.359375 -7.421875 
Q 16.40625 -3.515625 12.5 -1.5625 
Q 15.625 0.78125 15.625 4.296875 
L 15.625 42.578125 
Q 8.59375 42.578125 3.515625 42.1875 
L 3.515625 49.21875 
Q 8.203125 48.828125 11.328125 48.828125 
L 23.046875 48.828125 
Q 22.65625 42.578125 22.65625 36.71875 
L 22.65625 7.03125 
Q 26.171875 10.15625 30.46875 16.015625 
Q 31.640625 13.28125 35.15625 8.984375 
z
M 79.6875 14.84375 
L 79.6875 23.046875 
L 48.4375 23.046875 
L 48.4375 14.84375 
z
M 79.6875 0.78125 
L 79.6875 8.984375 
L 48.4375 8.984375 
L 48.4375 0.78125 
z
M 67.96875 42.1875 
L 67.96875 62.5 
L 58.59375 62.5 
L 58.59375 42.1875 
z
M 14.453125 77.734375 
Q 18.359375 73.4375 26.953125 64.84375 
Q 23.046875 62.5 19.921875 59.375 
Q 14.0625 67.1875 8.59375 72.65625 
Q 10.9375 74.609375 14.453125 77.734375 
z
M 91.40625 57.421875 
Q 86.328125 48.046875 83.984375 44.140625 
Q 80.859375 46.484375 78.125 46.875 
Q 82.03125 53.90625 83.984375 60.15625 
Q 87.890625 58.203125 91.40625 57.421875 
z
M 35.15625 56.25 
Q 38.28125 57.421875 41.015625 59.375 
Q 45.3125 53.515625 48.4375 48.4375 
Q 44.53125 46.875 41.40625 44.921875 
Q 39.453125 50.390625 35.15625 56.25 
z
" id="SimHei-35889"/>
    </defs>
    <g transform="translate(1100.23125 71.8875)scale(0.8 -0.8)">
     <use xlink:href="#SimHei-115"/>
     <use x="50" xlink:href="#SimHei-117"/>
     <use x="100" xlink:href="#SimHei-109"/>
     <use x="150" xlink:href="#SimHei-45"/>
     <use x="200" xlink:href="#SimHei-111"/>
     <use x="250" xlink:href="#SimHei-102"/>
     <use x="300" xlink:href="#SimHei-45"/>
     <use x="350" xlink:href="#SimHei-115"/>
     <use x="400" xlink:href="#SimHei-105"/>
     <use x="450" xlink:href="#SimHei-110"/>
     <use x="500" xlink:href="#SimHei-32"/>
     <use x="550" xlink:href="#SimHei-45"/>
     <use x="600" xlink:href="#SimHei-32"/>
     <use x="650" xlink:href="#SimHei-24133"/>
     <use x="750" xlink:href="#SimHei-24230"/>
     <use x="850" xlink:href="#SimHei-35889"/>
    </g>
   </g>
  </g>
 </g>
 <defs>
  <clipPath id="p4773ac726f">
   <rect height="554.4" width="2790" x="85.23125" y="77.8875"/>
  </clipPath>
 </defs>
</svg>
