<?xml version="1.0" encoding="utf-8" standalone="no"?>
<!DOCTYPE svg PUBLIC "-//W3C//DTD SVG 1.1//EN"
  "http://www.w3.org/Graphics/SVG/1.1/DTD/svg11.dtd">
<!-- Created with matplotlib (https://matplotlib.org/) -->
<svg height="692.8625pt" version="1.1" viewBox="0 0 2935.30625 692.8625" width="2935.30625pt" xmlns="http://www.w3.org/2000/svg" xmlns:xlink="http://www.w3.org/1999/xlink">
 <defs>
  <style type="text/css">
*{stroke-linecap:butt;stroke-linejoin:round;}
  </style>
 </defs>
 <g id="figure_1">
  <g id="patch_1">
   <path d="M 0 692.8625 
L 2935.30625 692.8625 
L 2935.30625 0 
L 0 0 
z
" style="fill:#ffffff;"/>
  </g>
  <g id="axes_1">
   <g id="patch_2">
    <path d="M 134.60625 605.2875 
L 2924.60625 605.2875 
L 2924.60625 50.8875 
L 134.60625 50.8875 
z
" style="fill:#ffffff;"/>
   </g>
   <g id="matplotlib.axis_1">
    <g id="xtick_1">
     <g id="line2d_1">
      <defs>
       <path d="M 0 0 
L 0 3.5 
" id="m54ddfa6fa8" style="stroke:#000000;stroke-width:0.8;"/>
      </defs>
      <g>
       <use style="stroke:#000000;stroke-width:0.8;" x="261.424432" xlink:href="#m54ddfa6fa8" y="605.2875"/>
      </g>
     </g>
     <g id="text_1">
      <!-- 0 -->
      <defs>
       <path d="M 3.125 29.296875 
Q 3.90625 50 6.4375 56.046875 
Q 8.984375 62.109375 13.671875 66.015625 
Q 18.359375 69.921875 25.1875 69.921875 
Q 32.03125 69.921875 37.109375 64.25 
Q 42.1875 58.59375 43.75 50 
Q 45.3125 41.40625 44.71875 30.265625 
Q 44.140625 19.140625 40.8125 12.109375 
Q 37.5 5.078125 30.859375 2.34375 
Q 24.21875 -0.390625 17.578125 2.921875 
Q 10.9375 6.25 8.203125 11.71875 
Q 5.46875 17.1875 4.296875 23.234375 
Q 3.125 29.296875 3.90625 50 
z
M 12.890625 52.734375 
Q 10.546875 31.25 12.5 22.84375 
Q 14.453125 14.453125 18.9375 10.9375 
Q 23.4375 7.421875 28.125 9.5625 
Q 32.8125 11.71875 34.953125 18.15625 
Q 37.109375 24.609375 37.109375 32.21875 
Q 37.109375 39.84375 36.515625 46.09375 
Q 35.9375 52.34375 33 57.421875 
Q 30.078125 62.5 25.1875 62.6875 
Q 20.3125 62.890625 16.59375 57.8125 
Q 12.890625 52.734375 10.546875 31.25 
z
" id="SimHei-48"/>
      </defs>
      <g transform="translate(251.424432 639.7875)scale(0.4 -0.4)">
       <use xlink:href="#SimHei-48"/>
      </g>
     </g>
    </g>
    <g id="xtick_2">
     <g id="line2d_2">
      <g>
       <use style="stroke:#000000;stroke-width:0.8;" x="773.821126" xlink:href="#m54ddfa6fa8" y="605.2875"/>
      </g>
     </g>
     <g id="text_2">
      <!-- 20 -->
      <defs>
       <path d="M 4.6875 3.90625 
Q 5.078125 9.765625 10.15625 14.453125 
Q 15.234375 19.140625 23.046875 29.09375 
Q 30.859375 39.0625 33.203125 44.53125 
Q 35.546875 50 34.953125 53.90625 
Q 34.375 57.8125 31.25 60.34375 
Q 28.125 62.890625 24.015625 62.5 
Q 19.921875 62.109375 16.203125 59.375 
Q 12.5 56.640625 10.546875 51.171875 
L 3.125 52.34375 
Q 6.25 61.328125 11.125 65.421875 
Q 16.015625 69.53125 22.65625 69.921875 
Q 26.5625 70.3125 29.6875 69.71875 
Q 32.8125 69.140625 36.125 66.984375 
Q 39.453125 64.84375 41.59375 60.546875 
Q 43.75 56.25 43.15625 50.1875 
Q 42.578125 44.140625 37.109375 35.734375 
Q 31.640625 27.34375 16.015625 9.375 
L 44.140625 9.375 
L 44.140625 2.34375 
L 4.6875 2.34375 
z
" id="SimHei-50"/>
      </defs>
      <g transform="translate(753.821126 639.7875)scale(0.4 -0.4)">
       <use xlink:href="#SimHei-50"/>
       <use x="50" xlink:href="#SimHei-48"/>
      </g>
     </g>
    </g>
    <g id="xtick_3">
     <g id="line2d_3">
      <g>
       <use style="stroke:#000000;stroke-width:0.8;" x="1286.21782" xlink:href="#m54ddfa6fa8" y="605.2875"/>
      </g>
     </g>
     <g id="text_3">
      <!-- 40 -->
      <defs>
       <path d="M 31.25 17.1875 
L 1.171875 17.1875 
L 1.171875 23.828125 
L 32.8125 69.53125 
L 38.671875 69.53125 
L 38.671875 23.828125 
L 48.046875 23.828125 
L 48.046875 17.1875 
L 38.671875 17.1875 
L 38.671875 2.34375 
L 31.25 2.34375 
z
M 31.25 23.828125 
L 31.25 54.6875 
L 9.375 23.828125 
z
" id="SimHei-52"/>
      </defs>
      <g transform="translate(1266.21782 639.7875)scale(0.4 -0.4)">
       <use xlink:href="#SimHei-52"/>
       <use x="50" xlink:href="#SimHei-48"/>
      </g>
     </g>
    </g>
    <g id="xtick_4">
     <g id="line2d_4">
      <g>
       <use style="stroke:#000000;stroke-width:0.8;" x="1798.614514" xlink:href="#m54ddfa6fa8" y="605.2875"/>
      </g>
     </g>
     <g id="text_4">
      <!-- 60 -->
      <defs>
       <path d="M 3.515625 19.53125 
Q 4.296875 30.859375 6.046875 34.765625 
Q 7.8125 38.671875 11.328125 44.53125 
L 27.34375 69.53125 
L 36.328125 69.53125 
L 19.921875 43.75 
Q 30.46875 46.484375 36.71875 42.96875 
Q 42.96875 39.453125 45.109375 34.953125 
Q 47.265625 30.46875 47.453125 25.1875 
Q 47.65625 19.921875 45.890625 14.84375 
Q 44.140625 9.765625 39.640625 5.65625 
Q 35.15625 1.5625 27.140625 1.171875 
Q 19.140625 0.78125 13.46875 4.09375 
Q 7.8125 7.421875 5.65625 13.46875 
Q 3.515625 19.53125 4.296875 30.859375 
z
M 12.5 16.015625 
Q 19.53125 8.59375 25.390625 8.203125 
Q 31.25 7.8125 35.15625 12.109375 
Q 39.0625 16.40625 39.0625 24.609375 
Q 39.0625 32.8125 34.171875 35.9375 
Q 29.296875 39.0625 23.234375 38.28125 
Q 17.1875 37.5 14.453125 32.421875 
Q 11.71875 27.34375 12.109375 21.671875 
Q 12.5 16.015625 19.53125 8.59375 
z
" id="SimHei-54"/>
      </defs>
      <g transform="translate(1778.614514 639.7875)scale(0.4 -0.4)">
       <use xlink:href="#SimHei-54"/>
       <use x="50" xlink:href="#SimHei-48"/>
      </g>
     </g>
    </g>
    <g id="xtick_5">
     <g id="line2d_5">
      <g>
       <use style="stroke:#000000;stroke-width:0.8;" x="2311.011209" xlink:href="#m54ddfa6fa8" y="605.2875"/>
      </g>
     </g>
     <g id="text_5">
      <!-- 80 -->
      <defs>
       <path d="M 2.734375 16.796875 
Q 2.734375 26.171875 5.078125 30.65625 
Q 7.421875 35.15625 12.890625 37.890625 
Q 8.203125 40.625 6.640625 43.9375 
Q 5.078125 47.265625 4.875 51.5625 
Q 4.6875 55.859375 6.046875 58.984375 
Q 7.421875 62.109375 10.15625 64.84375 
Q 12.890625 67.578125 16.203125 68.546875 
Q 19.53125 69.53125 23.4375 69.53125 
Q 27.34375 69.53125 30.46875 68.75 
Q 33.59375 67.96875 37.109375 65.421875 
Q 40.625 62.890625 42.1875 58.203125 
Q 43.75 53.515625 41.984375 47.265625 
Q 40.234375 41.015625 32.8125 37.5 
Q 39.453125 35.546875 42.1875 31.4375 
Q 44.921875 27.34375 44.921875 21.484375 
Q 44.921875 15.625 43.15625 12.109375 
Q 41.40625 8.59375 39.25 6.25 
Q 37.109375 3.90625 33.390625 2.53125 
Q 29.6875 1.171875 24.015625 1.171875 
Q 18.359375 1.171875 14.25 2.53125 
Q 10.15625 3.90625 7.421875 6.640625 
Q 4.6875 9.375 3.703125 13.078125 
Q 2.734375 16.796875 2.734375 26.171875 
z
M 10.9375 26.5625 
Q 10.546875 17.1875 12.296875 13.671875 
Q 14.0625 10.15625 18.75 9.171875 
Q 23.4375 8.203125 28.515625 9.375 
Q 33.59375 10.546875 35.546875 14.84375 
Q 37.5 19.140625 36.90625 23.4375 
Q 36.328125 27.734375 32.03125 30.65625 
Q 27.734375 33.59375 22.65625 33.203125 
Q 17.578125 32.8125 14.25 29.6875 
Q 10.9375 26.5625 10.546875 17.1875 
z
M 12.109375 56.25 
Q 12.109375 48.4375 14.84375 44.921875 
Q 17.578125 41.40625 23.4375 41.40625 
Q 29.296875 41.40625 32.21875 44.921875 
Q 35.15625 48.4375 34.953125 53.3125 
Q 34.765625 58.203125 31.4375 60.546875 
Q 28.125 62.890625 22.453125 62.5 
Q 16.796875 62.109375 14.453125 59.171875 
Q 12.109375 56.25 12.109375 48.4375 
z
" id="SimHei-56"/>
      </defs>
      <g transform="translate(2291.011209 639.7875)scale(0.4 -0.4)">
       <use xlink:href="#SimHei-56"/>
       <use x="50" xlink:href="#SimHei-48"/>
      </g>
     </g>
    </g>
    <g id="xtick_6">
     <g id="line2d_6">
      <g>
       <use style="stroke:#000000;stroke-width:0.8;" x="2823.407903" xlink:href="#m54ddfa6fa8" y="605.2875"/>
      </g>
     </g>
     <g id="text_6">
      <!-- 100 -->
      <defs>
       <path d="M 21.875 56.25 
Q 16.796875 51.171875 8.984375 46.484375 
L 8.984375 53.90625 
Q 18.75 60.546875 25 69.53125 
L 29.6875 69.53125 
L 29.6875 2.34375 
L 21.875 2.34375 
z
" id="SimHei-49"/>
      </defs>
      <g transform="translate(2793.407903 639.7875)scale(0.4 -0.4)">
       <use xlink:href="#SimHei-49"/>
       <use x="50" xlink:href="#SimHei-48"/>
       <use x="100" xlink:href="#SimHei-48"/>
      </g>
     </g>
    </g>
    <g id="text_7">
     <!-- 白噪声信号 -->
     <defs>
      <path d="M 49.609375 77.734375 
Q 47.65625 75.78125 45.703125 72.453125 
Q 43.75 69.140625 41.796875 65.234375 
L 86.71875 65.234375 
Q 86.328125 57.421875 86.328125 46.09375 
L 86.328125 11.328125 
Q 86.328125 2.734375 86.71875 -7.8125 
L 78.515625 -7.8125 
L 78.515625 1.953125 
L 23.046875 1.953125 
L 23.046875 -8.59375 
L 14.84375 -8.59375 
Q 15.234375 3.125 15.234375 10.9375 
L 15.234375 46.09375 
Q 15.234375 56.640625 14.84375 65.234375 
L 34.375 65.234375 
Q 38.28125 73.828125 40.234375 82.03125 
Q 44.53125 79.6875 49.609375 77.734375 
z
M 78.515625 8.984375 
L 78.515625 30.859375 
L 23.046875 30.859375 
L 23.046875 8.984375 
z
M 78.515625 37.890625 
L 78.515625 58.59375 
L 23.046875 58.59375 
L 23.046875 37.890625 
z
" id="SimHei-30333"/>
      <path d="M 28.125 75 
Q 27.734375 66.40625 27.734375 57.421875 
L 27.734375 30.46875 
Q 27.734375 23.046875 28.125 13.671875 
L 21.09375 13.671875 
L 21.09375 22.265625 
L 12.890625 22.265625 
L 12.890625 5.46875 
L 5.859375 5.46875 
Q 6.25 14.0625 6.25 22.65625 
L 6.25 57.421875 
Q 6.25 66.40625 5.859375 75 
L 28.125 75 
z
M 90.625 -7.421875 
Q 79.6875 -1.953125 74.21875 3.515625 
Q 68.75 8.984375 65.234375 15.625 
L 65.234375 3.515625 
Q 65.234375 -3.90625 65.625 -10.15625 
L 58.203125 -10.15625 
Q 58.59375 -3.90625 58.59375 3.515625 
L 58.59375 16.40625 
Q 52.734375 6.640625 46.09375 1.171875 
Q 39.453125 -4.296875 33.59375 -8.203125 
Q 32.421875 -5.078125 26.5625 -1.5625 
Q 32.8125 0 40.03125 4.6875 
Q 47.265625 9.375 50.78125 16.40625 
L 46.09375 16.40625 
Q 39.0625 16.40625 32.8125 16.015625 
L 32.8125 22.265625 
Q 39.0625 21.875 46.09375 21.875 
L 58.59375 21.875 
Q 58.59375 26.171875 58.203125 30.46875 
L 65.625 30.46875 
Q 65.234375 24.609375 65.234375 21.875 
L 81.640625 21.875 
Q 87.109375 21.875 94.140625 22.265625 
L 94.140625 16.015625 
Q 87.109375 16.40625 82.03125 16.40625 
L 71.484375 16.40625 
Q 74.609375 10.9375 80.078125 7.03125 
Q 85.546875 3.125 96.484375 0.390625 
Q 92.1875 -3.125 90.625 -7.421875 
z
M 81.640625 78.90625 
Q 80.859375 73.828125 80.859375 68.359375 
Q 80.859375 63.28125 81.640625 57.8125 
L 42.578125 57.8125 
Q 42.96875 63.28125 42.96875 68.359375 
Q 42.96875 73.828125 42.578125 78.90625 
L 81.640625 78.90625 
z
M 91.015625 52.34375 
Q 90.625 47.265625 90.625 41.796875 
Q 90.625 36.71875 91.015625 32.421875 
L 65.234375 32.421875 
Q 65.625 37.109375 65.625 42.1875 
Q 65.625 47.65625 65.234375 52.34375 
L 91.015625 52.34375 
z
M 57.421875 52.34375 
Q 57.03125 47.65625 57.03125 42.1875 
Q 57.03125 37.109375 57.421875 32.421875 
L 32.421875 32.421875 
Q 32.8125 37.109375 32.8125 42.1875 
Q 32.8125 47.65625 32.421875 52.34375 
L 57.421875 52.34375 
z
M 21.09375 27.734375 
L 21.09375 68.359375 
L 12.890625 68.359375 
L 12.890625 27.734375 
z
M 73.828125 64.0625 
L 73.828125 73.046875 
L 49.609375 73.046875 
L 49.609375 64.0625 
z
M 83.984375 37.890625 
L 83.984375 46.875 
L 72.65625 46.875 
L 72.65625 37.890625 
z
M 50 38.28125 
L 50 46.484375 
L 39.453125 46.484375 
L 39.453125 38.28125 
z
" id="SimHei-22122"/>
      <path d="M 85.9375 43.75 
Q 85.546875 39.0625 85.546875 28.125 
Q 85.546875 17.1875 85.9375 10.9375 
L 77.734375 10.9375 
L 77.734375 16.40625 
L 24.609375 16.40625 
Q 23.828125 10.15625 21.09375 4.09375 
Q 18.359375 -1.953125 11.71875 -10.15625 
Q 8.59375 -6.25 3.90625 -4.6875 
Q 8.984375 0 11.90625 4.6875 
Q 14.84375 9.375 16.203125 15.03125 
Q 17.578125 20.703125 17.578125 27.734375 
Q 17.578125 34.765625 17.1875 43.75 
L 85.9375 43.75 
z
M 47.65625 73.4375 
Q 47.65625 79.296875 47.265625 81.640625 
L 55.859375 81.640625 
Q 55.46875 79.296875 55.46875 73.4375 
L 76.5625 73.4375 
Q 85.15625 73.4375 92.578125 73.828125 
L 92.578125 66.796875 
Q 85.15625 67.1875 76.5625 67.1875 
L 55.46875 67.1875 
L 55.46875 57.03125 
L 70.703125 57.03125 
Q 79.296875 57.03125 87.109375 57.421875 
L 87.109375 50.390625 
Q 79.296875 50.78125 70.703125 50.78125 
L 30.46875 50.78125 
Q 21.875 50.78125 16.015625 50.390625 
L 16.015625 57.421875 
Q 22.265625 57.03125 30.078125 57.03125 
L 47.65625 57.03125 
L 47.65625 67.1875 
L 26.171875 67.1875 
Q 16.40625 67.1875 9.765625 66.796875 
L 9.765625 73.828125 
Q 16.796875 73.4375 26.171875 73.4375 
z
M 77.734375 22.65625 
L 77.734375 37.109375 
L 55.46875 37.109375 
L 55.46875 22.65625 
z
M 47.65625 22.65625 
L 47.65625 37.109375 
L 26.171875 37.109375 
L 26.171875 22.65625 
z
" id="SimHei-22768"/>
      <path d="M 88.28125 24.609375 
Q 87.890625 19.921875 87.890625 8.984375 
Q 87.890625 -1.5625 88.28125 -7.03125 
L 80.859375 -7.03125 
L 80.859375 -0.390625 
L 47.265625 -0.390625 
L 47.265625 -8.59375 
L 39.453125 -8.59375 
Q 39.84375 -2.734375 39.84375 7.8125 
Q 39.84375 18.75 39.453125 24.609375 
L 88.28125 24.609375 
z
M 33.203125 77.734375 
Q 30.859375 75.390625 25.78125 62.109375 
L 25.78125 8.59375 
Q 25.78125 -3.125 26.171875 -9.765625 
L 17.578125 -9.765625 
Q 18.75 -2.734375 18.75 8.984375 
L 18.75 48.4375 
Q 14.0625 39.0625 9.765625 32.8125 
Q 7.421875 36.71875 3.90625 39.0625 
Q 8.203125 43.75 14.453125 55.65625 
Q 20.703125 67.578125 23.828125 80.859375 
Q 28.125 79.296875 33.203125 77.734375 
z
M 80.859375 5.859375 
L 80.859375 19.140625 
L 47.265625 19.140625 
L 47.265625 5.859375 
z
M 94.921875 60.9375 
Q 87.109375 61.328125 64.0625 61.328125 
Q 41.015625 61.328125 32.8125 60.9375 
L 32.8125 67.578125 
L 94.921875 67.578125 
z
M 89.0625 46.875 
Q 82.421875 47.265625 64.84375 47.265625 
Q 47.265625 47.265625 38.671875 46.875 
L 38.671875 53.515625 
Q 46.09375 53.125 64.0625 53.125 
Q 82.421875 53.125 89.0625 53.515625 
z
M 89.0625 33.203125 
Q 83.59375 33.59375 65.234375 33.59375 
Q 47.265625 33.59375 38.671875 33.203125 
L 38.671875 39.84375 
Q 46.875 39.453125 65.234375 39.453125 
Q 83.984375 39.453125 89.0625 39.84375 
z
M 62.890625 81.25 
Q 64.0625 78.90625 65.234375 76.171875 
Q 66.40625 73.4375 67.578125 70.3125 
Q 64.0625 69.140625 60.546875 68.359375 
Q 57.8125 76.5625 55.859375 78.515625 
Q 59.765625 80.078125 62.890625 81.25 
z
" id="SimHei-20449"/>
      <path d="M 78.515625 76.953125 
Q 78.125 71.09375 78.125 63.671875 
Q 78.125 56.25 78.515625 49.609375 
L 21.875 49.609375 
Q 22.265625 55.078125 22.265625 62.5 
Q 22.265625 70.3125 21.875 76.953125 
L 78.515625 76.953125 
z
M 80.859375 41.015625 
Q 88.28125 41.015625 94.140625 41.40625 
L 94.140625 34.375 
Q 88.28125 34.765625 80.859375 34.765625 
L 38.28125 34.765625 
Q 36.71875 29.296875 34.765625 22.65625 
L 80.859375 22.65625 
Q 79.6875 16.40625 79.09375 12.109375 
Q 78.515625 7.8125 77.34375 1.75 
Q 76.171875 -4.296875 72.65625 -6.4375 
Q 69.140625 -8.59375 50.390625 -9.765625 
Q 48.828125 -5.46875 46.484375 -0.78125 
Q 60.546875 -1.171875 64.25 -0.78125 
Q 67.96875 -0.390625 69.140625 3.3125 
Q 70.3125 7.03125 71.484375 16.015625 
L 25 16.015625 
Q 28.515625 25.390625 30.46875 34.765625 
L 21.09375 34.765625 
Q 12.890625 34.765625 5.859375 34.375 
L 5.859375 41.40625 
Q 12.890625 41.015625 21.09375 41.015625 
z
M 70.703125 55.859375 
L 70.703125 70.703125 
L 29.6875 70.703125 
L 29.6875 55.859375 
z
" id="SimHei-21495"/>
     </defs>
     <g transform="translate(1429.60625 680.6625)scale(0.4 -0.4)">
      <use xlink:href="#SimHei-30333"/>
      <use x="100" xlink:href="#SimHei-22122"/>
      <use x="200" xlink:href="#SimHei-22768"/>
      <use x="300" xlink:href="#SimHei-20449"/>
      <use x="400" xlink:href="#SimHei-21495"/>
     </g>
    </g>
   </g>
   <g id="matplotlib.axis_2">
    <g id="ytick_1">
     <g id="line2d_7">
      <defs>
       <path d="M 0 0 
L -3.5 0 
" id="me0afa9f2e7" style="stroke:#000000;stroke-width:0.8;"/>
      </defs>
      <g>
       <use style="stroke:#000000;stroke-width:0.8;" x="134.60625" xlink:href="#me0afa9f2e7" y="538.855875"/>
      </g>
     </g>
     <g id="text_8">
      <!-- 0 -->
      <g transform="translate(107.60625 552.605875)scale(0.4 -0.4)">
       <use xlink:href="#SimHei-48"/>
      </g>
     </g>
    </g>
    <g id="ytick_2">
     <g id="line2d_8">
      <g>
       <use style="stroke:#000000;stroke-width:0.8;" x="134.60625" xlink:href="#me0afa9f2e7" y="420.745354"/>
      </g>
     </g>
     <g id="text_9">
      <!-- 1000 -->
      <g transform="translate(47.60625 434.495354)scale(0.4 -0.4)">
       <use xlink:href="#SimHei-49"/>
       <use x="50" xlink:href="#SimHei-48"/>
       <use x="100" xlink:href="#SimHei-48"/>
       <use x="150" xlink:href="#SimHei-48"/>
      </g>
     </g>
    </g>
    <g id="ytick_3">
     <g id="line2d_9">
      <g>
       <use style="stroke:#000000;stroke-width:0.8;" x="134.60625" xlink:href="#me0afa9f2e7" y="302.634832"/>
      </g>
     </g>
     <g id="text_10">
      <!-- 2000 -->
      <g transform="translate(47.60625 316.384832)scale(0.4 -0.4)">
       <use xlink:href="#SimHei-50"/>
       <use x="50" xlink:href="#SimHei-48"/>
       <use x="100" xlink:href="#SimHei-48"/>
       <use x="150" xlink:href="#SimHei-48"/>
      </g>
     </g>
    </g>
    <g id="ytick_4">
     <g id="line2d_10">
      <g>
       <use style="stroke:#000000;stroke-width:0.8;" x="134.60625" xlink:href="#me0afa9f2e7" y="184.524311"/>
      </g>
     </g>
     <g id="text_11">
      <!-- 3000 -->
      <defs>
       <path d="M 3.90625 19.140625 
L 10.9375 20.3125 
Q 12.5 15.234375 16.015625 11.90625 
Q 19.53125 8.59375 24.796875 8.78125 
Q 30.078125 8.984375 33.203125 13.078125 
Q 36.328125 17.1875 35.9375 22.453125 
Q 35.546875 27.734375 31.828125 30.65625 
Q 28.125 33.59375 19.921875 34.765625 
L 19.921875 39.84375 
Q 28.125 40.625 31.828125 44.140625 
Q 35.546875 47.65625 35.15625 53.3125 
Q 34.765625 58.984375 30.078125 61.515625 
Q 25.390625 64.0625 20.109375 62.109375 
Q 14.84375 60.15625 11.71875 51.171875 
L 4.6875 52.34375 
Q 7.03125 59.375 11.125 64.0625 
Q 15.234375 68.75 22.265625 69.53125 
Q 29.296875 70.3125 34.5625 67.765625 
Q 39.84375 65.234375 41.984375 59.953125 
Q 44.140625 54.6875 42.578125 48.4375 
Q 41.015625 42.1875 33.59375 37.5 
Q 39.0625 35.15625 41.984375 30.46875 
Q 44.921875 25.78125 43.9375 18.15625 
Q 42.96875 10.546875 37.109375 5.859375 
Q 31.25 1.171875 23.828125 1.359375 
Q 16.40625 1.5625 10.9375 6.046875 
Q 5.46875 10.546875 3.90625 19.140625 
z
" id="SimHei-51"/>
      </defs>
      <g transform="translate(47.60625 198.274311)scale(0.4 -0.4)">
       <use xlink:href="#SimHei-51"/>
       <use x="50" xlink:href="#SimHei-48"/>
       <use x="100" xlink:href="#SimHei-48"/>
       <use x="150" xlink:href="#SimHei-48"/>
      </g>
     </g>
    </g>
    <g id="ytick_5">
     <g id="line2d_11">
      <g>
       <use style="stroke:#000000;stroke-width:0.8;" x="134.60625" xlink:href="#me0afa9f2e7" y="66.41379"/>
      </g>
     </g>
     <g id="text_12">
      <!-- 4000 -->
      <g transform="translate(47.60625 80.16379)scale(0.4 -0.4)">
       <use xlink:href="#SimHei-52"/>
       <use x="50" xlink:href="#SimHei-48"/>
       <use x="100" xlink:href="#SimHei-48"/>
       <use x="150" xlink:href="#SimHei-48"/>
      </g>
     </g>
    </g>
    <g id="text_13">
     <!-- 相关性大小 -->
     <defs>
      <path d="M 92.1875 75.390625 
Q 91.796875 66.015625 91.796875 55.859375 
L 91.796875 11.71875 
Q 91.796875 1.171875 92.1875 -8.984375 
L 84.375 -8.984375 
L 84.375 -1.5625 
L 55.078125 -1.5625 
L 55.078125 -9.765625 
L 47.265625 -9.765625 
Q 47.65625 1.953125 47.65625 10.546875 
L 47.65625 56.25 
Q 47.65625 66.40625 47.265625 75.390625 
L 92.1875 75.390625 
z
M 21.875 59.765625 
Q 21.875 75.78125 21.484375 81.25 
L 30.078125 81.25 
Q 29.6875 75.390625 29.6875 59.765625 
Q 39.0625 59.765625 44.140625 60.15625 
L 44.140625 52.734375 
Q 39.453125 53.125 29.6875 53.125 
L 29.6875 38.28125 
Q 31.640625 40.234375 33.984375 42.96875 
Q 41.015625 35.546875 46.09375 28.515625 
Q 43.75 26.953125 40.234375 23.4375 
Q 35.9375 30.859375 29.6875 37.109375 
L 29.6875 7.421875 
Q 29.6875 0.78125 30.078125 -9.765625 
L 21.484375 -9.765625 
Q 21.875 0.78125 21.875 7.03125 
L 21.875 33.59375 
Q 16.796875 19.140625 10.15625 10.546875 
Q 7.421875 14.84375 4.6875 17.1875 
Q 7.421875 19.53125 12.5 29.484375 
Q 17.578125 39.453125 20.3125 53.125 
Q 11.71875 53.125 6.25 52.734375 
L 6.25 60.15625 
Q 13.28125 59.765625 21.875 59.765625 
z
M 84.375 5.078125 
L 84.375 23.046875 
L 55.078125 23.046875 
L 55.078125 5.078125 
z
M 84.375 51.5625 
L 84.375 68.75 
L 55.078125 68.75 
L 55.078125 51.5625 
z
M 84.375 29.6875 
L 84.375 45.3125 
L 55.078125 45.3125 
L 55.078125 29.6875 
z
" id="SimHei-30456"/>
      <path d="M 73.046875 75.78125 
Q 70.703125 73.046875 68.15625 68.359375 
Q 65.625 63.671875 63.671875 59.765625 
L 72.265625 59.765625 
Q 80.46875 59.765625 86.71875 60.15625 
L 86.71875 52.734375 
Q 81.640625 53.125 73.4375 53.125 
L 53.125 53.125 
L 53.125 33.59375 
L 77.734375 33.59375 
Q 85.546875 33.59375 91.796875 33.984375 
L 91.796875 26.5625 
Q 85.546875 26.953125 78.515625 26.953125 
L 54.6875 26.953125 
Q 66.40625 7.03125 93.75 1.171875 
Q 90.234375 -2.734375 87.5 -8.203125 
Q 62.890625 0 50.390625 20.3125 
Q 43.75 3.125 13.671875 -9.375 
Q 12.109375 -5.46875 7.8125 -2.34375 
Q 37.890625 5.859375 44.921875 26.953125 
L 24.21875 26.953125 
Q 15.234375 26.953125 9.375 26.5625 
L 9.375 33.59375 
Q 13.671875 33.203125 22.65625 33.203125 
L 45.703125 33.203125 
L 45.703125 53.125 
L 27.34375 53.125 
Q 19.921875 53.125 14.0625 52.734375 
L 14.0625 60.15625 
Q 19.921875 59.765625 27.734375 59.765625 
L 55.859375 59.765625 
Q 61.328125 72.265625 63.671875 80.46875 
Q 67.578125 78.125 73.046875 75.78125 
z
M 33.203125 80.078125 
Q 38.28125 73.828125 43.75 65.234375 
Q 39.0625 62.890625 36.328125 60.546875 
Q 31.640625 69.53125 26.953125 75.390625 
Q 30.46875 77.734375 33.203125 80.078125 
z
" id="SimHei-20851"/>
      <path d="M 53.90625 70.703125 
Q 51.953125 63.671875 51.171875 58.59375 
L 63.28125 58.59375 
L 63.28125 66.796875 
Q 63.28125 73.4375 62.890625 79.6875 
L 71.09375 79.6875 
Q 70.703125 73.4375 70.703125 66.796875 
L 70.703125 58.59375 
L 78.515625 58.59375 
Q 83.59375 58.59375 90.625 58.984375 
L 90.625 51.5625 
Q 83.59375 51.953125 78.515625 51.953125 
L 70.703125 51.953125 
L 70.703125 31.25 
L 77.734375 31.25 
Q 83.59375 31.25 89.453125 31.640625 
L 89.453125 24.21875 
Q 83.59375 24.609375 77.734375 24.609375 
L 70.703125 24.609375 
L 70.703125 0.390625 
L 81.25 0.390625 
Q 87.890625 0.390625 94.140625 0.78125 
L 94.140625 -6.25 
Q 87.890625 -5.859375 81.25 -5.859375 
L 51.171875 -5.859375 
Q 44.140625 -5.859375 37.5 -6.25 
L 37.5 0.78125 
Q 44.140625 0.390625 50.78125 0.390625 
L 63.28125 0.390625 
L 63.28125 24.609375 
L 56.640625 24.609375 
Q 51.5625 24.609375 44.921875 24.21875 
L 44.921875 31.640625 
Q 50 31.25 56.640625 31.25 
L 63.28125 31.25 
L 63.28125 51.953125 
L 49.609375 51.953125 
Q 48.4375 46.09375 43.359375 34.765625 
Q 39.0625 37.109375 36.328125 37.5 
Q 41.796875 48.828125 43.359375 57.03125 
Q 44.921875 65.234375 46.09375 72.65625 
Q 50 71.484375 53.90625 70.703125 
z
M 26.5625 80.46875 
Q 26.171875 72.65625 26.171875 65.234375 
L 26.171875 6.640625 
Q 26.171875 -1.5625 26.5625 -9.765625 
L 18.359375 -9.765625 
Q 18.75 -1.5625 18.75 6.640625 
L 18.75 65.234375 
Q 18.75 73.4375 18.359375 80.46875 
L 26.5625 80.46875 
z
M 15.234375 58.203125 
Q 12.890625 41.796875 10.9375 33.59375 
Q 7.03125 34.375 3.90625 35.15625 
Q 6.640625 45.3125 8.203125 59.375 
Q 11.328125 58.984375 15.234375 58.203125 
z
M 33.203125 62.890625 
Q 36.328125 56.640625 39.453125 46.875 
Q 35.9375 45.703125 33.203125 44.140625 
Q 30.46875 52.734375 27.34375 60.15625 
Q 30.46875 61.71875 33.203125 62.890625 
z
" id="SimHei-24615"/>
      <path d="M 45.3125 53.125 
Q 45.703125 66.796875 45.5 71.484375 
Q 45.3125 76.171875 44.921875 80.46875 
Q 49.609375 79.6875 55.46875 79.296875 
Q 54.296875 75.390625 53.703125 67.96875 
Q 53.125 60.546875 53.125 53.125 
L 73.046875 53.125 
Q 83.59375 53.125 92.578125 53.90625 
L 92.578125 45.3125 
Q 84.765625 45.703125 76.5625 45.703125 
L 53.515625 45.703125 
Q 55.078125 39.0625 58.984375 32.21875 
Q 62.890625 25.390625 66.984375 20.109375 
Q 71.09375 14.84375 78.3125 8.984375 
Q 85.546875 3.125 94.140625 -0.78125 
Q 91.015625 -3.125 87.890625 -8.59375 
Q 80.859375 -4.6875 74.015625 1.171875 
Q 67.1875 7.03125 60.34375 16.59375 
Q 53.515625 26.171875 50 34.375 
Q 46.875 25.78125 43.359375 20.109375 
Q 39.84375 14.453125 35.734375 9.765625 
Q 31.640625 5.078125 25.1875 0.390625 
Q 18.75 -4.296875 10.546875 -8.984375 
Q 7.421875 -4.296875 3.515625 -0.78125 
Q 11.71875 1.953125 19.71875 7.03125 
Q 27.734375 12.109375 32.8125 18.546875 
Q 37.890625 25 41.015625 32.03125 
Q 44.140625 39.0625 44.921875 45.703125 
L 23.4375 45.703125 
Q 14.0625 45.703125 8.59375 45.3125 
L 8.59375 53.90625 
Q 14.0625 53.515625 23.4375 53.125 
z
" id="SimHei-22823"/>
      <path d="M 54.6875 80.46875 
Q 54.296875 75 54.296875 65.625 
L 54.296875 2.734375 
Q 54.296875 -4.6875 50.390625 -6.640625 
Q 46.484375 -8.59375 37.109375 -9.375 
Q 36.328125 -4.6875 33.59375 -0.390625 
Q 42.1875 -0.390625 44.328125 0 
Q 46.484375 0.390625 46.484375 4.6875 
L 46.484375 65.625 
Q 46.484375 72.65625 46.09375 80.46875 
L 54.6875 80.46875 
z
M 32.421875 53.125 
Q 28.90625 43.359375 24.21875 30.65625 
Q 19.53125 17.96875 16.015625 11.71875 
Q 12.109375 14.84375 7.8125 15.625 
Q 14.453125 27.34375 18.359375 38.859375 
Q 22.265625 50.390625 23.4375 55.859375 
Q 28.125 53.515625 32.421875 53.125 
z
M 73.046875 56.25 
Q 88.671875 28.125 91.796875 17.96875 
Q 87.890625 17.1875 83.984375 14.453125 
Q 78.125 31.25 66.015625 51.953125 
Q 69.140625 53.515625 73.046875 56.25 
z
" id="SimHei-23567"/>
     </defs>
     <g transform="translate(38.60625 428.0875)rotate(-90)scale(0.4 -0.4)">
      <use xlink:href="#SimHei-30456"/>
      <use x="100" xlink:href="#SimHei-20851"/>
      <use x="200" xlink:href="#SimHei-24615"/>
      <use x="300" xlink:href="#SimHei-22823"/>
      <use x="400" xlink:href="#SimHei-23567"/>
     </g>
    </g>
   </g>
   <g id="line2d_12">
    <path clip-path="url(#p170983b639)" d="M 261.424432 76.0875 
L 287.044267 552.993487 
L 312.664101 515.381586 
L 338.283936 519.848012 
L 363.903771 525.743543 
L 389.523605 552.530689 
L 415.14344 525.870213 
L 440.763275 555.897292 
L 466.38311 564.507538 
L 492.002944 543.032488 
L 517.622779 545.203605 
L 543.242614 543.467249 
L 568.862448 543.083614 
L 594.482283 521.20873 
L 620.102118 546.597823 
L 645.721952 532.675815 
L 671.341787 520.782829 
L 696.961622 515.663492 
L 722.581457 545.63591 
L 748.201291 505.477942 
L 773.821126 531.36957 
L 799.440961 511.166421 
L 825.060795 542.479551 
L 850.68063 506.897991 
L 876.300465 542.345392 
L 901.9203 530.119504 
L 927.540134 555.468307 
L 953.159969 548.562249 
L 978.779804 537.806343 
L 1004.399638 537.173349 
L 1030.019473 536.947006 
L 1055.639308 522.741215 
L 1081.259143 528.362284 
L 1106.878977 535.410365 
L 1132.498812 534.60064 
L 1158.118647 532.703371 
L 1183.738481 534.625831 
L 1209.358316 547.238422 
L 1234.978151 564.670385 
L 1260.597986 529.94873 
L 1286.21782 549.722098 
L 1311.837655 534.361674 
L 1337.45749 508.443992 
L 1363.077324 543.119626 
L 1388.697159 522.798892 
L 1414.316994 530.40397 
L 1439.936829 539.933818 
L 1465.556663 522.45326 
L 1491.176498 530.584221 
L 1516.796333 543.159865 
L 1542.416167 544.320258 
L 1568.036002 546.074682 
L 1593.655837 569.943761 
L 1619.275671 559.061836 
L 1644.895506 533.148763 
L 1670.515341 529.496397 
L 1696.135176 532.294037 
L 1721.75501 527.663004 
L 1747.374845 531.239933 
L 1772.99468 539.167881 
L 1798.614514 539.052582 
L 1824.234349 537.533232 
L 1849.854184 522.714491 
L 1875.474019 542.939031 
L 1901.093853 555.21541 
L 1926.713688 528.386697 
L 1952.333523 556.792223 
L 1977.953357 507.905892 
L 2003.573192 544.656696 
L 2029.193027 523.028548 
L 2054.812862 518.460131 
L 2080.432696 551.936382 
L 2106.052531 518.456515 
L 2131.672366 508.109152 
L 2157.2922 580.0875 
L 2182.912035 544.208436 
L 2208.53187 545.515829 
L 2234.151705 536.170084 
L 2259.771539 543.717636 
L 2285.391374 540.147108 
L 2311.011209 527.45613 
L 2336.631043 549.432504 
L 2362.250878 528.69785 
L 2387.870713 542.321992 
L 2413.490548 553.615212 
L 2439.110382 530.036625 
L 2464.730217 557.675301 
L 2490.350052 544.24708 
L 2515.969886 544.687386 
L 2541.589721 548.991503 
L 2567.209556 539.306024 
L 2592.82939 536.629896 
L 2618.449225 563.853862 
L 2644.06906 552.267743 
L 2669.688895 509.11391 
L 2695.308729 552.71435 
L 2720.928564 553.009011 
L 2746.548399 547.435164 
L 2772.168233 547.508915 
L 2797.788068 530.517571 
" style="fill:none;stroke:#1f77b4;stroke-linecap:square;stroke-width:1.5;"/>
   </g>
   <g id="patch_3">
    <path d="M 134.60625 605.2875 
L 134.60625 50.8875 
" style="fill:none;stroke:#000000;stroke-linecap:square;stroke-linejoin:miter;stroke-width:0.8;"/>
   </g>
   <g id="patch_4">
    <path d="M 2924.60625 605.2875 
L 2924.60625 50.8875 
" style="fill:none;stroke:#000000;stroke-linecap:square;stroke-linejoin:miter;stroke-width:0.8;"/>
   </g>
   <g id="patch_5">
    <path d="M 134.60625 605.2875 
L 2924.60625 605.2875 
" style="fill:none;stroke:#000000;stroke-linecap:square;stroke-linejoin:miter;stroke-width:0.8;"/>
   </g>
   <g id="patch_6">
    <path d="M 134.60625 50.8875 
L 2924.60625 50.8875 
" style="fill:none;stroke:#000000;stroke-linecap:square;stroke-linejoin:miter;stroke-width:0.8;"/>
   </g>
   <g id="text_14">
    <!-- 相关性 -->
    <g transform="translate(1457.60625 44.8875)scale(0.48 -0.48)">
     <use xlink:href="#SimHei-30456"/>
     <use x="100" xlink:href="#SimHei-20851"/>
     <use x="200" xlink:href="#SimHei-24615"/>
    </g>
   </g>
  </g>
 </g>
 <defs>
  <clipPath id="p170983b639">
   <rect height="554.4" width="2790" x="134.60625" y="50.8875"/>
  </clipPath>
 </defs>
</svg>
